<?xml version="1.0" encoding="UTF-8"?>
<svg width="120px" height="120px" viewBox="0 0 120 120" version="1.1" xmlns="http://www.w3.org/2000/svg" xmlns:xlink="http://www.w3.org/1999/xlink">
    <!-- Generator: Sketch 43.1 (39012) - http://www.bohemiancoding.com/sketch -->
    <title>img_prov_6</title>
    <desc>Created with Sketch.</desc>
    <defs></defs>
    <g id="Page-7" stroke="none" stroke-width="1" fill="none" fill-rule="evenodd">
        <g id="img_prov_6">
            <rect id="Rectangle" fill-opacity="0.01" fill="#D8D8D8" x="-7.20296754e-15" y="0" width="120" height="120"></rect>
            <g id="money" transform="translate(60.000000, 60.000000) scale(-1, 1) translate(-60.000000, -60.000000) translate(16.000000, 17.000000)" fill-rule="nonzero" fill="#FFFFFF">
                <path d="M28.6984252,38.3778075 C24.1692505,38.3778075 20.4846802,34.6932372 20.4846802,30.1640625 C20.4846802,25.6355591 24.1692505,21.9509888 28.6984252,21.9509888 C33.2269286,21.9509888 36.9114989,25.6355591 36.9114989,30.1640625 C36.9114989,34.6932372 33.2269286,38.3778075 28.6984252,38.3778075 Z" id="Shape"></path>
                <path d="M51.9008789,24.8648072 C47.3717042,24.8648072 43.6871339,21.1795653 43.6871339,16.651062 C43.6871339,12.1218872 47.3717042,8.43731694 51.9008789,8.43731694 C56.4293823,8.43731694 60.1139526,12.1218872 60.1139526,16.651062 C60.1139526,21.1795653 56.4293823,24.8648072 51.9008789,24.8648072 Z" id="Shape"></path>
                <path d="M13.741272,16.4274902 C9.21276847,16.4274902 5.52752681,12.7429199 5.52752681,8.21374503 C5.52752681,3.68457031 9.21276847,0 13.741272,0 C18.2704467,0 21.955017,3.68457031 21.955017,8.21374503 C21.955017,12.7429199 18.2704467,16.4274902 13.741272,16.4274902 Z" id="Shape"></path>
                <path d="M69.7120971,55.0161133 C69.7120971,54.8422241 69.7208253,54.6703491 69.7329102,54.4991456 L66.0718384,53.0764771 C63.8529052,50.3989869 56.6019286,47.3220215 45.5159911,50.9031982 C44.6881713,51.1710815 43.8133544,51.2556763 42.947937,51.1630249 C39.2230835,50.7648926 32.5192871,49.4402466 27.3549805,48.7722168 C24.713745,48.4311523 23.0661621,49.3449096 22.1571044,53.4309693 L22.1584473,53.4316406 C22.1383057,53.5672607 22.1262207,53.7042237 22.1262207,53.8432006 C22.1262207,55.7217408 24.053772,57.308899 26.3358153,57.308899 C26.4546509,57.308899 26.5734863,57.317627 26.690979,57.3350831 L40.5108033,59.3969116 C41.973755,59.6144409 43.0003052,61.1089478 42.8042603,62.734375 C42.6243287,64.2255249 41.4769286,65.3091431 40.1589966,65.3091431 C40.0408326,65.3091431 39.9206543,65.3004151 39.800476,65.2822876 L26.1444702,63.2453002 C20.9640502,63.1452637 16.7819824,58.9658814 16.7819824,53.8432006 C16.7819824,52.958313 16.9095458,52.1022949 17.142517,51.2899169 L7.21539311,47.0360107 C5.61212162,46.3552246 3.78460689,46.5143432 2.32702628,47.4630128 C0.870117187,48.4110107 0,50.0062255 0,51.7296752 L0,54.9671021 C0,57.5391847 0.994323687,59.9769897 2.79968253,61.8313599 L21.4555053,80.9920653 C21.4608764,80.998108 21.4662475,81.003479 21.4716186,81.0088501 C24.3310547,83.895813 28.4513549,85.2526855 32.493103,84.637024 L57.7889403,80.7872924 C59.9581909,80.7382812 62.0770874,79.9661864 63.9187012,78.5730591 L69.7120971,81.1370849 L69.7120971,55.0161133 Z" id="Shape"></path>
                <path d="M76.8717651,85.413147 C75.7706909,85.413147 74.8750611,84.5134888 74.8750611,83.4077148 L74.8750611,55.0161133 C74.8750611,53.9103393 75.7706909,53.0106811 76.8717651,53.0106811 L88,53.0106811 L88,85.413147 L76.8717651,85.413147 Z" id="Shape"></path>
            </g>
        </g>
    </g>
</svg>