<?xml version="1.0" encoding="UTF-8"?>
<svg width="400px" height="400px" viewBox="0 0 400 400" version="1.1" xmlns="http://www.w3.org/2000/svg" xmlns:xlink="http://www.w3.org/1999/xlink">
    <!-- Generator: Sketch 43.1 (39012) - http://www.bohemiancoding.com/sketch -->
    <title>img_hiw_4</title>
    <desc>Created with Sketch.</desc>
    <defs></defs>
    <g id="Page-7" stroke="none" stroke-width="1" fill="none" fill-rule="evenodd">
        <g id="img_hiw_4">
            <rect id="Rectangle-5" fill="#FFFFFF" x="0" y="0" width="400" height="400"></rect>
            <g id="Group-9" transform="translate(89.000000, 61.000000)">
                <g id="Group-7" transform="translate(167.000000, 0.000000)">
                    <ellipse id="Oval-2" stroke="#2AB1FD" stroke-width="3" stroke-dasharray="5" cx="27.5" cy="27.5" rx="27.5" ry="27.5"></ellipse>
                    <text id="4" font-family="Rubik-Medium, Rubik" font-size="40" font-weight="400" fill="#2AB1FD">
                        <tspan x="15.56" y="41">4</tspan>
                    </text>
                </g>
                <g id="Group-6" transform="translate(0.000000, 105.000000)">
                    <g id="Group" transform="translate(156.000000, 0.000000)" fill-rule="nonzero">
                        <path d="M20.7,57.4 C18.7,58.1 9.1,52.5 7.5,51.6 C7.3,51.5 7.2,51.5 7,51.4 C6.1,51.2 2.7,50.6 1.2,49.1 C-0.1,47.9 0.8,47 0.8,47 C0.7,45.8 1.8,45.6 1.8,45.6 C1.3,44.5 2.9,44.3 2.9,44.3 C2.4,43.2 3.6,43 4.1,43.1 C5.8,43.4 6.9,45.6 6.9,45.6 C6.8,45.2 6.7,43.1 7.1,42.3 C7.5,41.5 9.2,41.2 8.9,42.1 C8.1,44.5 9.3,45.1 9,47.2 C8.9,47.6 9.1,48 9.5,48.1 C11.3,48.9 16.3,50.9 20.1,50.7 C23,49.1 23.9,56.3 20.7,57.4 Z" id="Shape" fill="#E9D6B8"></path>
                        <g transform="translate(23.000000, 157.000000)" id="Shape">
                            <path d="M0.2,13.3 C0.2,13 0.3,12.7 0.3,12.4 C0.5,11 1.8,9.8 2.8,9.4 C4.6,8.8 7.2,9 10.2,8.2 C13.2,7.4 14.1,6.1 14.1,6.1 L18,5.7 C18,5.7 19.1,10.1 19.3,12.6 C19.4,13.5 19.4,14.1 19.2,14.3 C18.5,14.8 5,14.5 1.1,14.4 C0.5,14.4 0.1,13.9 0.2,13.3 Z" fill="#2AB1FD"></path>
                            <path d="M15.6,8.7 C16,8.7 16.3,8.7 16.6,8.5 C17.4,8.2 17.9,7.4 18,6.5 L18.1,4.8 L18.3,0.4 L13.2,0.2 L13.5,5.3 L13.6,6.5 C13.6,7.7 14.5,8.6 15.6,8.7 Z" fill="#E9D6B8"></path>
                        </g>
                        <g transform="translate(44.000000, 157.000000)" id="Shape">
                            <path d="M0.8,13.3 C0.8,13 0.9,12.7 0.9,12.4 C1.1,11 2.4,9.8 3.4,9.4 C5.2,8.8 7.8,9 10.8,8.2 C13.8,7.4 14.7,6.1 14.7,6.1 L18.6,5.7 C18.6,5.7 19.7,10.1 19.9,12.6 C20,13.5 20,14.1 19.8,14.3 C19.1,14.8 5.6,14.5 1.7,14.4 C1.2,14.4 0.8,13.9 0.8,13.3 Z" fill="#2AB1FD"></path>
                            <path d="M16.3,8.7 C16.7,8.7 17,8.7 17.3,8.5 C18.1,8.2 18.6,7.4 18.7,6.5 L18.8,4.8 L19,0.4 L13.9,0.2 L14.2,5.3 L14.3,6.5 C14.3,7.7 15.2,8.6 16.3,8.7 Z" fill="#E9D6B8"></path>
                        </g>
                        <path d="M60.5,81.7 C59.6,77.6 41.7,79 41.7,79 C41.7,79 41.7,79.9 41.8,81.3 C39.3,80.3 35.9,80.1 31.3,81.1 C31.3,81.1 30.1,95.5 30.1,112.7 C30.1,118.1 30.3,126.6 31,134 C32.2,147.4 35.4,159.8 35.4,159.8 L43.2,159.7 C43.2,159.7 41.8,147.5 42.4,133.9 C42.7,126.7 44.1,115.3 44.7,109.7 C45.6,115.8 48.1,127 49.5,134.4 C51.9,147.7 56.1,159.9 56.1,159.9 L63.6,159.9 C62.8,151 61.7,142 61.9,134.3 C62.6,111.2 63.9,96.4 60.5,81.7 Z" id="Shape" fill="#35353B"></path>
                        <path d="M44.2,38.2 C44.2,38.2 41.6,33.7 39.3,35.1 C37.5,36.2 28.9,46.6 25.8,50 C24.9,51 23.6,51.3 22.3,50.9 L15.5,48.7 C15.5,48.7 12.8,52.8 14.4,56.1 C15,57.2 23.5,59.7 24.5,59.9 C27.8,60.5 38.6,50.3 38.6,50.3 L44.2,38.2 Z" id="Shape" fill="#E5E9F2"></path>
                        <path d="M45.2,29.2 C45.2,29.2 54.1,29.4 56.9,37.3 C59.7,45.2 63,76.8 62.2,84.1 C62.2,84.1 40,88.4 29,83 C29,83 32.3,56.8 32.8,50.8 C33.3,44.8 37.7,30.3 45.2,29.2 Z" id="Shape" fill="#2AB1FD"></path>
                        <path d="M44.8,109.6 C44.8,109.6 43.5,102.9 43,98 C43,98 42.2,109.6 44.2,115.3 L44.8,109.6 Z" id="Shape" fill="#161052"></path>
                        <path d="M4,43.1 C4.8,43 6.2,45 6.5,45.4 C6.9,46.1 6.5,46.6 6,46.6 C6,46.6 7,48.3 5,47.9 C5,47.9 5,49.2 3.4,48.9 C3.4,48.9 2.8,49.7 2.2,49.5 C1.6,49.3 1,49 0.8,48.6 C0.6,48.3 2.4,43.4 4,43.1 Z" id="Shape" fill="#E9D6B8"></path>
                        <path d="M44.6,24.2 C44.6,24.2 43.3,28.9 42.7,30.1 C42.1,31.3 46.1,33.9 50.5,30.4 L50.9,23 L44.6,24.2 Z" id="Shape" fill="#E9D6B8"></path>
                        <path d="M36,9.9 C36,9.9 36.6,14.7 35.2,18.2 C34.5,19.9 36.6,20.2 36.6,20.2 C36.6,20.2 38.9,28.4 42,27.8 C45.1,27.2 50.5,27.5 51.5,25.7 C52.5,23.9 54.1,11.4 48.7,9.4 C43.4,7.4 36,9.9 36,9.9 Z" id="Shape" fill="#E9D6B8"></path>
                        <path d="M41.7,13.3 C40.2,13.6 38.7,13.8 37.2,13.6 C34.9,13.3 32.1,12.4 31.1,9.8 C29.3,5.1 31.7,2.2 31.7,2.2 C31.7,2.2 31.9,4.2 32.5,4.8 C32.5,4.8 32.9,1 33.7,0.6 C33.7,0.6 34.2,0.9 34.7,1.3 C36.3,2.5 38.2,3 40.1,2.9 C43.3,2.7 48.3,3.3 52.1,7.4 C58.2,13.9 53.1,24.3 50.3,26.4 L50.1,22.4 C50.1,22.4 51.7,21.4 51.8,20.3 C51.9,19.5 50.5,16.7 49,18.5 C47.5,20.3 49.1,24.3 46.9,26.2 C44.7,28.1 40.2,29.1 38.4,26.7 C36.6,24.5 36.7,20.9 36.7,20.9 C36.7,20.9 40.5,20.2 42.4,22.7 C44,24.7 47.1,20.1 46.5,17.7 C46.3,15.8 44.2,12.9 41.7,13.3 Z" id="Shape" fill="#35353B"></path>
                        <path d="M64.8,73.5 C64.6,75.6 60.9,85.4 60.1,87.1 C60,87.3 60,87.4 59.9,87.6 C59.8,88.5 59.2,91.8 57.7,93.2 C56.8,94.1 56,93.4 56,93.4 C54.7,94.3 54.2,93.1 54.2,93.1 C52.8,93.3 52.7,91.7 52.7,91.7 C51.4,92 51.4,90.3 51.4,90.3 C52.3,89.7 53.9,87.9 53.9,87.9 C53.5,88 51.4,88.3 50.6,87.9 C49.8,87.5 49.5,85.9 50.3,86.2 C52.7,86.9 53.5,85.6 55.6,85.8 C56,85.8 56.3,85.6 56.5,85.3 C57.2,83.5 59,78.2 58.7,75 C58.6,73.8 57.5,60.1 54.7,57.5 L60.5,54.1 C63.4,56.9 65.1,70 64.8,73.5 Z" id="Shape" fill="#E9D6B8"></path>
                        <path d="M49.7,89.5 C49.7,89.5 47.8,97.2 49.4,99 C51,100.8 55.5,101.7 56.6,101.3 C59.1,100.3 59.1,94.2 59.1,94.2 C59.1,94.2 53.2,92.7 49.7,89.5 Z" id="Shape" fill="#4A4A4A"></path>
                        <path d="M48,44.4 C50.6,49.2 53.2,54.1 55.2,62.7 C55.8,65.4 57.4,75.4 57.4,75.4 L66.7,73.8 C66.7,73.8 66.2,63.9 65.8,59.7 C65.1,52.1 62.6,42.2 57.4,36.4 C53.8,32.4 47.2,33.1 46,37.1 C45.2,40 47.4,43.4 48,44.4 Z" id="Shape" fill="#E5E9F2"></path>
                    </g>
                    <g id="Group" transform="translate(77.589121, 36.186794) rotate(20.000000) translate(-77.589121, -36.186794) translate(50.089121, 7.686794)" fill-rule="nonzero">
                        <path d="M0.5,18.7 C15.3,16.1 21,2.3 21.1,2.2 L21.1,2.2 L21.1,2.2 L21.1,2.2 L21.1,2.2 C21.2,2.3 34.7,8.6 47.4,0.6 C47.4,0.6 65.8,33.6 41.9,56.4 L41.9,56.4 L41.9,56.4 L41.9,56.4 L41.9,56.4 C9.1,55.5 0.5,18.7 0.5,18.7 Z" id="Shape" fill="#E5E9F2"></path>
                        <path d="M7.7,21.1 C19.1,19.1 23.5,8.5 23.5,8.4 L23.5,8.4 L23.5,8.4 L23.5,8.4 L23.5,8.4 C23.6,8.4 34,13.4 43.8,7.2 C43.8,7.2 57.9,32.6 39.6,50.1 L39.6,50.1 L39.6,50.1 L39.6,50.1 L39.6,50.1 C14.2,49.4 7.7,21.1 7.7,21.1 Z" id="Shape" fill="#F3F3F3"></path>
                        <ellipse id="Oval" fill="#FFFFFF" cx="31.5" cy="28.8" rx="9.7" ry="9.7"></ellipse>
                        <path d="M33.1,32.2 L23.8,29.1 C23,28.8 22.6,28 22.9,27.3 C23.2,26.6 24,26.1 24.7,26.4 L31.1,28.6 L34.5,16.3 C34.7,15.5 35.5,15.1 36.3,15.3 C37.1,15.5 37.5,16.3 37.3,17.1 L33.1,32.2 Z" id="Shape" fill="#7ED321"></path>
                    </g>
                    <rect id="Rectangle-2" fill="#7ED321" x="0" y="86" width="156" height="35" rx="4"></rect>
                    <text id="Loan-Approved" font-family="Montserrat-SemiBold, Montserrat" font-size="16" font-weight="500" fill="#FFFFFF">
                        <tspan x="14.92" y="108">Loan Approved</tspan>
                    </text>
                </g>
            </g>
        </g>
    </g>
</svg>