<?xml version="1.0" encoding="UTF-8"?>
<svg width="120px" height="120px" viewBox="0 0 120 120" version="1.1" xmlns="http://www.w3.org/2000/svg" xmlns:xlink="http://www.w3.org/1999/xlink">
    <!-- Generator: Sketch 43.1 (39012) - http://www.bohemiancoding.com/sketch -->
    <title>img_prov_2</title>
    <desc>Created with Sketch.</desc>
    <defs></defs>
    <g id="Page-7" stroke="none" stroke-width="1" fill="none" fill-rule="evenodd">
        <g id="img_prov_2">
            <rect id="Rectangle" fill-opacity="0.01" fill="#D8D8D8" x="-7.20296754e-15" y="0" width="120" height="120"></rect>
            <g id="discount" transform="translate(60.500000, 60.000000) scale(1, -1) translate(-60.500000, -60.000000) translate(22.000000, 16.000000)" fill-rule="nonzero" fill="#FFFFFF">
                <path d="M49.6381926,43.3605333 C47.4988148,43.3605333 45.7580444,45.1013037 45.7580444,47.2406815 C45.7580444,49.3803852 47.4988148,51.1211556 49.6381926,51.1211556 C51.7778963,51.1211556 53.5186667,49.3803852 53.5186667,47.2406815 C53.5186667,45.1013037 51.7778963,43.3605333 49.6381926,43.3605333 Z" id="Shape"></path>
                <path d="M27.0639111,28.0120296 C24.9245333,28.0120296 23.183763,29.7528 23.183763,31.8925037 C23.183763,34.0318815 24.9245333,35.7726519 27.0639111,35.7726519 C29.2036148,35.7726519 30.9443852,34.0318815 30.9443852,31.8925037 C30.9443852,29.7528 29.2039407,28.0120296 27.0639111,28.0120296 Z" id="Shape"></path>
                <path d="M76.4364741,53.1682963 C75.9071704,51.7765926 74.5731556,50.8568296 73.0843259,50.8568296 L66.2164148,50.8568296 L66.2164148,6.93896296 C66.2164148,3.10672593 63.1096889,0 59.2774519,0 L17.4249778,0 C13.5927407,0 10.4860148,3.10672593 10.4860148,6.93896296 L10.4860148,50.8568296 L3.61777778,50.8568296 C2.12894815,50.8568296 0.794933333,51.7765926 0.265955556,53.1682963 C-0.263348148,54.56 0.122222222,56.1338963 1.23460741,57.1230815 L33.7398519,86.0297778 C36.3694222,88.3682963 40.3330074,88.3682963 42.9625778,86.0297778 L75.4681481,57.1230815 C76.5802074,56.1338963 76.9657778,54.5596741 76.4364741,53.1682963 Z M18.2948741,31.8928296 C18.2948741,27.0573926 22.2284741,23.1234667 27.0639111,23.1234667 C31.8993481,23.1234667 35.8332741,27.0573926 35.8332741,31.8928296 C35.8332741,36.7282667 31.8993481,40.6618667 27.0639111,40.6618667 C22.2284741,40.6618667 18.2948741,36.7279407 18.2948741,31.8928296 Z M32.0564444,57.2400889 C31.6252444,58.0884741 30.7661037,58.577363 29.8756741,58.577363 C29.5028148,58.577363 29.1247407,58.4916444 28.7694815,58.3114074 C27.566163,57.6996444 27.0867259,56.227763 27.6984889,55.0244444 L44.5433185,21.8937481 C45.1554074,20.6907556 46.626963,20.2113185 47.8302815,20.8227556 C49.0336,21.4345185 49.513037,22.9064 48.9012741,24.1097185 L32.0564444,57.2400889 Z M49.6381926,56.0103704 C44.8027556,56.0103704 40.8691556,52.0764444 40.8691556,47.2410074 C40.8691556,42.4055704 44.8027556,38.4719704 49.6381926,38.4719704 C54.4736296,38.4719704 58.4075556,42.4055704 58.4075556,47.2410074 C58.4075556,52.0761185 54.4736296,56.0103704 49.6381926,56.0103704 Z" id="Shape"></path>
            </g>
        </g>
    </g>
</svg>