<?xml version="1.0" encoding="UTF-8"?>
<svg width="120px" height="120px" viewBox="0 0 120 120" version="1.1" xmlns="http://www.w3.org/2000/svg" xmlns:xlink="http://www.w3.org/1999/xlink">
    <!-- Generator: Sketch 43.1 (39012) - http://www.bohemiancoding.com/sketch -->
    <title>img_prov_4</title>
    <desc>Created with Sketch.</desc>
    <defs></defs>
    <g id="Page-7" stroke="none" stroke-width="1" fill="none" fill-rule="evenodd">
        <g id="img_prov_4">
            <rect id="Rectangle" fill-opacity="0.01" fill="#D8D8D8" x="-7.20296754e-15" y="0" width="120" height="120"></rect>
            <g id="multiple-users-silhouette" transform="translate(20.000000, 26.000000)" fill-rule="nonzero" fill="#FFFFFF">
                <path d="M48.7615856,11.6713182 C52.4977385,14.0138508 55.1175834,17.977904 55.5945605,22.5792713 C57.1182655,23.2912076 58.8093663,23.7006214 60.6023164,23.7006214 C67.1478949,23.7006214 72.4531313,18.395385 72.4531313,11.8508149 C72.4531313,5.30523631 67.1478949,0 60.6023164,0 C54.1192591,0.00201681669 48.8604096,5.21246274 48.7615856,11.6713182 Z M40.9978497,35.9356398 C47.5434283,35.9356398 52.8486646,30.6293951 52.8486646,24.0848249 C52.8486646,17.5402548 47.5424199,12.2350185 40.9978497,12.2350185 C34.4532796,12.2350185 29.145018,17.5412632 29.145018,24.0858333 C29.145018,30.6304035 34.4532796,35.9356398 40.9978497,35.9356398 Z M46.0247653,36.7433749 L35.9689173,36.7433749 C27.6021532,36.7433749 20.7953969,43.5511396 20.7953969,51.9179037 L20.7953969,64.2154435 L20.8266576,64.4080495 L21.6737206,64.6732609 C29.6582979,67.1680631 36.5951389,68 42.3047469,68 C53.4567348,68 59.9206323,64.8204885 60.3189536,64.6177984 L61.1105542,64.2174603 L61.1952605,64.2174603 L61.1952605,51.9179037 C61.1982857,43.5511396 54.3915294,36.7433749 46.0247653,36.7433749 Z M65.6312488,24.5093649 L55.6530482,24.5093649 C55.5451485,28.5016535 53.8409384,32.0966292 51.1454629,34.6821882 C58.5824745,36.8936277 64.0238459,43.7901324 64.0238459,51.936055 L64.0238459,55.7256536 C73.8759954,55.3646434 79.5533344,52.5723607 79.9274539,52.3847968 L80.7190545,51.9834502 L80.8037608,51.9834502 L80.8037608,39.6818768 C80.8037608,31.3161212 73.9970044,24.5093649 65.6312488,24.5093649 Z M20.2034612,23.7026382 C22.521792,23.7026382 24.6787775,23.0259962 26.5060134,21.8733854 C27.0868566,18.0847953 29.117791,14.7741907 32.0189818,12.5193896 C32.0310827,12.2975398 32.0522593,12.0777068 32.0522593,11.8538401 C32.0522593,5.30826153 26.7460146,0.00302522504 20.2034612,0.00302522504 C13.6568742,0.00302522504 8.35264633,5.30826153 8.35264633,11.8538401 C8.35264633,18.3963935 13.6568742,23.7026382 20.2034612,23.7026382 Z M30.8462029,34.6821882 C28.1638367,32.1097386 26.465677,28.5339226 26.3416428,24.5658357 C25.971557,24.5386087 25.6055047,24.5093649 25.22836,24.5093649 L15.1735204,24.5093649 C6.80675634,24.5093649 0,31.3161212 0,39.6818768 L0,51.9814334 L0.0312606587,52.1710142 L0.878323669,52.4382424 C7.28373348,54.4379162 13.0004004,55.3596014 17.9658031,55.650023 L17.9658031,51.936055 C17.9678199,43.7901324 23.4071745,36.8956446 30.8462029,34.6821882 Z" id="Shape"></path>
            </g>
        </g>
    </g>
</svg>