<?xml version="1.0" encoding="UTF-8"?>
<svg width="120px" height="120px" viewBox="0 0 120 120" version="1.1" xmlns="http://www.w3.org/2000/svg" xmlns:xlink="http://www.w3.org/1999/xlink">
    <!-- Generator: Sketch 43.1 (39012) - http://www.bohemiancoding.com/sketch -->
    <title>img_prov_1</title>
    <desc>Created with Sketch.</desc>
    <defs></defs>
    <g id="Page-7" stroke="none" stroke-width="1" fill="none" fill-rule="evenodd">
        <g id="img_prov_1">
            <rect id="Rectangle" fill-opacity="0.01" fill="#D8D8D8" x="-7.20296754e-15" y="0" width="120" height="120"></rect>
            <g id="wallet-filled-money-tool" transform="translate(20.000000, 22.000000)" fill-rule="nonzero" fill="#FFFFFF">
                <path d="M18.6074465,14.6248628 L50.3500871,5.96046316 L48.6690683,2.56265938 C47.5692529,0.35408692 44.8867762,-0.557955147 42.6782038,0.541860287 L14.2618343,14.6248628 L18.6074465,14.6248628 Z" id="Shape"></path>
                <path d="M60.203718,6.21082764 C59.8103775,6.21082764 59.4168582,6.26447718 59.0234283,6.37177624 L51.5662326,8.41045851 L28.7919162,14.6248628 L54.6420497,14.6248628 L65.9084517,14.6248628 L64.5135639,9.51027395 C63.9770685,7.51629962 62.1708676,6.21082764 60.203718,6.21082764 Z" id="Shape"></path>
                <path d="M70.5670195,17.7544189 L69.5476784,17.7544189 L68.1617321,17.7544189 L66.7757858,17.7544189 L56.1978862,17.7544189 L17.3287993,17.7544189 L12.2320936,17.7544189 L7.94013094,17.7544189 L7.14432952,17.7544189 L4.47973603,17.7544189 C3.06696499,17.7544189 1.80620096,18.4071549 0.983574778,19.4354376 C0.608028045,19.9093418 0.3218972,20.4547787 0.1609486,21.0538652 C0.0625911222,21.4294119 0,21.8228418 0,22.2252133 L0,22.7617087 L0,27.8584144 L0,72.0388051 C0,74.506773 2.00291591,76.5095995 4.47079445,76.5095995 L70.5580779,76.5095995 C73.0260459,76.5095995 75.0288724,74.506773 75.0288724,72.0388051 L75.0288724,59.5652886 L48.4991782,59.5652886 C44.305573,59.5652886 40.8988276,56.1585432 40.8988276,51.964938 L40.8988276,47.8696903 L40.8988276,46.483744 L40.8988276,45.0977977 L40.8988276,42.0218912 C40.8988276,39.9653257 41.7213644,38.096623 43.0537505,36.7285599 C44.2340402,35.5124144 45.8167015,34.6897883 47.5871361,34.4841317 C47.8822085,34.4484548 48.1862225,34.4304822 48.4902366,34.4304822 L71.3091714,34.4304822 L72.6951177,34.4304822 L74.081064,34.4304822 L75.0288724,34.4304822 L75.0288724,22.2252133 C75.037814,19.7573348 73.0348981,17.7544189 70.5670195,17.7544189 Z" id="Shape"></path>
                <path d="M78.1673701,38.7045617 C77.7202906,38.2932486 77.1927369,37.980293 76.602592,37.7746364 C76.1464816,37.6227188 75.6637252,37.5333029 75.1540546,37.5333029 L75.037814,37.5333029 L74.9483981,37.5333029 L73.5624518,37.5333029 L68.5641036,37.5333029 L48.4991782,37.5333029 C46.0312102,37.5333029 44.0283837,39.5361294 44.0283837,42.0040974 L44.0283837,44.2304636 L44.0283837,45.6164099 L44.0283837,47.0023562 L44.0283837,51.9559964 C44.0283837,54.423875 46.0312102,56.4267909 48.4991782,56.4267909 L75.037814,56.4267909 L75.1540546,56.4267909 C75.6637252,56.4267909 76.146571,56.337375 76.602592,56.185368 C77.1927369,55.988653 77.7202906,55.6667558 78.1673701,55.2554427 C79.061529,54.4417581 79.6248491,53.2614684 79.6248491,51.9560858 L79.6248491,42.0040974 C79.6248491,40.698536 79.061529,39.5181569 78.1673701,38.7045617 Z M57.834197,47.8696903 C57.834197,49.1036296 56.832739,50.1050875 55.5987997,50.1050875 L54.114496,50.1050875 C52.8805567,50.1050875 51.8790988,49.1036296 51.8790988,47.8696903 L51.8790988,46.3853865 C51.8790988,45.6700594 52.2099375,45.0351172 52.7374913,44.6327457 C53.1219796,44.3376733 53.5959732,44.1499893 54.114496,44.1499893 L54.4900427,44.1499893 L55.5987997,44.1499893 C56.832739,44.1499893 57.834197,45.1513579 57.834197,46.3853865 L57.834197,47.8696903 L57.834197,47.8696903 Z" id="Shape"></path>
            </g>
        </g>
    </g>
</svg>