<?xml version="1.0" encoding="UTF-8"?>
<svg width="120px" height="120px" viewBox="0 0 120 120" version="1.1" xmlns="http://www.w3.org/2000/svg" xmlns:xlink="http://www.w3.org/1999/xlink">
    <!-- Generator: Sketch 43.1 (39012) - http://www.bohemiancoding.com/sketch -->
    <title>img_prov_3</title>
    <desc>Created with Sketch.</desc>
    <defs></defs>
    <g id="Page-7" stroke="none" stroke-width="1" fill="none" fill-rule="evenodd">
        <g id="img_prov_3">
            <rect id="Rectangle" fill-opacity="0.01" fill="#D8D8D8" x="-7.20296754e-15" y="0" width="120" height="120"></rect>
            <g id="statistics" transform="translate(16.000000, 16.000000)" fill-rule="nonzero" fill="#FFFFFF">
                <path d="M13.0625,41.25 C15.142456,41.25 17.0250245,40.4154663 18.4161378,39.0753784 L26.0477905,42.8908691 C26.0095215,43.2017212 25.953125,43.5072021 25.953125,43.828125 C25.953125,48.0927734 29.4228516,51.5625 33.6875,51.5625 C37.9521484,51.5625 41.421875,48.0927734 41.421875,43.828125 C41.421875,42.6377564 41.1291504,41.5232544 40.6464233,40.5148315 L50.9992065,30.1620483 C52.0076294,30.6447754 53.1221314,30.9375 54.3125,30.9375 C58.5771484,30.9375 62.046875,27.4677734 62.046875,23.203125 C62.046875,22.4001465 61.8890991,21.6408081 61.6608276,20.9123535 L70.6560669,14.1676026 C71.8833619,14.9873658 73.35437,15.46875 74.9375,15.46875 C79.2021484,15.46875 82.671875,11.9990234 82.671875,7.734375 C82.671875,3.46972656 79.2021484,0 74.9375,0 C70.6728516,0 67.203125,3.46972656 67.203125,7.734375 C67.203125,8.53735352 67.3609009,9.29669194 67.5891724,10.0251465 L58.5939331,16.7698974 C57.3666381,15.9501342 55.89563,15.46875 54.3125,15.46875 C50.0478516,15.46875 46.578125,18.9384766 46.578125,23.203125 C46.578125,24.3934936 46.8708496,25.5079956 47.3535767,26.5164185 L37.0007935,36.8692017 C35.9923706,36.3864746 34.8778686,36.09375 33.6875,36.09375 C31.607544,36.09375 29.7249755,36.9282837 28.3338622,38.2683716 L20.7022095,34.4528809 C20.7404785,34.1420288 20.796875,33.8365479 20.796875,33.515625 C20.796875,29.2509766 17.3271484,25.78125 13.0625,25.78125 C8.79785156,25.78125 5.328125,29.2509766 5.328125,33.515625 C5.328125,37.7802734 8.79785156,41.25 13.0625,41.25 L13.0625,41.25 Z" id="Shape"></path>
                <path d="M85.421875,82.84375 L82.671875,82.84375 L82.671875,28.359375 C82.671875,26.9346925 81.5184325,25.78125 80.09375,25.78125 L69.78125,25.78125 C68.3565675,25.78125 67.203125,26.9346925 67.203125,28.359375 L67.203125,82.84375 L62.046875,82.84375 L62.046875,43.828125 C62.046875,42.4034425 60.8934325,41.25 59.46875,41.25 L49.15625,41.25 C47.7315675,41.25 46.578125,42.4034425 46.578125,43.828125 L46.578125,82.84375 L41.421875,82.84375 L41.421875,64.453125 C41.421875,63.0284425 40.2684325,61.875 38.84375,61.875 L28.53125,61.875 C27.1065675,61.875 25.953125,63.0284425 25.953125,64.453125 L25.953125,82.84375 L20.796875,82.84375 L20.796875,54.140625 C20.796875,52.7159425 19.6434325,51.5625 18.21875,51.5625 L7.90625,51.5625 C6.48156747,51.5625 5.328125,52.7159425 5.328125,54.140625 L5.328125,82.84375 L2.578125,82.84375 C1.15344247,82.84375 0,83.9971925 0,85.421875 C0,86.8465575 1.15344247,88 2.578125,88 L85.421875,88 C86.8465575,88 88,86.8465575 88,85.421875 C88,83.9971925 86.8465575,82.84375 85.421875,82.84375 Z" id="Shape"></path>
            </g>
        </g>
    </g>
</svg>