<?xml version="1.0" encoding="UTF-8"?>
<svg width="1002px" height="665px" viewBox="0 0 1002 665" version="1.1" xmlns="http://www.w3.org/2000/svg" xmlns:xlink="http://www.w3.org/1999/xlink">
    <!-- Generator: Sketch 43.1 (39012) - http://www.bohemiancoding.com/sketch -->
    <title>Group 6</title>
    <desc>Created with Sketch.</desc>
    <defs>
        <polygon id="path-1" points="0.104379449 204.648047 0.104379449 0.498683266 255.073009 0.498683266 255.073009 204.648047"></polygon>
        <polygon id="path-3" points="208.949236 0.590019386 208.949236 219.99082 0.392957924 219.99082 0.392957924 0.590019386 208.949236 0.590019386"></polygon>
    </defs>
    <g id="Website" stroke="none" stroke-width="1" fill="none" fill-rule="evenodd">
        <g id="main" transform="translate(-438.000000, -359.000000)">
            <g id="Group-6" transform="translate(438.000000, 359.000000)">
                <path d="M1002,0.890227577 L1002,665 L0,665 C0,665 37.1226667,590.036145 87,566 C136.877333,541.963855 158.211505,561.634349 231,506 C303.788495,450.365651 342.106667,483.498012 400,450 C457.893333,416.501988 400,397 474.641065,327.044156 C549.282131,257.088312 602.778169,314.566822 679.578667,267.068273 C756.379165,219.569724 715.037399,170.923407 786.78286,133.994857 C858.528321,97.0663073 837.253257,49.9095391 879.088,24.0361446 C920.922743,-1.83724992 1002,0.890227577 1002,0.890227577 Z" id="Triangle" fill-opacity="0.417657382" fill="#E5E9F2"></path>
                <g id="Group" transform="translate(118.000000, 34.000000)">
                    <path d="M883.538888,481.722691 C727.909744,400.749671 535.753319,509.499247 482.218942,511.757704 C413.678484,514.642145 393.63149,520.404891 357.58988,539.718374 C315.119725,562.474775 296.927001,526.756799 231.186368,533.587401 C168.601679,540.0866 316.341578,580.388997 100.546278,591.736512 C46.7601621,594.559582 37.2984721,619.463972 0.458666667,630.878995 L883.538888,630.878995 L883.538888,481.722691" id="Fill-574" fill="#A5E064"></path>
                    <path d="M386.14687,236.383872 C386.14687,236.383872 390.776405,237.015995 388.197619,261.840602 C385.612692,286.677483 376.224682,322.567298 376.224682,322.567298 L377.317596,264.761866 C377.317596,264.761866 378.705229,242.680547 386.14687,236.383872" id="Fill-575" fill="#E9D6B8"></path>
                    <path d="M379.566766,303.112084 C378.664191,314.956705 383.674404,320.406458 384.994497,325.217952 C386.31459,330.029445 388.518839,334.914584 388.475859,334.896173 C384.061222,331.925812 384.227001,328.096256 382.870069,326.083284 C381.525416,324.064175 382.243792,324.610378 381.635935,328.802024 C381.285957,331.189359 384.816438,335.669449 386.707548,338.860746 C388.35306,341.610171 388.37762,343.26719 388.37762,343.26719 C388.37762,343.26719 384.718199,339.940877 381.893814,335.798328 C378.479992,330.821133 375.747706,324.77608 375.360888,323.352271 C374.654792,320.768548 375.01091,312.839402 376.122244,307.236222 C377.374798,300.927273 380.211463,294.581502 379.566766,303.112084" id="Fill-576" fill="#E9D6B8"></path>
                    <polyline id="Fill-577" fill="#E9D6B8" points="388.203759 534.033673 386.754726 566.554215 366.277934 568.174412 357.190782 567.057458 375.248427 561.374495 377.262336 534.31598 388.203759 534.033673"></polyline>
                    <path d="M385.177066,571.200007 L380.71945,571.776895 L379.951954,570.524925 L363.005643,570.764272 L354.808786,568.616284 C354.808786,568.616284 354.471088,567.167926 355.238584,566.738329 C357.547212,565.41885 366.327366,564.71922 366.327366,564.71922 C366.327366,564.71922 365.154632,566.351691 366.087907,567.069732 C367.002762,567.793911 378.288022,567.388862 381.075568,566.934716 C385.889302,566.130755 387.418154,564.700808 387.571653,565.093583 C387.946191,566.130755 385.177066,571.200007 385.177066,571.200007" id="Fill-578" fill="#2AB1FD"></path>
                    <path d="M381.842752,298.28391 L379.079767,421.339088 L370.698711,542.098988 L389.155454,543.547346 C389.155454,543.547346 406.396483,421.879154 408.447232,411.354012 C410.485701,400.822732 432.343986,316.400657 422.157779,294.853266 C411.971573,273.312012 381.842752,298.28391 381.842752,298.28391" id="Fill-579" fill="#35353B"></path>
                    <path d="M454.172679,229.744299 C464.481684,242.178083 469.682237,293.324751 469.682237,293.324751 C469.682237,293.324751 466.292975,312.90213 447.332755,247.228923 C441.641005,227.510391 451.630732,226.675744 454.172679,229.744299" id="Fill-580" fill="#E9D6B8"></path>
                    <path d="M465.358591,337.689136 L469.662708,332.957424 L472.002036,328.293221 L472.646733,319.848559 C472.646733,319.848559 472.223075,310.827008 470.847722,307.482284 C469.46009,304.137559 469.767088,290.764798 469.263611,289.120053 C468.760133,287.481444 460.342238,285.480747 460.342238,285.480747 C460.342238,285.480747 464.038498,299.326065 465.045453,304.947657 C466.040128,310.563112 464.695475,319.069146 465.008613,321.284642 C465.54279,325.071239 466.985683,328.0416 466.985683,328.0416 C466.985683,328.0416 467.219001,322.045644 467.096202,320.468407 C466.973403,318.89117 468.796973,319.584663 468.796973,319.584663 C468.796973,319.584663 469.35571,327.863624 468.588214,330.066846 C467.832998,332.263931 466.377826,333.970047 466.377826,333.970047 L465.358591,337.689136" id="Fill-581" fill="#E9D6B8"></path>
                    <path d="M399.028522,201.058546 L392.403497,270.401744 L392.403497,274.446099 L372.540701,273.286185 C372.540701,273.286185 378.293851,219.758318 379.159586,217.174595 C380.025322,214.584735 382.039231,192.135189 381.750653,188.109246 C381.462074,184.071028 382.32781,163.935172 395.57172,165.948144 C408.80949,167.967253 399.028522,201.058546 399.028522,201.058546" id="Fill-582" fill="#BFE990"></path>
                    <path d="M442.207851,201.061888 L448.826736,270.405086 L448.826736,274.449441 L468.695671,273.289527 C459.743598,232.717098 457.729689,224.652936 457.45953,217.177937 C457.37357,214.446923 456.888513,192.138531 457.177092,188.112587 C457.45953,184.07437 457.729689,173.150315 445.658512,165.951486 C434.152213,159.090198 442.207851,201.061888 442.207851,201.061888" id="Fill-583" fill="#BFE990"></path>
                    <path d="M420.432448,530.271625 L420.721027,572.003968 L437.992756,565.952779 C437.992756,565.952779 445.299317,560.668727 438.99971,561.356084 C429.783619,562.356433 431.656309,558.471642 431.367731,550.990506 C431.085292,543.50937 432.515905,529.123986 432.515905,529.123986 L420.432448,530.271625" id="Fill-584" fill="#E9D6B8"></path>
                    <path d="M440.444639,561.650665 C440.444639,561.650665 438.48599,563.485661 436.410681,564.805139 C434.396771,566.100069 428.594502,568.966099 426.341134,569.414108 C423.455349,569.984859 420.723063,569.708689 420.723063,569.708689 C420.723063,569.708689 419.42753,574.01694 422.307175,573.734633 C425.18068,573.440052 439.585044,567.112692 441.598953,565.676609 C443.606723,564.240525 443.907581,561.932972 440.444639,561.650665" id="Fill-585" fill="#2AB1FD"></path>
                    <path d="M424.650606,300.746047 L422.458638,413.60135 L420.432448,533.262707 L435.014871,532.495569 C435.014871,532.495569 449.732374,412.048662 450.972647,401.400777 C452.212921,390.752892 469.859187,319.91224 458.05817,299.21177 C446.251012,278.505163 424.650606,300.746047 424.650606,300.746047" id="Fill-586" fill="#35353B"></path>
                    <path d="M421.212224,160.897428 C421.212224,160.897428 398.561884,162.431705 393.189412,164.733121 C387.810801,167.040674 388.965115,193.516164 392.409636,213.087406 C395.872578,232.646373 394.337586,254.525167 389.345793,266.805523 C384.353999,279.079742 380.522659,302.486677 380.522659,302.486677 L459.98612,301.339037 C459.98612,301.339037 441.940755,252.610389 441.940755,233.806286 C441.940755,215.002184 446.926409,172.024007 446.539591,167.807813 C446.165053,163.585482 426.204018,160.897428 421.212224,160.897428" id="Fill-587" fill="#98DC4D"></path>
                    <path d="M387.620462,153.16467 L387.546782,153.054202 C392.495596,147.107343 395.326121,140.430169 395.326121,130.641479 C395.326121,126.492793 394.976143,124.989202 394.810364,118.821407 L394.834924,118.802995 C394.785804,118.21997 394.705984,117.649219 394.705984,117.053919 L394.705984,109.597331 C394.705984,98.6119059 403.615077,89.7069603 414.599479,89.7069603 L419.585133,89.7069603 C430.575675,89.7069603 439.484768,98.6119059 439.484768,109.597331 L439.484768,124.289571 L439.552307,124.307982 C439.533888,124.774403 439.503188,125.234686 439.484768,125.688832 L439.484768,126.492793 C439.644407,138.226946 445.501936,148.574113 454.460149,155.091723 C460.790455,158.123455 465.162112,164.561282 465.162112,172.042419 C465.162112,181.481293 458.199389,189.275421 449.118377,190.625585 C445.379137,201.224373 435.119251,208.846663 423.011235,208.846663 C412.55487,208.846663 403.455438,203.157563 398.764503,194.768134 C388.768636,190.699231 381.750653,181.051695 381.750653,169.802374 C381.750653,163.524111 383.948761,157.755228 387.620462,153.16467" id="Fill-588" fill="#35353B"></path>
                    <g id="Group-1099" transform="translate(469.552189, 0.718876)">
                        <path d="M190.259175,72.0373889 C190.259175,72.0373889 179.79667,70.1962561 173.435664,74.4983697 C167.080798,78.8066204 174.25842,80.0340423 171.182296,83.1087341 C168.106172,86.1834258 170.562159,90.4916765 166.460661,92.541471 C162.359162,94.5912655 166.049283,96.0273491 169.745543,95.8186874 C173.435664,95.6161628 170.770918,97.874619 169.131547,101.563022 C167.486035,105.251424 172.410289,107.712405 171.796293,111.400808 C171.182296,115.095348 174.669797,121.244731 180.613286,119.599986 C186.562915,117.961378 221.229172,125.755507 217.127673,92.9526574 C215.629521,80.9607458 199.690165,60.3523328 190.259175,72.0373889" id="Fill-1046" fill="#35353B"></path>
                        <path d="M170.973537,121.655918 C170.973537,121.655918 167.283416,125.34432 167.486035,130.468806 C167.694794,135.593293 163.384537,146.253452 162.77054,150.561702 C162.156544,154.869953 167.897413,165.732636 169.745543,161.221861 C171.587534,156.711086 183.898169,123.49705 170.973537,121.655918" id="Fill-1048" fill="#E2C59C"></path>
                        <path d="M165.644045,167.782431 C165.644045,167.782431 160.92241,165.935161 158.055045,163.069131 C155.18154,160.196964 150.466045,156.508561 149.64329,154.250105 C148.820534,151.997786 147.795159,150.359178 149.029293,149.73933 C150.257286,149.125619 151.902798,149.125619 154.567544,150.561702 C157.23229,151.997786 159.694417,150.972889 160.92241,150.561702 C162.156544,150.150516 163.795915,150.972889 163.384537,152.814021 C162.973159,154.661291 163.795915,157.533458 164.821289,157.735983 C165.846664,157.944645 171.384915,158.349694 165.644045,167.782431" id="Fill-1049" fill="#F7E19A"></path>
                        <path d="M249.534422,124.521948 C249.534422,124.521948 253.844679,136.415665 254.047298,139.901543 C254.249917,143.387422 252.199168,146.050927 250.762416,142.767574 C249.331803,139.490357 241.331425,129.241385 243.382175,126.571742 C245.432924,123.908237 249.534422,124.521948 249.534422,124.521948" id="Fill-1050" fill="#E2C59C"></path>
                        <path d="M233.945044,111.811994 C233.945044,111.811994 247.072295,118.78375 249.123044,122.060967 C251.173793,125.34432 250.762416,130.266282 247.483673,134.568395 C244.19879,138.876646 237.635165,128.419012 231.482917,128.621537 C225.33067,128.830198 187.797048,125.755507 182.258797,132.518601 C176.720547,139.281695 175.897791,147.898197 173.644423,142.976235 C171.384915,138.054274 172.612908,124.521948 170.562159,123.294526 C168.51141,122.060967 171.998912,118.170039 174.872416,117.145142 C177.745921,116.120245 179.182674,112.836891 191.898546,110.173386 C204.614419,107.509881 231.691676,109.559675 233.945044,111.811994" id="Fill-1051" fill="#D4D9DF"></path>
                        <path d="M218.816164,573.107814 C218.816164,573.107814 219.282802,575.875651 219.123163,576.642789 C218.969663,577.416065 219.123163,579.10377 219.123163,579.10377 L200.973419,578.796915 C200.973419,578.796915 200.205923,576.489362 200.973419,574.494801 C201.740914,572.494103 218.509166,572.03382 218.816164,573.107814" id="Fill-1052" fill="#E2C59C"></path>
                        <path d="M185.58666,538.973212 C185.58666,538.973212 187.127792,544.20203 184.819164,545.889735 C182.510536,547.583577 174.049661,548.970563 171.434035,548.663708 C168.818408,548.350715 161.131169,538.206074 160.204034,535.745093 C159.283039,533.284112 158.208544,525.440886 159.743536,524.060037 C161.284668,522.67305 162.666161,522.67305 164.360792,523.133333 C166.049283,523.593617 184.205167,536.358804 185.58666,538.973212" id="Fill-1053" fill="#E9D6B8"></path>
                        <path d="M133.439915,284.23408 C133.439915,284.23408 136.927417,286.08135 135.902042,297.152695 C135.478384,301.681882 136.516039,307.199143 136.516039,308.635226 C136.516039,310.065173 134.876668,310.887546 134.053912,309.046413 C133.231156,307.199143 133.593414,299.558442 130.977788,300.018725 C128.448122,300.466734 122.363414,305.351873 122.566033,303.093417 C122.774792,300.841098 133.231156,281.570574 133.439915,284.23408" id="Fill-1054" fill="#E2C59C"></path>
                        <path d="M209.950051,291.617022 L207.487924,408.479858 L201.740914,428.98394 L200.924299,557.323169 L200.101543,564.294925 C200.101543,564.294925 203.386426,562.245131 209.127295,563.883739 C214.868165,565.522347 220.615175,567.167093 220.615175,567.167093 L222.665924,474.085556 C222.665924,474.085556 227.590178,416.679036 230.046165,407.657485 C232.508292,398.635934 241.945422,296.95017 239.071917,279.723305 C236.204552,262.502576 211.178045,287.517433 209.950051,291.617022" id="Fill-1055" fill="#35353B"></path>
                        <path d="M234.970419,281.36805 C234.970419,281.36805 219.516121,295.78412 209.950051,298.177592 C206.665168,298.999965 191.898546,399.458307 191.898546,399.458307 L186.157677,516.321142 C186.157677,516.321142 187.38567,527.392487 185.746299,526.158928 C184.100788,524.931506 187.680389,534.315146 187.797048,536.002852 C188.202286,542.152235 171.986632,545.005991 169.334166,541.329862 C163.998534,533.953057 167.283416,526.570115 167.694794,507.299591 C168.106172,488.029068 169.334166,408.891044 169.334166,412.579447 C169.334166,416.267849 169.745543,401.508101 170.156921,398.635934 C170.562159,395.769904 172.20767,324.008685 176.309169,302.688367 C180.410667,281.36805 177.94854,267.424537 182.050038,265.785929 C186.157677,264.147321 234.559041,279.729442 234.970419,281.36805" id="Fill-1056" fill="#35353B"></path>
                        <path d="M233.742425,160.405626 C233.742425,160.405626 239.280676,203.457447 246.04692,209.606831 C252.813165,215.756214 257.123422,207.759561 259.585549,204.071158 C262.047676,200.382756 265.1238,188.697699 254.047298,156.711086 C242.970797,124.730609 233.742425,158.558356 233.742425,160.405626" id="Fill-1057" fill="#E9D6B8"></path>
                        <path d="M245.635543,155.89485 C245.635543,155.89485 248.920425,171.88202 248.509047,183.775738 C248.294149,190.047864 247.637172,205.396774 244.094411,206.802172 C240.189391,199.204431 236.886089,181.093821 235.123918,169.875185 C236.824689,160.166278 234.651141,150.782638 245.635543,155.89485" id="Fill-1058" fill="#E2C59C"></path>
                        <path d="M189.847797,182.542179 C189.847797,182.542179 177.125784,214.528792 173.435664,226.213849 C169.745543,237.898905 165.508966,248.282894 154.972781,258.814173 C142.668286,271.11294 128.72442,293.255631 122.566033,296.944033 C116.413785,300.638573 142.662146,253.505574 143.90242,245.895558 C145.130413,238.310091 149.231912,232.866475 156.618293,218.628381 C162.359162,207.557036 168.51141,165.32145 168.51141,165.32145 L189.847797,182.542179" id="Fill-1059" fill="#E9D6B8"></path>
                        <path d="M165.693165,182.505356 C166.000163,180.786966 166.288742,179.136083 166.55276,177.583395 C169.831503,175.840455 174.22158,174.079105 178.310798,173.232184 L189.39958,182.186227 C189.38116,182.744703 189.34432,183.321592 189.30134,183.916891 C187.49619,188.476764 181.577261,203.506544 177.260864,215.265246 C176.738967,209.711162 175.824111,203.009438 174.25842,197.71925 C171.501574,188.415392 170.175341,183.757326 165.693165,182.505356" id="Fill-1060" fill="#E2C59C"></path>
                        <path d="M234.970419,171.470834 C234.970419,171.470834 242.3568,162.246758 253.433301,163.480317 C264.509803,164.707739 256.509425,159.785778 253.433301,150.561702 C250.357178,141.337627 242.970797,119.808648 229.432168,121.036069 C215.89354,122.269628 234.970419,171.470834 234.970419,171.470834" id="Fill-1061" fill="#6AC8FE"></path>
                        <path d="M185.126162,124.116898 C185.126162,124.116898 174.049661,130.879993 167.897413,153.636394 C161.745166,176.392795 162.359162,172.704393 162.359162,172.704393 C162.359162,172.704393 180.208048,185.00316 186.360296,188.077851 C192.512543,191.152543 186.360296,128.419012 185.126162,124.116898" id="Fill-1062" fill="#6AC8FE"></path>
                        <path d="M234.356422,121.655918 C234.356422,121.655918 237.432546,141.337627 240.50867,184.389449 C243.584793,227.44127 238.660539,286.492536 238.660539,286.492536 C238.660539,286.492536 225.742048,282.797996 215.89354,283.417844 C206.051172,284.031555 188.202286,290.79465 181.436042,284.031555 C174.669797,277.262324 177.125784,249.583961 179.587911,228.674829 C182.050038,207.759561 183.284172,134.568395 180.822045,127.805301 C178.359918,121.036069 217.127673,114.886686 234.356422,121.655918" id="Fill-1063" fill="#2AB1FD"></path>
                        <path d="M118.053156,308.942082 L121.749417,316.472315 L124.518542,317.086026 L131.591785,312.170201 C131.591785,312.170201 131.745284,310.169504 128.976159,310.476359 C126.207033,310.783215 124.051905,312.170201 124.051905,312.170201 L121.282779,305.707825 L118.053156,308.942082" id="Fill-1064" fill="#E2C59C"></path>
                        <path d="M122.97741,316.012032 L125.900035,318.933296 L135.441545,318.473013 C135.441545,318.473013 135.128406,316.472315 133.286416,316.012032 C131.438286,315.551749 122.97741,316.012032 122.97741,316.012032" id="Fill-1065" fill="#E2C59C"></path>
                        <path d="M123.388788,289.567228 C123.388788,289.567228 119.618848,302.203536 118.875912,304.326976 C118.157536,306.37677 114.977033,308.530896 114.363036,310.685021 C113.749039,312.833009 114.363036,320.627138 114.056038,322.161415 C113.749039,323.70183 116.825163,321.382002 116.825163,312.630485 C116.825163,311.298732 119.440789,309.709221 124.97904,303.559837 C130.517291,297.410453 131.284787,292.64192 130.977788,287.106247 C130.67079,281.570574 123.388788,289.567228 123.388788,289.567228" id="Fill-1066" fill="#E9D6B8"></path>
                        <path d="M171.434035,548.663708 C166.073843,548.092957 161.131169,538.206074 160.204034,535.745093 C159.761956,534.566768 159.289179,532.154884 159.08042,529.804371 C160.560152,535.297084 165.932624,545.595153 171.434035,546.19659 C182.664035,547.430149 184.819164,543.434891 186.034877,541.360548 C186.194517,542.974608 186.090137,544.963031 184.819164,545.889735 C182.510536,547.583577 177.279284,549.277419 171.434035,548.663708" id="Fill-1067" fill="#E2C59C"></path>
                        <path d="M219.123163,565.884437 C219.123163,565.884437 219.743299,570.339978 219.5898,572.03382 C219.436301,573.721525 219.282802,575.568795 213.124414,575.26194 C206.972167,574.955084 203.589045,575.108512 201.587415,575.26194 C199.585786,575.415367 198.971789,564.804305 201.587415,560.962475 C204.203041,557.114507 218.969663,564.804305 219.123163,565.884437" id="Fill-1068" fill="#E9D6B8"></path>
                        <path d="M182.664035,17.3005111 C182.664035,17.3005111 181.436042,30.2129891 183.284172,34.1100535 C185.126162,38.0071179 187.797048,41.0818096 187.38567,42.7204178 C186.974292,44.359026 189.847797,44.1565014 189.847797,44.359026 C189.847797,44.5676877 192.512543,46.8200068 195.386048,48.0535658 C198.253413,49.2809876 206.46255,53.178052 208.924677,49.692174 C211.380664,46.2062959 220.406416,54.8166602 218.355667,48.2560904 C216.304918,41.6955205 218.564426,42.7204178 218.355667,36.159848 C218.153048,29.5992781 215.690921,-1.56496287 182.664035,17.3005111" id="Fill-1069" fill="#E9D6B8"></path>
                        <path d="M219.792419,7.04540147 C219.792419,7.04540147 213.228794,-3.61475737 199.487546,2.12957693 C186.587474,7.51182178 188.386485,11.7648385 182.442996,12.9922604 C176.493368,14.2258193 184.076228,9.00927644 183.468371,9.09519597 C170.746358,10.9424659 178.132739,15.8644275 178.132739,15.8644275 C175.670612,14.6308686 174.031241,12.5810741 173.828622,15.8644275 C173.644423,18.8163771 179.557212,17.404842 176.493368,19.5528302 C172.391869,22.4249974 179.999289,22.4249974 182.461416,21.4001001 C184.923543,20.3752029 187.176911,18.3254084 191.689788,21.8112864 C196.202664,25.2971645 199.076169,27.346959 198.664791,29.1880918 C198.253413,31.0353617 202.311931,29.6054152 201.329537,25.4996891 C200.69712,22.8361837 205.848553,21.6026247 207.279165,25.2971645 C208.715918,28.9855672 208.900117,30.0104644 207.874742,32.4714453 C206.849367,34.9324261 212.817416,33.9075288 213.026175,35.546137 C213.228794,37.1847452 215.89354,42.7204178 220.203797,40.259437 C224.507914,37.7984561 219.792419,38.4183042 221.640549,36.159848 C223.48254,33.9013917 234.264323,24.5607114 224.507914,11.5561768 C222.051927,8.27896044 219.792419,7.04540147 219.792419,7.04540147" id="Fill-1070" fill="#35353B"></path>
                        <path d="M239.483295,76.9593505 C239.483295,76.9593505 237.635165,86.3920875 234.356422,87.2083231 C231.077679,88.0306957 229.640927,80.4452286 232.305673,78.8066204 C234.970419,77.1618752 239.071917,75.9344533 239.483295,76.9593505" id="Fill-1071" fill="#E9D6B8"></path>
                        <path d="M185.53754,73.4734725 C185.53754,73.4734725 181.638661,80.4452286 177.745921,80.242704 C173.847042,80.0340423 173.233045,78.1867724 171.587534,79.622856 C169.948162,81.0589396 170.35954,82.6975477 170.35954,82.6975477 L169.948162,86.3920875 L171.998912,88.441882 C171.998912,88.441882 173.644423,88.2332203 173.233045,87.2083231 C172.821667,86.1834258 173.233045,87.4169848 175.695172,89.055593 C178.157299,90.6942011 182.872794,93.9775546 190.873172,84.5448176 C198.87355,75.1120806 187.176911,72.4485752 185.53754,73.4734725" id="Fill-1072" fill="#E9D6B8"></path>
                        <path d="M226.558663,49.4896493 C226.558663,49.4896493 232.305673,51.7419685 234.7678,56.6639301 C237.229927,61.5858918 239.894673,75.3207424 240.50867,76.7568259 C241.122666,78.1867724 237.843924,83.1087341 232.103054,80.242704 C226.356044,77.3705369 226.558663,49.4896493 226.558663,49.4896493" id="Fill-1073" fill="#BFE990"></path>
                        <path d="M198.462172,50.3058849 C198.462172,50.3058849 193.537918,50.7170712 189.639038,60.1498082 C185.746299,69.5764081 186.771674,72.4485752 185.334921,71.8348643 C183.898169,71.2211534 184.309547,73.4734725 184.100788,75.1120806 C183.898169,76.7568259 184.641105,79.0827904 186.562915,83.3173958 C187.588289,85.5697149 188.503144,86.6007492 189.639038,88.6444066 C190.664413,90.4916765 191.002111,89.5956586 194.360673,89.2581176 C196.411423,89.055593 200.924299,56.6639301 198.462172,50.3058849" id="Fill-1074" fill="#BFE990"></path>
                        <path d="M224.919292,47.2311931 C224.919292,47.2311931 225.649948,47.7589845 226.675323,48.740922 C228.578713,50.5697806 231.513617,53.9758762 232.717051,58.5050629 C234.559041,65.4768191 234.970419,106.073797 234.970419,108.534778 C234.970419,110.995759 242.154181,113.861789 233.122289,114.886686 C224.102676,115.91772 217.330292,120.63102 203.589045,116.93648 C189.847797,113.248078 186.562915,111.60947 186.974292,110.787097 C187.38567,109.964724 188.613664,108.939827 189.436419,108.939827 C190.259175,108.939827 188.613664,108.737302 189.025042,106.890033 C189.436419,105.0489 190.259175,104.637713 191.898546,104.840238 C193.537918,105.0489 192.923921,103.20163 192.923921,100.949311 C192.923921,98.6908546 197.228038,71.8348643 196.614042,61.37723 C196.000045,50.9195958 196.000045,49.692174 200.512921,49.2809876 C205.025797,48.8698013 202.56367,46.6174822 202.56367,46.6174822 L220.615175,45.3839232 C220.615175,45.3839232 226.767422,44.1565014 224.919292,47.2311931" id="Fill-1075" fill="#98DC4D"></path>
                        <path d="M256.306806,158.349694 C256.306806,158.349694 259.174171,146.462113 259.585549,144.817368 C259.996927,143.17876 256.920803,138.870509 256.509425,137.851749 C256.098047,136.826852 255.484051,134.777057 254.249917,133.746023 C253.021924,132.727263 253.224543,134.157209 252.407927,136.207004 C251.585171,138.256798 249.9458,139.692882 248.306429,138.667984 C246.660917,137.643087 251.585171,154.458767 256.306806,158.349694" id="Fill-1076" fill="#E9D6B8"></path>
                        <path d="M45.3313806,387.177951 C45.3313806,387.177951 41.9666783,376.935116 42.0464979,375.222862 C42.1263175,373.510609 36.6433265,367.490105 33.9294608,361.144334 C31.2155951,354.792425 35.1820142,352.920607 38.7370554,350.293924 C42.2920966,347.667242 38.1967383,347.912726 39.952769,347.133313 C41.7087997,346.3539 44.9200027,346.501191 47.7505278,345.556076 C50.5871928,344.617098 59.7910042,340.130871 68.534318,342.74528 C76.1601577,345.022147 79.5371399,352.699671 76.5039959,362.647925 C73.4769919,372.590042 70.3271885,372.982817 66.1397307,375.370153 C63.1557064,377.063995 60.9084783,384.244413 61.2400365,386.404675 C61.5654548,388.564938 45.3313806,387.177951 45.3313806,387.177951" id="Fill-1077" fill="#E2C59C"></path>
                        <path d="M73.1331537,353.620238 C81.796648,343.95429 67.6317428,338.050391 72.7340558,335.534176 C76.5715356,333.643947 62.2654111,324.223484 64.0951215,333.91398 C64.5126393,336.123339 65.6792331,329.30501 58.6673901,328.390581 C53.00634,327.641854 54.4246725,331.845774 54.9649897,332.827711 C56.5061215,335.613959 51.1766297,328.261702 49.1013207,330.575392 C47.6584283,332.189452 48.4811839,336.608171 51.0292705,339.124385 C52.4844428,340.566606 33.7759616,333.926254 55.278128,354.890619 C56.0947437,355.688443 61.7864937,366.281094 73.1331537,353.620238" id="Fill-1078" fill="#35353B"></path>
                        <path d="M4.0892184,328.666751 C4.0892184,328.666751 3.22348297,328.237153 1.92180985,328.243291 C0.620136725,328.243291 0.17805906,327.377958 0.17805906,325.641156 C0.171919092,323.904354 2.26564803,321.222438 3.57346113,323.388837 C4.88127422,325.555237 4.0892184,328.666751 4.0892184,328.666751" id="Fill-1079" fill="#DABE96"></path>
                        <path d="M20.636431,353.853448 C20.636431,353.853448 15.15344,341.978141 12.7649926,337.375309 C10.3765452,332.76634 9.80552821,329.691648 9.79938824,327.175434 C9.79324827,324.659219 7.41708082,325.358849 5.87594896,324.389186 C4.3348171,323.413386 2.2349482,322.437585 2.2349482,322.437585 C2.2349482,322.437585 3.64100077,324.9538 3.78222002,326.488077 C3.92957924,328.028492 2.2533681,330.268537 3.65942067,332.220137 C5.05933328,334.177875 7.58899992,337.804907 9.14241171,343.53083 C10.6958235,349.26289 17.8120459,374.995789 21.5267263,373.320358 C33.8066614,367.79696 20.636431,353.853448 20.636431,353.853448" id="Fill-1080" fill="#E2C59C"></path>
                        <path d="M32.0690506,497.019933 C32.0690506,497.019933 31.3261145,508.441094 32.0690506,513.33237 C32.8119867,518.229783 34.7399365,534.836801 35.3355134,538.249034 C35.9249503,541.655129 45.2761209,541.360548 44.0849672,537.058434 C42.8999534,532.762458 44.680544,525.49612 45.4234801,519.561536 C46.1664162,513.626951 47.0567115,501.469338 45.2761209,496.130052 C43.4955303,490.790767 32.0690506,497.019933 32.0690506,497.019933" id="Fill-1081" fill="#E9D6B8"></path>
                        <path d="M54.8237704,495.240172 L68.1229402,494.94559 C68.1229402,494.94559 68.2764394,498.357823 67.1712452,504.13898 C66.0660511,509.920137 62.2654111,523.41564 62.105772,528.460344 C61.9461328,533.498911 66.0660511,538.543615 62.105772,537.058434 C58.1516329,535.579391 54.8237704,538.985487 55.3026879,537.205725 C55.7754654,535.4321 55.6158262,521.789306 54.6702712,515.56014 C53.7185763,509.330975 53.5589371,497.909814 54.8237704,495.240172" id="Fill-1082" fill="#E9D6B8"></path>
                        <polyline id="Fill-1083" fill="#35353B" points="25.9843428 460.442762 26.5799196 492.07956 25.5913848 498.996082 48.1434857 499.591382 50.3170342 477.645079 51.7046669 468.942658 61.1970568 461.823611 25.9843428 460.442762"></polyline>
                        <polyline id="Fill-1084" fill="#727276" points="25.5913848 495.436559 48.3399647 496.430771 48.1434857 499.591382 25.7878638 499.78777 25.5913848 495.436559"></polyline>
                        <path d="M59.0050883,461.737692 L25.9843428,460.442762 L25.9966227,461.001239 C26.9974374,464.303004 29.152566,470.427839 31.7252124,471.710495 C35.2802537,473.490256 38.055519,471.710495 40.4255465,478.037854 C42.8017139,484.365214 43.1946719,491.680648 45.5708393,486.543888 C47.6215885,482.100621 47.0260116,476.485166 51.2810091,471.593889 L51.7046669,468.942658 L58.2560123,464.032971 C58.6428303,463.241284 58.882289,462.474145 59.0050883,461.737692" id="Fill-1085" fill="#49494F"></path>
                        <path d="M35.4460328,466.045943 C41.3158418,466.929686 45.8778377,466.045943 49.795137,469.188143 C50.5749129,469.814128 51.2196095,470.464661 51.7967664,471.078372 L52.0116653,469.630015 L58.6428303,464.321415 C59.0357882,463.468357 59.2752469,462.63371 59.3980463,461.842023 L25.9843428,460.442762 L26.0027627,460.718932 C27.6544139,462.363677 31.2033152,465.407683 35.4460328,466.045943" id="Fill-1086" fill="#5D5D62"></path>
                        <path d="M70.4929677,461.823611 L72.4761772,495.043784 L51.305569,495.043784 L49.5249784,474.877243 C49.5249784,474.877243 54.6702712,462.026136 55.4623271,462.026136 C56.2543829,462.026136 70.4929677,461.823611 70.4929677,461.823611" id="Fill-1087" fill="#35353B"></path>
                        <polyline id="Fill-1088" fill="#727276" points="50.9126111 493.264022 72.8691351 493.662935 72.6726562 496.228246 51.1090901 496.430771 50.9126111 493.264022"></polyline>
                        <path d="M60.208522,469.734345 C62.9101077,468.740134 68.0615405,466.929686 70.7447063,465.990709 L70.4929677,461.823611 C70.4929677,461.823611 56.2543829,462.026136 55.4623271,462.026136 C54.6702712,462.026136 49.5249784,474.877243 49.5249784,474.877243 L49.6539177,476.301052 C50.746832,482.358379 52.6932017,488.79007 52.6932017,488.127262 C52.6932017,487.335575 54.4737923,481.40099 55.4623271,479.228453 C56.4508618,477.04978 57.0464387,475.66893 54.2773133,476.061705 C51.502048,476.460617 56.4508618,471.121332 60.208522,469.734345" id="Fill-1089" fill="#49494F"></path>
                        <path d="M114.608635,312.93734 C114.608635,312.93734 109.266863,318.276625 108.677426,320.449162 C108.081849,322.627836 99.970952,340.818228 99.774473,342.00269 C99.5718541,343.187152 95.224757,348.722824 93.6406454,351.693185 C92.0565338,354.657409 86.1253251,360.193082 80.5870744,363.948992 C75.0488236,367.704903 79.5923996,373.835876 79.5923996,373.835876 C79.5923996,373.835876 98.7859382,361.181156 102.740077,355.645484 C106.694216,350.109811 111.250072,330.734957 111.64303,328.752671 C112.035988,326.776521 115.007733,328.752671 115.793648,326.187359 C116.585704,323.61591 117.776858,318.6694 117.776858,318.6694 C117.776858,318.6694 115.793648,313.53264 114.608635,312.93734" id="Fill-1090" fill="#E2C59C"></path>
                        <path d="M61.9891126,375.020338 C61.9891126,375.020338 81.5756091,361.377544 82.361525,359.800307 C83.1535808,358.216932 88.8944505,368.300203 89.8829853,372.252501 C90.87152,376.210937 92.0565338,381.550222 89.2874084,382.931072 C86.518283,384.318058 70.2964887,393.014342 67.5273633,398.15724 C64.758238,403.300137 61.9891126,375.020338 61.9891126,375.020338" id="Fill-1091" fill="#E5E9F2"></path>
                        <path d="M44.3858256,377.788174 C44.3858256,377.788174 61.3935357,373.835876 63.5732242,373.246713 C65.7467727,372.651413 71.2850235,389.454819 71.0885445,403.300137 C70.8920656,417.139319 68.914996,424.454753 72.4761772,436.317785 C76.0373584,448.180818 74.0541489,462.222524 74.0541489,462.222524 C74.0541489,462.222524 54.0746944,467.162897 39.0440538,465.186747 C24.0072732,463.210598 24.2037522,464.198673 23.0187384,464.198673 C21.8337247,464.198673 31.1296356,434.734411 29.349045,412.591721 C28.4587497,401.520376 28.3359503,392.253341 28.9008274,385.938255 C29.4657044,379.62317 36.4161477,377.763625 38.7493353,377.837271 C41.6780999,377.929327 44.3858256,377.788174 44.3858256,377.788174" id="Fill-1092" fill="#2AB1FD"></path>
                        <path d="M28.8946874,397.255085 C32.9900458,404.760769 43.0166128,389.276843 41.1746225,383.139733 C38.5896962,374.529369 28.016672,360.193082 28.016672,360.193082 C28.016672,360.193082 24.0932327,359.646879 22.1407231,361.04614 C20.1882134,362.451538 16.0068955,369.45398 13.4895088,370.577071 C10.978262,371.700162 25.2107068,390.504264 28.8946874,397.255085" id="Fill-1093" fill="#E5E9F2"></path>
                        <path d="M35.4828726,534.68951 C35.4828726,534.68951 42.2552568,530.227832 44.4103854,533.302523 C46.5593741,536.377215 47.1795108,540.37861 47.1795108,540.37861 C47.1795108,540.37861 43.7902487,548.375264 42.5622552,549.29583 C41.3281217,550.216397 31.6392529,551.603383 31.6392529,551.603383 C31.6392529,551.603383 26.2545013,544.834152 27.642134,543.146447 C29.0236267,541.452605 30.5647586,541.299177 31.3322545,541.299177 C32.0997505,541.299177 34.5618775,535.456649 35.4828726,534.68951" id="Fill-1094" fill="#E5E9F2"></path>
                        <path d="M38.7186355,540.685466 C37.7915004,542.532736 32.560248,550.062969 31.6392529,549.909541 C30.9331566,549.792936 27.9491324,545.141007 27.9675523,542.790494 C27.8570329,542.907099 27.7465134,543.01143 27.642134,543.146447 C26.2545013,544.834152 31.6392529,551.603383 31.6392529,551.603383 C31.6392529,551.603383 41.3281217,550.216397 42.5622552,549.29583 C43.7902487,548.375264 47.1795108,540.37861 47.1795108,540.37861 C45.1778814,534.229227 39.6396306,538.838196 38.7186355,540.685466" id="Fill-1095" fill="#A0A1B9"></path>
                        <path d="M55.0202494,537.457346 C55.0202494,537.457346 57.6358756,533.609379 59.7910042,533.922371 C62.1978715,534.259912 63.6346239,534.68951 64.2547606,537.150491 C64.8687574,539.605335 64.2547606,542.219743 64.2547606,542.219743 L54.4062526,542.373171 C54.4062526,542.373171 52.0976248,537.764202 52.7177616,535.916932 C53.3317583,534.075799 54.8667502,533.455951 55.0202494,533.922371 C55.1737486,534.382655 55.0202494,537.457346 55.0202494,537.457346" id="Fill-1096" fill="#A0A1B9"></path>
                        <path d="M59.7910042,533.922371 C58.3603918,533.71371 55.480747,536.530643 55.7938853,538.838196 C55.9719444,540.18836 56.8929395,541.299177 58.2560123,541.299177 L64.4082598,541.299177 C64.5371991,540.323376 64.6415786,538.709317 64.2547606,537.150491 C63.6346239,534.68951 62.1978715,534.259912 59.7910042,533.922371" id="Fill-1097" fill="#E5E9F2"></path>
                        <path d="M51.8336062,359.425943 C51.8336062,359.425943 57.8814743,358.628119 57.5192162,361.83169 C57.1569581,365.035261 51.9932454,365.225511 51.9195658,366.937765 C51.8397462,368.656155 47.8487673,376.456421 56.7148804,377.726803 C60.8163788,378.309828 63.3399055,381.243366 64.9669969,379.432919 C67.398424,376.720317 69.1912945,374.148868 71.6472816,371.749258 C81.41597,362.206053 78.9661229,351.797516 78.002148,349.391769 C77.0381731,346.992159 71.2359037,348.299364 67.5212234,349.631116 C63.812683,350.962869 51.8336062,359.425943 51.8336062,359.425943" id="Fill-1098" fill="#35353B"></path>
                    </g>
                    <g id="Group-1045" transform="translate(99.312145, 425.406839)">
                        <mask id="mask-2" fill="white">
                            <use xlink:href="#path-1"></use>
                        </mask>
                        <g id="Clip-981"></g>
                        <path d="M82.2387256,190.716808 C82.4106447,190.765905 78.0881076,182.32738 72.9673746,180.032101 C69.5412727,178.479412 63.812683,178.381219 63.8188229,178.387356 C63.8249629,178.387356 65.2494354,181.118369 67.963301,183.063833 C70.7385664,185.052257 80.1204368,188.88795 82.2387256,190.716808" id="Fill-980" fill="#65A91A" mask="url(#mask-2)"></path>
                        <path d="M82.7851827,188.912498 C82.7851827,188.912498 87.285779,187.04068 91.4241171,185.758024 C95.5747352,184.475368 98.4666599,183.634584 101.843642,182.996325 C105.220624,182.37034 106.356518,182.32738 106.362658,182.32738 C106.393358,182.321243 100.756868,186.457655 95.5378954,187.789407 C90.3619027,189.108886 84.1973753,189.446427 82.7851827,188.912498" id="Fill-982" fill="#65A91A" mask="url(#mask-2)"></path>
                        <path d="M85.5604481,180.259174 C85.6955274,180.314408 78.6468446,172.225698 74.594466,170.347743 C69.9280907,168.181343 61.8478933,167.285325 60.2269419,166.941647 C60.2330819,166.941647 65.3476748,170.593227 69.9219507,173.600411 C74.4900866,176.607594 82.0483866,180.56603 85.5604481,180.259174" id="Fill-983" fill="#65A91A" mask="url(#mask-2)"></path>
                        <path d="M86.524423,179.357019 C86.518283,179.363156 87.6111973,178.657389 90.2943631,177.110837 C93.0082288,175.552011 100.43145,171.366503 103.495293,170.274097 C106.589837,169.157143 113.012243,168.119972 115.241051,167.825391 C116.100647,167.702649 110.623796,170.967591 106.958235,172.863957 C104.20753,174.293904 100.106031,176.454166 97.122007,177.221305 C95.7343744,177.57112 89.2198688,178.614429 86.8805411,180.56603 C84.5227936,182.511493 86.5367029,179.357019 86.524423,179.357019" id="Fill-984" fill="#65A91A" mask="url(#mask-2)"></path>
                        <path d="M86.9296609,173.631096 C87.0217604,173.661782 82.5211641,166.512049 79.0520825,164.118577 C75.8899992,161.90308 71.6350016,159.595527 67.0914256,158.2515 C62.5478496,156.925885 58.5261709,155.710737 58.5261709,155.710737 C58.5445908,155.723011 62.8916878,160.104907 66.5818083,162.559751 C70.3087686,165.033006 73.458572,167.579906 77.817949,169.396491 C82.1896059,171.219212 86.9419408,173.637233 86.9296609,173.631096" id="Fill-985" fill="#65A91A" mask="url(#mask-2)"></path>
                        <path d="M87.7278566,171.213075 C88.4339529,169.893597 89.3058283,168.660038 92.5722911,166.898687 C95.8755936,165.112788 102.875157,160.430174 107.418733,159.141381 C111.993008,157.821903 118.544354,155.89485 118.826792,155.723011 C119.158351,155.520487 111.575491,161.976726 106.221439,164.364061 C101.806802,166.321799 96.8702684,167.899036 93.9660637,168.844151 C91.0495791,169.795403 88.2743138,171.133293 87.2182393,172.593925 C87.2182393,172.593925 87.4576981,171.722455 87.7278566,171.213075" id="Fill-986" fill="#65A91A" mask="url(#mask-2)"></path>
                        <path d="M87.2919189,163.320753 C87.2919189,163.314615 85.8306067,160.233787 80.9554724,156.441053 C76.0864781,152.648319 71.4201028,149.217675 68.8290365,147.800003 C66.2441101,146.400742 60.1225624,144.541198 59.3305066,144.105463 C58.5630107,143.675866 63.1557064,148.966054 64.758238,150.371452 C66.4037493,151.795261 69.8973908,154.262379 74.6313058,156.391956 C79.4020606,158.552219 85.8613065,162.191524 87.2919189,163.320753" id="Fill-987" fill="#65A91A" mask="url(#mask-2)"></path>
                        <path d="M87.5559375,162.651808 C88.9312903,161.283232 92.6582506,159.08001 94.8072392,157.723709 C96.943948,156.385819 99.3569552,155.888713 106.657377,150.48192 C113.079783,145.744072 116.327826,141.024634 116.327826,141.018497 C116.321686,141.024634 114.989313,141.5647 110.236978,143.117389 C105.490783,144.66394 100.33935,149.604313 95.5624553,153.458418 C90.8285403,157.306385 88.1883542,160.835223 88.1883542,160.835223 C87.9857353,161.442797 87.7708364,162.044234 87.5559375,162.651808" id="Fill-988" fill="#65A91A" mask="url(#mask-2)"></path>
                        <path d="M88.1392345,154.305339 C88.2006341,154.336025 80.9002127,146.560307 76.5899555,142.914864 C72.3779377,139.306244 69.2833941,136.243826 63.4934046,135.268026 C57.6727154,134.286088 54.725531,133.120038 54.719391,133.120038 C54.7316709,133.132312 60.4234209,137.821063 65.1511959,140.86507 C69.9158107,143.945898 76.1294579,147.971842 78.4012459,149.033562 C80.7221536,150.138242 87.1445597,154.759485 88.1392345,154.305339" id="Fill-989" fill="#65A91A" mask="url(#mask-2)"></path>
                        <path d="M86.4753033,148.923094 C87.6480371,146.934671 89.0786495,145.154909 92.6459707,141.865418 C96.0290928,138.747767 99.9832319,135.286437 102.426939,134.02833 C104.870646,132.7334 112.809624,128.817924 113.018383,128.756553 C113.233282,128.658359 109.518602,134.930485 106.0311,137.465111 C102.574298,139.987463 99.7621931,142.503678 94.3713016,144.762134 C88.98655,147.02059 86.8252814,149.450886 86.3095241,151.445446 C85.7937669,153.446144 86.2112847,149.395652 86.4753033,148.923094" id="Fill-990" fill="#65A91A" mask="url(#mask-2)"></path>
                        <path d="M84.823652,143.1358 C84.8420719,143.1358 81.3300104,139.355341 77.9898681,138.121782 C74.6988455,136.925045 66.839687,131.874205 64.4143998,129.959426 C62.0566522,128.118294 51.6739671,120.557375 51.0108506,119.759551 C50.3845739,119.004686 55.4254873,121.723426 59.4901458,122.864928 C63.5670843,124.024842 69.3693536,127.78689 73.452432,131.027283 C77.5907702,134.3045 84.0991358,140.521392 84.7622523,141.503329 C85.4622086,142.503678 84.823652,143.129663 84.823652,143.1358" id="Fill-991" fill="#65A91A" mask="url(#mask-2)"></path>
                        <path d="M84.4245541,138.502283 C84.4306941,138.496145 87.2243793,134.905937 89.9014052,132.058318 C92.578431,129.186151 97.8465232,125.325909 99.0990766,124.104624 C100.33321,122.828105 107.97133,118.759202 108.038869,118.476895 C108.094129,118.163902 105.681122,123.767083 101.610323,127.848261 C97.5395248,131.929438 94.0827231,134.022193 90.496982,135.986068 C86.9235209,137.949943 85.0446908,139.76039 84.7990921,141.006223 C84.5657733,142.258193 84.436834,138.502283 84.4245541,138.502283" id="Fill-992" fill="#65A91A" mask="url(#mask-2)"></path>
                        <path d="M80.464275,127.23455 C80.4888349,127.259098 72.9857945,120.434633 69.0684952,117.691345 C65.1880357,114.98488 60.9268982,111.456042 57.2858974,109.578086 C53.6448967,107.712405 48.1005059,104.785004 48.1005059,104.778867 C48.1005059,104.791141 53.7922559,110.940525 58.1147931,114.463225 C62.4496102,118.004338 67.214225,121.790934 72.3533778,124.699924 C77.4925307,127.608914 81.8212078,129.222973 81.8212078,129.222973 C81.3729902,128.560165 80.9186326,127.897358 80.464275,127.23455" id="Fill-993" fill="#65A91A" mask="url(#mask-2)"></path>
                        <path d="M81.5387693,126.430589 C81.5510493,126.412177 86.2358445,120.005035 89.0479497,117.21265 C91.8539148,114.358895 97.0114876,110.400459 99.5165944,109.228271 C102.003281,108.037672 104.05403,106.650685 104.05403,106.650685 C104.023331,106.601588 97.7175839,116.212302 93.5853857,119.066057 C89.4286277,121.809345 82.3308251,127.4248 81.9992669,130.364476 C81.6799886,133.273465 81.5633292,126.430589 81.5387693,126.430589" id="Fill-994" fill="#65A91A" mask="url(#mask-2)"></path>
                        <path d="M76.8478341,115.893172 C76.872394,115.91772 68.8904361,108.074495 66.1151708,105.55828 C63.3644653,103.085025 57.7279751,99.3966221 54.4430924,98.1201034 C51.1582098,96.8681331 43.5016702,93.4006663 42.2491168,92.1609703 C40.9965635,90.9396855 46.2216759,97.5186667 51.0538303,100.820431 C55.8737049,104.140608 62.8057283,108.448858 68.2457395,111.818131 C73.6857508,115.193541 76.2768171,116.249124 77.9775881,119.164251 C79.6783592,122.079378 76.860114,115.899309 76.8478341,115.893172" id="Fill-995" fill="#65A91A" mask="url(#mask-2)"></path>
                        <path d="M77.4004312,114.714847 C77.4004312,114.70871 79.702919,110.596847 82.0852264,108.135866 C84.4613939,105.656474 88.5567523,102.937734 90.4294424,101.452554 C92.2714326,99.9305506 99.8972724,96.2666964 100.155151,95.7634534 C100.35777,95.2111136 96.2010119,103.121847 91.3197377,106.687508 C86.3954837,110.210209 82.5027442,112.03293 80.844953,113.628579 C79.1933017,115.224227 77.805669,117.181965 77.805669,117.181965 C77.6767297,116.359592 77.5416504,115.53722 77.4004312,114.714847" id="Fill-996" fill="#65A91A" mask="url(#mask-2)"></path>
                        <path d="M71.7700809,102.913186 C71.7700809,102.919323 65.126636,96.3219304 59.7480244,92.541471 C54.3632729,88.7855602 46.4672746,85.8888446 43.6121897,84.7043825 C40.7571047,83.5260575 39.1054535,83.2253391 39.1054535,83.2253391 C39.0993135,83.2253391 43.4279906,87.2451457 48.4996038,90.9826453 C53.577357,94.7324191 60.5032404,97.8623448 63.6530438,99.1940975 C66.8028472,100.544262 72.0463795,103.993317 72.8015955,105.134819 C73.5690914,106.288596 71.7700809,102.913186 71.7700809,102.913186" id="Fill-997" fill="#65A91A" mask="url(#mask-2)"></path>
                        <path d="M73.0410542,103.4778 C73.0349142,103.471663 75.7733398,97.7702882 79.1503219,95.0208632 C82.5088842,92.2407527 85.4867685,89.4974648 87.476118,88.4664305 C89.4470476,87.4169848 94.1932425,84.1520426 94.2055224,84.1643169 C94.1871025,84.1643169 92.1363534,89.3624484 88.4032531,93.0569882 C85.5481682,95.7573163 76.3382168,101.501651 74.1094086,104.373818 C72.3042581,106.644548 73.0410542,103.4778 73.0410542,103.4778" id="Fill-998" fill="#65A91A" mask="url(#mask-2)"></path>
                        <path d="M67.8650616,92.8053667 C67.8466416,92.8115039 62.296111,85.0541977 55.3518076,80.5127368 C50.4029938,77.3091658 43.7718288,74.289708 40.0817083,73.0438748 C35.4153329,71.4605006 32.8119867,69.8648522 32.8119867,69.8648522 C32.8058467,69.8709893 36.5942067,74.3019822 39.8115497,76.5604384 C43.0166128,78.8434431 48.5794234,82.4397891 53.2703586,85.0910204 C57.9674338,87.7545258 67.0852857,91.8234293 68.6386975,94.5544429 C70.1859693,97.2915936 67.8589216,92.8115039 67.8650616,92.8053667" id="Fill-999" fill="#65A91A" mask="url(#mask-2)"></path>
                        <path d="M67.4843836,91.3140492 C67.4843836,91.3140492 69.0562153,88.7855602 70.6771667,86.47187 C72.2674183,84.1459055 75.6873802,79.457154 78.6407046,77.7326263 C81.5019295,75.9405904 89.4838874,71.368444 89.7724658,70.9572577 C89.9566649,70.4969745 86.1560249,77.8615056 83.2149805,80.97302 C80.1572766,84.0170262 73.4892718,88.4602934 70.5298075,90.798532 C67.5642031,93.1244964 66.9870462,92.2223414 67.4843836,91.3140492" id="Fill-1000" fill="#65A91A" mask="url(#mask-2)"></path>
                        <path d="M63.5916441,81.3166981 C63.5609443,81.3412466 55.278128,71.7243963 50.7038522,68.226244 C46.0743166,64.7710515 40.5790457,61.432464 35.4153329,58.9223863 C30.2577602,56.4061715 28.7350482,55.9336141 28.7350482,55.9397512 C28.6982084,55.9581625 36.4222876,64.292357 40.6220254,67.2320323 C44.7665036,70.1962561 48.9048417,73.2832221 53.5527971,75.75034 C58.2007526,78.2235951 63.1372865,81.1448591 64.4819394,83.9802036 C65.8265923,86.8278223 63.5793642,81.3166981 63.5916441,81.3166981" id="Fill-1001" fill="#65A91A" mask="url(#mask-2)"></path>
                        <path d="M64.2056409,81.8322153 C64.2179208,81.8383524 64.8441975,79.3773716 66.2256902,75.130492 C67.5764831,70.8774752 69.9096708,65.8880054 71.6104418,64.1143808 C73.1945534,62.273248 82.7790428,57.2715039 83.0860412,57.105802 C83.2149805,56.8787289 80.1572766,65.6056984 77.4127111,69.0977135 C73.9927492,73.2034397 69.9772104,75.4557588 67.1037056,79.9788083 C64.2854605,84.5325434 64.7766579,84.9989637 64.7643779,84.9805524 C64.567899,83.9311067 64.3836999,82.881661 64.2056409,81.8322153" id="Fill-1002" fill="#65A91A" mask="url(#mask-2)"></path>
                        <path d="M59.6989047,70.8345155 C59.7050447,70.8283784 57.0157389,66.6674183 51.3608287,60.9108097 C45.7059186,55.141927 42.3903361,51.6990087 38.6695158,49.4896493 C34.9609753,47.28029 29.3613249,44.586099 29.3613249,44.586099 C29.342905,44.586099 32.5848079,49.6676255 35.8144308,52.668672 C39.001074,55.6942668 46.0497568,61.150157 50.4336936,64.4396476 C54.8114905,67.7475495 59.2813869,71.2334276 61.1110972,74.6149748 C62.9346676,78.0026591 59.6682048,70.8406526 59.6989047,70.8345155" id="Fill-1003" fill="#65A91A" mask="url(#mask-2)"></path>
                        <path d="M59.3489265,69.1652217 C59.3489265,69.177496 58.5200309,62.9053703 61.8110535,58.0447797 C65.1020761,53.2026005 66.3423496,50.6802486 68.546598,49.299399 C70.6833067,47.8878638 78.5486051,43.0088619 78.6222847,43.0395475 C78.3644061,42.9965877 72.2981181,54.356377 69.3140939,58.063191 C66.0169313,61.6902226 61.6145746,64.6114866 59.9997631,69.6132307 C59.1892874,72.2030908 59.3489265,69.1652217 59.3489265,69.1652217" id="Fill-1004" fill="#65A91A" mask="url(#mask-2)"></path>
                        <path d="M56.4938416,58.9898945 C56.4631418,58.9960316 52.2879638,52.6993575 49.1565804,49.023229 C45.9760772,45.3655119 42.7648741,41.7384803 37.4046824,37.792319 C32.0567707,33.8338835 29.5639438,32.2075496 29.5578039,32.2075496 C29.5455239,32.2014125 30.2393403,37.1356483 35.5688321,42.6713209 C40.8799041,48.2069935 46.2400958,51.7849282 48.9171216,54.1108926 C51.6064274,56.4491313 55.6465261,59.4256293 56.80084,61.1562941 C57.942874,62.8992332 56.4754217,58.9898945 56.4938416,58.9898945" id="Fill-1005" fill="#65A91A" mask="url(#mask-2)"></path>
                        <path d="M55.6956458,52.0672353 C55.5482866,52.0365497 59.7910042,42.3521912 61.7557938,38.7190225 C64.187221,33.3858746 74.0848487,29.3046969 74.9137443,28.7093973 C75.4602014,28.0588637 69.3509337,38.8479018 66.8581069,42.1373924 C65.1634758,43.8987428 58.888429,50.7723052 57.3902769,53.791763 C55.7938853,56.7805352 55.1676086,54.749152 55.6956458,52.0672353" id="Fill-1006" fill="#65A91A" mask="url(#mask-2)"></path>
                        <path d="M54.0562745,47.7651216 C54.0501345,47.7651216 51.2503093,43.4936936 48.7145027,39.6580003 C46.1050165,35.8407183 41.5614405,29.1021723 38.8905546,27.0830633 C36.158269,25.0823657 31.1541955,21.9401657 31.1603354,21.9340286 C31.1419155,21.9278915 30.7305377,26.4141184 34.6109972,30.8880711 C38.4546169,35.3620238 42.402616,39.1302089 45.5646993,41.6709721 C48.7083627,44.2301467 53.7308562,48.6550025 54.4615123,50.876636 C55.1676086,53.0982696 54.0194347,47.7651216 54.0562745,47.7651216" id="Fill-1007" fill="#65A91A" mask="url(#mask-2)"></path>
                        <path d="M53.5159573,39.9648557 C53.5159573,39.9648557 54.1913538,35.8652667 56.3587623,32.0357105 C58.4709112,28.2061543 61.5654548,23.7690243 64.0398618,21.1055189 C66.4160292,18.4236021 71.7885008,14.8088447 71.8192007,14.8149818 C71.6902613,14.8088447 67.6378828,22.8730063 64.9547169,26.8866758 C61.9277129,30.8451113 55.3763675,38.1053116 54.0255746,42.1926264 C52.7791612,45.6355447 53.4729776,39.9587186 53.5159573,39.9648557" id="Fill-1008" fill="#65A91A" mask="url(#mask-2)"></path>
                        <path d="M52.4844428,37.4179554 C52.4660229,37.4179554 49.8381168,32.0479847 49.610938,28.5927922 C49.2548198,25.156011 47.0567115,18.3560939 44.6621241,15.4102814 C42.1692973,12.4767432 39.2589526,8.68400965 39.2712326,8.68400965 C39.2282528,8.68400965 39.5413912,13.8514557 40.327307,16.5149611 C41.0702431,19.1846037 41.8868588,22.3083923 45.1103417,27.905436 C48.3154048,33.5024796 52.4905828,39.6886858 53.1352794,41.0081643 C53.7431361,42.3337799 52.447603,37.4179554 52.4844428,37.4179554" id="Fill-1009" fill="#65A91A" mask="url(#mask-2)"></path>
                        <path d="M53.1659792,34.643982 C53.1905391,34.6501191 53.2764986,32.8151234 54.4737923,28.3288965 C55.5360067,23.8242583 57.9490139,15.8767017 58.3481118,13.3113901 C58.4095115,10.7583526 57.0709986,1.41153514 57.5867558,0.552339836 C57.7095552,-0.312992574 52.3248036,9.53093073 51.7783465,12.5749369 C50.8941912,15.6005318 49.4512988,19.2091521 50.0223158,22.2224728 C50.4029938,25.2480676 52.453743,34.3309894 52.3739234,35.7241132 C52.1528845,37.1233741 53.1536993,34.643982 53.1659792,34.643982" id="Fill-1010" fill="#65A91A" mask="url(#mask-2)"></path>
                        <path d="M72.1139191,208.268941 C72.7463358,208.311901 86.3033842,190.281074 87.9795953,176.349836 C92.0319739,161.94604 84.5350735,132.727263 81.3668502,124.706061 C78.8126237,116.924206 66.4897088,88.5216645 64.5126393,81.5130856 C61.344416,73.3016334 54.3878327,50.0972232 54.1115342,39.9525815 C53.5098174,33.9627628 52.251124,29.5440441 52.3248036,29.0469383 C52.3248036,28.5436953 51.8029064,36.0432429 52.1590245,38.4674011 C52.2020043,40.879285 53.8168158,52.4231876 55.8859848,59.0205801 C57.6297356,65.6179726 61.0067178,76.6831806 62.8118682,81.3228353 C64.2179208,86.0054496 74.3734272,110.596847 79.2731213,124.693787 C80.1695566,127.915769 83.7737175,138.956429 85.19819,150.451234 C86.8621212,161.976726 86.3463639,173.956363 84.4859538,179.841851 C82.1834659,188.986144 77.2653519,196.473417 74.4471068,199.934747 C71.7455211,203.414488 70.7385664,208.011182 72.1139191,208.268941 L119.359855,253.665451" id="Fill-1011" fill="#7ED321" mask="url(#mask-2)"></path>
                        <path d="M150.318686,153.906427 C150.318686,153.906427 139.635142,143.233994 131.033048,140.858933 C120.410904,137.931531 112.471926,143.994995 110.310657,145.345159 C110.151018,145.44949 111.64917,150.322355 115.148952,154.569235 C116.904983,156.698812 122.98355,161.66987 129.817334,162.203799 C136.638838,162.737727 138.855367,162.602711 141.99289,160.822949 C144.952354,159.147518 148.531955,154.059855 150.318686,153.906427" id="Fill-1030" fill="#35353B" mask="url(#mask-2)"></path>
                        <path d="M142.477947,140.005874 C142.477947,140.005874 135.416985,130.088306 133.746914,122.791283 C131.775984,114.168644 135.459965,104.938432 135.459965,104.938432 C135.459965,104.938432 137.197575,108.639109 138.695727,110.952799 C140.592977,113.898611 148.292497,120.858093 148.838954,127.142493 C149.182792,131.174574 149.274892,134.783194 142.477947,140.005874" id="Fill-1031" fill="#35353B" mask="url(#mask-2)"></path>
                        <path d="M164.821289,183.100656 C164.821289,183.100656 157.20159,178.381219 150.490605,177.178345 C143.779621,175.975472 134.281091,176.40507 125.421118,185.408209 C125.421118,185.408209 128.65688,185.813258 131.161987,187.237067 C133.624114,188.636328 141.084175,194.331566 149.250332,194.208824 C154.162306,194.129041 156.163935,193.04891 158.712022,191.324382 C161.253968,189.599855 163.531896,183.456608 164.821289,183.100656" id="Fill-1032" fill="#35353B" mask="url(#mask-2)"></path>
                        <path d="M155.727997,156.698812 C155.727997,156.698812 156.913011,155.158397 156.753372,153.372498 C156.378834,149.162441 155.058741,147.100373 156.151655,143.952036 C157.256849,140.791424 160.85487,136.753206 160.85487,136.753206 C160.85487,136.753206 165.994023,143.510164 164.391492,148.192778 C162.8258,152.771062 161.597806,154.55696 155.727997,156.698812" id="Fill-1033" fill="#35353B" mask="url(#mask-2)"></path>
                        <path d="M168.106172,182.290557 C168.106172,182.290557 168.941208,176.153448 170.083242,170.722106 C171.212996,165.27849 175.130295,160.074222 177.831881,158.699509 C180.527326,157.312523 182.713155,157.600967 182.713155,157.600967 C182.713155,157.600967 181.81058,160.430174 181.82286,163.136639 C181.83514,165.051417 182.878934,173.526765 180.760645,176.78557 C175.658332,184.634933 168.106172,182.290557 168.106172,182.290557" id="Fill-1034" fill="#35353B" mask="url(#mask-2)"></path>
                        <path d="M123.10021,124.534222 C123.10021,124.534222 122.080975,119.827059 115.830488,116.365729 C109.580001,112.9044 106.755616,113.511974 106.313538,113.910886 C105.871461,114.309798 106.405638,115.862486 108.923025,118.955589 C111.053593,121.582272 112.742085,123.478639 116.751483,124.620141 C120.748602,125.761644 123.10021,124.534222 123.10021,124.534222" id="Fill-1035" fill="#35353B" mask="url(#mask-2)"></path>
                        <path d="M175.320634,219.99082 C175.320634,219.831255 174.890836,204.169352 168.118452,184.549014 C161.861825,166.432267 148.759134,141.116691 121.847656,123.392719 L121.018761,124.656964 C147.567981,142.141588 160.511032,167.150309 166.68784,185.046119 C173.386544,204.439385 173.810202,219.868078 173.816342,220.021505 L175.320634,219.99082" id="Fill-1036" fill="#35353B" mask="url(#mask-2)"></path>
                        <path d="M204.909138,186.776784 C204.909138,186.776784 217.225913,178.049815 226.104306,177.14766 C237.070288,176.030706 243.885652,183.340003 245.782902,185.027708 C245.924121,185.156587 243.633913,189.710322 239.471015,193.312806 C237.389566,195.117116 230.561922,199.008043 223.734278,198.394332 C216.912774,197.780621 214.763786,197.271241 211.95782,194.994374 C209.323774,192.852522 206.640609,187.23093 204.909138,186.776784" id="Fill-1037" fill="#35353B" mask="url(#mask-2)"></path>
                        <path d="M214.966405,174.385961 C214.966405,174.385961 223.593059,165.794008 226.454284,158.871348 C229.837406,150.702856 227.755957,140.987812 227.755957,140.987812 C227.755957,140.987812 225.416629,144.344811 223.562359,146.376194 C221.192332,148.966054 212.436738,154.532412 210.852626,160.644973 C209.839532,164.560449 209.139575,168.101561 214.966405,174.385961" id="Fill-1038" fill="#35353B" mask="url(#mask-2)"></path>
                        <path d="M199.106868,188.630191 C199.106868,188.630191 198.204293,186.911801 198.658651,185.174999 C199.733145,181.093821 201.378656,179.283374 200.826059,175.987746 C200.267322,172.692118 197.393817,168.107698 197.393817,168.107698 C197.393817,168.107698 191.19245,173.913403 191.990646,178.798542 C192.770422,183.573213 193.679137,185.537088 199.106868,188.630191" id="Fill-1039" fill="#35353B" mask="url(#mask-2)"></path>
                        <path d="M236.65891,162.375638 C236.65891,162.375638 238.451781,157.901685 245.193465,155.538898 C251.935149,153.163837 254.618315,154.237831 254.986713,154.710388 C255.361251,155.176808 254.569195,156.612892 251.572891,159.245712 C249.030945,161.473483 247.047735,163.062994 242.909397,163.523277 C238.771059,163.977423 236.65891,162.375638 236.65891,162.375638" id="Fill-1040" fill="#35353B" mask="url(#mask-2)"></path>
                        <path d="M182.228098,214.013275 C178.673056,220.518611 176.00217,226.65572 174.031241,231.8784 C174.522438,231.982731 175.007496,232.136159 175.474133,232.332547 C177.420503,227.201923 180.054549,221.156871 183.56047,214.743591 C192.647622,198.136574 209.593933,175.644068 238.691239,162.842058 L238.083382,161.461208 C208.586978,174.435057 191.431909,197.203733 182.228098,214.013275" id="Fill-1041" fill="#35353B" mask="url(#mask-2)"></path>
                        <path d="M180.908004,138.625025 C178.470437,137.434426 177.457343,134.482476 178.648496,132.039906 C179.84579,129.597337 182.799114,128.590851 185.242822,129.78145 C187.680389,130.972049 188.693483,133.936273 187.50233,136.372706 C186.305036,138.809138 183.357852,139.821761 180.908004,138.625025 Z M192.616923,138.760041 C192.377464,138.404089 192.125725,138.066548 191.873987,137.735144 C192.064326,137.72287 192.248525,137.72287 192.438864,137.710595 C197.461357,137.366917 201.384796,134.96117 201.200597,132.340625 C201.016398,129.720079 196.804381,127.872809 191.794167,128.216487 C191.358229,128.247173 190.940711,128.29627 190.535474,128.357641 C190.621433,128.191939 190.713533,128.0201 190.793352,127.848261 C193.003741,123.337485 192.887081,118.740791 190.523194,117.587014 C188.165446,116.433238 184.463046,119.151977 182.246517,123.668889 C182.062318,124.055527 181.890399,124.442165 181.7369,124.828803 C181.638661,124.669238 181.540421,124.503536 181.429902,124.343971 C178.623937,120.176874 174.583838,117.979789 172.398009,119.446558 C170.218321,120.913327 170.727938,125.479337 173.527763,129.652571 C173.773362,130.01466 174.025101,130.346064 174.27684,130.677468 C174.09264,130.683605 173.902301,130.689742 173.711962,130.702017 C168.695609,131.045695 164.77217,133.445304 164.950229,136.06585 C165.128288,138.686396 169.340306,140.533666 174.356659,140.189988 C174.792597,140.159302 175.203975,140.116342 175.621492,140.048834 C175.535533,140.220673 175.437293,140.386375 175.357474,140.564351 C173.147085,145.075127 173.269885,149.671821 175.627632,150.825598 C177.99152,151.979375 181.69392,149.254498 183.904309,144.743723 C184.094648,144.357085 184.260427,143.970447 184.413926,143.577672 C184.512165,143.743374 184.616545,143.909076 184.720924,144.062504 C187.52689,148.235738 191.566988,150.432823 193.752817,148.966054 C195.932505,147.499285 195.429028,142.927138 192.616923,138.760041 L192.616923,138.760041 Z" id="Fill-1042" fill="#FFFFFF" mask="url(#mask-2)"></path>
                        <path d="M13.7780872,178.074363 C12.4150144,176.908313 12.2492353,174.858518 13.4219691,173.489943 C14.5885629,172.127504 16.6393121,171.96794 18.0085249,173.13399 C19.3715977,174.293904 19.5312368,176.343698 18.364643,177.712274 C17.1980492,179.086986 15.1473,179.240414 13.7780872,178.074363 Z M31.1910353,181.670709 C31.3199746,178.233928 29.0727464,174.784873 25.364206,173.250595 C25.2721065,173.207636 25.1677271,173.17695 25.0694876,173.13399 C27.648274,170.089984 28.0842117,166.021081 26.4141405,163.032308 C23.1845175,161.841709 19.2058186,162.915703 16.6024723,165.965847 C16.5287927,166.045629 16.473533,166.131549 16.3998534,166.211331 C14.3061244,162.81751 10.5607442,161.148216 7.19604199,161.811024 C5.07161321,164.511352 4.86285432,168.623215 6.95044329,172.047722 C7.01184297,172.139779 7.07324264,172.225698 7.13464232,172.317755 C3.25418281,173.256732 0.509617308,176.300739 0.104379449,179.700697 C2.01390936,182.56059 5.86366903,184.027359 9.7686884,183.094519 C9.86692789,183.06997 9.97130733,183.039285 10.0695468,183.008599 C9.78096834,186.985446 11.8255775,190.538832 14.9262612,191.974916 C18.2418437,191.042075 20.82677,187.832367 21.1460483,183.837109 C21.1521883,183.726641 21.1521883,183.628447 21.1583282,183.517979 C24.8545887,185.027708 28.8639875,184.17465 31.1910353,181.670709 L31.1910353,181.670709 Z" id="Fill-1043" fill="#FFFFFF" mask="url(#mask-2)"></path>
                        <path d="M182.823674,191.213914 L182.860514,191.183229 L182.903494,191.207777 L182.891214,191.238463 L182.835954,191.256874 L182.823674,191.213914 Z M190.277595,192.435199 C190.461794,190.894785 189.503959,189.483249 188.036507,188.863401 C188.564544,187.126599 187.870728,185.273192 186.305036,184.549014 C184.898983,183.89848 183.259612,184.371037 182.215818,185.580048 C180.729945,184.536739 178.752876,184.622659 177.580142,185.886903 C176.524068,187.016132 176.462668,188.728385 177.291564,190.090823 C175.842531,191.183229 175.320634,193.085733 176.14953,194.595461 C176.904746,195.945626 178.513417,196.534788 180.060689,196.166561 C180.656266,197.884952 182.307917,198.97122 184.002548,198.639817 C185.51912,198.345235 186.569055,196.995071 186.697994,195.411697 C188.521564,195.381011 190.062696,194.147453 190.277595,192.435199 L190.277595,192.435199 Z" id="Fill-1044" fill="#FFFFFF" mask="url(#mask-2)"></path>
                    </g>
                    <g id="Group-1153" transform="translate(674.013109, 410.064065)">
                        <mask id="mask-4" fill="white">
                            <use xlink:href="#path-3"></use>
                        </mask>
                        <g id="Clip-1101"></g>
                        <path d="M118.931172,91.0747019 C118.931172,91.0747019 123.615967,85.2751336 123.474748,78.2481435 C123.425628,75.695106 121.20296,71.3438955 118.550494,71.3991295 C115.904168,71.4482264 113.822719,74.7315799 113.896398,78.4322568 C114.031478,85.465384 118.931172,91.0747019 118.931172,91.0747019" id="Fill-1102" fill="#FFFFFF" mask="url(#mask-4)"></path>
                        <path d="M118.304895,102.802718 C118.304895,102.802718 117.35934,96.358753 112.760504,92.4003175 C111.090433,90.964234 106.970515,89.9331996 105.429383,91.7190984 C103.894391,93.5049972 104.766267,96.7760765 107.185414,98.8626936 C111.78425,102.821129 118.304895,102.802718 118.304895,102.802718" id="Fill-1103" fill="#FFFFFF" mask="url(#mask-4)"></path>
                        <path d="M120.238985,116.365729 C120.238985,116.365729 116.751483,110.873017 110.930794,109.130077 C108.824785,108.504092 104.643467,109.246683 103.968071,111.505139 C103.292674,113.757458 105.423243,116.390278 108.487087,117.304707 C114.301636,119.047646 120.238985,116.365729 120.238985,116.365729" id="Fill-1104" fill="#FFFFFF" mask="url(#mask-4)"></path>
                        <path d="M118.495234,103.121847 C118.495234,103.121847 124.524682,102.956146 129.375257,99.3107026 C131.137427,97.985087 133.231156,94.4562491 132.070702,92.9219718 C130.916389,91.3815574 127.742025,91.811155 125.187799,93.7320702 C120.331084,97.3775132 118.495234,103.121847 118.495234,103.121847" id="Fill-1105" fill="#FFFFFF" mask="url(#mask-4)"></path>
                        <path d="M119.373249,116.47006 C119.373249,116.47006 125.531637,116.47006 130.376071,112.81848 C132.138242,111.499002 134.176711,107.896518 132.954858,106.264047 C131.726864,104.643851 128.497241,104.999803 125.943015,106.920718 C121.09244,110.566161 119.373249,116.47006 119.373249,116.47006" id="Fill-1106" fill="#FFFFFF" mask="url(#mask-4)"></path>
                        <path d="M123.929105,134.34746 C123.929105,134.34746 129.148078,135.040953 132.856618,132.260842 C134.195131,131.248219 135.521364,128.185802 134.293371,126.559468 C133.071517,124.933134 130.369931,124.890174 128.417422,126.356943 C124.715021,129.143191 123.929105,134.34746 123.929105,134.34746" id="Fill-1107" fill="#FFFFFF" mask="url(#mask-4)"></path>
                        <path d="M123.198449,134.45179 C123.198449,134.45179 120.883682,129.983975 116.426065,127.891221 C114.805114,127.130219 111.434271,127.056574 110.722035,128.584714 C109.997519,130.112854 111.471111,132.316076 113.822719,133.420756 C118.280335,135.519647 123.198449,134.45179 123.198449,134.45179" id="Fill-1108" fill="#FFFFFF" mask="url(#mask-4)"></path>
                        <path d="M94.3835815,197.173047 C67.1896651,159.933068 57.8814743,122.459879 54.8544703,97.5739007 C51.5818676,70.6013053 54.7869306,52.1592919 54.8237704,51.9751786 L56.4692817,52.275897 C56.4385819,52.4538731 53.2703586,70.6994991 56.5245415,97.4388843 C59.5331256,122.110064 68.7737768,159.264123 95.7343744,196.184973 L94.3835815,197.173047" id="Fill-1110" fill="#35353B" mask="url(#mask-4)"></path>
                        <path d="M55.0755091,54.3318286 C55.0755091,54.3318286 52.816001,49.4037298 53.958035,44.1871869 C54.3755528,42.2969573 56.5122615,39.3388706 58.2682922,39.7255085 C60.0304629,40.1060092 60.9268982,42.8247487 60.3251814,45.5741736 C59.1831474,50.7907165 55.0755091,54.3318286 55.0755091,54.3318286" id="Fill-1111" fill="#35353B" mask="url(#mask-4)"></path>
                        <path d="M54.5904517,63.5865894 C54.5904517,63.5865894 55.5298667,58.8426039 59.066488,55.5162907 C60.3436013,54.3072801 63.419725,53.1350923 64.4819394,54.2704575 C65.5441538,55.3935485 64.7827978,57.8422551 62.9162477,59.6036055 C59.3796264,62.9299187 54.5904517,63.5865894 54.5904517,63.5865894" id="Fill-1112" fill="#35353B" mask="url(#mask-4)"></path>
                        <path d="M55.1491887,79.3221376 C55.1491887,79.3221376 56.2789427,75.0261611 59.6866247,72.7308822 C60.9268982,71.9023725 63.7942631,71.5586944 64.7029783,72.9027213 C65.6055535,74.2528853 64.7705179,76.4008736 62.9715074,77.6098841 C59.5576854,79.905163 55.1491887,79.3221376 55.1491887,79.3221376" id="Fill-1113" fill="#35353B" mask="url(#mask-4)"></path>
                        <path d="M55.1491887,63.0465238 C55.1491887,63.0465238 50.7652519,63.5865894 47.3882697,61.2851734 C46.1664162,60.4443894 44.7972034,57.9220375 45.7059186,56.5902848 C46.6146338,55.2646692 48.9109817,55.2462579 50.6854323,56.4614055 C54.0624145,58.7689586 55.1491887,63.0465238 55.1491887,63.0465238" id="Fill-1114" fill="#35353B" mask="url(#mask-4)"></path>
                        <path d="M73.1577136,159.926931 C73.1577136,159.926931 69.105335,161.952177 64.7213982,161.142079 C63.1311466,160.847497 60.6076199,159.141381 60.8839184,157.662338 C61.160217,156.183294 63.4013051,155.354785 65.7099329,155.784382 C70.0938698,156.588344 73.1577136,159.926931 73.1577136,159.926931" id="Fill-1115" fill="#0C1153" mask="url(#mask-4)"></path>
                        <path d="M54.1606539,79.3098634 C54.1606539,79.3098634 49.0951807,79.5369365 44.9752625,76.7138662 C43.4832503,75.6889689 41.6719599,72.8045276 42.6175149,71.4175409 C43.5692099,70.0366913 46.2339558,70.2085303 48.4075043,71.6937108 C52.5335625,74.516781 54.1606539,79.3098634 54.1606539,79.3098634" id="Fill-1116" fill="#35353B" mask="url(#mask-4)"></path>
                        <path d="M54.90973,96.1009944 C54.90973,96.1009944 49.9486362,97.0767948 46.3506152,94.6096769 C45.0428021,93.7136589 43.6981492,90.8476289 44.8156233,89.2028836 C45.9392374,87.5642754 48.5118838,87.374025 50.4091338,88.6750922 C54.0132947,91.1422101 54.90973,96.1009944 54.90973,96.1009944" id="Fill-1117" fill="#35353B" mask="url(#mask-4)"></path>
                        <path d="M56.1254436,95.683671 C56.1254436,95.683671 56.4631418,90.7248867 59.7418845,87.656332 C60.9330382,86.5516524 64.0214419,85.7415539 65.2985551,87.1101293 C66.5756684,88.4787047 66.1090308,91.0010566 64.37756,92.6089792 C61.0988173,95.6775339 56.1254436,95.683671 56.1254436,95.683671" id="Fill-1118" fill="#35353B" mask="url(#mask-4)"></path>
                        <path d="M73.8638099,160.344255 C73.8638099,160.344255 72.4945971,156.367408 74.226068,151.844358 C74.8462047,150.20575 77.1671124,147.511559 78.6959643,147.683398 C80.2248163,147.855237 80.6668939,150.076871 79.7581787,152.458069 C78.0328478,156.987256 73.8638099,160.344255 73.8638099,160.344255" id="Fill-1119" fill="#0C1153" mask="url(#mask-4)"></path>
                        <path d="M61.5777348,127.891221 C61.5777348,127.891221 62.6522291,124.810392 66.2809499,122.570347 C67.594903,121.754111 70.6955866,120.913327 71.7209612,121.606821 C72.7524757,122.300314 71.9113002,123.9021 70.0017703,125.086562 C66.3791894,127.326607 61.5777348,127.891221 61.5777348,127.891221" id="Fill-1120" fill="#35353B" mask="url(#mask-4)"></path>
                        <path d="M57.556056,113.205118 C57.556056,113.205118 54.4922122,113.309449 51.5511677,110.879154 C50.4889533,110.001547 48.9539614,107.55284 49.3223595,106.411338 C49.7030375,105.263699 51.3608287,105.453949 52.9142405,106.736605 C55.849145,109.160763 57.556056,113.205118 57.556056,113.205118" id="Fill-1121" fill="#35353B" mask="url(#mask-4)"></path>
                        <path d="M67.7422622,145.081264 C67.7422622,145.081264 66.2932299,140.018149 67.410704,136.280649 C67.8098018,134.924348 69.5596926,133.494401 70.8613657,134.617492 C72.1568989,135.740583 72.697216,138.373403 72.1077791,140.343415 C70.996445,144.080915 67.7422622,145.081264 67.7422622,145.081264" id="Fill-1122" fill="#35353B" mask="url(#mask-4)"></path>
                        <path d="M62.1119119,128.382189 C62.1119119,128.382189 56.0210641,129.27207 51.3669687,127.522994 C49.6723376,126.890872 47.7935076,124.761295 49.0706208,123.484776 C50.3477341,122.214394 53.5282373,121.987321 55.9842243,122.907888 C60.6444597,124.656964 62.1119119,128.382189 62.1119119,128.382189" id="Fill-1123" fill="#35353B" mask="url(#mask-4)"></path>
                        <path d="M67.3370243,145.971145 C67.3370243,145.971145 61.5654548,146.799654 57.4148367,145.056715 C55.9166847,144.43073 54.4001127,142.337976 55.7263457,141.09828 C57.0587186,139.858584 60.0488828,139.662196 62.2285713,140.576625 C66.3791894,142.313427 67.3370243,145.971145 67.3370243,145.971145" id="Fill-1124" fill="#35353B" mask="url(#mask-4)"></path>
                        <path d="M106.129339,63.285871 C106.129339,63.285871 102.076961,65.3111171 97.693024,64.5010187 C96.1027724,64.2064374 93.5853857,62.4941839 93.8555443,61.0151406 C94.1318428,59.5360973 96.372931,58.7075875 98.6815588,59.1371852 C103.071636,59.9472836 106.129339,63.285871 106.129339,63.285871" id="Fill-1125" fill="#35353B" mask="url(#mask-4)"></path>
                        <path d="M80.5993543,174.097516 C80.5993543,174.097516 79.9239579,170.893945 81.8948874,167.113486 C82.6071237,165.744911 84.8604918,163.431221 86.1130452,163.504866 C87.3717385,163.578511 87.4822579,165.382821 86.4446034,167.377382 C84.4736738,171.157841 80.5993543,174.097516 80.5993543,174.097516" id="Fill-1126" fill="#0C1153" mask="url(#mask-4)"></path>
                        <path d="M75.9022791,106.460435 C75.9022791,106.460435 76.4364563,101.593707 78.7143842,98.4515073 C79.5432799,97.3161421 81.5449093,96.3894386 82.2694255,97.6720944 C82.9878017,98.9547503 82.5273041,101.44028 81.3300104,103.097299 C79.0520825,106.233362 75.9022791,106.460435 75.9022791,106.460435" id="Fill-1127" fill="#35353B" mask="url(#mask-4)"></path>
                        <path d="M58.305132,114.107273 C58.305132,114.107273 58.69195,109.976999 61.9522728,105.901958 C63.1250066,104.429052 66.1765705,102.244241 67.4168439,102.710661 C68.6571174,103.170944 68.1720599,105.417126 66.452869,107.565115 C63.1986862,111.640155 58.305132,114.107273 58.305132,114.107273" id="Fill-1128" fill="#35353B" mask="url(#mask-4)"></path>
                        <path d="M36.9687447,116.942618 C32.7690069,121.852305 30.0674212,129.376401 30.0674212,137.827201 C30.0674212,150.457371 36.1030093,161.037748 44.2077665,163.866955 C48.4136443,158.957268 51.11523,151.433172 51.11523,142.988509 C51.11523,130.346064 45.0796419,119.765688 36.9687447,116.942618" id="Fill-1141" fill="#FFFFFF" mask="url(#mask-4)"></path>
                        <path d="M33.1189851,167.138035 C26.7456987,159.288672 18.2111438,154.882227 10.9168623,154.931324 C11.2484206,160.939554 13.8701867,167.671963 18.6839213,173.600411 C25.0510677,181.443636 33.5917626,185.850081 40.886044,185.807121 C40.5483458,179.798891 37.9265797,173.060345 33.1189851,167.138035" id="Fill-1142" fill="#FFFFFF" mask="url(#mask-4)"></path>
                        <path d="M43.0718725,193.539879 C39.3264923,189.151846 33.8435012,185.678242 27.2982958,184.008948 C16.7068518,181.320894 6.29346676,184.13169 0.392957924,190.446776 C4.13833814,194.840946 9.61518921,198.320687 16.1603946,199.983843 C26.7518387,202.671897 37.1590837,199.861101 43.0718725,193.539879" id="Fill-1143" fill="#FFFFFF" mask="url(#mask-4)"></path>
                        <path d="M66.1520106,179.792754 C56.3342025,182.750841 49.1504404,189.777831 46.8172527,197.627193 C53.00634,201.229677 61.4365155,202.230025 69.8175712,199.707674 C79.6353794,196.74345 86.8191414,189.722597 89.1584691,181.873234 C82.9571018,178.264614 74.5330663,177.264265 66.1520106,179.792754" id="Fill-1144" fill="#FFFFFF" mask="url(#mask-4)"></path>
                        <path d="M62.4680301,151.414761 C54.9404298,155.680051 50.2065148,162.792961 49.21798,170.065436 C55.0755091,171.32968 61.712814,170.409114 67.7054224,167.015292 C75.2514425,162.737727 79.9423778,155.569583 80.851093,148.241875 C75.0119838,147.069687 68.4299386,148.033213 62.4680301,151.414761" id="Fill-1145" fill="#FFFFFF" mask="url(#mask-4)"></path>
                        <polygon id="Fill-1146" fill="#FFFFFF" mask="url(#mask-4)" points="43.2315117 220.015368 44.4472252 220.015368 44.4472252 161.240272 43.2315117 161.240272"></polygon>
                        <polyline id="Fill-1147" fill="#FFFFFF" mask="url(#mask-4)" points="43.2744914 174.913752 44.0542673 175.834318 51.0783902 169.961105 50.3108943 169.034401 43.2744914 174.913752"></polyline>
                        <path d="M13.6430079,221.586468 C20.7408105,226.539115 29.2016858,227.735852 36.1951088,225.495807 C34.8074762,219.665553 31.1173556,214.074646 25.4685855,210.134622 C18.358503,205.175838 9.86078792,204.040473 2.85508492,206.378711 C4.31025723,212.147594 8.01879765,217.670992 13.6430079,221.586468" id="Fill-1148" fill="#FFFFFF" mask="url(#mask-4)"></path>
                        <polyline id="Fill-1149" fill="#FFFFFF" mask="url(#mask-4)" points="43.2069518 203.064672 44.2446063 203.690657 48.9846613 195.853569 47.9531467 195.227584 43.2069518 203.064672"></polyline>
                        <polyline id="Fill-1150" fill="#FFFFFF" mask="url(#mask-4)" points="43.6797293 189.108886 44.4533652 188.182182 40.2290675 184.671756 39.4615716 185.592322 43.6797293 189.108886"></polyline>
                        <polyline id="Fill-1151" fill="#FFFFFF" mask="url(#mask-4)" points="43.5814898 195.080293 44.0051476 193.944928 42.4517358 193.361903 42.028078 194.491131 43.5814898 195.080293"></polyline>
                        <path d="M54.5536119,206.974011 C60.9268982,199.124648 69.4614531,194.724341 76.7557346,194.767301 C76.4241763,200.775531 73.8024102,207.514077 68.9886756,213.436387 C62.6215292,221.28575 54.0869743,225.686057 46.7865529,225.649235 C47.1181111,219.634867 49.7460173,212.902459 54.5536119,206.974011" id="Fill-1152" fill="#FFFFFF" mask="url(#mask-4)"></path>
                        <path d="M123.708067,209.281564 L123.622107,209.281564 L123.671227,208.189159 C123.794026,208.201433 126.612271,208.262804 129.203338,204.930354 C134.084612,198.639817 137.166876,181.965291 124.137864,138.244524 C117.261101,115.144445 117.905797,102.035579 118.329455,93.3577066 C118.439974,91.1299359 118.532074,89.2028836 118.464534,87.5704125 L119.551309,87.5213156 C119.624988,89.2090207 119.532889,91.1544843 119.422369,93.4129406 C118.998711,102.011031 118.360155,115.015565 125.187799,137.931531 C138.369695,182.192364 135.091566,199.186019 130.019953,205.648395 C127.306088,209.115862 124.272944,209.281564 123.708067,209.281564" id="Fill-1109" fill="#FFFFFF" mask="url(#mask-4)"></path>
                        <path d="M165.901924,303.885104 C158.478703,296.674 149.52049,282.1536 126.76577,250.719326 C110.531696,228.282054 103.397054,190.213565 115.52963,189.912847 C121.724857,189.765556 125.457957,199.308761 131.671605,201.045563 C139.733382,203.297882 137.670353,192.07311 134.41003,185.65983 C111.164113,139.913818 114.805114,91.1667586 143.227024,110.768686 C158.595362,121.361336 168.430976,100.75906 161.960065,89.4974648 C148.237237,65.5934241 149.416111,43.2297979 168.652629,49.1030115 C187.563115,54.8841684 199.776125,50.5820548 197.553457,38.6024175 C195.324648,26.6227801 180.158928,8.17462958 201.765474,0.969663268 C210.281609,-1.87181833 229.03307,11.5623139 232.691877,30.378691 C234.78008,41.1124952 232.293393,75.6214607 253.537681,58.9714832 C275.432805,41.8059885 286.067229,66.9435882 278.122111,80.2120185 C275.162647,85.1523915 245.414504,130.84317 262.225735,126.40604 C282.07011,121.171086 288.080524,138.575928 270.391892,158.282186 C262.360814,167.230091 239.084197,181.106095 247.201234,187.734173 C255.318271,194.356114 261.138961,203.561778 252.027249,219.71465 C212.320079,290.064334 163.181918,301.24001 165.901924,303.885104" id="Fill-1100" fill="#35353B" mask="url(#mask-4)"></path>
                    </g>
                </g>
            </g>
        </g>
    </g>
</svg>