<?xml version="1.0" encoding="UTF-8"?>
<svg width="800px" height="800px" viewBox="0 0 800 800" version="1.1" xmlns="http://www.w3.org/2000/svg" xmlns:xlink="http://www.w3.org/1999/xlink">
    <!-- Generator: Sketch 43.1 (39012) - http://www.bohemiancoding.com/sketch -->
    <title>Group 12</title>
    <desc>Created with Sketch.</desc>
    <defs></defs>
    <g id="Page-7" stroke="none" stroke-width="1" fill="none" fill-rule="evenodd">
        <g id="Group-12">
            <rect id="Rectangle-7" fill="#FFFFFF" x="0" y="0" width="800" height="800"></rect>
            <g id="Group-11" transform="translate(36.000000, 156.000000)" fill-rule="nonzero">
                <g id="Group" transform="translate(0.000000, 320.215730)">
                    <g id="Shape">
                        <path d="M73.7651605,58.6696629 C69.9289337,57.134382 66.5311329,60.5339326 64.6678227,63.8238202 C63.2429385,66.3460674 61.9276607,69.0876404 59.4067117,70.8422472 C58.4202534,71.5002247 57.3241886,71.8292135 56.1185173,71.8292135 C51.8438646,71.7195506 50.6381934,66.894382 52.0630776,63.6044944 C53.2687489,60.8629213 55.6800914,58.7793258 57.7626145,56.6957303 C63.352545,51.1029213 67.5175912,44.0844944 69.7097207,36.5177528 C71.0249985,31.6925843 71.5730309,26.2094382 67.8464106,22.371236 C65.9831005,20.3973034 63.0237255,19.52 60.39317,20.5069663 C57.2145821,21.8229213 56.6665497,24.8934831 56.1185173,27.6350562 C55.6800914,29.9379775 55.132059,32.5698876 53.1591424,33.9955056 C51.8438646,34.9824719 50.090161,35.0921348 48.7748832,33.9955056 C47.569212,32.8988764 47.6788184,31.3635955 47.7884249,29.9379775 C48.3364573,20.945618 45.1578694,11.8435955 39.1295131,5.04449438 C35.8413187,1.31595506 30.2513882,-1.75460674 26.1959485,1.5352809 C25.2094902,2.41258427 24.4422449,3.6188764 24.1134254,4.82516854 C23.1269671,7.89573034 23.8942125,10.9662921 24.5518513,13.927191 L28.3880781,30.3766292 C28.7168975,31.9119101 26.9631939,33.1182022 25.6479161,32.2408989 L14.2488423,24.3451685 C13.1527775,23.5775281 11.9471062,23.1388764 10.6318285,23.0292135 C6.35717579,22.8098876 5.15150452,26.428764 5.15150452,29.4993258 C5.04189804,36.4080899 8.65891185,42.8782022 13.5912034,47.7033708 C18.4138885,52.5285393 24.5518513,56.0377528 30.3609947,59.6566292 C32.2243049,60.7532584 34.087615,61.9595506 34.7452539,64.152809 C35.0740733,65.3591011 34.8548604,66.7847191 33.8684021,67.6620225 C32.2243049,69.0876404 29.9225688,68.1006742 28.2784716,67.0040449 C23.0173606,63.4948315 18.6331015,58.6696629 12.2759257,57.134382 C9.9741896,56.5860674 7.56284706,56.6957303 5.48032396,57.5730337 C-1.20567127,60.3146067 -0.876851833,67.4426966 2.30173606,72.0485393 C5.69953692,76.8737079 10.6318285,80.0539326 15.4545136,83.4534831 C24.9902772,90.1429213 38.2526612,102.315506 51.0766193,98.4773034 C58.5298599,96.174382 65.2158551,90.581573 69.9289337,84.5501124 C73.436341,80.1635955 75.9572901,75.0094382 77.1629613,69.4166292 C77.8206002,66.6750562 78.0398132,63.6044944 76.6149289,61.0822472 C75.9572901,59.985618 74.9708317,59.1083146 73.7651605,58.6696629 Z" fill="#67CBFC"></path>
                        <g transform="translate(8.768518, 23.029213)" fill="#D9E2FF">
                            <path d="M28.9361105,0.877303371 C28.7168975,0.877303371 28.6072911,1.09662921 28.7168975,1.31595506 C34.4164345,31.2539326 36.1701381,61.8498876 33.8684021,92.3361798 C33.8684021,92.5555056 33.9780085,92.6651685 34.1972215,92.6651685 L34.1972215,92.6651685 C34.4164345,92.6651685 34.5260409,92.5555056 34.5260409,92.3361798 C36.9373835,61.7402247 35.1836798,31.1442697 29.3745364,1.09662921 C29.2649299,0.986966292 29.1553235,0.877303371 28.9361105,0.877303371 Z"></path>
                            <path d="M54.2552072,6.79910112 C54.0359942,6.6894382 53.9263877,6.79910112 53.8167813,7.01842697 C52.391897,10.8566292 50.7477999,15.1334831 48.2268508,18.8620225 C46.3635407,21.7132584 43.1849528,25.4417978 38.5814807,27.1964045 C32.7723373,29.3896629 25.4287032,27.9640449 19.1811339,23.5775281 C13.4815969,19.52 9.42615721,13.8175281 5.37071748,8.33438202 C5.261111,8.2247191 5.04189804,8.11505618 4.93229156,8.2247191 C4.82268508,8.33438202 4.7130786,8.55370787 4.82268508,8.66337079 C8.87812481,14.2561798 13.043171,19.9586517 18.7427079,24.1258427 C23.1269671,27.1964045 28.0592587,28.8413483 32.6627308,28.8413483 C34.7452539,28.8413483 36.827777,28.5123596 38.6910871,27.7447191 C43.5137722,25.8804494 46.8019666,22.0422472 48.6652767,19.1910112 C51.1862258,15.4624719 52.830323,11.0759551 54.2552072,7.23775281 C54.5840266,7.01842697 54.4744201,6.79910112 54.2552072,6.79910112 Z"></path>
                            <path d="M59.0778923,48.1420225 C55.8993044,53.7348315 50.8574063,61.5208989 42.8561334,64.152809 C36.0605316,66.4557303 27.7304392,64.7011236 20.4964116,59.4373034 L19.0715274,58.4503371 C13.043171,54.0638202 7.23402762,49.8966292 1.20567127,43.6458427 C1.09606479,43.5361798 0.876851833,43.5361798 0.767245354,43.6458427 C0.657638875,43.7555056 0.657638875,43.9748315 0.767245354,44.0844944 C6.79560171,50.3352809 12.6047451,54.5024719 18.6331015,58.8889888 L20.0579857,59.8759551 C25.3190967,63.7141573 31.1282401,65.6880899 36.608564,65.6880899 C38.8006936,65.6880899 40.9928232,65.3591011 42.9657398,64.7011236 C51.1862258,61.9595506 56.3377303,54.0638202 59.6259247,48.3613483 C59.7355311,48.2516854 59.6259247,48.0323596 59.5163182,47.9226966 C59.2971052,47.9226966 59.1874987,48.0323596 59.0778923,48.1420225 Z"></path>
                        </g>
                    </g>
                    <g transform="translate(31.785879, 43.865169)" id="Shape">
                        <path d="M49.5421286,18.7523596 C48.7748832,18.5330337 48.0076379,18.5330337 47.2403925,18.7523596 L38.9103001,20.7262921 C37.9238418,20.945618 37.1565964,19.8489888 37.8142353,19.0813483 L43.7329852,10.5276404 C44.82905,8.99235955 45.9251148,7.34741573 46.0347212,5.37348315 C46.1443277,4.49617978 45.9251148,3.72853933 45.5962953,2.96089888 C44.0618046,0.109662921 40.1159714,0.657977528 37.4854159,2.08359551 C32.5531243,4.6058427 28.7168975,9.21168539 26.9631939,14.4755056 C26.6343744,15.352809 26.4151615,16.2301124 25.4287032,16.5591011 C24.4422449,16.8880899 23.4557865,16.4494382 23.0173606,15.5721348 C22.1405088,14.2561798 22.4693282,12.7208989 22.7981477,11.2952809 C23.1269671,9.54067416 23.0173606,7.01842697 21.9212958,6.25078652 C21.044444,5.48314607 18.304282,5.1541573 17.3178237,5.59280899 C15.2353006,6.36044944 13.3719905,10.3083146 13.043171,13.3788764 C12.6047451,18.2040449 13.3719905,23.2485393 15.2353006,27.6350562 C16.002546,29.3896629 16.8793978,31.0346067 16.8793978,32.8988764 C16.8793978,35.0921348 15.1256941,37.614382 12.7143516,36.7370787 C12.0567127,36.5177528 11.5086803,35.9694382 11.0702544,35.4211236 C9.9741896,33.8858427 9.9741896,32.021573 9.64537017,30.2669663 C9.31655073,27.9640449 8.11087946,25.2224719 5.58993044,25.3321348 C4.82268508,25.3321348 4.05543973,25.6611236 3.39780085,26.0997753 C1.97291662,27.3060674 1.42488423,29.0606742 1.20567127,30.8152809 C0.657638875,34.2148315 0.986458312,37.8337079 1.97291662,41.1235955 C3.28819437,45.6197753 5.8091434,50.4449438 9.53576369,53.4058427 C16.002546,58.4503371 26.086342,56.0377528 33.1011567,54.2831461 C36.608564,53.4058427 40.3351843,51.1029213 43.2945593,49.1289888 C46.1443277,47.1550562 48.0076379,43.0975281 44.7194435,40.0269663 C43.7329852,39.04 42.308101,38.4916854 40.8832167,38.2723596 C36.9373835,37.7240449 33.3203697,39.4786517 29.4841429,40.3559551 C28.2784716,40.5752809 26.7439809,40.6849438 26.086342,39.4786517 C25.7575226,38.8206742 25.8671291,37.9433708 26.4151615,37.2853933 C27.2920133,36.188764 28.6072911,35.9694382 29.9225688,35.6404494 C34.087615,34.872809 38.3622677,34.2148315 42.1984945,32.4602247 C46.0347212,30.705618 49.6517351,27.854382 51.0766193,23.9065169 C51.8438646,21.9325843 51.9534711,19.6296629 49.5421286,18.7523596 Z" fill="#2AB1FD"></path>
                        <g transform="translate(5.384259, 9.869663)" fill="#D9E2FF">
                            <path d="M28.5937494,3.18022472 C28.3745364,3.0705618 28.1553235,3.0705618 28.045717,3.28988764 C17.9619209,19.1910112 10.0702544,36.5177528 4.58993044,54.6121348 C4.48032396,54.8314607 4.69953692,55.0507865 4.91874987,55.1604494 L5.02835635,55.1604494 C5.24756931,55.1604494 5.46678227,55.0507865 5.46678227,54.8314607 C10.9471062,36.7370787 18.8387727,19.6296629 28.8129623,3.72853933 C28.9225688,3.50921348 28.8129623,3.28988764 28.5937494,3.18022472 Z"></path>
                            <path d="M40.1024297,12.7208989 C36.5950224,15.0238202 32.9780085,17.3267416 28.9225688,18.4233708 C24.4287032,19.52 20.044444,18.6426966 17.304282,16.2301124 C15.1121524,14.2561798 14.1256941,11.4049438 13.6872682,9.43101124 C13.1392358,6.79910112 13.1392358,3.94786517 13.2488423,1.42561798 C13.2488423,1.20629213 13.0296293,0.986966292 12.8104164,0.986966292 C12.5912034,0.986966292 12.3719905,1.20629213 12.3719905,1.42561798 C12.3719905,3.94786517 12.262384,6.79910112 12.9200229,9.54067416 C13.3584488,11.6242697 14.3449071,14.6948315 16.7562496,16.8880899 C18.4003468,18.4233708 20.7020829,19.4103371 23.1134254,19.7393258 C25.086342,19.9586517 27.0592587,19.8489888 29.1417818,19.4103371 C33.4164345,18.3137079 37.0334483,15.9011236 40.6504621,13.5982022 C40.869675,13.4885393 40.869675,13.1595506 40.7600686,13.0498876 C40.5408556,12.611236 40.3216426,12.501573 40.1024297,12.7208989 Z"></path>
                            <path d="M34.5124992,33.9955056 C29.6898142,36.188764 25.524768,37.2853933 21.0309023,38.4916854 L20.044444,38.7110112 C14.8929395,40.1366292 9.74143496,39.2593258 6.45324058,36.5177528 C2.50740733,33.2278652 1.41134254,27.7447191 0.863310146,23.7968539 C0.863310146,23.5775281 0.644097187,23.3582022 0.424884229,23.4678652 C0.205671271,23.4678652 -0.0135416875,23.687191 0.0960647916,23.9065169 C0.644097187,27.9640449 1.84976846,33.6665169 5.90520819,37.1757303 C7.76851833,38.8206742 10.1798609,39.8076404 12.9200229,40.1366292 C15.2217589,40.465618 17.7427079,40.2462921 20.263657,39.5883146 L21.2501153,39.3689888 C25.7439809,38.1626966 30.0186336,37.0660674 34.8413187,34.872809 C35.0605316,34.7631461 35.1701381,34.5438202 35.0605316,34.3244944 C34.9509252,33.9955056 34.7317122,33.8858427 34.5124992,33.9955056 Z"></path>
                        </g>
                    </g>
                    <g transform="translate(20.825231, 71.280899)" id="Shape">
                        <path d="M27.6208327,12.2822472 C27.2920133,12.0629213 26.8535874,11.9532584 26.4151615,11.9532584 C24.9902772,12.0629213 24.4422449,13.7078652 24.4422449,15.0238202 C24.4422449,16.0107865 24.4422449,17.1074157 23.8942125,17.9847191 C23.6749995,18.3137079 23.4557865,18.6426966 23.0173606,18.8620225 C21.7020829,19.52 20.4964116,18.2040449 20.3868051,16.9977528 C20.2771986,15.9011236 20.7156246,14.9141573 21.044444,13.927191 C21.9212958,11.2952809 22.0309023,8.44404494 21.4828699,5.70247191 C21.1540505,3.94786517 20.3868051,2.19325843 18.6331015,1.5352809 C17.7562496,1.20629213 16.6601848,1.42561798 16.002546,2.19325843 C15.2353006,3.0705618 15.56412,4.16719101 15.783333,5.1541573 C16.002546,5.92179775 16.3313654,6.79910112 15.8929395,7.56674157 C15.6737265,8.11505618 15.1256941,8.44404494 14.5776617,8.2247191 C14.0296293,8.11505618 13.8104164,7.56674157 13.5912034,7.12808989 C12.2759257,4.27685393 9.86458312,1.86426966 6.90520819,0.767640449 C5.261111,0.109662921 3.06898142,0.109662921 2.41134254,1.75460674 C2.19212958,2.19325843 2.19212958,2.63191011 2.30173606,3.18022472 C2.52094902,4.27685393 3.1785879,5.1541573 3.94583325,5.92179775 L7.78206002,10.4179775 C8.11087946,10.8566292 7.78206002,11.5146067 7.23402762,11.4049438 L2.41134254,10.7469663 C1.97291662,10.6373034 1.53449071,10.7469663 1.09606479,10.9662921 C-0.219212958,11.5146067 2.21669905e-13,12.8305618 0.438425917,13.8175281 C1.53449071,16.0107865 3.72662029,17.4364045 5.91874987,18.094382 C8.22048594,18.8620225 10.6318285,18.9716854 13.043171,19.1910112 C13.8104164,19.3006742 14.5776617,19.3006742 15.1256941,19.8489888 C15.4545136,20.1779775 15.56412,20.6166292 15.4545136,21.0552809 C15.1256941,21.7132584 14.3584488,21.8229213 13.5912034,21.7132584 C11.3990738,21.4939326 9.31655073,20.6166292 7.01481467,21.1649438 C6.24756931,21.3842697 5.48032396,21.8229213 4.93229156,22.371236 C3.28819437,24.3451685 4.60347212,26.428764 6.24756931,27.4157303 C8.11087946,28.4026966 10.0837961,28.6220225 12.1663192,28.8413483 C16.2217589,29.3896629 22.2501153,31.1442697 25.5383096,27.854382 C27.5112263,25.9901124 28.6072911,23.1388764 29.1553235,20.5069663 C29.4841429,18.5330337 29.4841429,16.5591011 28.9361105,14.6948315 C28.826504,13.8175281 28.4976846,12.8305618 27.6208327,12.2822472 Z" fill="#35353B"></path>
                        <g transform="translate(2.192130, 4.386517)" fill="#D9E2FF">
                            <path d="M7.78206002,2.30292135 C7.67245354,2.19325843 7.45324058,2.08359551 7.3436341,2.19325843 C7.23402762,2.30292135 7.12442115,2.52224719 7.23402762,2.63191011 C13.8104164,10.9662921 19.1811339,20.2876404 23.3461801,30.1573034 C23.4557865,30.2669663 23.565393,30.3766292 23.6749995,30.3766292 L23.784606,30.3766292 C24.0038189,30.2669663 24.0038189,30.0476404 24.0038189,29.9379775 C19.8387727,20.0683146 14.3584488,10.7469663 7.78206002,2.30292135 Z"></path>
                            <path d="M16.1121524,0 C15.8929395,0 15.783333,0.219325843 15.783333,0.328988764 C15.8929395,1.75460674 16.1121524,3.28988764 16.002546,4.82516854 C15.8929395,5.92179775 15.56412,7.56674157 14.3584488,8.88269663 C12.9335645,10.4179775 10.522222,11.185618 8.00127298,10.7469663 C5.58993044,10.4179775 3.50740733,9.32134831 1.31527775,8.2247191 C1.09606479,8.11505618 0.986458312,8.2247191 0.876851833,8.33438202 C0.767245354,8.44404494 0.876851833,8.66337079 0.986458312,8.77303371 C3.1785879,9.86966292 5.37071748,10.9662921 7.8916665,11.4049438 C8.4396989,11.5146067 8.98773129,11.5146067 9.53576369,11.5146067 C11.7278933,11.5146067 13.7008099,10.6373034 14.9064812,9.32134831 C16.1121524,7.89573034 16.5505784,6.1411236 16.6601848,4.93483146 C16.7697913,3.28988764 16.6601848,1.75460674 16.4409719,0.219325843 C16.5505784,0.109662921 16.3313654,0 16.1121524,0 Z"></path>
                            <path d="M24.4422449,12.0629213 C24.2230319,12.0629213 24.1134254,12.1725843 24.1134254,12.3919101 C24.0038189,14.5851685 23.6749995,17.7653933 21.7020829,19.8489888 C20.0579857,21.6035955 17.2082172,22.371236 14.2488423,21.8229213 L13.7008099,21.7132584 C11.1798609,21.2746067 8.65891185,20.945618 5.91874987,19.9586517 C5.69953692,19.8489888 5.58993044,19.9586517 5.48032396,20.1779775 C5.37071748,20.3973034 5.48032396,20.5069663 5.69953692,20.6166292 C8.54930537,21.6035955 11.0702544,21.9325843 13.7008099,22.371236 L14.2488423,22.4808989 C14.9064812,22.5905618 15.56412,22.5905618 16.2217589,22.5905618 C18.6331015,22.5905618 20.825231,21.7132584 22.2501153,20.1779775 C24.4422449,17.9847191 24.7710643,14.5851685 24.7710643,12.2822472 C24.7710643,12.2822472 24.6614578,12.0629213 24.4422449,12.0629213 Z"></path>
                        </g>
                    </g>
                    <g transform="translate(31.785879, 99.793258)" id="Shape">
                        <path d="M26.1959485,0 L1.53449071,0 C0.657638875,0 -2.9629077e-13,0.877303371 0.219212958,1.75460674 L1.09606479,5.81213483 C1.20567127,6.47011236 1.75370367,6.90876404 2.41134254,6.90876404 L25.2094902,6.90876404 C25.8671291,6.90876404 26.4151615,6.47011236 26.524768,5.81213483 L27.4016198,1.75460674 C27.8400457,0.767640449 27.1824068,0 26.1959485,0 Z" fill="#67CBFC"></path>
                        <path d="M4.82268508,20.5069663 C4.93229156,21.3842697 5.8091434,22.1519101 6.68599523,22.1519101 L21.044444,22.1519101 C22.0309023,22.1519101 22.7981477,21.4939326 22.9077541,20.5069663 L24.8806708,6.79910112 L2.74016198,6.79910112 L4.82268508,20.5069663 Z" fill="#2AB1FD"></path>
                    </g>
                </g>
                <path d="M516.790165,427.685393 L309.414706,427.685393 C307.332183,427.685393 305.24966,427.904719 303.276744,428.453034 L124.39897,475.059775 C112.123044,478.24 116.726516,487.451685 130.536932,487.451685 L344.707993,487.451685 C346.900122,487.451685 349.092252,487.23236 350.955562,486.684045 L518.105443,441.393258 C530.162155,438.103371 530.490975,427.685393 516.790165,427.685393 Z" id="Shape" fill-opacity="0.42" fill="#E5E9F2"></path>
                <g id="Group" transform="translate(202.771986, 0.000000)">
                    <path d="M295.608674,9.43101124 L284.757633,14.6948315 L113.990738,14.4755056 C96.1248822,14.4755056 76.0668965,29.8283146 73.5459475,45.4004494 L8.22048594,443.257528 L18.0850691,453.127191 C23.1269671,458.281348 30.7994206,461.461573 39.6775455,461.461573 L213.074995,461.900225 C230.940852,461.900225 247.49143,449.288989 250.012379,433.716854 L312.378466,39.9173034 C313.693743,31.9119101 310.953581,24.6741573 305.69247,19.52 L295.608674,9.43101124 Z" id="Shape" fill="#67CBFC"></path>
                    <g transform="translate(40.554397, 452.907865)" id="Shape" fill="#3E70FB">
                        <g transform="translate(100.837961, 0.000000)">
                            <g transform="translate(10.864583, 0.000000)">
                                <path d="M33.7452539,0.767640449 C32.7587956,0.767640449 32.6491891,1.42561798 33.4164345,2.19325843 C34.1836798,2.96089888 35.608564,3.6188764 36.5950224,3.6188764 C37.5814807,3.6188764 37.6910871,2.96089888 36.9238418,2.19325843 C36.1565964,1.42561798 34.7317122,0.767640449 33.7452539,0.767640449 Z"></path>
                                <path d="M28.2649299,0.767640449 C27.2784716,0.767640449 27.1688651,1.42561798 27.9361105,2.19325843 C28.7033559,2.96089888 30.1282401,3.6188764 31.1146984,3.6188764 C32.1011567,3.6188764 32.2107632,2.96089888 31.4435178,2.19325843 C30.6762725,1.42561798 29.2513882,0.767640449 28.2649299,0.767640449 Z"></path>
                                <path d="M22.784606,0.767640449 C21.7981477,0.767640449 21.6885412,1.42561798 22.4557865,2.19325843 C23.2230319,2.96089888 24.6479161,3.6188764 25.6343744,3.6188764 C26.6208327,3.6188764 26.7304392,2.96089888 25.9631939,2.19325843 C25.1959485,1.42561798 23.7710643,0.767640449 22.784606,0.767640449 Z"></path>
                                <path d="M17.304282,0.767640449 C16.3178237,0.767640449 16.2082172,1.42561798 16.9754626,2.19325843 C17.7427079,2.96089888 19.1675922,3.6188764 20.1540505,3.6188764 C21.1405088,3.6188764 21.2501153,2.96089888 20.4828699,2.19325843 C19.7156246,1.42561798 18.2907403,0.767640449 17.304282,0.767640449 Z"></path>
                                <path d="M11.8239581,0.767640449 C10.8374997,0.767640449 10.7278933,1.42561798 11.4951386,2.19325843 C12.262384,2.96089888 13.6872682,3.6188764 14.6737265,3.6188764 C15.6601848,3.6188764 15.7697913,2.96089888 15.002546,2.19325843 C14.2353006,1.42561798 12.8104164,0.767640449 11.8239581,0.767640449 Z"></path>
                                <path d="M6.3436341,0.767640449 C5.35717579,0.767640449 5.24756931,1.42561798 6.01481467,2.19325843 C6.78206002,2.96089888 8.20694425,3.6188764 9.19340256,3.6188764 C10.1798609,3.6188764 10.2894674,2.96089888 9.522222,2.19325843 C8.75497665,1.31595506 7.33009242,0.767640449 6.3436341,0.767640449 Z"></path>
                                <path d="M0.863310146,0.657977528 C-0.123148167,0.657977528 -0.232754646,1.31595506 0.534490708,2.08359551 C1.30173606,2.85123596 2.72662029,3.50921348 3.7130786,3.50921348 C4.69953692,3.50921348 4.8091434,2.85123596 4.04189804,2.08359551 C3.27465269,1.31595506 1.84976846,0.657977528 0.863310146,0.657977528 Z"></path>
                            </g>
                            <g transform="translate(14.248842, 4.386517)">
                                <path d="M34.6356474,0.767640449 C33.6491891,0.767640449 33.5395826,1.42561798 34.306828,2.19325843 C35.0740733,2.96089888 36.4989576,3.6188764 37.4854159,3.6188764 C38.4718742,3.6188764 38.5814807,2.96089888 37.8142353,2.19325843 C37.04699,1.42561798 35.6221057,0.767640449 34.6356474,0.767640449 Z"></path>
                                <path d="M29.1553235,0.767640449 C28.1688651,0.767640449 28.0592587,1.42561798 28.826504,2.19325843 C29.5937494,2.96089888 31.0186336,3.6188764 32.0050919,3.6188764 C32.9915502,3.6188764 33.1011567,2.96089888 32.3339114,2.19325843 C31.566666,1.42561798 30.1417818,0.767640449 29.1553235,0.767640449 Z"></path>
                                <path d="M23.6749995,0.767640449 C22.6885412,0.767640449 22.5789347,1.42561798 23.3461801,2.19325843 C24.1134254,2.96089888 25.5383096,3.6188764 26.524768,3.6188764 C27.5112263,3.6188764 27.6208327,2.96089888 26.8535874,2.19325843 C26.086342,1.42561798 24.6614578,0.767640449 23.6749995,0.767640449 Z"></path>
                                <path d="M18.1946755,0.767640449 C17.2082172,0.767640449 17.0986107,1.42561798 17.8658561,2.19325843 C18.6331015,2.96089888 20.0579857,3.6188764 21.044444,3.6188764 C22.0309023,3.6188764 22.1405088,2.96089888 21.3732634,2.19325843 C20.6060181,1.31595506 19.1811339,0.767640449 18.1946755,0.767640449 Z"></path>
                                <path d="M12.7143516,0.657977528 C11.7278933,0.657977528 11.6182868,1.31595506 12.3855321,2.08359551 C13.1527775,2.85123596 14.5776617,3.50921348 15.56412,3.50921348 C16.5505784,3.50921348 16.6601848,2.85123596 15.8929395,2.08359551 C15.1256941,1.31595506 13.7008099,0.657977528 12.7143516,0.657977528 Z"></path>
                                <path d="M7.23402762,0.657977528 C6.24756931,0.657977528 6.13796283,1.31595506 6.90520819,2.08359551 C7.67245354,2.85123596 9.09733777,3.50921348 10.0837961,3.50921348 C11.0702544,3.50921348 11.1798609,2.85123596 10.4126155,2.08359551 C9.64537017,1.31595506 8.22048594,0.657977528 7.23402762,0.657977528 Z"></path>
                                <path d="M1.75370367,0.657977528 C0.767245354,0.657977528 0.657638875,1.31595506 1.42488423,2.08359551 C2.19212958,2.85123596 3.61701381,3.50921348 4.60347212,3.50921348 C5.58993044,3.50921348 5.69953692,2.85123596 4.93229156,2.08359551 C4.16504621,1.31595506 2.74016198,0.657977528 1.75370367,0.657977528 Z"></path>
                            </g>
                            <g>
                                <path d="M6.46678227,0.657977528 C5.48032396,0.657977528 5.37071748,1.31595506 6.13796283,2.08359551 C6.90520819,2.85123596 8.33009242,3.50921348 9.31655073,3.50921348 C10.303009,3.50921348 10.4126155,2.85123596 9.64537017,2.08359551 C8.87812481,1.31595506 7.45324058,0.657977528 6.46678227,0.657977528 Z"></path>
                                <path d="M10.741435,5.04449438 C9.75497665,5.04449438 9.64537017,5.70247191 10.4126155,6.47011236 C11.1798609,7.23775281 12.6047451,7.89573034 13.5912034,7.89573034 C14.5776617,7.89573034 14.6872682,7.23775281 13.9200229,6.47011236 C13.1527775,5.70247191 11.7278933,5.04449438 10.741435,5.04449438 Z"></path>
                                <path d="M1.20567127,0.657977528 C0.219212958,0.657977528 0.109606479,1.31595506 0.876851833,2.08359551 C1.64409719,2.85123596 3.06898142,3.50921348 4.05543973,3.50921348 C5.04189804,3.50921348 5.15150452,2.85123596 4.38425917,2.08359551 C3.61701381,1.31595506 2.19212958,0.657977528 1.20567127,0.657977528 Z"></path>
                                <path d="M5.48032396,5.04449438 C4.49386565,5.04449438 4.38425917,5.70247191 5.15150452,6.47011236 C5.91874987,7.23775281 7.3436341,7.89573034 8.33009242,7.89573034 C9.31655073,7.89573034 9.42615721,7.23775281 8.65891185,6.47011236 C7.8916665,5.70247191 6.46678227,5.04449438 5.48032396,5.04449438 Z"></path>
                            </g>
                        </g>
                        <g>
                            <g transform="translate(9.864583, 0.000000)">
                                <path d="M34.5260409,0.328988764 C33.5395826,0.328988764 33.4299761,0.986966292 34.1972215,1.75460674 C34.9644669,2.52224719 36.3893511,3.18022472 37.3758094,3.18022472 C38.3622677,3.18022472 38.4718742,2.52224719 37.7046288,1.75460674 C36.827777,0.986966292 35.4028928,0.328988764 34.5260409,0.328988764 Z"></path>
                                <path d="M29.045717,0.328988764 C28.0592587,0.328988764 27.9496522,0.986966292 28.7168975,1.75460674 C29.4841429,2.52224719 30.9090271,3.18022472 31.8954854,3.18022472 C32.8819437,3.18022472 32.9915502,2.52224719 32.2243049,1.75460674 C31.347453,0.986966292 29.9225688,0.328988764 29.045717,0.328988764 Z"></path>
                                <path d="M23.565393,0.328988764 C22.5789347,0.328988764 22.4693282,0.986966292 23.2365736,1.75460674 C24.0038189,2.52224719 25.4287032,3.18022472 26.4151615,3.18022472 C27.4016198,3.18022472 27.5112263,2.52224719 26.7439809,1.75460674 C25.8671291,0.986966292 24.4422449,0.328988764 23.565393,0.328988764 Z"></path>
                                <path d="M18.0850691,0.328988764 C17.0986107,0.328988764 16.9890043,0.986966292 17.7562496,1.75460674 C18.523495,2.52224719 19.9483792,3.18022472 20.9348375,3.18022472 C21.9212958,3.18022472 22.0309023,2.52224719 21.263657,1.75460674 C20.3868051,0.986966292 18.9619209,0.328988764 18.0850691,0.328988764 Z"></path>
                                <path d="M12.6047451,0.328988764 C11.6182868,0.328988764 11.5086803,0.986966292 12.2759257,1.75460674 C13.043171,2.52224719 14.4680552,3.18022472 15.4545136,3.18022472 C16.4409719,3.18022472 16.5505784,2.52224719 15.783333,1.75460674 C14.9064812,0.986966292 13.4815969,0.328988764 12.6047451,0.328988764 Z"></path>
                                <path d="M7.12442115,0.328988764 C6.13796283,0.328988764 6.02835635,0.986966292 6.79560171,1.75460674 C7.56284706,2.52224719 8.98773129,3.18022472 9.9741896,3.18022472 C10.9606479,3.18022472 11.0702544,2.52224719 10.303009,1.75460674 C9.42615721,0.877303371 8.00127298,0.328988764 7.12442115,0.328988764 Z"></path>
                                <path d="M1.64409719,0.219325843 C0.657638875,0.219325843 0.548032396,0.877303371 1.31527775,1.64494382 C2.0825231,2.41258427 3.50740733,3.0705618 4.49386565,3.0705618 C5.48032396,3.0705618 5.58993044,2.41258427 4.82268508,1.64494382 C3.94583325,0.877303371 2.52094902,0.219325843 1.64409719,0.219325843 Z"></path>
                            </g>
                            <g transform="translate(14.248842, 4.386517)">
                                <path d="M34.4164345,0.328988764 C33.4299761,0.328988764 33.3203697,0.986966292 34.087615,1.75460674 C34.8548604,2.52224719 36.2797446,3.18022472 37.2662029,3.18022472 C38.2526612,3.18022472 38.3622677,2.52224719 37.5950224,1.75460674 C36.7181705,0.986966292 35.2932863,0.328988764 34.4164345,0.328988764 Z"></path>
                                <path d="M28.9361105,0.328988764 C27.9496522,0.328988764 27.8400457,0.986966292 28.6072911,1.75460674 C29.3745364,2.52224719 30.7994206,3.18022472 31.785879,3.18022472 C32.7723373,3.18022472 32.8819437,2.52224719 32.1146984,1.75460674 C31.2378466,0.986966292 29.8129623,0.328988764 28.9361105,0.328988764 Z"></path>
                                <path d="M23.4557865,0.328988764 C22.4693282,0.328988764 22.3597217,0.986966292 23.1269671,1.75460674 C23.8942125,2.52224719 25.3190967,3.18022472 26.305555,3.18022472 C27.2920133,3.18022472 27.4016198,2.52224719 26.6343744,1.75460674 C25.7575226,0.986966292 24.3326384,0.328988764 23.4557865,0.328988764 Z"></path>
                                <path d="M17.9754626,0.328988764 C16.9890043,0.328988764 16.8793978,0.986966292 17.6466431,1.75460674 C18.4138885,2.52224719 19.8387727,3.18022472 20.825231,3.18022472 C21.8116894,3.18022472 21.9212958,2.52224719 21.1540505,1.75460674 C20.2771986,0.877303371 18.8523144,0.328988764 17.9754626,0.328988764 Z"></path>
                                <path d="M12.4951386,0.219325843 C11.5086803,0.219325843 11.3990738,0.877303371 12.1663192,1.64494382 C12.9335645,2.41258427 14.3584488,3.0705618 15.3449071,3.0705618 C16.3313654,3.0705618 16.4409719,2.41258427 15.6737265,1.64494382 C14.7968747,0.877303371 13.3719905,0.219325843 12.4951386,0.219325843 Z"></path>
                                <path d="M7.01481467,0.219325843 C6.02835635,0.219325843 5.91874987,0.877303371 6.68599523,1.64494382 C7.45324058,2.41258427 8.87812481,3.0705618 9.86458312,3.0705618 C10.8510414,3.0705618 10.9606479,2.41258427 10.1934026,1.64494382 C9.31655073,0.877303371 7.8916665,0.219325843 7.01481467,0.219325843 Z"></path>
                                <path d="M1.53449071,0.219325843 C0.548032396,0.219325843 0.438425917,0.877303371 1.20567127,1.64494382 C1.97291662,2.41258427 3.39780085,3.0705618 4.38425917,3.0705618 C5.37071748,3.0705618 5.48032396,2.41258427 4.7130786,1.64494382 C3.83622677,0.877303371 2.41134254,0.219325843 1.53449071,0.219325843 Z"></path>
                            </g>
                            <g>
                                <path d="M6.24756931,0.219325843 C5.261111,0.219325843 5.15150452,0.877303371 5.91874987,1.64494382 C6.68599523,2.41258427 8.11087946,3.0705618 9.09733777,3.0705618 C10.0837961,3.0705618 10.1934026,2.41258427 9.42615721,1.64494382 C8.54930537,0.877303371 7.12442115,0.219325843 6.24756931,0.219325843 Z"></path>
                                <path d="M10.522222,4.6058427 C9.53576369,4.6058427 9.42615721,5.26382022 10.1934026,6.03146067 C10.9606479,6.79910112 12.3855321,7.45707865 13.3719905,7.45707865 C14.3584488,7.45707865 14.4680552,6.79910112 13.7008099,6.03146067 C12.8239581,5.26382022 11.5086803,4.6058427 10.522222,4.6058427 Z"></path>
                                <path d="M0.986458312,0.219325843 C-7.18702875e-13,0.219325843 -0.109606479,0.877303371 0.657638875,1.64494382 C1.42488423,2.41258427 2.84976846,3.0705618 3.83622677,3.0705618 C4.82268508,3.0705618 4.93229156,2.41258427 4.16504621,1.64494382 C3.28819437,0.877303371 1.86331015,0.219325843 0.986458312,0.219325843 Z"></path>
                                <path d="M5.261111,4.6058427 C4.27465269,4.6058427 4.16504621,5.26382022 4.93229156,6.03146067 C5.69953692,6.79910112 7.12442115,7.45707865 8.11087946,7.45707865 C9.09733777,7.45707865 9.20694425,6.79910112 8.4396989,6.03146067 C7.56284706,5.26382022 6.24756931,4.6058427 5.261111,4.6058427 Z"></path>
                            </g>
                        </g>
                    </g>
                    <path d="M273.468166,0.548314607 L99.961109,0.328988764 C82.0952529,0.328988764 65.5446745,13.0498876 63.0237255,28.6220225 L0.767245354,422.31191 C-1.64409719,437.884045 10.8510414,450.604944 28.7168975,450.714607 L202.114348,451.153258 C219.980204,451.153258 236.530782,438.542022 239.051731,422.969888 L301.417818,29.1703371 C303.82916,13.2692135 291.334022,0.548314607 273.468166,0.548314607 Z" id="Shape" fill="#2AB1FD"></path>
                    <path d="M275.331476,7.78606742 L101.824419,7.56674157 C87.0275445,7.56674157 72.4498827,18.7523596 70.3673596,31.3635955 L8.11087946,425.053483 C7.56284706,428.453034 7.78206002,433.387865 11.3990738,437.445393 C14.7968747,441.173933 20.3868051,443.257528 26.8535874,443.257528 L200.251037,443.69618 C214.938306,443.69618 229.515967,432.620225 231.59849,419.899326 C231.59849,419.899326 232.772092,412.494221 234.797873,399.710404 C247.565506,319.139469 294.18379,24.9130439 294.18379,24.3451685 C294.403003,21.1649438 293.854971,17.1074157 290.676383,13.5982022 C287.388188,9.86966292 281.798258,7.78606742 275.331476,7.78606742 Z" id="Shape" fill="#FFFFFF"></path>
                    <g transform="translate(138.104164, 8.773034)" id="Shape">
                        <path d="M13.9200229,1.75460674 C10.9606479,-0.657977528 6.24756931,-0.328988764 3.1785879,2.52224719 C0.219212958,5.37348315 0.219212958,9.54067416 3.06898142,11.9532584 C6.02835635,14.3658427 10.741435,14.0368539 13.8104164,11.185618 C16.7697913,8.33438202 16.8793978,4.16719101 13.9200229,1.75460674 Z" fill="#2AB1FD"></path>
                        <path d="M4.7130786,3.72853933 C2.41134254,5.81213483 2.30173606,8.99235955 4.38425917,10.6373034 C6.46678227,12.2822472 9.9741896,11.9532584 12.2759257,9.86966292 C14.5776617,7.78606742 14.6872682,4.6058427 12.6047451,2.96089888 C10.522222,1.31595506 6.90520819,1.5352809 4.7130786,3.72853933 Z" fill="#35353B"></path>
                        <path d="M79.2454844,2.30292135 L78.916665,2.30292135 L78.8070585,2.30292135 C78.8070585,2.30292135 78.8070585,2.30292135 78.697452,2.30292135 L28.9361105,2.19325843 L28.7168975,2.19325843 C27.4016198,2.19325843 25.9767356,2.74157303 24.6614578,3.72853933 C22.3597217,5.48314607 21.5924764,8.11505618 23.0173606,9.54067416 C23.4557865,9.97932584 24.0038189,10.1986517 24.5518513,10.3083146 C24.6614578,10.3083146 24.8806708,10.4179775 25.0998837,10.4179775 L26.4151615,10.4179775 L74.8612253,10.6373034 L75.0804382,10.6373034 C76.5053225,10.6373034 78.0398132,10.1986517 79.4646974,9.10202247 C80.9991881,8.00539326 81.7664335,6.47011236 81.8760399,5.1541573 C81.8760399,4.38651685 81.656827,3.72853933 81.1087946,3.18022472 C80.5607622,2.63191011 79.9031233,2.41258427 79.2454844,2.30292135 Z" fill="#2AB1FD"></path>
                        <path d="M32.7723373,5.04449438 C31.4570595,5.04449438 30.0321753,5.59280899 28.7168975,6.57977528 C27.2920133,7.67640449 26.4151615,9.10202247 26.4151615,10.4179775 L74.8612253,10.6373034 L75.0804382,10.6373034 C76.5053225,10.6373034 78.0398132,10.1986517 79.4646974,9.10202247 C80.9991881,8.00539326 81.7664335,6.47011236 81.8760399,5.1541573 L33.1011567,5.04449438 C32.9915502,4.93483146 32.8819437,4.93483146 32.7723373,5.04449438 Z" fill="#35353B"></path>
                    </g>
                    <path d="M130.212497,453.675506 C129.883678,453.346517 129.445252,453.127191 129.006826,453.127191 L99.4130766,453.127191 C98.4266183,453.127191 98.0977988,454.22382 98.7554377,454.991461 L102.701271,459.706966 C103.03009,460.035955 103.468516,460.255281 103.906942,460.255281 L133.500692,460.255281 C134.48715,460.255281 134.815969,459.158652 134.15833,458.391011 L130.212497,453.675506 Z" id="Shape" fill="#2AB1FD"></path>
                    <g transform="translate(37.266203, 276.350562)" id="Shape" fill="#2AB1FD">
                        <path d="M95.5768498,40.5752809 L72.2306698,43.9748315 C81.3280075,58.1213483 100.070715,59.3276404 100.070715,59.3276404 C94.3711786,55.818427 95.5768498,40.5752809 95.5768498,40.5752809 Z"></path>
                        <path d="M109.606479,0.767640449 L20.2771986,0.767640449 C12.2759257,0.767640449 4.82268508,7.23775281 3.50740733,15.2431461 L1.09606479,30.5959551 C-0.109606479,38.6013483 5.37071748,45.0714607 13.262384,45.0714607 L102.591664,45.0714607 C110.592937,45.0714607 118.046178,38.6013483 119.361456,30.5959551 L121.772798,15.2431461 C122.97847,7.23775281 117.498146,0.767640449 109.606479,0.767640449 Z"></path>
                    </g>
                    <g transform="translate(62.475693, 105.276404)" id="Shape" fill="#2AB1FD">
                        <path d="M95.1384239,40.3559551 L71.7922439,43.7555056 C80.8895816,57.9020225 99.6322896,59.1083146 99.6322896,59.1083146 C93.8231462,55.5991011 95.1384239,40.3559551 95.1384239,40.3559551 Z"></path>
                        <path d="M109.058447,0.548314607 L19.7291662,0.548314607 C11.7278933,0.548314607 4.27465269,7.01842697 2.95937494,15.0238202 L0.548032396,30.3766292 C-0.657638875,38.3820225 4.82268508,44.8521348 12.7143516,44.8521348 L102.043632,44.8521348 C110.044905,44.8521348 117.498146,38.3820225 118.813423,30.3766292 L121.224766,15.0238202 C122.540044,7.01842697 117.05972,0.548314607 109.058447,0.548314607 Z"></path>
                    </g>
                    <g transform="translate(65.763887, 365.177528)" id="Shape" fill="#67CBFC">
                        <path d="M20.4964116,59.5469663 C20.4964116,59.5469663 39.2391195,58.3406742 48.3364573,44.1941573 L24.9902772,40.7946067 C24.9902772,40.6849438 26.1959485,55.9280899 20.4964116,59.5469663 Z"></path>
                        <path d="M150.160876,0.877303371 L20.2771986,0.877303371 C12.2759257,0.877303371 4.82268508,7.34741573 3.50740733,15.352809 L1.09606479,30.705618 C-0.109606479,38.7110112 5.37071748,45.1811236 13.262384,45.1811236 L143.146062,45.1811236 C151.147335,45.1811236 158.600575,38.7110112 159.915853,30.705618 L162.327196,15.352809 C163.642473,7.34741573 158.162149,0.877303371 150.160876,0.877303371 Z"></path>
                    </g>
                    <g transform="translate(95.357637, 193.006742)" id="Shape" fill="#67CBFC">
                        <path d="M20.1675922,58.9986517 C20.1675922,58.9986517 38.9103001,57.7923596 48.0076379,43.6458427 L24.6614578,40.2462921 C24.6614578,40.2462921 25.8671291,55.3797753 20.1675922,58.9986517 Z"></path>
                        <path d="M149.832057,0.328988764 L19.9483792,0.328988764 C11.9471062,0.328988764 4.49386565,6.79910112 3.1785879,14.8044944 L0.767245354,30.1573034 C-0.438425917,38.1626966 5.04189804,44.632809 12.9335645,44.632809 L142.817242,44.632809 C150.818515,44.632809 158.271756,38.1626966 159.587034,30.1573034 L161.998376,14.8044944 C163.204047,6.90876404 157.723724,0.328988764 149.832057,0.328988764 Z"></path>
                    </g>
                </g>
                <path d="M124.732173,323.94427 C124.732173,326.027865 123.855321,426.259775 123.855321,426.259775 C126.266664,428.562697 130.322104,428.343371 130.43171,428.124045 C130.43171,428.124045 146.653469,326.795506 146.653469,321.970337 C143.694094,323.94427 126.37627,325.808539 124.732173,323.94427 Z" id="Shape" fill="#ACC7FB"></path>
                <path d="M121.992011,264.28764 C122.320831,314.513258 122.430437,424.94382 122.430437,424.94382 C124.622567,423.408539 129.445252,423.189213 131.856594,425.382472 L160.135066,267.138876 C150.818515,266.042247 124.403354,264.945618 121.992011,264.28764 Z" id="Shape" fill="#35353B"></path>
                <path d="M123.855321,425.163146 C123.855321,425.163146 123.636108,425.930787 122.430437,427.137079 C120.238308,429.220674 111.14097,434.484494 110.921757,437.993708 C110.81215,439.748315 114.100345,441.612584 116.7309,441.941573 C119.471062,442.270562 121.882405,442.270562 123.307289,441.393258 C125.170599,440.296629 128.897219,435.581124 129.554858,434.484494 C130.650923,432.620225 131.089349,429.330337 130.650923,427.685393 C129.774071,423.298876 123.855321,425.163146 123.855321,425.163146 Z" id="Shape" fill="#98DC4D"></path>
                <path d="M123.745715,429.659326 C121.115159,431.852584 112.456248,435.690787 112.237035,438.651685 C112.127428,440.186966 114.86759,441.722247 117.169326,441.941573 C119.471062,442.160899 121.443979,442.270562 122.759257,441.502921 C124.293747,440.625618 127.472335,436.56809 128.020368,435.690787 C130.979743,430.865618 126.37627,427.57573 123.745715,429.659326 Z" id="Shape" fill="#98DC4D"></path>
                <g id="Group" transform="translate(183.042820, 103.083146)">
                    <path d="M80.9991881,8.55370787 C79.9031233,8.66337079 80.3415492,9.43101124 80.5607622,10.1986517 C80.7799751,11.6242697 80.9991881,13.0498876 80.7799751,14.4755056 C81.2184011,12.9402247 82.0952529,13.3788764 82.7528918,11.7339326 C82.8624982,11.185618 81.656827,8.44404494 80.9991881,8.55370787 Z" id="Shape" fill="#E9D6B8"></path>
                    <path d="M90.8637712,4.38651685 C90.6445583,4.38651685 91.1925907,2.08359551 90.2061323,1.97393258 C90.2061323,1.97393258 90.0965259,1.09662921 89.438887,0.986966292 C88.8908546,0.877303371 87.5755768,1.31595506 87.2467574,1.5352809 C86.698725,1.97393258 85.7122667,4.05752809 85.2738408,4.82516854 C85.1642343,5.04449438 82.9721047,8.99235955 82.0952529,10.8566292 C81.437614,12.3919101 80.8895816,14.0368539 80.4511557,15.5721348 C80.4511557,15.6817978 84.8354149,18.8620225 86.4795121,19.4103371 C87.6851833,16.8880899 90.5349518,8.55370787 90.6445583,8.33438202 C92.5078684,5.48314607 91.8502295,4.16719101 90.8637712,4.38651685 Z" id="Shape" fill="#E9D6B8"></path>
                    <path d="M51.4054387,54.9411236 C51.1862258,55.3797753 50.9670128,55.818427 50.8574063,56.4764045 C50.3093739,59.1083146 51.1862258,63.0561798 56.5569432,63.6044944 C62.3660866,64.152809 81.3280075,32.2408989 86.917938,18.5330337 C85.1642343,17.9847191 82.9721047,16.778427 80.5607622,15.2431461 C77.2725678,23.5775281 55.6800914,47.5937079 51.4054387,54.9411236 Z" id="Shape" fill="#E2C59C"></path>
                    <path d="M50.090161,52.967191 C38.5814807,57.4633708 13.7008099,62.0692135 6.57638875,65.3591011 C5.261111,66.0170787 11.8374997,80.931236 13.9200229,82.9051685 C18.6331015,87.6206742 49.4325221,70.2939326 59.2971052,62.2885393 C62.914119,59.2179775 64.1197903,47.4840449 50.090161,52.967191 Z" id="Shape" fill="#ACC7FB"></path>
                    <path d="M59.9547441,40.5752809 C56.8857627,44.632809 53.9263877,48.4710112 51.8438646,51.4319101 C38.4718742,55.5991011 0.657638875,60.5339326 0.657638875,60.5339326 C0.657638875,74.5707865 5.91874987,93.1038202 8.54930537,91.5685393 C16.8793978,86.6337079 51.9534711,71.061573 59.9547441,64.7011236 C67.7368041,58.6696629 83.0817112,32.7892135 87.9043963,21.0552809 L78.2590261,16.4494382 C76.2861095,21.1649438 66.6407393,31.6925843 59.9547441,40.5752809 Z" id="Shape" fill="#2AB1FD"></path>
                </g>
                <g id="Group" transform="translate(41.650462, 164.494382)">
                    <path d="M10.741435,50.4449438 C10.303009,50.9932584 12.3855321,53.1865169 13.043171,53.4058427 C14.6872682,53.4058427 14.6872682,52.4188764 16.3313654,52.6382022 C15.0160876,52.1995506 13.7008099,51.541573 12.4951386,50.7739326 C11.8374997,50.225618 11.2894674,49.5676404 10.741435,50.4449438 Z" id="Shape" fill="#E2C59C"></path>
                    <path d="M12.4951386,52.4188764 C10.522222,52.4188764 6.02835635,52.8575281 5.69953692,52.8575281 C4.82268508,52.967191 2.52094902,53.0768539 1.86331015,53.4058427 C1.42488423,53.6251685 0.548032396,54.6121348 0.438425917,55.1604494 C0.328819437,55.9280899 0.986458312,56.2570787 0.986458312,56.2570787 C0.657638875,57.134382 2.95937494,57.6826966 2.84976846,57.7923596 C2.30173606,58.56 3.1785879,59.6566292 6.68599523,59.2179775 C6.90520819,59.2179775 15.6737265,59.7662921 18.523495,59.7662921 C18.6331015,58.0116854 17.5370367,52.6382022 17.4274302,52.6382022 C15.8929395,52.5285393 14.2488423,52.4188764 12.4951386,52.4188764 Z" id="Shape" fill="#E9D6B8"></path>
                    <path d="M66.6407393,43.3168539 C66.0927069,43.207191 65.5446745,43.207191 64.9966421,43.207191 C56.5569432,44.1941573 25.9767356,53.1865169 16.9890043,52.7478652 C17.4274302,55.5991011 17.6466431,58.0116854 17.5370367,59.8759551 C32.2243049,60.2049438 69.0520819,57.0247191 70.8057855,51.4319101 C72.4498827,46.2777528 69.1616884,43.8651685 66.6407393,43.3168539 Z" id="Shape" fill="#ACC7FB"></path>
                    <path d="M92.5078684,6.25078652 C86.5891185,11.4049438 72.4498827,32.4602247 63.6813644,41.2332584 C53.0495359,51.9802247 64.3390033,55.5991011 68.613656,53.4058427 C79.9031233,47.5937079 108.071988,26.2094382 105.660646,20.0683146 C104.674188,17.3267416 93.6039332,5.37348315 92.5078684,6.25078652 Z" id="Shape" fill="#ACC7FB"></path>
                    <path d="M92.2886555,0.657977528 C86.4795121,9.54067416 61.0508089,41.3429213 60.5027765,42.1105618 C56.8857627,42.8782022 52.1726841,43.9748315 47.0211796,45.1811236 C35.9509252,47.8130337 22.2501153,51.1029213 17.0986107,50.8835955 L17.4274302,61.6305618 C30.3609947,61.9595506 60.8315959,59.5469663 69.6001143,54.8314607 C78.8070585,50.1159551 101.824419,32.3505618 109.935299,26.6480899 C112.346641,25.0031461 92.6174749,0.109662921 92.2886555,0.657977528 Z" id="Shape" fill="#2AB1FD"></path>
                </g>
                <path d="M160.463885,320.764045 C160.244673,325.589213 173.287844,427.356404 173.287844,427.356404 C173.39745,427.57573 177.45289,427.795056 179.864232,425.601798 C179.864232,425.601798 182.056362,325.369888 182.165968,323.286292 C180.521871,325.040899 163.204047,322.737978 160.463885,320.764045 Z" id="Shape" fill="#ACC7FB"></path>
                <path d="M151.256941,248.934831 C151.256941,248.934831 155.97002,318.680449 160.463885,351.579326 C164.957751,384.258876 172.520598,424.724494 172.520598,424.724494 C174.931941,422.531236 178.548955,421.982921 180.631478,423.518202 C180.631478,423.518202 189.509602,251.566742 188.303931,244.438652 C183.919672,246.63191 164.628932,249.26382 151.256941,248.934831 Z" id="Shape" fill="#35353B"></path>
                <path d="M181.289117,253.869663 C168.793978,253.540674 156.298839,253.540674 143.913307,251.786067 C136.240854,250.799101 129.006826,248.715506 122.540044,245.644944 C120.895947,257.927191 119.799882,270.209438 120.128701,280.517753 C120.347914,281.17573 125.389812,283.478652 127.253122,284.136629 C137.665738,287.755506 164.519325,286.000899 189.071177,281.614382 C190.386454,271.854382 189.509602,265.055281 189.838422,253.869663 C186.988653,254.088989 184.138885,253.979326 181.289117,253.869663 Z" id="Shape" fill="#E9D6B8"></path>
                <path d="M158.490969,141.245843 C159.039001,144.974382 157.394904,156.92764 156.079626,158.901573 C159.148608,165.700674 170.547682,162.301124 171.314927,158.353258 C169.561223,154.076404 171.753353,147.715955 171.753353,146.948315 C169.013191,147.277303 159.367821,141.90382 158.490969,141.245843 Z" id="Shape" fill="#E9D6B8"></path>
                <path d="M168.574765,127.866966 C163.094441,128.195955 159.915853,133.021124 160.244673,138.394607 C160.244673,138.50427 160.683098,143.987416 160.683098,143.987416 C161.011918,148.044944 167.697913,153.966742 171.095714,152.979775 C179.3162,150.676854 180.083445,135.214382 179.645019,133.459775 C178.548955,128.634607 173.616663,127.537978 168.574765,127.866966 Z" id="Shape" fill="#E9D6B8"></path>
                <path d="M191.482519,180.505169 C192.140158,173.04809 190.386454,166.139326 182.165968,162.959101 C179.425806,161.862472 171.424533,158.353258 171.424533,158.353258 C171.424533,158.353258 169.451617,160.436854 164.190506,160.765843 C159.477427,161.094831 156.518052,158.133933 156.518052,158.133933 C156.518052,158.133933 151.804974,158.353258 142.378816,159.559551 C134.815969,160.546517 129.883678,170.635506 129.116432,175.131685 C128.458794,179.518202 116.621294,238.187865 117.607752,273.28 C117.826965,273.937978 120.895947,275.253933 121.772798,275.802247 L125.280206,254.856629 L125.718632,277.227865 C137.117705,280.079101 162.546409,278.872809 179.425806,278.763146 L184.686917,254.088989 L185.892589,278.872809 C187.536686,278.872809 190.82488,278.982472 192.140158,279.092135 C192.249764,245.754607 191.263306,182.259775 191.482519,180.505169 Z" id="Shape" fill="#2AB1FD"></path>
                <path d="M181.17951,427.137079 C180.193052,425.930787 179.864232,424.505169 179.864232,424.505169 C179.864232,424.505169 173.945482,423.737528 172.849418,426.588764 C172.191779,428.233708 171.862959,430.317303 173.835876,433.607191 C174.493515,434.70382 178.110529,439.528989 179.973839,440.625618 C181.508329,441.502921 183.810066,441.612584 186.550228,441.393258 C189.29039,441.173933 192.578584,439.419326 192.468977,437.664719 C192.359371,434.155506 183.152427,429.549663 181.17951,427.137079 Z" id="Shape" fill="#98DC4D"></path>
                <path d="M179.864232,428.891685 C177.343283,426.698427 172.191779,428.891685 174.931941,433.826517 C175.479973,434.70382 178.98738,439.748315 180.521871,440.735281 C181.727542,441.502921 183.810066,441.612584 186.111802,441.393258 C188.632751,441.173933 191.1537,439.748315 191.1537,438.213034 C190.934487,435.361798 182.494788,431.194607 179.864232,428.891685 Z" id="Shape" fill="#98DC4D"></path>
                <path d="M181.617936,129.621573 C178.110529,121.506517 164.738538,115.584719 156.846872,121.835506 C149.832057,127.318652 150.818515,137.188315 155.093168,143.76809 C157.285298,147.16764 153.120251,146.509663 153.120251,146.509663 C153.120251,146.509663 156.408446,150.238202 160.244673,151.444494 C173.068631,155.611685 181.289117,138.394607 181.289117,138.394607 C181.289117,138.394607 176.028006,136.749663 177.672103,136.859326 C185.454163,137.40764 187.09826,133.898427 186.331015,129.950562 C186.659834,131.37618 184.248491,135.653034 181.617936,129.621573 Z" id="Shape" fill="#141633"></path>
                <g id="Group" transform="translate(414.312491, 65.797753)">
                    <g transform="translate(98.645831, 0.000000)" id="Shape">
                        <path d="M104.893401,52.3092135 C98.6458312,47.7033708 90.5349518,43.4265169 81.3280075,39.2593258 C72.2306698,35.0921348 62.1468737,31.1442697 52.0630776,27.0867416 C42.088888,23.0292135 6.46678227,5.37348315 0.767245354,0.109662921 C45.2674759,44.1941573 74.7516188,120.738876 113.113886,89.8139326 C127.472335,78.1896629 117.388539,61.5208989 104.893401,52.3092135 Z" fill="#98DC4D"></path>
                        <path d="M3.50740733,109.553258 C2.74016198,109.772584 2.0825231,110.101573 1.42488423,110.430562 C2.0825231,110.101573 2.84976846,109.772584 3.50740733,109.553258 Z" fill="#35353B"></path>
                        <path d="M62.1468737,102.86382 C51.7342582,101.109213 40.5543973,101.218876 29.9225688,102.754157 C20.2771986,104.070112 11.1798609,106.482697 3.50740733,109.553258 C8.54930537,108.017978 15.4545136,109.114607 23.4557865,111.527191 C42.6369204,115.25573 56.6665497,129.292584 70.6961791,141.574831 C79.4646974,146.838652 86.4795121,157.366292 98.7554377,152.102472 C111.031363,148.593258 100.509141,125.783371 89.5484935,115.036404 C82.0952529,108.456629 72.5594892,104.72809 62.1468737,102.86382 Z" fill="#98DC4D"></path>
                        <path d="M183.37164,130.827865 C171.972566,125.344719 154.216316,125.344719 147.749534,127.537978 C127.691548,134.446742 119.690275,151.554157 130.212497,163.836404 C140.734719,179.627865 180.960297,146.180674 214.280667,179.189213 C216.143977,162.739775 208.58113,143.000449 183.37164,130.827865 Z" fill="#98DC4D"></path>
                        <path d="M53.1591424,166.029663 C39.1295131,162.520449 23.3461801,162.520449 10.303009,170.41618 C24.1134254,163.617079 37.3758094,172.609438 48.5556703,184.453034 C60.1739571,197.502921 70.6961791,229.085843 84.7258084,211.539775 C98.7554377,194.103371 72.4498827,171.293483 53.1591424,166.029663 Z" fill="#98DC4D"></path>
                        <path d="M149.503238,222.396404 C141.063539,221.080449 133.719905,222.067416 128.129974,225.686292 C111.579396,236.213933 108.291201,255.514607 125.060993,260.230112 C133.062266,262.423371 141.611571,255.733933 150.05127,250.908764 C158.490969,246.083596 167.040274,242.464719 175.808793,248.605843 C173.287844,233.143371 166.163422,225.028315 149.503238,222.396404 Z" fill="#98DC4D"></path>
                        <path d="M19.0715274,211.868764 C21.4828699,211.320449 27.2920133,224.808989 34.4164345,240.271461 C40.8832167,250.250787 40.8832167,262.533034 49.6517351,271.306067 C56.6665497,278.324494 68.9424754,278.324494 68.9424754,269.551461 C70.6961791,243.23236 53.1591424,202.876404 19.0715274,211.868764 Z" fill="#98DC4D"></path>
                        <path d="M141.830784,301.353708 C133.610298,300.805393 126.157058,299.818427 118.155785,296.857528 C107.41435,292.909663 93.2751138,299.050787 97.9881924,312.429663 C104.893401,331.730337 127.801155,332.059326 144.13252,325.589213 C160.792705,319.009438 166.930668,330.414382 166.930668,330.414382 C166.930668,330.414382 170.547682,303.437303 141.830784,301.353708 Z" fill="#98DC4D"></path>
                        <path d="M109.27766,197.173933 C110.592937,189.278202 111.798609,176.557303 112.785067,168.661573 C115.634836,144.974382 120.895947,110.211236 113.223493,89.8139326 C108.181595,76.4350562 84.7258084,52.7478652 70.6961791,49.6773034 C82.3144659,55.2701124 107.962382,80.2732584 110.81215,90.8008989 C116.621294,110.320899 113.771525,127.866966 112.237035,147.606292 C111.469789,157.475955 110.264118,167.345618 109.27766,177.215281 C108.291201,186.975281 102.043632,211.868764 102.043632,211.868764 C109.27766,146.619326 77.7109937,122.164494 59.0778923,114.378427 C52.1726841,111.527191 45.5962953,111.307865 38.3622677,110.540225 C38.0334483,110.430562 37.7046288,110.869213 38.1430547,110.869213 C48.3364573,111.307865 58.3106469,115.036404 67.1887717,120.629213 C74.8612253,126.441348 80.9991881,133.130787 85.8218732,140.587865 C90.7541647,148.044944 94.3711786,156.16 97.0017341,164.713708 C109.27766,199.367191 91.5214101,234.678652 82.7528918,269.770787 C84.8354149,245.315955 84.0681695,222.725393 76.9437484,200.025169 C74.0939799,190.923146 61.9276607,173.377079 51.5150452,169.538876 C97.1113405,201.121798 78.2590261,267.906517 72.9979151,315.280899 C65.873494,290.277753 54.8032396,243.890337 42.7465269,227.440899 C55.0224525,267.796854 82.4240723,322.518652 60.2835635,357.172135 C70.4769661,364.738876 74.9708317,352.566292 74.9708317,352.566292 C74.9708317,352.566292 75.1900447,323.724944 78.8070585,322.08 C92.179049,316.158202 140.07708,305.740225 155.860413,316.267865 C138.323377,302.231011 76.9437484,316.596854 76.9437484,316.596854 C76.9437484,316.596854 107.523956,262.533034 130.322104,245.973933 C138.21377,240.381124 146.543863,235.775281 154.873955,232.704719 C140.625113,235.555955 133.391085,238.845843 126.266664,246.193258 C114.538771,257.269213 98.6458312,276.350562 82.4240723,294.773933 C87.6851833,261.436404 105.441433,210.662472 122.759257,182.698427 C127.143516,175.241348 150.818515,123.919101 177.672103,145.084045 C143.036455,113.939775 114.538771,192.787416 109.27766,197.173933 Z" fill="#35353B"></path>
                    </g>
                    <g transform="translate(0.000000, 65.797753)" id="Shape">
                        <path d="M0.876851833,0.438651685 C8.00127298,2.52224719 20.6060181,10.7469663 28.2784716,26.0997753 C39.7871519,49.2386517 64.2293968,70.0746067 92.5078684,70.5132584 C70.0385402,35.5307865 81.5472205,17.3267416 0.876851833,0.438651685 Z" fill="#98DC4D"></path>
                        <path d="M72.3402762,78.8476404 C53.0495359,75.338427 31.1282401,79.6152809 17.2082172,93.7617978 C20.3868051,90.1429213 32.3339114,89.5946067 39.0199066,90.4719101 C64.1197903,92.3361798 75.9572901,135.104719 98.2074053,112.514157 C112.127428,98.3676404 86.2602991,81.3698876 72.3402762,78.8476404 Z" fill="#98DC4D"></path>
                        <path d="M147.201502,63.3851685 C124.622567,66.5653933 124.184141,94.2004494 130.212497,98.1483146 C142.049997,106.044045 147.201502,86.9626966 163.532867,83.8921348 C169.013191,82.9051685 182.385181,86.3047191 187.317473,88.8269663 C174.055089,81.6988764 175.808793,59.4373034 147.201502,63.3851685 Z" fill="#98DC4D"></path>
                        <path d="M104.783794,137.078652 C96.2344887,131.156854 84.177776,126.88 74.9708317,125.783371 C60.612383,126.331685 51.2958322,135.324045 44.5002305,145.742022 C51.1862258,136.311011 64.6678227,139.491236 78.3686326,145.084045 C90.5349518,150.238202 106.099072,162.959101 113.223493,156.488989 C118.374997,150.238202 113.333099,143.000449 104.783794,137.078652 Z" fill="#98DC4D"></path>
                        <path d="M44.5002305,145.63236 C44.2810176,145.961348 43.9521981,146.4 43.7329852,146.728989 C44.0618046,146.4 44.2810176,146.071011 44.5002305,145.63236 Z" fill="#35353B"></path>
                        <path d="M158.162149,118.98427 C147.530321,123.590112 141.063539,135.543371 141.063539,145.63236 C141.063539,155.721348 147.639927,167.235955 159.915853,160.546517 C167.917126,156.16 163.532867,149.141573 169.232404,139.929888 C174.931941,130.718202 182.385181,123.041798 187.975112,129.731236 C180.083445,117.88764 170.218862,114.48809 158.162149,118.98427 Z" fill="#98DC4D"></path>
                        <path d="M69.3809013,177.873258 C82.4240723,178.31191 84.8354149,182.80809 91.7406231,196.625618 C100.070715,213.294382 112.346641,224.918652 124.84178,216.693933 C131.527775,212.417079 126.37627,195.2 119.909488,187.742921 C108.291201,174.473708 86.4795121,165.15236 69.3809013,177.873258 Z" fill="#98DC4D"></path>
                        <path d="M160.683098,225.24764 C169.890043,234.678652 182.385181,230.511461 190.057635,224.48 C197.730088,218.448539 200.579857,192.019775 200.579857,192.019775 C200.579857,192.019775 180.302658,202.108764 167.259487,204.521348 C158.600575,207.262921 152.024187,216.364944 160.683098,225.24764 Z" fill="#98DC4D"></path>
                        <path d="M154.325923,238.845843 C147.749534,250.908764 147.311108,225.137978 147.091895,216.364944 C146.653469,194.322697 144.13252,146.4 169.890043,125.344719 C143.146062,139.381573 148.407173,176.44764 143.694094,203.863371 C141.282752,168.113258 104.564581,86.1950562 157.723724,72.3775281 C130.979743,74.0224719 124.403354,102.644494 127.253122,128.524944 C115.19641,100.341573 95.0288174,65.468764 69.1616884,47.7033708 C96.0152757,70.8422472 117.278933,115.475056 128.787613,147.057978 C113.223493,118.216629 73.2171281,84.2211236 43.2945593,87.5110112 C43.0753463,87.5110112 42.8561334,87.84 43.1849528,87.84 C95.0288174,90.2525843 138.652196,150.457528 140.296293,202.108764 C131.308562,190.374831 114.757984,131.266517 71.4634244,133.021124 C115.306016,135.543371 144.022914,213.842697 147.420714,253.321348 C135.692821,234.459326 108.291201,190.594157 91.5214101,180.066517 C119.361456,208.688539 152.572219,262.094382 151.256941,285.67191 L157.066085,284.136629 C157.066085,284.136629 138.761803,235.226966 184.796524,208.907865 C169.561223,213.404045 159.367821,229.524494 154.325923,238.845843 Z" fill="#35353B"></path>
                    </g>
                    <g transform="translate(127.143516, 325.698876)" id="Shape">
                        <path d="M70.915392,0.109662921 L3.94583325,0.109662921 C1.53449071,0.109662921 -0.328819437,2.41258427 0.219212958,4.71550562 L2.74016198,15.5721348 C3.1785879,17.3267416 4.7130786,18.5330337 6.46678227,18.5330337 L68.5040495,18.5330337 C70.2577531,18.5330337 71.7922439,17.3267416 72.2306698,15.5721348 L74.7516188,4.71550562 C75.1900447,2.41258427 73.436341,0.109662921 70.915392,0.109662921 Z" fill="#67CBFC"></path>
                        <path d="M12.7143516,56.0377528 C13.043171,58.56 15.2353006,60.4242697 17.8658561,60.4242697 L57.1049756,60.4242697 C59.6259247,60.4242697 61.8180542,58.56 62.2564802,56.0377528 L67.6271976,18.6426966 L7.45324058,18.6426966 L12.7143516,56.0377528 Z" fill="#2AB1FD"></path>
                    </g>
                </g>
            </g>
        </g>
    </g>
</svg>