<?xml version="1.0" encoding="UTF-8"?>
<svg width="400px" height="400px" viewBox="0 0 400 400" version="1.1" xmlns="http://www.w3.org/2000/svg" xmlns:xlink="http://www.w3.org/1999/xlink">
    <!-- Generator: Sketch 43.1 (39012) - http://www.bohemiancoding.com/sketch -->
    <title>img_hiw_3</title>
    <desc>Created with Sketch.</desc>
    <defs></defs>
    <g id="Page-7" stroke="none" stroke-width="1" fill="none" fill-rule="evenodd">
        <g id="img_hiw_3">
            <g id="Group-10" fill="#FFFFFF">
                <rect id="Rectangle-5" x="0" y="0" width="400" height="400"></rect>
            </g>
            <g id="Group-5" transform="translate(85.000000, 184.000000)" fill-rule="nonzero">
                <g id="Group">
                    <g transform="translate(0.267048, 0.000000)">
                        <path d="M13.1628531,126.171074 L13.1628531,4.53956464 C13.1628531,2.01758429 15.1133609,0 17.5514956,0 L196.371264,0 C198.809399,0 200.759907,2.01758429 200.759907,4.53956464 L200.759907,126.171074 L13.1628531,126.171074 Z" id="Shape" fill="#E5E9F2"></path>
                        <path d="M190.45008,112.120041 L23.403019,112.120041 C21.5918332,112.120041 20.0592913,110.606853 20.0592913,108.661325 L20.0592913,7.78211082 C20.0592913,5.9086397 21.5221722,4.3233949 23.403019,4.3233949 L190.519741,4.3233949 C192.330926,4.3233949 193.863468,5.83658311 193.863468,7.78211082 L193.863468,108.661325 C193.793807,110.534796 192.330926,112.120041 190.45008,112.120041 Z" id="Shape" fill="#FFFFFF"></path>
                        <g transform="translate(0.000000, 119.965438)">
                            <rect id="Rectangle-path" fill="#D4D9DF" x="0.136247415" y="0.0808268569" width="213.580604" height="3.5307725"></rect>
                            <path d="M137.716708,3.61159936 L112.360107,3.61159936 L89.0236742,3.61159936 L76.1363905,3.61159936 L0.136247415,3.61159936 C0.136247415,3.61159936 4.03726301,10.8893141 31.1353892,11.8981062 L89.0236742,11.8981062 L112.360107,11.8981062 L182.717709,11.8981062 C209.815836,10.9613707 213.716851,3.61159936 213.716851,3.61159936 L137.716708,3.61159936 Z" id="Shape" fill="#E5E9F2"></path>
                            <path d="M122.739595,7.57471135 L88.6057082,7.57471135 C86.5158784,7.57471135 84.8440146,5.84535339 84.8440146,3.68365594 L84.8440146,3.68365594 L126.570949,3.68365594 L126.570949,3.68365594 C126.570949,5.77329681 124.829424,7.57471135 122.739595,7.57471135 Z" id="Shape" fill="#35353B"></path>
                        </g>
                    </g>
                    <g transform="translate(7.578378, 12.970185)" id="Shape">
                        <g>
                            <path d="M50.1559148,82.4327294 L9.89186097,82.4327294 C5.43355743,82.4327294 1.81118581,78.6857872 1.81118581,74.0741659 L1.81118581,10.3761478 C1.81118581,5.76452653 5.43355743,2.01758429 9.89186097,2.01758429 L50.1559148,2.01758429 C54.6142183,2.01758429 58.2365899,5.76452653 58.2365899,10.3761478 L58.2365899,74.0741659 C58.2365899,78.7578437 54.6142183,82.4327294 50.1559148,82.4327294 Z" fill="#FFFFFF"></path>
                            <path d="M50.4345587,0.288226327 L9.75253898,0.288226327 C4.52796453,0.288226327 0.208982978,4.68367781 0.208982978,10.159978 L0.208982978,74.3623923 C0.208982978,79.7666359 4.45830354,84.2341439 9.75253898,84.2341439 L50.4345587,84.2341439 C55.6591332,84.2341439 59.9781148,79.8386925 59.9781148,74.3623923 L59.9781148,10.159978 C59.9084538,4.68367781 55.6591332,0.288226327 50.4345587,0.288226327 Z M58.2365899,74.3623923 C58.2365899,78.8299003 54.7535403,82.4327294 50.4345587,82.4327294 L9.75253898,82.4327294 C5.43355743,82.4327294 1.9505078,78.8299003 1.9505078,74.3623923 L1.9505078,10.159978 C1.9505078,5.69246995 5.43355743,2.08964087 9.75253898,2.08964087 L50.4345587,2.08964087 C54.7535403,2.08964087 58.2365899,5.69246995 58.2365899,10.159978 L58.2365899,74.3623923 Z" fill="#E5E9F2"></path>
                        </g>
                        <path d="M35.7360893,54.5468323 L9.613217,54.5468323 C8.77728509,54.5468323 8.15033615,53.8983231 8.15033615,53.0336441 L8.15033615,53.0336441 C8.15033615,52.1689651 8.77728509,51.5204559 9.613217,51.5204559 L35.7360893,51.5204559 C36.5720212,51.5204559 37.1989701,52.1689651 37.1989701,53.0336441 L37.1989701,53.0336441 C37.1989701,53.8262665 36.5023602,54.5468323 35.7360893,54.5468323 Z" fill="#E4EBEF"></path>
                        <g transform="translate(7.662709, 56.555646)" fill="#E4EBEF">
                            <path d="M11.5637248,2.02635456 L1.25389787,2.02635456 C0.76627092,2.02635456 0.348304964,1.59401507 0.348304964,1.089619 L0.348304964,1.089619 C0.348304964,0.585222928 0.76627092,0.152883439 1.25389787,0.152883439 L11.5637248,0.152883439 C12.0513517,0.152883439 12.4693177,0.585222928 12.4693177,1.089619 L12.4693177,1.089619 C12.4693177,1.66607165 12.0513517,2.02635456 11.5637248,2.02635456 Z"></path>
                            <path d="M20.4106709,2.02635456 L14.7681305,2.02635456 C14.2805035,2.02635456 13.8625376,1.59401507 13.8625376,1.089619 L13.8625376,1.089619 C13.8625376,0.585222928 14.2805035,0.152883439 14.7681305,0.152883439 L20.4106709,0.152883439 C20.8982978,0.152883439 21.3162638,0.585222928 21.3162638,1.089619 L21.3162638,1.089619 C21.3162638,1.66607165 20.8982978,2.02635456 20.4106709,2.02635456 Z"></path>
                        </g>
                        <g transform="translate(17.852716, 10.738325)">
                            <g transform="translate(0.259142, 0.070162)">
                                <path d="M0.348304964,28.6785195 L0.348304964,31.7769525 L23.5454155,31.7769525 L23.5454155,28.6785195 C23.5454155,25.6521431 21.9432127,22.8419364 19.435417,21.4008048 C18.878129,21.1125784 18.3208411,20.8243521 17.7635532,20.6081824 L15.1164354,19.81556 L14.7681305,19.6714468 L14.7681305,19.6714468 L14.6288085,19.5993902 L11.9816908,18.8067678 L9.33457303,19.5993902 L9.26491204,19.5993902 L9.19525104,19.5993902 L8.98626806,19.6714468 L6.19982835,20.5361258 C5.64254041,20.6802389 5.08525247,20.9684653 4.59762552,21.2566916 C1.9505078,22.7698798 0.348304964,25.5800865 0.348304964,28.6785195 Z" fill="#7ED321"></path>
                                <path d="M8.98626806,31.7769525 L14.8377915,31.7769525 L15.1164354,19.81556 L14.7681305,19.6714468 L14.7681305,19.6714468 L14.6288085,19.5993902 L14.6288085,19.5993902 L14.6288085,19.3832205 L11.9816908,18.8067678 L9.33457303,19.5993902 L9.26491204,19.5993902 L9.19525104,19.5993902 L8.98626806,31.7769525 Z" fill="#FFFFFF"></path>
                                <path d="M13.0266056,31.7769525 L16.7882993,31.7769525 L17.4152482,28.8946892 L15.8827063,28.3902932 L17.7635532,26.877105 L19.435417,21.4008048 C18.878129,21.1125784 18.3208411,20.8243521 17.7635532,20.6081824 L15.1164354,19.81556 L14.7681305,19.6714468 L14.7681305,19.81556 L13.0266056,31.7769525 Z" fill="#BFE990"></path>
                                <path d="M6.19982835,26.877105 L8.08067516,28.3902932 L6.54813332,28.8946892 L7.17508225,31.7769525 L10.9367759,31.7769525 L9.19525104,19.6714468 L9.12559005,19.6714468 L8.91660707,19.7435034 L6.13016736,20.6081824 C5.57287942,20.7522955 5.01559148,21.0405218 4.52796453,21.3287482 L6.19982835,26.877105 Z" fill="#BFE990"></path>
                                <path d="M5.50321843,12.1055057 C5.57287942,11.3849399 6.19982835,11.5290531 6.40881133,11.6011096 L6.40881133,10.9526004 C6.40881133,7.27771475 8.91660707,4.3233949 11.9816908,4.3233949 C15.0467744,4.3233949 17.5545702,7.27771475 17.5545702,10.9526004 L17.5545702,11.6011096 C17.6938922,11.5290531 18.3905021,11.3849399 18.4601631,12.1055057 C18.5298241,12.8981281 17.3455872,14.5554295 16.7882993,14.2672032 L16.7882993,14.2672032 C16.3006723,15.3480519 15.5344014,16.2127309 14.6288085,16.7891835 L14.6288085,19.6714468 L14.6288085,19.6714468 C13.0266056,20.8243521 10.9367759,20.8243521 9.33457303,19.6714468 L9.33457303,19.6714468 L9.33457303,16.7891835 C8.42898012,16.2127309 7.6627092,15.3480519 7.17508225,14.2672032 C6.61779431,14.4833729 5.43355743,12.8981281 5.50321843,12.1055057 Z" fill="#E9D6B8"></path>
                                <path d="M10.4491489,6.34097919 C10.4491489,6.34097919 12.4693177,9.7996951 14.9771134,10.6643741 C14.9771134,10.6643741 14.6288085,9.72763852 14.6984695,9.22324245 C14.6984695,9.22324245 16.0916893,9.72763852 17.1366042,10.6643741 C17.7635532,11.2408267 17.1366042,13.3304676 17.1366042,13.3304676 C17.1366042,13.3304676 19.9230439,8.71884638 18.4601631,6.34097919 C16.9276212,4.03516857 13.7232156,2.95431985 13.0962666,1.72935796 L13.1659276,2.66609352 C13.1659276,2.66609352 11.7030468,1.22496189 11.4244028,0.216169745 C11.4244028,0.216169745 11.7030468,2.01758429 11.8423688,2.23375403 C11.8423688,2.23375403 7.80203119,3.24254617 6.61779431,5.47630021 C5.43355743,7.71005424 6.40881133,12.1055057 6.40881133,12.1055057 C6.40881133,12.1055057 6.7571163,10.0879214 7.17508225,9.15118587 C7.52338722,8.21445031 10.4491489,6.34097919 10.4491489,6.34097919 Z" fill="#35353B"></path>
                            </g>
                        </g>
                        <g transform="translate(5.924259, 67.733187)">
                            <polygon fill="#F7B100" points="4.17658499 0.648509235 5.50014386 3.31460276 8.28658357 3.74694225 6.26641478 5.76452653 6.75404173 8.71884638 4.17658499 7.34977133 1.66878926 8.71884638 2.1564162 5.76452653 0.0665864218 3.74694225 2.92268712 3.31460276"></polygon>
                            <polygon fill="#F7B100" points="14.2077679 0.648509235 15.5313268 3.31460276 18.3874275 3.74694225 16.2975977 5.76452653 16.7852247 8.71884638 14.2077679 7.34977133 11.6999722 8.71884638 12.1875992 5.76452653 10.0977694 3.74694225 12.9538701 3.31460276"></polygon>
                            <polygon fill="#F7B100" points="24.2389509 0.648509235 25.5625098 3.31460276 28.4186105 3.74694225 26.3287807 5.76452653 26.8164076 8.71884638 24.2389509 7.34977133 21.7311552 8.71884638 22.2187821 5.76452653 20.1289523 3.74694225 22.985053 3.31460276"></polygon>
                            <path d="M31.7623381,9.07912929 C31.6926771,9.07912929 31.6230161,9.07912929 31.5533551,9.00707271 C31.4140332,8.93501612 31.4140332,8.79090296 31.4140332,8.6467898 L31.9016601,5.9086397 L29.9511523,3.96311199 C29.8814913,3.89105541 29.8118303,3.74694225 29.8814913,3.60282908 C29.9511523,3.45871592 30.0208133,3.38665934 30.1601353,3.38665934 L32.807253,2.95431985 L33.9914899,0.43233949 C34.1308119,0.216169745 34.4791168,0.216169745 34.6184388,0.43233949 L35.8026757,2.95431985 L38.4497934,3.38665934 C38.5891154,3.38665934 38.6587764,3.5307725 38.7284374,3.60282908 C38.7980984,3.74694225 38.7284374,3.89105541 38.6587764,3.96311199 L36.7082686,5.9086397 L37.1958956,8.6467898 C37.1958956,8.79090296 37.1958956,8.93501612 37.0565736,9.00707271 C36.9172516,9.07912929 36.7779296,9.07912929 36.7082686,9.00707271 L34.3397949,7.71005424 L31.9713211,9.00707271 C31.9016601,9.07912929 31.8319991,9.07912929 31.7623381,9.07912929 Z M34.3397949,6.98948842 C34.4094558,6.98948842 34.4791168,6.98948842 34.4791168,7.061545 L36.4296246,8.07033714 L36.0813197,5.83658311 C36.0813197,5.69246995 36.0813197,5.62041337 36.1509807,5.54835679 L37.6835225,3.96311199 L35.5240317,3.67488566 C35.3847097,3.67488566 35.3150488,3.60282908 35.2453878,3.45871592 L34.2701339,1.44113163 L33.29488,3.45871592 C33.225219,3.5307725 33.155558,3.60282908 33.016236,3.67488566 L30.8567452,3.96311199 L32.3892871,5.54835679 C32.458948,5.62041337 32.528609,5.76452653 32.458948,5.83658311 L32.1106431,8.07033714 L34.0611509,7.061545 C34.2004729,6.98948842 34.2701339,6.98948842 34.3397949,6.98948842 Z" fill="#A1BACD"></path>
                            <path d="M41.7935211,9.07912929 C41.7238601,9.07912929 41.6541991,9.07912929 41.5845381,9.00707271 C41.4452161,8.93501612 41.4452161,8.79090296 41.4452161,8.6467898 L41.9328431,5.9086397 L39.9823353,3.96311199 C39.9126743,3.89105541 39.8430133,3.74694225 39.9126743,3.60282908 C39.9823353,3.45871592 40.0519963,3.38665934 40.1913182,3.38665934 L42.838436,2.95431985 L44.0226728,0.43233949 C44.1619948,0.216169745 44.5102998,0.216169745 44.6496218,0.43233949 L45.8338587,2.95431985 L48.4809764,3.38665934 C48.6202984,3.38665934 48.6899594,3.5307725 48.7596204,3.60282908 C48.8292813,3.74694225 48.7596204,3.89105541 48.6899594,3.96311199 L46.7394516,5.9086397 L47.2270785,8.6467898 C47.2270785,8.79090296 47.2270785,8.93501612 47.0877565,9.00707271 C46.9484345,9.07912929 46.8091126,9.07912929 46.7394516,9.00707271 L44.3709778,7.71005424 L42.0025041,9.00707271 C41.9328431,9.07912929 41.8631821,9.07912929 41.7935211,9.07912929 Z M44.3709778,6.98948842 C44.4406388,6.98948842 44.5102998,6.98948842 44.5102998,7.061545 L46.4608076,8.07033714 L46.1125026,5.83658311 C46.1125026,5.69246995 46.1125026,5.62041337 46.1821636,5.54835679 L47.7147055,3.96311199 L45.5552147,3.67488566 C45.4158927,3.67488566 45.3462317,3.60282908 45.2765707,3.45871592 L44.3013168,1.44113163 L43.3260629,3.45871592 C43.2564019,3.5307725 43.1867409,3.60282908 43.0474189,3.67488566 L40.8879282,3.96311199 L42.42047,5.54835679 C42.490131,5.62041337 42.559792,5.76452653 42.490131,5.83658311 L42.141826,8.07033714 L44.0923338,7.061545 C44.2316558,6.98948842 44.3013168,6.98948842 44.3709778,6.98948842 Z" fill="#A1BACD"></path>
                        </g>
                    </g>
                    <g transform="translate(75.149541, 12.970185)" id="Shape">
                        <g>
                            <path d="M50.0165928,82.4327294 L9.75253898,82.4327294 C5.29423545,82.4327294 1.67186383,78.6857872 1.67186383,74.0741659 L1.67186383,10.3761478 C1.67186383,5.76452653 5.29423545,2.01758429 9.75253898,2.01758429 L50.0165928,2.01758429 C54.4748963,2.01758429 58.097268,5.76452653 58.097268,10.3761478 L58.097268,74.0741659 C58.027607,78.7578437 54.4748963,82.4327294 50.0165928,82.4327294 Z" fill="#FFFFFF"></path>
                            <path d="M50.2255758,0.288226327 L9.54355601,0.288226327 C4.31898155,0.288226327 0,4.68367781 0,10.159978 L0,74.3623923 C0,79.7666359 4.24932056,84.2341439 9.54355601,84.2341439 L50.2255758,84.2341439 C55.4501502,84.2341439 59.7691318,79.8386925 59.7691318,74.3623923 L59.7691318,10.159978 C59.7691318,4.68367781 55.4501502,0.288226327 50.2255758,0.288226327 Z M58.027607,74.3623923 C58.027607,78.8299003 54.5445573,82.4327294 50.2255758,82.4327294 L9.54355601,82.4327294 C5.22457446,82.4327294 1.74152482,78.8299003 1.74152482,74.3623923 L1.74152482,10.159978 C1.74152482,5.69246995 5.22457446,2.08964087 9.54355601,2.08964087 L50.2255758,2.08964087 C54.5445573,2.08964087 58.027607,5.69246995 58.027607,10.159978 L58.027607,74.3623923 Z" fill="#E5E9F2"></path>
                        </g>
                        <g transform="translate(8.710699, 52.952817)" fill="#E4EBEF">
                            <path d="M16.7852247,1.95429798 L1.18116231,1.95429798 C0.693535357,1.95429798 0.2755694,1.52195849 0.2755694,1.01756242 L0.2755694,1.01756242 C0.2755694,0.513166347 0.693535357,0.0808268569 1.18116231,0.0808268569 L16.7852247,0.0808268569 C17.2728516,0.0808268569 17.6908176,0.513166347 17.6908176,1.01756242 L17.6908176,1.01756242 C17.6908176,1.52195849 17.2728516,1.95429798 16.7852247,1.95429798 Z"></path>
                            <path d="M11.4213282,5.62918364 L1.11150131,5.62918364 C0.623874364,5.62918364 0.205908407,5.19684415 0.205908407,4.69244808 L0.205908407,4.69244808 C0.205908407,4.18805201 0.623874364,3.75571252 1.11150131,3.75571252 L11.4213282,3.75571252 C11.9089552,3.75571252 12.3269211,4.18805201 12.3269211,4.69244808 L12.3269211,4.69244808 C12.3269211,5.19684415 11.9089552,5.62918364 11.4213282,5.62918364 Z"></path>
                            <path d="M20.3379353,5.62918364 L14.6953949,5.62918364 C14.2077679,5.62918364 13.789802,5.19684415 13.789802,4.69244808 L13.789802,4.69244808 C13.789802,4.18805201 14.2077679,3.75571252 14.6953949,3.75571252 L20.3379353,3.75571252 C20.8255623,3.75571252 21.2435282,4.18805201 21.2435282,4.69244808 L21.2435282,4.69244808 C21.1738672,5.19684415 20.8255623,5.62918364 20.3379353,5.62918364 Z"></path>
                            <path d="M30.2297963,1.95429798 L20.2682743,1.95429798 C19.7806474,1.95429798 19.3626814,1.52195849 19.3626814,1.01756242 L19.3626814,1.01756242 C19.3626814,0.513166347 19.7806474,0.0808268569 20.2682743,0.0808268569 L30.2297963,0.0808268569 C30.7174232,0.0808268569 31.1353892,0.513166347 31.1353892,1.01756242 L31.1353892,1.01756242 C31.0657282,1.52195849 30.7174232,1.95429798 30.2297963,1.95429798 Z"></path>
                        </g>
                        <g transform="translate(16.798577, 13.901939)">
                            <path d="M13.2253108,0.221151261 C13.2253108,0.221151261 7.02548242,0.00498151636 5.49294058,7.35475284 C5.00531363,9.73262004 6.95582142,11.3899214 5.77158455,13.191336 C4.58734767,14.9927505 0.964976047,17.0103348 2.07955193,19.5323151 C3.19412782,22.0542955 -1.05519274,24.4321627 0.825654062,27.818822 C2.77616186,31.2054814 23.7441207,30.412859 25.4159845,28.2511615 C27.0878483,26.0894641 26.5305604,21.9101823 24.9980185,20.1808244 C23.5351377,18.523523 24.4407306,15.6412597 24.7193746,14.4162978 C25.3463235,11.7502043 23.3958157,10.2370161 22.2115788,8.93999764 C21.027342,7.64297917 20.679037,0.293207843 13.2253108,0.221151261 Z" fill="#35353B"></path>
                            <g transform="translate(0.968051, 0.140324)">
                                <path d="M4.66421194,19.0317078 C5.15183889,18.7434815 5.70912683,18.5273118 6.26641478,18.311142 L9.05285449,17.446463 L9.26183746,17.3744065 L9.33149846,17.3744065 L9.40115945,17.3744065 L12.0482772,16.5817841 L14.6953949,17.1582367 L14.6953949,17.3744065 L14.6953949,17.3744065 L14.8347169,17.446463 L14.8347169,17.446463 L15.1830218,17.5905762 L17.8301396,18.3831986 C18.4570885,18.5993683 19.0143764,18.8155381 19.5020034,19.175821 C22.0097991,20.6169526 23.612002,23.4271593 23.612002,26.4535357 L23.612002,29.9122517 C23.612002,30.2725346 23.333358,30.6328175 22.915392,30.6328175 L0.972179328,30.6328175 C0.623874364,30.6328175 0.2755694,30.3445912 0.2755694,29.9122517 L0.2755694,26.4535357 C0.484552378,23.2830461 2.1564162,20.4728395 4.66421194,19.0317078 Z" fill="#2AB1FD"></path>
                                <path d="M5.63946584,9.7364088 C5.70912683,9.01584298 6.33607577,9.15995614 6.54505875,9.23201273 L6.54505875,8.58350349 C6.54505875,4.90861783 9.05285449,1.95429798 12.1179382,1.95429798 C15.1830218,1.95429798 17.6908176,4.90861783 17.6908176,8.58350349 L17.6908176,9.23201273 C17.8301396,9.15995614 18.5267495,9.01584298 18.5964105,9.7364088 C18.6660715,10.5290312 17.4818346,12.1863326 16.9245467,11.8981062 L16.9245467,11.8981062 C16.4369197,12.978955 15.6706488,13.843634 14.7650559,14.4200866 L14.7650559,17.3023499 L14.7650559,17.3023499 C13.1628531,18.4552552 11.0730233,18.4552552 9.47082044,17.3023499 L9.47082044,17.3023499 L9.47082044,14.4200866 C8.56522754,13.843634 7.79895662,12.978955 7.31132967,11.8981062 C6.75404173,12.1863326 5.56980485,10.5290312 5.63946584,9.7364088 Z" fill="#E9D6B8"></path>
                                <path d="M10.5853963,3.97188227 C10.5853963,3.97188227 12.6055651,7.43059819 15.1830218,8.29527717 C15.1830218,8.29527717 16.2975977,7.43059819 17.3425126,8.29527717 C17.9694616,8.87172982 17.3425126,10.9613707 17.3425126,10.9613707 C17.3425126,10.9613707 20.1986133,6.27769288 18.6660715,3.97188227 C16.6459027,1.01756242 14.3470899,0.0808268569 12.2572602,0.0808268569 C9.61014243,0.152883439 7.45065165,1.81018482 6.75404173,3.0351467 C5.56980485,5.19684415 6.54505875,9.7364088 6.54505875,9.7364088 C6.54505875,9.7364088 6.89336371,7.71882451 7.31132967,6.78208895 C7.65963463,5.84535339 10.5853963,3.97188227 10.5853963,3.97188227 Z" fill="#35353B"></path>
                            </g>
                        </g>
                        <g transform="translate(5.572879, 67.733187)">
                            <polygon fill="#F7B100" points="4.24932056 0.648509235 5.50321843 3.31460276 8.35931913 3.74694225 6.26948935 5.76452653 6.7571163 8.71884638 4.24932056 7.34977133 1.67186383 8.71884638 2.15949078 5.76452653 0.139321985 3.74694225 2.99542269 3.31460276"></polygon>
                            <polygon fill="#F7B100" points="14.2805035 0.648509235 15.5344014 3.31460276 18.3905021 3.74694225 16.3006723 5.76452653 16.7882993 8.71884638 14.2805035 7.34977133 11.7030468 8.71884638 12.1906737 5.76452653 10.1705049 3.74694225 13.0266056 3.31460276"></polygon>
                            <polygon fill="#F7B100" points="24.3116865 0.648509235 25.5655843 3.31460276 28.421685 3.74694225 26.3318553 5.76452653 26.8194822 8.71884638 24.3116865 7.34977133 21.7342297 8.71884638 22.2218567 5.76452653 20.2016879 3.74694225 23.0577886 3.31460276"></polygon>
                            <polygon fill="#F7B100" points="34.3428694 0.648509235 35.5967673 3.31460276 38.452868 3.74694225 36.3630382 5.76452653 36.8506652 8.71884638 34.3428694 7.34977133 31.7654127 8.71884638 32.2530396 5.76452653 30.2328709 3.74694225 33.0889716 3.31460276"></polygon>
                            <path d="M46.8818481,9.07912929 C46.8121871,9.07912929 46.7425261,9.07912929 46.7425261,9.00707271 L44.3740524,7.71005424 L42.0055786,9.00707271 C41.8662566,9.07912929 41.7269347,9.07912929 41.6572737,9.00707271 C41.5179517,8.93501612 41.5179517,8.79090296 41.5179517,8.6467898 L42.0055786,5.9086397 L40.0550708,3.96311199 C39.9854098,3.89105541 39.9157488,3.74694225 39.9854098,3.60282908 C40.0550708,3.45871592 40.1247318,3.38665934 40.2640538,3.38665934 L42.9111715,2.95431985 L44.0954084,0.43233949 C44.2347304,0.216169745 44.5830354,0.216169745 44.7223573,0.43233949 L45.9065942,2.95431985 L48.5537119,3.38665934 C48.6930339,3.38665934 48.7626949,3.5307725 48.8323559,3.60282908 C48.9020169,3.74694225 48.8323559,3.89105541 48.7626949,3.96311199 L46.8121871,5.9086397 L47.2998141,8.6467898 C47.2998141,8.79090296 47.2998141,8.93501612 47.1604921,9.00707271 C47.0908311,9.07912929 46.9515091,9.07912929 46.8818481,9.07912929 Z M41.0303247,3.96311199 L42.5628666,5.54835679 C42.6325276,5.62041337 42.7021886,5.76452653 42.6325276,5.83658311 L42.2842226,8.07033714 L44.2347304,7.061545 C44.3043914,6.98948842 44.4437134,6.98948842 44.5830354,7.061545 L46.5335432,8.07033714 L46.1852382,5.83658311 C46.1852382,5.69246995 46.1852382,5.62041337 46.2548992,5.54835679 L47.787441,3.96311199 L45.6279503,3.67488566 C45.4886283,3.67488566 45.4189673,3.60282908 45.3493063,3.45871592 L44.3740524,1.44113163 L43.3987985,3.45871592 C43.3291375,3.5307725 43.2594765,3.60282908 43.1201545,3.67488566 L41.0303247,3.96311199 Z" fill="#A1BACD"></path>
                        </g>
                    </g>
                    <g transform="translate(142.720704, 12.970185)" id="Shape">
                        <g>
                            <path d="M50.2255758,82.4327294 L9.96152196,82.4327294 C5.50321843,82.4327294 1.8808468,78.6857872 1.8808468,74.0741659 L1.8808468,10.3761478 C1.8808468,5.76452653 5.50321843,2.01758429 9.96152196,2.01758429 L50.2255758,2.01758429 C54.6838793,2.01758429 58.3062509,5.76452653 58.3062509,10.3761478 L58.3062509,74.0741659 C58.3062509,78.7578437 54.6838793,82.4327294 50.2255758,82.4327294 Z" fill="#FFFFFF"></path>
                            <path d="M50.4345587,0.288226327 L9.75253898,0.288226327 C4.52796453,0.288226327 0.208982978,4.68367781 0.208982978,10.159978 L0.208982978,74.3623923 C0.208982978,79.7666359 4.45830354,84.2341439 9.75253898,84.2341439 L50.4345587,84.2341439 C55.6591332,84.2341439 59.9781148,79.8386925 59.9781148,74.3623923 L59.9781148,10.159978 C59.9781148,4.68367781 55.7287942,0.288226327 50.4345587,0.288226327 Z M58.3062509,74.3623923 C58.3062509,78.8299003 54.8232013,82.4327294 50.5042197,82.4327294 L9.75253898,82.4327294 C5.43355743,82.4327294 1.9505078,78.8299003 1.9505078,74.3623923 L1.9505078,10.159978 C1.9505078,5.69246995 5.43355743,2.08964087 9.75253898,2.08964087 L50.4345587,2.08964087 C54.7535403,2.08964087 58.2365899,5.69246995 58.2365899,10.159978 L58.2365899,74.3623923 L58.3062509,74.3623923 Z" fill="#E5E9F2"></path>
                        </g>
                        <g transform="translate(17.852716, 11.775322)">
                            <g transform="translate(0.259142, 0.105243)">
                                <path d="M0.348304964,27.5343845 L0.348304964,30.6328175 L23.6150765,30.6328175 L23.6150765,27.5343845 C23.6150765,24.4359515 22.0128737,21.6978014 19.505078,20.2566697 C18.94779,19.9684434 18.3905021,19.6802171 17.8332141,19.4640473 L15.1860964,18.6714249 L14.8377915,18.5273118 L14.8377915,18.5273118 L14.6984695,18.4552552 L12.0513517,17.6626328 L9.40423402,18.4552552 L9.33457303,18.4552552 L9.26491204,18.4552552 L9.05592906,18.5273118 L6.26948935,19.3919907 C5.71220141,19.5361039 5.15491346,19.8243302 4.66728651,20.1125566 C2.02016879,21.6257448 0.348304964,24.4359515 0.348304964,27.5343845 Z" fill="#2AB1FD"></path>
                                <path d="M8.98626806,30.5607609 L15.1164354,30.5607609 L15.1164354,18.5993683 L14.7681305,18.4552552 L14.7681305,18.4552552 L14.6288085,18.3831986 L14.6288085,18.3831986 L14.6288085,18.1670289 L11.9816908,17.5905762 L9.33457303,18.3831986 L9.26491204,18.3831986 L9.19525104,18.3831986 L8.98626806,30.5607609 Z" fill="#FFFFFF"></path>
                                <path d="M5.50321843,10.8893141 C5.57287942,10.1687483 6.19982835,10.3128615 6.40881133,10.384918 L6.40881133,9.7364088 C6.40881133,6.06152313 8.91660707,3.10720329 11.9816908,3.10720329 C15.0467744,3.10720329 17.5545702,6.06152313 17.5545702,9.7364088 L17.5545702,10.384918 C17.6938922,10.3128615 18.3905021,10.1687483 18.4601631,10.8893141 C18.5298241,11.6819365 17.3455872,13.3392379 16.7882993,13.0510116 L16.7882993,13.0510116 C16.3006723,14.1318603 15.5344014,14.9965393 14.6288085,15.5729919 L14.6288085,18.4552552 L14.6288085,18.4552552 C13.0266056,19.6081605 10.9367759,19.6081605 9.33457303,18.4552552 L9.33457303,18.4552552 L9.33457303,15.5729919 C8.42898012,14.9965393 7.6627092,14.1318603 7.17508225,13.0510116 C6.61779431,13.3392379 5.43355743,11.6819365 5.50321843,10.8893141 Z" fill="#E9D6B8"></path>
                                <path d="M10.5188099,5.12478757 C10.5188099,5.12478757 12.5389787,8.58350349 15.1164354,9.44818247 C15.1164354,9.44818247 16.2310113,8.58350349 17.2759262,9.44818247 C17.9028751,10.0246351 17.2759262,12.114276 17.2759262,12.114276 C17.2759262,12.114276 19.9927049,7.57471135 18.5994851,5.12478757 C16.6489773,1.73812823 13.8625376,1.73812823 13.1659276,0.513166347 L13.2355886,1.44990191 C13.2355886,1.44990191 12.3299957,1.23373216 12.0513517,0.296996602 C12.0513517,0.296996602 7.87169218,2.09841114 6.6874553,4.26010859 C5.50321843,6.42180604 6.47847233,10.9613707 6.47847233,10.9613707 C6.47847233,10.9613707 6.82677729,8.9437864 7.24474325,8.00705084 C7.59304821,6.9982587 10.5188099,5.12478757 10.5188099,5.12478757 Z" fill="#35353B"></path>
                            </g>
                        </g>
                        <g transform="translate(7.662709, 68.084699)" fill="#F7B100">
                            <polygon points="4.31898155 0.296996602 5.64254041 2.96309012 8.42898012 3.39542961 6.40881133 5.4130139 6.89643828 8.36733375 4.31898155 6.9982587 1.81118581 8.36733375 2.29881276 5.4130139 0.208982978 3.39542961 3.06508368 2.96309012"></polygon>
                            <polygon points="14.3501645 0.296996602 15.6737234 2.96309012 18.5298241 3.39542961 16.4399943 5.4130139 16.9276212 8.36733375 14.3501645 6.9982587 11.8423688 8.36733375 12.3299957 5.4130139 10.2401659 3.39542961 13.0962666 2.96309012"></polygon>
                            <polygon points="24.3813475 0.296996602 25.7049063 2.96309012 28.561007 3.39542961 26.4711772 5.4130139 26.9588042 8.36733375 24.3813475 6.9982587 21.8735517 8.36733375 22.3611787 5.4130139 20.2713489 3.39542961 23.1274496 2.96309012"></polygon>
                            <polygon points="34.4821914 0.296996602 35.7360893 2.96309012 38.59219 3.39542961 36.5023602 5.4130139 36.9899871 8.36733375 34.4821914 6.9982587 31.9047347 8.36733375 32.3923616 5.4130139 30.3025318 3.39542961 33.1586325 2.96309012"></polygon>
                            <polygon points="44.5133744 0.296996602 45.7672722 2.96309012 48.6233729 3.39542961 46.5335432 5.4130139 47.0211701 8.36733375 44.5133744 6.9982587 41.9359176 8.36733375 42.4235446 5.4130139 40.3337148 3.39542961 43.1898155 2.96309012"></polygon>
                        </g>
                        <g transform="translate(8.014089, 52.952817)" fill="#E4EBEF">
                            <path d="M16.7155637,1.95429798 L1.11150131,1.95429798 C0.623874364,1.95429798 0.205908407,1.52195849 0.205908407,1.01756242 L0.205908407,1.01756242 C0.205908407,0.513166347 0.623874364,0.0808268569 1.11150131,0.0808268569 L16.7155637,0.0808268569 C17.2031906,0.0808268569 17.6211566,0.513166347 17.6211566,1.01756242 L17.6211566,1.01756242 C17.6211566,1.52195849 17.2031906,1.95429798 16.7155637,1.95429798 Z"></path>
                            <path d="M11.3516672,5.62918364 L1.04184032,5.62918364 C0.554213371,5.62918364 0.136247415,5.19684415 0.136247415,4.69244808 L0.136247415,4.69244808 C0.136247415,4.18805201 0.554213371,3.75571252 1.04184032,3.75571252 L11.3516672,3.75571252 C11.8392942,3.75571252 12.2572602,4.18805201 12.2572602,4.69244808 L12.2572602,4.69244808 C12.2572602,5.19684415 11.8392942,5.62918364 11.3516672,5.62918364 Z"></path>
                            <path d="M20.2682743,5.62918364 L14.6257339,5.62918364 C14.138107,5.62918364 13.720141,5.19684415 13.720141,4.69244808 L13.720141,4.69244808 C13.720141,4.18805201 14.138107,3.75571252 14.6257339,3.75571252 L20.2682743,3.75571252 C20.7559013,3.75571252 21.1738672,4.18805201 21.1738672,4.69244808 L21.1738672,4.69244808 C21.1042062,5.19684415 20.7559013,5.62918364 20.2682743,5.62918364 Z"></path>
                            <path d="M28.8365764,5.62918364 L23.194036,5.62918364 C22.7064091,5.62918364 22.2884431,5.19684415 22.2884431,4.69244808 L22.2884431,4.69244808 C22.2884431,4.18805201 22.7064091,3.75571252 23.194036,3.75571252 L28.8365764,3.75571252 C29.3242034,3.75571252 29.7421693,4.18805201 29.7421693,4.69244808 L29.7421693,4.69244808 C29.7421693,5.19684415 29.3242034,5.62918364 28.8365764,5.62918364 Z"></path>
                            <path d="M11.3516672,9.37612589 L1.04184032,9.37612589 C0.554213371,9.37612589 0.136247415,8.9437864 0.136247415,8.43939033 L0.136247415,8.43939033 C0.136247415,7.93499426 0.554213371,7.50265477 1.04184032,7.50265477 L11.3516672,7.50265477 C11.8392942,7.50265477 12.2572602,7.93499426 12.2572602,8.43939033 L12.2572602,8.43939033 C12.2572602,9.01584298 11.8392942,9.37612589 11.3516672,9.37612589 Z"></path>
                            <path d="M20.2682743,9.37612589 L14.6257339,9.37612589 C14.138107,9.37612589 13.720141,8.9437864 13.720141,8.43939033 L13.720141,8.43939033 C13.720141,7.93499426 14.138107,7.50265477 14.6257339,7.50265477 L20.2682743,7.50265477 C20.7559013,7.50265477 21.1738672,7.93499426 21.1738672,8.43939033 L21.1738672,8.43939033 C21.1042062,9.01584298 20.7559013,9.37612589 20.2682743,9.37612589 Z"></path>
                            <path d="M30.1601353,1.95429798 L20.1986133,1.95429798 C19.7109864,1.95429798 19.2930204,1.52195849 19.2930204,1.01756242 L19.2930204,1.01756242 C19.2930204,0.513166347 19.7109864,0.0808268569 20.1986133,0.0808268569 L30.1601353,0.0808268569 C30.6477622,0.0808268569 31.0657282,0.513166347 31.0657282,1.01756242 L31.0657282,1.01756242 C30.9960672,1.52195849 30.6477622,1.95429798 30.1601353,1.95429798 Z"></path>
                        </g>
                    </g>
                    <g transform="translate(147.579405, 20.387733)">
                        <g>
                            <ellipse id="Oval" fill="#FFFFFF" opacity="0.53" cx="25.7745673" cy="26.3006523" rx="20.6893148" ry="21.4008048"></ellipse>
                            <g>
                                <rect id="Rectangle-path" fill="#67CBFC" transform="translate(43.616573, 46.955715) rotate(-41.976139) translate(-43.616573, -46.955715) " x="41.0391971" y="41.4075327" width="5.15475108" height="11.096364"></rect>
                                <path d="M81.0157346,90.2868968 L81.0157346,90.2868968 C78.8562438,92.3044811 75.2338722,91.6559719 73.0743814,88.9178218 L43.1898155,51.7366256 L48.275068,46.9808912 L80.5281076,81.9283333 C82.9662424,84.5223703 83.1752253,88.2693125 81.0157346,90.2868968 Z" id="Shape" fill="#2AB1FD"></path>
                                <path d="M1.04491489,32.5695749 C2.02016879,36.6768001 3.90101559,40.5678555 6.82677729,43.9545148 C16.2310113,54.7630021 32.3227006,55.627681 42.7718495,45.9000425 C53.2209985,36.172404 54.0569304,19.5273336 44.6526964,8.71884638 C43.1201545,6.98948842 41.3786297,5.47630021 39.5674439,4.25133832 C30.1632099,-2.08964087 17.4152482,-1.36907505 8.70762409,6.77331868 C1.53254184,13.4745808 -1.11457588,23.418389 1.04491489,32.5695749 Z M8.6379631,33.4342539 C5.85152339,26.2285957 7.45372622,17.6538625 13.3749106,12.1055057 C20.6893148,5.33218704 31.6957517,5.69246995 38.59219,12.6819584 C38.870834,12.9701847 39.1494779,13.258411 39.4281219,13.5466374 C46.2548992,21.4008048 45.6279503,33.4342539 38.034902,40.4957989 C30.4418538,47.5573439 18.808468,46.9088347 11.9816908,39.0546673 C10.5884709,37.3973659 9.40423402,35.4518382 8.6379631,33.4342539 Z" id="Shape" fill="#2AB1FD"></path>
                            </g>
                        </g>
                        <path d="M14.3977273,31.3905148 C13.4224734,31.3905148 12.6562025,30.5978924 12.6562025,29.6611569 C12.5168805,23.5363474 14.6067103,17.6997643 18.6470479,13.2322563 C19.2739968,12.5116904 20.3885727,12.4396339 21.0851826,13.1601997 C21.7817925,13.8087089 21.8514535,14.9616142 21.1548436,15.68218 C17.741455,19.4291223 15.9302692,24.4010264 16.0695911,29.5170437 C16.1392521,30.5978924 15.3729812,31.3905148 14.3977273,31.3905148 L14.3977273,31.3905148 Z" id="Shape" fill="#FFFFFF"></path>
                    </g>
                </g>
            </g>
            <g id="Group-7" transform="translate(260.000000, 84.000000)">
                <ellipse id="Oval-2" stroke="#2AB1FD" stroke-width="3" stroke-dasharray="5" cx="27.5" cy="27.5" rx="27.5" ry="27.5"></ellipse>
                <text id="3" font-family="Rubik-Medium, Rubik" font-size="40" font-weight="400" fill="#2AB1FD">
                    <tspan x="15.8" y="41">3</tspan>
                </text>
            </g>
        </g>
    </g>
</svg>