<?xml version="1.0" encoding="UTF-8"?>
<svg width="400px" height="400px" viewBox="0 0 400 400" version="1.1" xmlns="http://www.w3.org/2000/svg" xmlns:xlink="http://www.w3.org/1999/xlink">
    <!-- Generator: Sketch 43.1 (39012) - http://www.bohemiancoding.com/sketch -->
    <title>img_hiw_1</title>
    <desc>Created with Sketch.</desc>
    <defs></defs>
    <g id="Page-7" stroke="none" stroke-width="1" fill="none" fill-rule="evenodd">
        <g id="img_hiw_1">
            <rect id="Rectangle-5" fill="#FFFFFF" x="0" y="0" width="400" height="400"></rect>
            <g id="Group-5" transform="translate(53.000000, 61.000000)">
                <g id="SCENE_1" transform="translate(0.000000, 27.000000)">
                    <g id="Group" transform="translate(196.581197, 162.295634) scale(-1, 1) translate(-196.581197, -162.295634) translate(127.136752, 74.688797)" fill-rule="nonzero">
                        <g id="Shape">
                            <path d="M47.1712076,67.1191464 C47.1712076,67.1191464 54.7826976,69.8239478 55.3836047,69.8239478 C55.9845118,69.8239478 59.4898033,68.9223474 61.0922222,69.6235922 C62.2940364,70.1244813 64.2970601,70.8257261 64.5975136,71.2264375 C64.8979672,71.6271488 63.0952459,71.526971 62.7947923,71.4267931 C62.3941876,71.3266153 61.2925246,71.7273266 61.2925246,71.8275044 C61.2925246,71.9276823 63.8964553,72.4285714 65.0982696,72.8292828 C66.3000838,73.2299941 66.9009909,73.6307054 66.9009909,73.8310611 C66.9009909,74.0314167 64.6976648,73.9312389 64.0967577,73.7308832 C63.3956994,73.6307054 66.5003861,74.432128 67.1012932,75.033195 C67.7022003,75.634262 64.3972113,75.2335507 63.5960018,74.9330172 C62.7947923,74.6324837 66.7006885,75.7344398 66.9009909,76.1351512 C67.1012932,76.5358625 63.5960018,76.235329 62.6946411,76.0349733 C61.7932805,75.8346177 65.3987231,76.5358625 65.5990255,76.836396 C65.7993278,77.1369295 61.4928269,77.0367516 60.0907104,76.836396 C58.788745,76.6360403 57.0861748,76.5358625 54.4822441,74.1315945 C53.9814881,73.7308832 46.6704517,72.9294606 46.6704517,72.9294606 L47.1712076,67.1191464 Z" fill="#E9D6B8"></path>
                            <path d="M8.81330419,168.799644 C8.81330419,168.799644 6.91043169,169.500889 3.90589617,169.400711 L4.00604736,173.508002 C4.00604736,173.508002 6.10922222,173.808536 7.51133879,173.508002 L8.1122459,172.506224 L9.3140601,173.60818 C9.3140601,173.60818 16.1243406,174.309425 19.629632,174.109069 C19.629632,174.109069 20.0302368,172.906935 18.3276667,172.406046 C16.6250965,171.905157 12.8193515,171.103734 11.8178397,170.502667 C10.6160255,169.801423 8.81330419,168.799644 8.81330419,168.799644 Z" fill="#2AB1FD"></path>
                            <path d="M3.60544262,162.688797 L3.80574499,167.797866 L3.90589617,169.400711 C6.71012932,170.302312 8.81330419,168.799644 8.81330419,168.799644 L8.81330419,167.096621 L8.91345537,162.788975 L3.60544262,162.688797 Z" fill="#E9D6B8"></path>
                            <path d="M26.3397614,169.100178 C26.3397614,169.100178 24.4368889,169.801423 21.4323534,169.701245 L21.5325045,173.808536 C21.5325045,173.808536 23.6356794,174.109069 25.037796,173.808536 L25.6387031,172.806758 L26.8405173,173.908714 C26.8405173,173.908714 33.6507978,174.609959 37.1560892,174.409603 C37.1560892,174.409603 37.556694,173.207469 35.8541238,172.70658 C34.1515537,172.205691 30.3458087,171.404268 29.3442969,170.803201 C28.3427851,170.202134 26.3397614,169.100178 26.3397614,169.100178 Z" fill="#2AB1FD"></path>
                            <path d="M21.1318998,162.98933 L21.3322022,168.0984 L21.4323534,169.701245 C24.2365865,170.502667 26.3397614,169.100178 26.3397614,169.100178 L26.3397614,167.296977 L26.4399126,163.189686 L21.1318998,162.98933 Z" fill="#E9D6B8"></path>
                            <path d="M2.00302368,85.4516894 C3.00453552,81.2442205 21.1318998,82.746888 21.1318998,82.746888 C21.1318998,82.746888 21.1318998,83.6484884 21.0317486,85.0509781 C23.6356794,84.0491998 27.0408197,83.7486663 31.7479253,84.8506224 C31.7479253,84.8506224 32.9497395,99.4765857 32.9497395,117.107884 C32.9497395,122.617664 32.7494371,131.333136 32.0483789,138.746295 C30.8465646,152.470658 27.5415756,164.992887 27.5415756,164.992887 L19.629632,164.892709 C19.629632,164.892709 21.0317486,152.470658 20.4308415,138.54594 C20.130388,131.232958 18.6281202,119.61233 18.1273643,113.802015 C17.1258525,120.013041 17.0257013,131.333136 15.7237359,138.946651 C13.3201075,152.470658 9.61451366,164.892709 9.61451366,164.892709 L2.00302368,164.892709 C2.90438433,155.876704 3.40514025,146.560166 3.20483789,138.846473 C2.30347723,115.505039 -1.40211657,100.478364 2.00302368,85.4516894 Z" fill="#35353B"></path>
                            <path d="M18.7282714,41.0729105 C18.7282714,41.0729105 21.3322022,36.4647303 23.7358306,37.9673977 C25.6387031,39.0693539 35.7539727,59.6058091 38.8586594,63.1120332 C39.76002,64.1138115 48.2728707,66.5180794 48.2728707,66.5180794 C48.2728707,66.5180794 49.0740801,70.2246592 47.4716612,73.5305276 C46.8707541,74.6324837 35.0529144,70.2246592 34.1515537,69.6235922 C29.4444481,66.6182573 24.5370401,53.3947836 24.5370401,53.3947836 L18.7282714,41.0729105 Z" fill="#E5E9F2"></path>
                            <path d="M17.6266084,31.9567279 C17.6266084,31.9567279 8.51285063,32.1570836 5.70861748,40.17131 C2.90438433,48.2857143 -0.50075592,80.4427979 0.300453552,87.8559573 C0.300453552,87.8559573 22.8344699,92.163604 34.1515537,86.7540012 C34.1515537,86.7540012 30.7464135,60.0065205 30.3458087,53.8956728 C29.7449016,47.6846473 25.3382495,33.0586841 17.6266084,31.9567279 Z" fill="#2AB1FD"></path>
                            <path d="M20.130388,26.2465916 C20.130388,26.2465916 19.1288761,32.6579727 20.130388,36.1641968 C20.3306903,36.8654416 19.9300856,37.5666864 19.2290273,37.7670421 C16.6250965,38.6686426 13.0196539,35.1624185 11.3170838,34.0604624 C10.916479,32.0569057 12.0181421,24.243035 12.0181421,24.243035 L20.130388,26.2465916 Z" fill="#E9D6B8"></path>
                            <path d="M45.5687887,62.9116775 C45.5687887,62.9116775 51.3775574,65.3159455 51.5778597,65.7166568 C51.7781621,66.1173681 48.473173,75.634262 47.8722659,75.5340842 C47.2713588,75.4339063 42.8647067,73.7308832 42.8647067,73.7308832 C42.8647067,73.7308832 44.2668233,64.3141672 45.5687887,62.9116775 Z" fill="#A0A1B9"></path>
                            <path d="M18.0272131,113.902193 C18.0272131,113.902193 19.4293297,107.090101 19.9300856,102.081209 C19.9300856,102.081209 20.7312951,113.902193 18.6281202,119.712507 L18.0272131,113.902193 Z" fill="#4A4A4A"></path>
                            <path d="M17.8269107,67.9205691 C20.4308415,69.122703 24.9376448,70.8257261 24.9376448,70.8257261 C24.9376448,70.8257261 27.241122,68.7219917 28.2426339,68.7219917 C29.2441457,68.6218139 31.8480765,69.9241257 32.4489836,70.2246592 C33.0498907,70.5251926 31.6477741,71.0260818 30.8465646,70.7255483 C30.5461111,70.6253705 28.9436922,70.2246592 28.5430874,70.5251926 C28.1424827,70.8257261 31.2471694,71.4267931 32.9497395,71.9276823 C34.6523096,72.4285714 37.1560892,73.7308832 37.0559381,74.0314167 C36.8556357,74.6324837 34.2517049,73.6307054 33.750949,73.4303497 C33.2501931,73.2299941 31.9482277,73.1298162 31.9482277,73.1298162 C31.9482277,73.1298162 32.649286,74.3319502 31.8480765,74.6324837 C31.8480765,74.6324837 31.8480765,75.9347955 31.1470182,75.9347955 C31.1470182,75.9347955 30.7464135,76.9365738 29.7449016,76.836396 C28.6432386,76.7362181 25.8390055,77.0367516 24.1364353,74.9330172 C24.1364353,74.9330172 16.8253989,73.9312389 14.6220729,72.2282158 C12.4187468,70.5251926 15.22298,66.7184351 17.8269107,67.9205691 Z" fill="#E9D6B8"></path>
                            <path d="M27.0408197,9.71724956 C27.0408197,9.71724956 26.139459,15.5275637 28.1424827,18.7332543 C29.1439945,20.3360996 26.4399126,20.2359218 26.4399126,20.2359218 C26.4399126,20.2359218 24.1364353,28.5506817 20.9315974,27.9496147 C17.7267596,27.3485477 12.2184444,27.6490812 11.2169326,25.7457024 C10.2154208,23.8423237 8.51285063,11.219917 14.0211657,9.11618257 C19.4293297,7.11262596 27.0408197,9.71724956 27.0408197,9.71724956 Z" fill="#E9D6B8"></path>
                            <path d="M21.232051,13.2234736 C22.7343188,13.5240071 24.2365865,13.7243628 25.8390055,13.5240071 C28.2426339,13.2234736 31.046867,12.3218731 32.0483789,9.71724956 C33.8511002,4.90871369 31.4474718,2.00355661 31.4474718,2.00355661 C31.4474718,2.00355661 31.2471694,4.10729105 30.5461111,4.70835803 C30.5461111,4.70835803 30.1455064,0.801422644 29.3442969,0.400711322 L29.3442969,0.400711322 C27.1409708,1.90337878 24.4368889,2.80497925 21.7328069,2.80497925 C18.4278178,2.80497925 13.9210146,3.6064019 10.4157231,7.41315945 C4.20634972,14.0248963 8.61300182,26.7474807 11.417235,28.8512152 L12.7192004,22.5400119 C12.7192004,22.5400119 10.7161767,21.7385892 10.6160255,20.5364552 C10.5158743,19.7350326 11.9179909,16.8298755 13.4202586,18.7332543 C14.9225264,20.6366331 14.0211657,25.5453468 16.324643,27.4487255 C18.527969,29.3521043 25.8390055,29.1517487 26.4399126,26.2465916 C27.0408197,23.3414345 25.8390055,21.7385892 25.8390055,21.7385892 C25.8390055,21.7385892 22.4338652,21.838767 20.2305392,23.1410788 C18.0272131,24.4433906 15.5234335,20.4362774 16.0241894,18.0320095 C16.6250965,15.7279194 18.6281202,12.7225845 21.232051,13.2234736 Z" fill="#35353B"></path>
                            <polygon fill="#FFFFFF" points="19.9300856 37.1659751 11.3170838 34.0604624 19.5294809 40.5720213"></polygon>
                            <polygon fill="#FFFFFF" points="19.9300856 37.1659751 23.7358306 39.4700652 19.7297832 32.6579727"></polygon>
                            <g transform="translate(2.003024, 39.069354)">
                                <path d="M14.3216193,9.51689389 C12.7192004,13.8245406 10.1152696,21.3378779 9.71466484,23.5417902 C9.21390892,26.3467694 15.5234335,26.8476586 15.5234335,26.8476586 L16.0241894,34.9620628 C16.0241894,34.9620628 4.20634972,34.260818 2.20332605,30.5542383 C-0.600907104,25.3449911 -0.400604736,13.3236515 2.30347723,5.81031417 C4.20634972,0.701244813 10.6160255,-1.20213397 13.3201075,2.00355661 C15.22298,4.20746888 14.722224,8.31475993 14.3216193,9.51689389 Z" fill="#E5E9F2"></path>
                                <path d="M16.0241894,37.7670421 C16.0241894,37.7670421 11.1167814,36.7652638 11.0166302,36.3645525 C10.916479,35.9638411 13.4202586,24.844102 14.0211657,24.844102 C14.4217705,24.844102 17.1258525,26.2465916 18.3276667,26.8476586 C18.6281202,27.0480142 18.8284226,27.3485477 18.7282714,27.749259 C18.3276667,29.8529935 17.1258525,36.5649081 16.0241894,37.7670421 Z" fill="#A0A1B9"></path>
                            </g>
                            <path d="M21.3322022,168.198577 L21.4323534,169.801423 C24.2365865,170.602845 26.3397614,169.200356 26.3397614,169.200356 L26.3397614,167.397155 C25.1379472,167.497333 22.9346211,167.797866 21.3322022,168.198577 Z" fill="#D1DBDF"></path>
                            <path d="M3.80574499,167.797866 L3.90589617,169.400711 C6.71012932,170.302312 8.81330419,168.799644 8.81330419,168.799644 L8.81330419,167.096621 C7.51133879,167.296977 5.10771038,167.697688 3.80574499,167.797866 Z" fill="#D1DBDF"></path>
                            <path d="M5.90891985,90.0598696 C5.90891985,90.0598696 5.30801275,94.2673385 1.30196539,94.4676941 C1.30196539,94.4676941 1.10166302,97.3728512 1.30196539,99.7771191 C1.50226776,102.181387 7.31103643,101.780676 7.61148998,100.778897 C8.713153,97.1724956 8.41269945,89.9596918 8.41269945,89.9596918 L5.90891985,89.9596918 L5.90891985,90.0598696 Z" fill="#4A4A4A"></path>
                        </g>
                        <g transform="translate(58.087687, 4.007113)" id="Shape">
                            <g transform="translate(0.000000, 34.060462)">
                                <path d="M15.6235847,30.6544161 C15.6235847,30.6544161 10.6160255,33.3592175 10.1152696,33.3592175 C9.61451366,33.3592175 6.60997814,32.2572614 5.20786156,32.8583284 C4.20634972,33.2590397 2.40362841,33.9602845 2.10317486,34.260818 C1.80272131,34.5613515 3.40514025,34.5613515 3.70559381,34.4611737 C4.00604736,34.3609959 5.10771038,34.260818 5.20786156,34.3609959 C5.30801275,34.4611737 2.90438433,34.861885 1.90287249,35.2625963 C0.901360655,35.6633076 0.400604736,35.9638411 0.400604736,36.1641968 C0.400604736,36.3645525 2.30347723,36.2643746 2.90438433,36.064019 C3.50529144,35.8636633 0.801209471,36.665086 0.300453552,37.1659751 C-0.200302368,37.6668643 2.70408197,37.3663308 3.40514025,37.0657973 C4.10619854,36.7652638 0.701058287,37.7670421 0.50075592,38.1677534 C0.300453552,38.5684647 3.40514025,38.2679312 4.20634972,38.0675756 C5.0075592,37.8672199 1.80272131,38.4682869 1.60241894,38.7688204 C1.40211657,39.0693539 5.20786156,38.9691761 6.40967577,38.7688204 C7.61148998,38.5684647 8.51285063,38.4682869 10.916479,36.3645525 C11.3170838,35.9638411 16.324643,34.260818 16.324643,34.260818 L15.6235847,30.6544161 Z" fill="#E9D6B8"></path>
                                <path d="M45.5687887,2.90515708 C47.1712076,-1.0017783 49.9754408,0.801422644 51.177255,4.80853586 C51.4777085,5.81031417 51.6780109,6.9122703 51.5778597,8.2145821 C51.177255,15.5275637 35.8541238,30.5542383 32.3488324,32.4576171 C28.843541,34.3609959 12.1182933,37.5666864 12.1182933,37.5666864 L10.3155719,32.0569057 L28.5430874,26.1464138 L36.1545774,13.6241849 L45.5687887,2.90515708 Z" fill="#BFE990"></path>
                            </g>
                            <g transform="translate(41.942865, 70.124481)">
                                <path d="M18.0476942,91.4623592 C18.0476942,91.4623592 14.3421004,96.0705394 14.6425539,99.0758743 C14.9430075,102.081209 21.9535903,94.3675163 21.9535903,94.3675163 C21.9535903,94.3675163 23.3557069,96.0705394 23.7563116,95.9703616 C24.1569164,95.9703616 23.2555557,91.562537 21.5529856,90.3604031 C19.8504155,89.0580913 18.0476942,91.4623592 18.0476942,91.4623592 Z" fill="#98DC4D"></path>
                                <path d="M16.8458799,86.253112 L18.7487524,90.8612922 C18.7487524,90.8612922 16.6455776,94.567872 17.7472406,95.5696503 C18.9490548,96.4712507 22.3541951,91.2620036 22.3541951,91.2620036 L21.1523809,85.8524007 L16.8458799,86.253112 Z" fill="#E2C59C"></path>
                                <path d="M0.0204810493,8.41493776 C0.0204810493,8.41493776 2.52426065,44.6793124 4.82773788,57.1013634 C7.13121511,69.5234143 16.6455776,88.8577356 16.6455776,88.8577356 L22.9551022,86.9543568 C22.9551022,86.9543568 17.947543,59.6058091 17.8473918,54.6970954 C17.4467871,42.6757558 20.7517761,12.6224066 20.7517761,12.6224066 L13.040135,0.10017783 L0.0204810493,8.41493776 Z" fill="#35353B"></path>
                            </g>
                            <g transform="translate(30.926235, 73.129816)">
                                <path d="M6.530308,89.8595139 C6.530308,89.8595139 1.42259762,92.9650267 0.721539337,95.8701838 C0.0204810493,98.7753408 9.23438997,93.966805 9.23438997,93.966805 C9.23438997,93.966805 9.93544826,95.9703616 10.4362042,96.0705394 C10.8368089,96.1707172 11.5378672,91.7628927 10.2359018,90.0598696 C9.0340876,88.2566686 6.530308,89.8595139 6.530308,89.8595139 Z" fill="#98DC4D"></path>
                                <path d="M7.13121511,84.4499111 L7.33151748,89.4588026 C7.33151748,89.4588026 4.02652841,92.2637819 4.82773788,93.5660937 C5.62894735,94.8684055 10.6365065,91.0616479 10.6365065,91.0616479 L11.3375648,85.5518672 L7.13121511,84.4499111 Z" fill="#F7C3B1"></path>
                                <path d="M31.6682552,9.61707172 C31.6682552,9.61707172 31.2676504,15.8280972 27.3617543,22.6401897 C25.1584282,26.3467694 18.1478453,40.5720213 15.8443681,50.2892709 C12.3390767,64.7148785 13.2404373,87.1547125 13.2404373,87.1547125 L5.3284938,86.7540012 C5.3284938,86.7540012 -0.279972503,54.0960285 0.0204810493,44.2786011 C0.320934601,33.9602845 3.4256213,25.1446354 8.03257576,1.40248963 C13.040135,-2.70480142 31.6682552,9.61707172 31.6682552,9.61707172 Z" fill="#4A4A4A"></path>
                            </g>
                            <path d="M42.5642532,33.9602845 C42.5642532,33.9602845 34.9527632,41.5737996 33.6507978,49.9887374 C33.1500419,53.194428 36.4550309,58.4036752 36.5551821,60.9081209 C36.6553333,63.4125667 35.5536703,75.3337285 31.7479253,83.7486663 C31.7479253,83.7486663 49.2743825,89.4588026 65.899479,84.3497333 C65.899479,84.3497333 66.9009909,38.7688204 51.8783133,31.3556609 L42.5642532,33.9602845 Z" fill="#98DC4D"></path>
                            <path d="M42.5642532,25.4451689 C42.8647067,25.8458803 44.4671257,31.9567279 42.5642532,34.0604624 C40.4610783,36.3645525 39.76002,38.0675756 40.4610783,38.9691761 C41.1621366,39.9709544 50.8768014,32.7581506 51.8783133,31.4558388 C51.9784645,27.1481921 52.9799763,22.8405453 53.0801275,22.5400119 C53.2804298,22.1393005 41.7630437,24.1428571 42.5642532,25.4451689 Z" fill="#E9D6B8"></path>
                            <g transform="translate(32.048379, 36.064019)">
                                <path d="M11.9179909,43.0764671 C11.9179909,43.0764671 8.81330419,47.283936 8.31254827,47.4842916 C7.91194353,47.6846473 4.90740801,47.7848251 3.90589617,48.7866034 C3.20483789,49.5880261 1.90287249,50.79016 1.80272131,51.1908714 C1.70257013,51.5915827 3.00453552,50.9905157 3.20483789,50.6899822 C3.40514025,50.4896266 4.40665209,49.9887374 4.40665209,50.0889152 C4.40665209,50.1890931 2.60393078,51.391227 1.90287249,52.0924718 C1.20181421,52.7937167 0.701058287,53.4949615 0.801209471,53.6953171 C0.901360655,53.8956728 2.60393078,52.7937167 3.00453552,52.3930053 C3.40514025,52.0924718 0.801209471,54.0960285 0.600907104,54.6970954 C0.300453552,55.2981624 3.90589617,53.0942501 3.90589617,53.0942501 C3.90589617,53.0942501 1.70257013,54.4967398 1.80272131,54.9976289 C1.90287249,55.3983402 5.0075592,53.6953171 5.0075592,53.6953171 C5.0075592,53.6953171 3.00453552,54.8974511 3.00453552,55.1979846 C3.00453552,55.4985181 6.2093734,54.1962063 7.31103643,53.4949615 C8.21239708,52.8938945 9.01360655,52.3930053 10.1152696,49.6882039 C10.3155719,49.1873148 13.9210146,45.7812685 13.9210146,45.7812685 L11.9179909,43.0764671 Z" fill="#E9D6B8"></path>
                                <path d="M14.5219217,6.11084766 C13.620561,2.00355661 18.3276667,-1.10195614 21.6326557,1.40248963 C22.4338652,2.00355661 23.2350747,2.90515708 23.936133,4.00711322 C27.9421803,10.2181387 29.7449016,26.8476586 28.0423315,30.4540605 C26.3397614,34.0604624 12.3185956,49.1873148 12.3185956,49.1873148 L7.71164116,45.7812685 L20.2305392,29.0515708 C20.9315974,28.1499704 21.1318998,26.8476586 20.8314463,25.7457024 L17.9270619,15.6277416 L14.5219217,6.11084766 Z" fill="#BFE990"></path>
                            </g>
                            <path d="M51.8783133,31.3556609 C51.8783133,31.3556609 42.1636484,39.1695317 40.7615319,38.8689982 C39.3594153,38.5684647 42.6644044,34.0604624 42.6644044,34.0604624 C42.6644044,34.0604624 41.2622878,35.462952 41.0619854,35.8636633 C40.7615319,36.2643746 39.0589617,39.0693539 40.6613807,39.2697095 C43.2653115,39.6704209 52.4792204,31.6561944 52.4792204,31.6561944 L51.8783133,31.3556609 Z" fill="#2AB1FD"></path>
                            <path d="M36.4550309,19.2341434 C36.9557869,18.8334321 37.556694,18.0320095 38.0574499,17.4309425 L38.0574499,17.3307647 C38.0574499,10.7190279 41.4625901,4.70835803 46.8707541,4.70835803 C52.1787668,4.70835803 56.4852677,10.1179609 56.4852677,16.7296977 C56.4852677,23.3414345 50.3760455,28.7510373 45.0680328,28.7510373 C40.5612295,28.7510373 38.658357,25.3449911 38.1576011,20.3360996 C37.1560892,20.1357439 35.7539727,19.8352104 36.4550309,19.2341434 Z" fill="#E9D6B8"></path>
                            <path d="M42.6644044,9.71724956 C45.4686375,9.11618257 48.7736266,11.4202727 48.2728707,13.3236515 C47.7721147,15.2270302 49.7751384,17.5311203 49.7751384,17.5311203 C49.7751384,17.5311203 51.6780109,16.6295199 52.0786156,17.5311203 C52.7796739,19.1339656 51.7781621,20.2359218 50.2758943,20.1357439 C50.2758943,20.1357439 49.0740801,26.9478364 50.075592,29.1517487 C54.6825464,38.8689982 51.0771038,51.6917605 63.7963042,51.6917605 C79.4198889,51.6917605 81.122459,38.8689982 78.8189817,31.6561944 C76.5155045,24.5435685 71.2074918,23.8423237 69.9055264,22.3396562 C68.603561,20.8369887 67.001142,13.2234736 63.1953971,11.6206283 C55.6840583,8.41493776 58.8888961,4.80853586 54.0816393,2.20391227 C45.0680328,-2.60462359 34.0514025,1.70302312 33.5506466,6.81209247 C33.1500419,11.4202727 38.0574499,10.7190279 42.6644044,9.71724956 Z" fill="#35353B"></path>
                        </g>
                    </g>
                    <g id="Group" transform="translate(0.000000, 14.522822)" fill-rule="nonzero">
                        <g transform="translate(10.391627, 0.000000)">
                            <rect id="Rectangle-path" fill-opacity="0.42" fill="#E5E9F2" x="0.727413862" y="15.560166" width="46.6584034" height="120.643154"></rect>
                            <g transform="translate(7.115856, 52.747502)">
                                <g transform="translate(25.098187, 0.000000)">
                                    <polygon id="Shape" fill="#9AB3C6" points="0.311748798 0.0533282684 0.311748798 19.4516685 1.66266026 19.4516685 1.66266026 2.33548594 8.62505008 2.33548594 8.62505008 0.0533282684"></polygon>
                                    <rect id="Rectangle-path" fill="#E3E9EC" x="1.66266026" y="2.33548594" width="6.96238982" height="17.219917"></rect>
                                </g>
                                <g transform="translate(12.628235, 0.000000)">
                                    <polygon id="Shape" fill="#9AB3C6" points="0.103916266 0.0533282684 0.103916266 19.4516685 1.45482772 19.4516685 1.45482772 2.33548594 8.41721755 2.33548594 8.41721755 0.0533282684"></polygon>
                                    <rect id="Rectangle-path" fill="#E3E9EC" x="1.45482772" y="2.33548594" width="6.96238982" height="17.219917"></rect>
                                </g>
                                <g>
                                    <polygon id="Shape" fill="#9AB3C6" points="0.0543667882 0.0533282684 0.0543667882 19.4516685 1.40527825 19.4516685 1.40527825 2.33548594 8.36766807 2.33548594 8.36766807 0.0533282684"></polygon>
                                    <rect id="Rectangle-path" fill="#E3E9EC" x="1.40527825" y="2.33548594" width="6.96238982" height="17.219917"></rect>
                                </g>
                            </g>
                            <g transform="translate(7.115856, 79.875519)">
                                <g transform="translate(25.098187, 0.000000)">
                                    <polygon id="Shape" fill="#F7A600" points="0.311748798 0.518672199 0.311748798 20.0207469 1.66266026 20.0207469 1.66266026 2.80082988 8.62505008 2.80082988 8.62505008 0.518672199"></polygon>
                                    <rect id="Rectangle-path" fill="#E3E9EC" x="1.66266026" y="2.80082988" width="6.96238982" height="17.219917"></rect>
                                </g>
                                <g transform="translate(12.628235, 0.000000)">
                                    <polygon id="Shape" fill="#F7A600" points="0.103916266 0.518672199 0.103916266 20.0207469 1.45482772 20.0207469 1.45482772 2.80082988 8.41721755 2.80082988 8.41721755 0.518672199"></polygon>
                                    <rect id="Rectangle-path" fill="#DDDDEE" x="1.45482772" y="2.80082988" width="6.96238982" height="17.219917"></rect>
                                </g>
                                <g>
                                    <polygon id="Shape" fill="#F7A600" points="0.0543667882 0.518672199 0.0543667882 20.0207469 1.40527825 20.0207469 1.40527825 2.80082988 8.36766807 2.80082988 8.36766807 0.518672199"></polygon>
                                    <rect id="Rectangle-path" fill="#E3E9EC" x="1.40527825" y="2.80082988" width="6.96238982" height="17.219917"></rect>
                                </g>
                            </g>
                            <g transform="translate(7.115856, 107.883817)">
                                <g transform="translate(25.098187, 0.000000)">
                                    <polygon id="Shape" fill="#F7A600" points="0.311748798 0.20746888 0.311748798 19.6058091 1.66266026 19.6058091 1.66266026 2.38589212 8.62505008 2.38589212 8.62505008 0.20746888"></polygon>
                                    <rect id="Rectangle-path" fill="#E3E9EC" x="1.66266026" y="2.38589212" width="6.96238982" height="17.219917"></rect>
                                </g>
                                <g transform="translate(12.628235, 0.000000)">
                                    <polygon id="Shape" fill="#F7A600" points="0.103916266 0.20746888 0.103916266 19.6058091 1.45482772 19.6058091 1.45482772 2.38589212 8.41721755 2.38589212 8.41721755 0.20746888"></polygon>
                                    <rect id="Rectangle-path" fill="#E3E9EC" x="1.45482772" y="2.38589212" width="6.96238982" height="17.219917"></rect>
                                </g>
                                <g>
                                    <polygon id="Shape" fill="#F7A600" points="0.0543667882 0.20746888 0.0543667882 19.6058091 1.40527825 19.6058091 1.40527825 2.38589212 8.36766807 2.38589212 8.36766807 0.20746888"></polygon>
                                    <rect id="Rectangle-path" fill="#E3E9EC" x="1.40527825" y="2.38589212" width="6.96238982" height="17.219917"></rect>
                                </g>
                            </g>
                            <polygon id="Shape" fill-opacity="0.42" fill="#E5E9F2" points="47.281901 15.560166 57.2578626 0.829875519 10.7033754 0.622406639 0.727413862 15.560166"></polygon>
                            <polygon id="Shape" fill="#F0F0F0" points="57.2578626 0.829875519 68.1690705 15.560166 68.1690705 136.20332 47.281901 136.20332 47.281901 15.560166"></polygon>
                        </g>
                        <rect id="Rectangle-path" fill="#E5E9F2" x="0.415665064" y="83.1950207" width="31.4866286" height="81.3278008"></rect>
                        <polygon id="Shape" fill="#A0A1B9" points="21.9263321 89.626556 21.9263321 102.80083 22.8615785 102.80083 22.8615785 91.1825726 27.5378105 91.1825726 27.5378105 89.626556"></polygon>
                        <rect id="Rectangle-path" fill="#E3E9EC" x="22.8615785" y="91.1825726" width="4.67623197" height="11.6182573"></rect>
                        <polygon id="Shape" fill="#A0A1B9" points="13.4051983 89.626556 13.4051983 102.80083 14.2365284 102.80083 14.2365284 91.1825726 19.0166767 91.1825726 19.0166767 89.626556"></polygon>
                        <rect id="Rectangle-path" fill="#E3E9EC" x="14.2365284" y="91.1825726" width="4.67623197" height="11.6182573"></rect>
                        <polygon id="Shape" fill="#A0A1B9" points="4.78014824 89.626556 4.78014824 102.80083 5.71539463 102.80083 5.71539463 91.1825726 10.4955429 91.1825726 10.4955429 89.626556"></polygon>
                        <rect id="Rectangle-path" fill="#E3E9EC" x="5.71539463" y="91.1825726" width="4.67623197" height="11.6182573"></rect>
                        <polygon id="Shape" fill="#A0A1B9" points="21.9263321 108.298755 21.9263321 121.473029 22.8615785 121.473029 22.8615785 109.854772 27.5378105 109.854772 27.5378105 108.298755"></polygon>
                        <rect id="Rectangle-path" fill="#E3E9EC" x="22.8615785" y="109.854772" width="4.67623197" height="11.6182573"></rect>
                        <polygon id="Shape" fill="#A0A1B9" points="13.4051983 108.298755 13.4051983 121.473029 14.2365284 121.473029 14.2365284 109.854772 19.0166767 109.854772 19.0166767 108.298755"></polygon>
                        <rect id="Rectangle-path" fill="#E3E9EC" x="14.2365284" y="109.854772" width="4.67623197" height="11.6182573"></rect>
                        <polygon id="Shape" fill="#A0A1B9" points="4.78014824 108.298755 4.78014824 121.473029 5.71539463 121.473029 5.71539463 109.854772 10.4955429 109.854772 10.4955429 108.298755"></polygon>
                        <rect id="Rectangle-path" fill="#E3E9EC" x="5.71539463" y="109.854772" width="4.67623197" height="11.6182573"></rect>
                        <polygon id="Shape" fill="#A0A1B9" points="21.9263321 126.970954 21.9263321 140.145228 22.8615785 140.145228 22.8615785 128.526971 27.5378105 128.526971 27.5378105 126.970954"></polygon>
                        <rect id="Rectangle-path" fill="#E3E9EC" x="22.8615785" y="128.526971" width="4.67623197" height="11.6182573"></rect>
                        <polygon id="Shape" fill="#A0A1B9" points="13.4051983 126.970954 13.4051983 140.145228 14.2365284 140.145228 14.2365284 128.526971 19.0166767 128.526971 19.0166767 126.970954"></polygon>
                        <rect id="Rectangle-path" fill="#DDDDEE" x="14.2365284" y="128.526971" width="4.67623197" height="11.6182573"></rect>
                        <polygon id="Shape" fill="#A0A1B9" points="4.78014824 126.970954 4.78014824 140.145228 5.71539463 140.145228 5.71539463 128.526971 10.4955429 128.526971 10.4955429 126.970954"></polygon>
                        <rect id="Rectangle-path" fill="#E3E9EC" x="5.71539463" y="128.526971" width="4.67623197" height="11.6182573"></rect>
                        <polygon id="Shape" fill="#A0A1B9" points="21.9263321 145.643154 21.9263321 158.713693 22.8615785 158.713693 22.8615785 147.095436 27.5378105 147.095436 27.5378105 145.643154"></polygon>
                        <rect id="Rectangle-path" fill="#E3E9EC" x="22.8615785" y="147.095436" width="4.67623197" height="11.6182573"></rect>
                        <polygon id="Shape" fill="#A0A1B9" points="13.4051983 145.643154 13.4051983 158.713693 14.2365284 158.713693 14.2365284 147.095436 19.0166767 147.095436 19.0166767 145.643154"></polygon>
                        <rect id="Rectangle-path" fill="#E3E9EC" x="14.2365284" y="147.095436" width="4.67623197" height="11.6182573"></rect>
                        <polygon id="Shape" fill="#A0A1B9" points="4.78014824 145.643154 4.78014824 158.713693 5.71539463 158.713693 5.71539463 147.095436 10.4955429 147.095436 10.4955429 145.643154"></polygon>
                        <rect id="Rectangle-path" fill="#E3E9EC" x="5.71539463" y="147.095436" width="4.67623197" height="11.6182573"></rect>
                        <polygon id="Shape" fill="#D4D9DF" points="31.9022937 83.1950207 38.656851 73.2365145 7.27413862 73.1327801 0.415665064 83.1950207"></polygon>
                        <polygon id="Shape" fill="#D4D9DF" points="38.656851 73.2365145 46.0349058 83.1950207 46.0349058 164.522822 31.9022937 164.522822 31.9022937 83.1950207"></polygon>
                        <g transform="translate(41.566506, 48.755187)">
                            <g transform="translate(0.000000, 15.560166)">
                                <rect id="Rectangle-path" fill="#E5E9F2" x="0.311748798" y="0.518672199" width="49.0484776" height="99.6887967"></rect>
                                <polygon id="Shape" fill="#A0A1B9" points="33.7727865 11.6182573 33.7727865 26.1410788 35.2276142 26.1410788 35.2276142 13.3817427 42.6056691 13.3817427 42.6056691 11.6182573"></polygon>
                                <rect id="Rectangle-path" fill="#E3E9EC" x="35.2276142" y="13.3817427" width="7.37805489" height="12.7593361"></rect>
                                <polygon id="Shape" fill="#A0A1B9" points="20.4715044 11.6182573 20.4715044 26.1410788 21.9263321 26.1410788 21.9263321 13.3817427 29.2004708 13.3817427 29.2004708 11.6182573"></polygon>
                                <rect id="Rectangle-path" fill="#E3E9EC" x="21.9263321" y="13.3817427" width="7.37805489" height="12.7593361"></rect>
                                <polygon id="Shape" fill="#A0A1B9" points="7.06630609 11.6182573 7.06630609 26.1410788 8.52113381 26.1410788 8.52113381 13.3817427 15.8991887 13.3817427 15.8991887 11.6182573"></polygon>
                                <rect id="Rectangle-path" fill="#E3E9EC" x="8.52113381" y="13.3817427" width="7.37805489" height="12.7593361"></rect>
                                <polygon id="Shape" fill="#A0A1B9" points="33.7727865 32.1576763 33.7727865 46.5767635 35.2276142 46.5767635 35.2276142 33.8174274 42.6056691 33.8174274 42.6056691 32.1576763"></polygon>
                                <rect id="Rectangle-path" fill="#E3E9EC" x="35.2276142" y="33.8174274" width="7.37805489" height="12.7593361"></rect>
                                <polygon id="Shape" fill="#A0A1B9" points="20.4715044 32.1576763 20.4715044 46.5767635 21.9263321 46.5767635 21.9263321 33.8174274 29.2004708 33.8174274 29.2004708 32.1576763"></polygon>
                                <rect id="Rectangle-path" fill="#E3E9EC" x="21.9263321" y="33.8174274" width="7.37805489" height="12.7593361"></rect>
                                <polygon id="Shape" fill="#A0A1B9" points="7.06630609 32.1576763 7.06630609 46.5767635 8.52113381 46.5767635 8.52113381 33.8174274 15.8991887 33.8174274 15.8991887 32.1576763"></polygon>
                                <rect id="Rectangle-path" fill="#E3E9EC" x="8.52113381" y="33.8174274" width="7.37805489" height="12.7593361"></rect>
                                <polygon id="Shape" fill="#A0A1B9" points="33.7727865 52.6970954 33.7727865 67.1161826 35.2276142 67.1161826 35.2276142 54.3568465 42.6056691 54.3568465 42.6056691 52.6970954"></polygon>
                                <rect id="Rectangle-path" fill="#E3E9EC" x="35.2276142" y="54.3568465" width="7.37805489" height="12.7593361"></rect>
                                <polygon id="Shape" fill="#A0A1B9" points="20.4715044 52.6970954 20.4715044 67.1161826 21.9263321 67.1161826 21.9263321 54.3568465 29.2004708 54.3568465 29.2004708 52.6970954"></polygon>
                                <rect id="Rectangle-path" fill="#DDDDEE" x="21.9263321" y="54.3568465" width="7.37805489" height="12.7593361"></rect>
                                <polygon id="Shape" fill="#A0A1B9" points="7.06630609 52.6970954 7.06630609 67.1161826 8.52113381 67.1161826 8.52113381 54.3568465 15.8991887 54.3568465 15.8991887 52.6970954"></polygon>
                                <rect id="Rectangle-path" fill="#E3E9EC" x="8.52113381" y="54.3568465" width="7.37805489" height="12.7593361"></rect>
                                <polygon id="Shape" fill="#A0A1B9" points="33.7727865 73.7551867 33.7727865 88.1742739 35.2276142 88.1742739 35.2276142 75.4149378 42.6056691 75.4149378 42.6056691 73.7551867"></polygon>
                                <rect id="Rectangle-path" fill="#E3E9EC" x="35.2276142" y="75.4149378" width="7.37805489" height="12.7593361"></rect>
                                <polygon id="Shape" fill="#A0A1B9" points="20.4715044 73.7551867 20.4715044 88.1742739 21.9263321 88.1742739 21.9263321 75.4149378 29.2004708 75.4149378 29.2004708 73.7551867"></polygon>
                                <rect id="Rectangle-path" fill="#DDDDEE" x="21.9263321" y="75.4149378" width="7.37805489" height="12.7593361"></rect>
                                <polygon id="Shape" fill="#A0A1B9" points="7.06630609 73.7551867 7.06630609 88.1742739 8.52113381 88.1742739 8.52113381 75.4149378 15.8991887 75.4149378 15.8991887 73.7551867"></polygon>
                                <rect id="Rectangle-path" fill="#E3E9EC" x="8.52113381" y="75.4149378" width="7.37805489" height="12.7593361"></rect>
                            </g>
                            <polygon id="Shape" fill="#E5E9F2" points="23.4850761 0.414937759 0.311748798 16.0788382 49.3602264 16.0788382"></polygon>
                            <rect id="Rectangle-path" fill="#D4D9DF" x="49.3602264" y="16.0788382" width="21.9263321" height="99.6887967"></rect>
                            <polygon id="Shape" fill="#D4D9DF" points="71.3904748 16.0788382 49.3602264 16.0788382 23.4850761 0.414937759 47.4897336 1.34854772"></polygon>
                        </g>
                    </g>
                    <path d="M32.7336238,8.81742739 L32.7336238,15.0414938" id="Line" stroke="#2AB1FD" stroke-linecap="square"></path>
                    <path d="M53.516877,8.81742739 L53.516877,15.0414938" id="Line" stroke="#2AB1FD" stroke-linecap="square"></path>
                    <g id="Group-2" transform="translate(25.979067, 0.000000)">
                        <rect id="Rectangle" fill="#2AB1FD" x="0" y="0" width="35.3315304" height="11.4107884"></rect>
                        <text id="HOSPITAL" font-family="Montserrat-SemiBold, Montserrat" font-size="5" font-weight="500" fill="#FFFFFF">
                            <tspan x="4.47576522" y="7.0746888">HOSPITAL</tspan>
                        </text>
                    </g>
                    <text id="+" font-family="Montserrat-SemiBold, Montserrat" font-size="48" font-weight="500" fill="#E57373">
                        <tspan x="19.9103173" y="60.5228216">+</tspan>
                    </text>
                </g>
                <g id="Group-7" transform="translate(238.000000, 0.000000)">
                    <circle id="Oval-2" stroke="#2AB1FD" stroke-width="3" stroke-dasharray="5" cx="28.5" cy="27.5" r="27.5"></circle>
                    <text id="1" font-family="Rubik-Medium, Rubik" font-size="40" font-weight="400" fill="#2AB1FD">
                        <tspan x="18.38" y="41">1</tspan>
                    </text>
                </g>
            </g>
        </g>
    </g>
</svg>