<?xml version="1.0" encoding="UTF-8"?>
<svg width="800px" height="800px" viewBox="0 0 800 800" version="1.1" xmlns="http://www.w3.org/2000/svg" xmlns:xlink="http://www.w3.org/1999/xlink">
    <!-- Generator: Sketch 43.1 (39012) - http://www.bohemiancoding.com/sketch -->
    <title>Group 8</title>
    <desc>Created with Sketch.</desc>
    <defs></defs>
    <g id="Page-7" stroke="none" stroke-width="1" fill="none" fill-rule="evenodd">
        <g id="Group-8">
            <rect id="Rectangle-4" fill="#FFFFFF" x="0" y="0" width="800" height="800"></rect>
            <g id="Group" transform="translate(130.000000, 101.000000)">
                <path d="M364.580002,514.697686 C331.366173,514.222902 227.156201,533.187914 166.731932,517.361756 C68.8049443,491.71283 -44.4312128,514.170148 17.8183401,538.552981 C35.2165626,545.363504 -14.6780366,586.558992 107.964133,595.569351 C215.613657,603.471879 325.24145,585.794061 378.301281,578.19223 C431.361111,570.585124 455.801974,557.248948 467.154604,551.229733 C477.130359,545.943797 480.691244,516.364708 364.580002,514.697686" id="Fill-438" fill-opacity="0.42" fill="#E5E9F2"></path>
                <path d="M484.182154,59.5575705 C472.784718,59.5575705 463.152256,87.5318095 463.152256,120.645703 C463.152256,153.756339 472.784718,181.729926 484.182154,181.729926 C495.57959,181.729926 505.212051,153.756339 505.212051,120.645703 C505.212051,87.5318095 495.57959,59.5575705 484.182154,59.5575705 Z M484.182154,184.641833 C470.759231,184.641833 460.241026,156.530111 460.241026,120.645703 C460.241026,84.7586895 470.759231,56.6463158 484.182154,56.6463158 C497.605077,56.6463158 508.123282,84.7586895 508.123282,120.645703 C508.123282,156.530111 497.605077,184.641833 484.182154,184.641833 L484.182154,184.641833 Z" id="Fill-527" fill="#E5E9F2"></path>
                <path d="M443.719664,85.6220316 C439.141152,85.6220316 433.201459,86.4651747 430.889408,90.4730368 C425.19069,100.349671 444.58587,122.679933 473.248793,139.23916 C491.862434,149.990213 510.762639,156.412175 523.814331,156.412175 C528.386331,156.412175 534.332536,155.56838 536.644588,151.560518 C542.343306,141.683884 522.948126,119.349061 494.285203,102.793092 C475.665049,92.0439937 456.764844,85.6220316 443.719664,85.6220316 Z M523.814331,159.320172 C510.274177,159.320172 490.833408,152.754211 471.796434,141.762074 C440.73028,123.816938 421.654229,100.652655 428.368947,89.0174095 C430.752639,84.8974758 436.060588,82.7094737 443.719664,82.7094737 C457.253306,82.7094737 476.700588,89.2754347 495.737562,100.272133 C526.803716,118.216617 545.873254,141.386113 539.165049,153.016797 C536.781357,157.136731 531.473408,159.320172 523.814331,159.320172 L523.814331,159.320172 Z" id="Fill-528" fill="#E5E9F2"></path>
                <path d="M523.814331,85.6220316 C510.762639,85.6220316 491.862434,92.0439937 473.248793,102.793092 C444.58587,119.349061 425.19069,141.683884 430.889408,151.560518 C433.201459,155.56838 439.141152,156.412175 443.719664,156.412175 C456.764844,156.412175 475.665049,149.990213 494.285203,139.23916 C522.948126,122.679933 542.343306,100.349671 536.644588,90.4730368 C534.332536,86.4651747 528.386331,85.6220316 523.814331,85.6220316 Z M443.719664,159.320172 L443.719664,159.320172 C436.060588,159.320172 430.752639,157.136731 428.368947,153.016797 C421.654229,141.386113 440.73028,118.216617 471.796434,100.272133 C490.833408,89.2754347 510.28069,82.7094737 523.814331,82.7094737 C531.473408,82.7094737 536.781357,84.8974758 539.165049,89.0174095 C545.879767,100.652655 526.803716,123.816938 495.737562,141.762074 C476.700588,152.754211 457.253306,159.320172 443.719664,159.320172 L443.719664,159.320172 Z" id="Fill-529" fill="#E5E9F2"></path>
                <path d="M496.582564,121.090732 C496.582564,127.891261 491.072718,133.404271 484.273333,133.404271 C477.473949,133.404271 471.964103,127.891261 471.964103,121.090732 C471.964103,114.285641 477.473949,108.772632 484.273333,108.772632 C491.072718,108.772632 496.582564,114.285641 496.582564,121.090732" id="Fill-530" fill="#E5E9F2"></path>
                <path d="M485.360974,119.050638 C485.360974,121.854382 483.088,124.125786 480.287487,124.125786 C477.486974,124.125786 475.220513,121.854382 475.220513,119.050638 C475.220513,116.252106 477.486974,113.985263 480.287487,113.985263 C483.088,113.985263 485.360974,116.252106 485.360974,119.050638" id="Fill-531" fill="#E5E9F2"></path>
                <path d="M454.490205,82.7700705 C454.490205,87.1174053 450.960256,90.6378863 446.616205,90.6378863 C442.272154,90.6378863 438.748718,87.1174053 438.748718,82.7700705 C438.748718,78.4175232 442.272154,74.8905263 446.616205,74.8905263 C450.960256,74.8905263 454.490205,78.4175232 454.490205,82.7700705" id="Fill-532" fill="#E5E9F2"></path>
                <path d="M447.189333,82.0396505 C447.189333,83.8301895 445.736974,85.2819074 443.945949,85.2819074 C442.154923,85.2819074 440.702564,83.8301895 440.702564,82.0396505 C440.702564,80.2491116 442.154923,78.8 443.945949,78.8 C445.736974,78.8 447.189333,80.2491116 447.189333,82.0396505" id="Fill-533" fill="#E5E9F2"></path>
                <path d="M540.452923,108.827364 C540.452923,113.174047 536.936,116.702999 532.585436,116.702999 C528.241385,116.702999 524.717949,113.174047 524.717949,108.827364 C524.717949,104.480681 528.241385,100.953684 532.585436,100.953684 C536.936,100.953684 540.452923,104.480681 540.452923,108.827364" id="Fill-534" fill="#E5E9F2"></path>
                <path d="M533.152703,108.106066 C533.152703,109.896605 531.700344,111.346368 529.915831,111.346368 C528.124805,111.346368 526.671795,109.896605 526.671795,108.106066 C526.671795,106.314876 528.124805,104.863158 529.915831,104.863158 C531.700344,104.863158 533.152703,106.314876 533.152703,108.106066" id="Fill-535" fill="#E5E9F2"></path>
                <path d="M479.883692,169.424206 C479.883692,173.777405 476.366769,177.299841 472.022718,177.299841 C467.672154,177.299841 464.148718,173.777405 464.148718,169.424206 C464.148718,165.077523 467.672154,161.550526 472.022718,161.550526 C476.366769,161.550526 479.883692,165.077523 479.883692,169.424206" id="Fill-536" fill="#E5E9F2"></path>
                <path d="M472.582821,168.04742 C472.582821,169.838611 471.130462,171.293586 469.339436,171.293586 C467.554923,171.293586 466.102564,169.838611 466.102564,168.04742 C466.102564,166.256881 467.554923,164.808421 469.339436,164.808421 C471.130462,164.808421 472.582821,166.256881 472.582821,168.04742" id="Fill-537" fill="#E5E9F2"></path>
                <polyline id="Fill-590" fill="#67CBFC" points="173.722513 61.0575053 117.015385 61.0575053 117.015385 245.458908 244.608051 344.738038 372.213744 245.458908 372.213744 61.0575053 315.506615 61.0575053 315.506615 89.4285558 272.971385 89.4285558 272.971385 46.8726316 216.244718 46.8726316 216.244718 89.4285558 173.722513 89.4285558 173.722513 61.0575053"></polyline>
                <polyline id="Fill-591" fill="#2AB1FD" points="315.636872 89.4298589 273.101641 89.4298589 273.101641 46.8726316 243.364103 46.8726316 243.364103 343.672055 244.738308 344.739993 372.344 245.460863 372.344 61.0588084 315.636872 61.0588084 315.636872 89.4298589"></polyline>
                <path d="M67.1804183,320.199442 L61.8985208,387.931073 C61.8985208,387.931073 55.2489311,369.690772 52.1879055,348.872173 C51.2695978,342.665232 50.6769311,336.228935 50.6769311,329.978338 C50.6639055,302.76775 66.503085,317.655677 67.1804183,320.199442" id="Fill-599" fill="#E2C59C"></path>
                <path d="M61.8389181,281.925263 C61.8389181,281.925263 51.4379438,292.07556 49.4254822,308.64 C47.4130207,325.20444 48.2401489,319.716842 48.2401489,319.716842 C48.2401489,319.716842 51.1969694,326.232632 62.425072,323.626316 C73.6596873,321.02 61.8389181,281.925263 61.8389181,281.925263" id="Fill-600" fill="#67CBFC"></path>
                <path d="M60.4244624,542.718403 C61.056206,541.969087 60.6003085,539.975255 60.6003085,539.975255 C60.6003085,539.975255 49.6913342,538.756803 46.1874367,539.590824 C45.2691291,539.799329 43.7321034,540.581224 42.2862573,541.42176 C42.0452829,541.558592 41.6089239,542.399129 41.3679496,542.53596 C40.9315906,542.796592 40.7036419,542.360034 40.3258983,542.594603 C39.355488,543.207087 38.6716419,543.689255 38.6586162,543.747897 C37.7012316,548.745508 38.9777444,550.771918 38.9777444,550.771918 C38.9777444,550.771918 47.9524111,553.560676 49.9974367,551.703676 C55.2011803,546.999276 59.0632829,544.373413 60.4244624,542.718403" id="Fill-601" fill="#161711"></path>
                <path d="M94.3128205,547.027931 L95.8693846,555.159636 L104.153692,555.159636 C104.153692,555.159636 104.60959,554.006341 105.306462,554.006341 C105.899128,554.006341 106.661128,555.159636 107.468718,555.159636 L111.916974,555.159636 L128.537692,555.159636 C128.537692,555.159636 128.915436,553.445983 128.453026,552.859562 C128.23159,552.55332 126.831333,552.032057 125.913026,551.771426 C121.634103,550.566005 109.39,546.806394 107.260308,542.720994 C104.661692,537.742931 94.3128205,547.027931 94.3128205,547.027931" id="Fill-602" fill="#161711"></path>
                <path d="M101.125419,272.880259 L103.11183,263.031643 C103.11183,263.031643 110.100086,263.568544 111.461266,259.800463 C114.203163,252.24736 111.91065,240.174905 110.256394,236.791255 C105.534599,227.159615 103.541676,210.290888 81.4957784,223.704292 C73.1072656,228.808762 86.0547528,253.542047 87.0186502,258.898026 C87.9825477,264.247489 85.1169066,270.415987 85.1169066,270.415987 L90.2750605,274.286366 L101.125419,272.880259" id="Fill-603" fill="#E9D6B8"></path>
                <path d="M75.0023077,429.833684 C75.0023077,429.833684 78.2326667,431.245004 68.7239487,476.395516 C61.8724615,508.902789 56.0109231,532.691937 53.2755385,543.462537 C52.2139487,547.639158 51.0221026,546.883326 51.0221026,546.883326 L41.9627692,547.899789 L37.6512821,544.153211 L50.5987692,470.479179 L75.0023077,429.833684" id="Fill-604" fill="#35353B"></path>
                <path d="M96.0452308,379.393655 C96.0452308,379.393655 75.2953846,465.362981 59.0068205,503.89736 C49.4590256,526.468055 49.374359,483.138055 49.374359,483.138055 L64.2040513,358.302696 L107.514308,356.205263 C107.514308,356.205263 102.603641,357.722139 96.0452308,379.393655" id="Fill-605" fill="#35353B"></path>
                <path d="M81.2871795,356.347307 C81.2871795,356.347307 96.9700513,467.646114 98.6112821,472.669787 C104.192769,489.662966 112.789692,467.385482 114.756564,461.723261 C116.723436,456.054524 120.005897,414.130632 119.348103,383.538348 L118.696821,352.947368 L81.2871795,356.347307" id="Fill-606" fill="#35353B"></path>
                <path d="M97.0674406,444.78597 C97.0674406,444.78597 94.696774,458.058634 92.7233893,475.019234 C91.2710304,487.470907 91.2384663,523.040602 93.5309791,547.748476 C93.6677483,549.260139 109.370159,544.659991 109.370159,544.659991 C109.370159,544.659991 115.101441,475.507918 116.41703,460.019886 C117.73262,444.53837 106.908312,433.720857 97.0674406,444.78597" id="Fill-607" fill="#35353B"></path>
                <path d="M61.6447204,282.608769 L80.1606691,274.201446 L85.2732333,269.366731 L104.954977,268.893684 L108.400259,274.57024 L123.66631,281.188979 C123.66631,281.188979 127.43072,287.11118 124.154772,309.096757 C120.527131,333.457339 119.758618,370.277414 119.758618,370.277414 L62.0550281,373.061611 C62.0550281,373.061611 51.3870281,306.635743 61.6447204,282.608769" id="Fill-608" fill="#2AB1FD"></path>
                <path d="M103.951795,239.60219 C103.951795,239.60219 101.457385,238.065767 101.073128,239.982061 C100.682359,241.901612 102.030513,246.11798 103.183282,246.505669 C104.329538,246.890752 104.707282,252.064941 104.707282,252.064941 L101.646256,257.818383 L86.1196923,257.818383 C86.1196923,257.818383 81.3262564,255.710525 80.942,252.257808 C80.5577436,248.803788 76.7282051,224.450373 76.7282051,224.450373 L87.6502051,218.696931 C87.6502051,218.696931 93.4010256,215.816301 97.4324615,214.666915 C103.606615,212.89853 104.902667,216.199429 104.707282,217.927416 C104.51841,219.647585 106.439692,219.845665 108.92759,219.845665 C111.422,219.845665 114.489538,221.760004 113.147897,222.914602 C112.587795,223.387648 115.069179,224.905827 114.085744,226.736764 C112.678974,229.352853 107.976718,230.204467 107.585949,234.422789 C107.416615,236.334522 106.628564,242.665263 103.951795,239.60219" id="Fill-609" fill="#35353B"></path>
                <polyline id="Fill-610" fill="#E9D6B8" points="434.78241 377.407555 442.161436 373.294137 443.034154 372.376062 442.005128 370.733432 440.383436 370.934118 440.676513 366.122859 432.945795 364.751937 428.979487 362.888421 432.639692 375.941502 434.78241 377.407555"></polyline>
                <path d="M455.682051,329.657895 L428.979487,362.174942 C428.979487,362.174942 429.943385,366.914527 432.086103,364.397478 C432.340103,364.100358 431.050564,363.141885 432.672256,362.251177 C439.237179,358.668144 454.646513,353.154483 460.351744,347.640171 C467.854513,340.388097 473.188513,331.856974 473.188513,331.856974 L455.682051,329.657895" id="Fill-611" fill="#E9D6B8"></path>
                <path d="M338.48075,274.999603 C338.48075,274.999603 326.132442,272.620688 310.964083,254.515916 C305.845006,248.402151 308.358955,255.031966 309.22516,262.70887 C310.084852,270.385121 324.00275,282.646534 339.633519,286.896132 C355.264288,291.144426 338.48075,274.999603 338.48075,274.999603" id="Fill-612" fill="#E9D6B8"></path>
                <path d="M312.585254,259.345576 C312.585254,259.345576 315.008023,251.12265 313.757561,249.070176 C312.500587,247.019657 307.440125,239.843167 307.440125,239.843167 L305.987766,238.13212 C305.987766,238.13212 303.356587,238.814975 306.814895,243.594958 C310.266689,248.384063 307.394536,247.036598 307.394536,247.036598 L302.737869,243.987209 L296.7591,240.718237 L294.271202,238.904893 C294.271202,238.904893 292.936074,237.767236 292.402023,237.78548 C290.864997,237.845426 291.477202,239.091244 291.477202,239.091244 L300.5691,247.019657 L290.337459,242.161484 C290.337459,242.161484 288.930689,241.773143 288.487818,242.441012 C288.070997,243.07565 288.487818,243.302399 288.487818,243.302399 L298.862741,251.731224 L293.326843,249.862496 C293.326843,249.862496 291.9331,249.523023 291.477202,250.151146 C290.969202,250.841168 290.819407,251.011881 290.819407,251.011881 L311.243613,261.374593 L312.585254,259.345576" id="Fill-613" fill="#E9D6B8"></path>
                <polyline id="Fill-614" fill="#E5E9F2" points="312.243692 270.438491 307.189744 263.616459 315.65641 257.332632 320.716872 264.155966 312.243692 270.438491"></polyline>
                <polyline id="Fill-615" fill="#E5E9F2" points="441.184513 360.186975 434.189744 353.665973 441.373385 345.947368 448.374667 352.469674 441.184513 360.186975"></polyline>
                <path d="M299.296591,248.689546 L291.911052,245.722255 C291.911052,245.722255 290.328437,244.865429 289.358027,244.959908 C288.250847,245.070676 288.30295,246.109293 288.30295,246.109293 L299.029565,251.758482 L299.296591,248.689546" id="Fill-616" fill="#E9D6B8"></path>
                <path d="M433.149683,541.59615 C432.648196,542.267276 433.019427,544.039571 433.019427,544.039571 C433.019427,544.039571 441.883376,545.153771 444.729478,544.424003 C445.458914,544.235045 446.709376,543.544371 447.888196,542.808087 C448.090093,542.684287 448.441786,541.934971 448.630658,541.817687 C448.988863,541.583118 449.171222,541.974066 449.477324,541.759045 C450.258863,541.218234 450.818965,540.794708 450.825478,540.742582 C451.587478,536.292297 450.545427,534.487424 450.545427,534.487424 C450.545427,534.487424 442.997068,531.711697 441.590299,533.620824 C438.281786,538.123234 434.25035,540.123582 433.149683,541.59615" id="Fill-617" fill="#000000"></path>
                <path d="M386.098106,536.125593 L384.789029,543.332056 L381.330722,543.332056 C381.330722,543.332056 380.946465,542.302561 380.353799,542.302561 C379.852312,542.302561 379.214055,543.332056 378.536722,543.332056 L374.772312,543.332056 L360.717645,543.332056 C360.717645,543.332056 360.398517,541.807361 360.789286,541.286098 C360.991183,541.025466 362.163491,540.556329 362.938517,540.321761 C366.559645,539.253171 376.908517,535.923603 378.712568,532.294308 C380.900876,527.883119 386.098106,536.125593 386.098106,536.125593" id="Fill-618" fill="#000000"></path>
                <path d="M400.088615,260.105891 C400.088615,260.105891 401.430256,266.556522 377.997128,292.609907 C364.899846,307.168135 357.05841,316.561297 348.708974,314.291848 C334.419846,310.402573 306.538462,273.271695 306.538462,273.271695 L318.841179,258.621594 C318.841179,258.621594 341.049897,282.171612 350.467436,281.475726 C352.668769,281.312179 366.280564,269.169354 378.908923,251.650351 C384.249436,244.241247 398.506,258.338809 400.088615,260.105891" id="Fill-619" fill="#E5E9F2"></path>
                <path d="M379.736051,535.817474 C379.736051,535.817474 383.72841,541.596979 386.659179,536.182358 C393.419487,523.717653 403.468769,492.911 403.813949,478.889021 C404.30241,458.794326 400.889692,444.804926 400.889692,444.804926 L379.482051,437.82 L379.736051,535.817474" id="Fill-620" fill="#35353B"></path>
                <path d="M380.452462,346.07868 L379.482051,438.202821 L398.942359,448.953874 C398.942359,448.953874 410.619846,426.978722 412.078718,398.919126 C412.697436,387.002399 413.010051,360.287662 406.353949,351.202697 C397.320667,338.889809 380.452462,346.07868 380.452462,346.07868" id="Fill-621" fill="#35353B"></path>
                <path d="M387.297436,345.499734 L390.469179,377.388007 L399.124718,411.980334 L408.333846,444.302559 L441.210564,534.038012 L450.777897,534.813391 C450.777897,534.813391 449.573026,467.459675 437.895538,447.814569 C431.714872,437.421885 431.721385,414.354687 428.868769,389.512588 C428.354256,385.037544 430.881231,374.928297 430.477436,370.846155 C428.868769,354.7502 420.584462,342.689474 420.584462,342.689474 L387.297436,345.499734" id="Fill-622" fill="#49494F"></path>
                <path d="M377.05963,406.525315 L384.673117,405.353776 L385.259271,385.429143 L392.872758,404.766703 L431.92363,398.516758 C431.92363,398.516758 432.705168,357.106309 426.850143,337.181677 L440.103732,285.618977 C440.103732,285.618977 451.787732,249.139026 429.403168,248.671844 C407.018604,248.210526 381.214809,248.210526 381.214809,248.210526 C381.214809,248.210526 359.865784,341.876955 377.05963,406.525315" id="Fill-623" fill="#EDF0F6"></path>
                <path d="M401.852516,257.332632 C401.852516,257.332632 388.130004,293.974825 399.846568,329.988897 C400.771388,332.823265 404.581388,334.321897 404.581388,334.321897 L408.638875,329.361426 C408.638875,329.361426 401.220773,287.614112 401.852516,257.332632" id="Fill-624" fill="#2AB1FD"></path>
                <polyline id="Fill-625" fill="#CED2DA" points="402.928205 256.059446 404.595487 263.533708 417.412718 251.387625 417.412718 249.513684 402.928205 256.059446"></polyline>
                <polyline id="Fill-626" fill="#CED2DA" points="399.932308 248.862105 396.415385 262.926437 401.104615 257.066136 399.932308 248.862105"></polyline>
                <path d="M437.951328,284.650508 L452.611687,326.909964 L436.388251,350.4678 C436.388251,350.4678 443.838918,360.319674 446.63943,358.96439 C465.962969,349.588169 480.056712,320.315333 480.056712,320.315333 L458.935636,262.96596 C458.935636,262.96596 450.768559,250.909795 432.571738,248.907493 C419.389789,247.459033 436.889738,281.135239 437.951328,284.650508" id="Fill-627" fill="#EDF0F6"></path>
                <path d="M418.76015,240.391579 C418.271689,242.711852 417.418509,246.304006 416.487176,248.402091 C415.028304,251.670411 402.373894,255.878959 400.426561,256.345489 C398.479227,256.814626 400.915022,246.524892 400.915022,244.192891 C400.915022,242.404306 402.061279,242.964664 400.680561,240.391579 L418.76015,240.391579" id="Fill-628" fill="#E9D6B8"></path>
                <path d="M397.114623,235.083751 C396.788982,237.093872 398.156675,238.974981 400.15611,239.298164 L416.477239,241.918163 C418.476675,242.241998 420.35888,240.874333 420.684521,238.870728 L424.559649,214.685421 C424.88529,212.685073 423.52411,210.796146 421.511649,210.47166 L405.197034,207.860783 C403.197598,207.534993 401.315393,208.896793 400.989752,210.90496 L397.114623,235.083751" id="Fill-629" fill="#E9D6B8"></path>
                <path d="M400.3607,216.332195 C400.3607,216.332195 398.543623,213.642477 398.37429,212.136678 C398.28311,211.37824 399.429367,208.742603 401.415777,207.973089 C403.402187,207.210741 404.594033,209.412427 404.594033,209.412427 C404.594033,209.412427 401.435315,210.56116 401.187828,211.141717 C400.940341,211.725532 400.3607,216.332195 400.3607,216.332195" id="Fill-630" fill="#35353B"></path>
                <path d="M424.636099,226.038395 C424.636099,226.038395 428.589381,217.142387 428.576355,214.350371 C428.556817,211.549885 428.556817,209.615347 425.287381,208.77872 C420.383227,207.531598 420.148766,208.57673 417.973484,206.67412 C415.798201,204.780631 412.033791,200.437858 410.600971,199.833844 C408.204253,198.8252 404.166304,199.033705 403.267535,203.69901 C402.596714,207.139999 400.27815,207.63585 400.32374,207.777243 C400.447484,208.228136 401.287637,208.771552 402.746509,209.815382 C406.921227,212.811342 409.565432,213.703354 413.180048,213.350198 C416.807689,213.002255 423.587535,212.073755 423.932714,214.76673 C424.277894,217.458403 422.714817,225.270835 422.916714,225.923065 C423.125125,226.577902 423.952253,226.401976 424.636099,226.038395" id="Fill-631" fill="#35353B"></path>
                <path d="M418.575367,232.233598 C418.464649,232.899512 418.927059,233.529589 419.591367,233.637099 L423.114803,234.200064 C423.779111,234.309529 424.410854,233.85212 424.521572,233.18751 L425.557111,226.739485 C425.654803,226.070965 425.205418,225.43763 424.541111,225.330771 L421.011162,224.76911 C420.340342,224.662902 419.715111,225.116401 419.617418,225.782315 L418.575367,232.233598" id="Fill-632" fill="#E9D6B8"></path>
                <path d="M397.083243,228.975402 C396.972525,229.651089 397.428423,230.276605 398.09273,230.382161 L401.616166,230.948383 C402.286987,231.055893 402.912218,230.601743 403.022935,229.929313 L404.058474,223.484546 C404.162679,222.819935 403.706782,222.185297 403.042474,222.080393 L399.512525,221.50961 C398.848218,221.409267 398.222987,221.866024 398.118782,222.531937 L397.083243,228.975402" id="Fill-633" fill="#E9D6B8"></path>
                <path d="M422.711017,228.011579 C422.711017,228.011579 421.187017,237.527889 420.679017,240.704988 C420.216607,243.576497 418.060863,249.692217 401.856966,247.083946 C392.263581,245.551433 393.741992,238.553475 394.119735,236.233854 C394.399786,234.471333 397.245889,229.506953 398.418197,228.655991 L397.792966,232.588921 C397.792966,232.588921 400.398094,229.080168 404.957068,229.812543 C412.316556,230.989295 413.293479,235.565334 416.549889,236.012317 C419.057325,236.352441 421.584299,232.585663 422.711017,228.011579" id="Fill-634" fill="#35353B"></path>
                <path d="M407.03977,236.143936 L402.00536,235.335326 C401.334539,235.230422 400.885155,234.6023 400.98936,233.930522 L401.100078,233.224211 L408.557257,234.425071 L408.446539,235.128124 C408.335821,235.795993 407.704078,236.251446 407.03977,236.143936" id="Fill-635" fill="#E9D6B8"></path>
                <polyline id="Fill-636" fill="#CED2DA" points="400.642205 248.210526 397.418359 259.052148 394.780667 300.071649 385.994872 268.427718 391.465641 262.568068 388.04641 257.587399 394.48759 248.796296 400.642205 248.210526"></polyline>
                <path d="M164.949744,336.173684 C164.949744,336.173684 168.17359,336.610894 166.376051,353.912269 C164.578513,371.217555 158.046154,396.225806 158.046154,396.225806 L158.801641,355.947802 C158.801641,355.947802 159.772051,340.559462 164.949744,336.173684" id="Fill-984" fill="#E9D6B8"></path>
                <path d="M160.575214,382.708897 C159.949984,390.959841 163.440855,394.756591 164.359163,398.11092 C165.277471,401.463945 166.807984,404.869097 166.781932,404.854762 C163.707881,402.784696 163.818599,400.115177 162.880753,398.712327 C161.942907,397.309478 162.437881,397.688697 162.014548,400.60777 C161.773573,402.273206 164.228907,405.393618 165.551009,407.616805 C166.697266,409.532447 166.710291,410.686393 166.710291,410.686393 C166.710291,410.686393 164.163778,408.368076 162.196907,405.483536 C159.819727,402.016484 157.917984,397.80142 157.650958,396.812974 C157.155984,395.010707 157.403471,389.484014 158.178496,385.581708 C159.051214,381.184202 161.031112,376.761936 160.575214,382.708897" id="Fill-985" fill="#E9D6B8"></path>
                <polyline id="Fill-986" fill="#E9D6B8" points="166.610513 544.027368 165.607538 566.689284 151.350974 567.816516 145.020513 567.041137 157.596769 563.079537 158.997026 544.229358 166.610513 544.027368"></polyline>
                <path d="M165.258532,569.393337 L162.151917,569.7908 L161.617866,568.917684 L149.823148,569.087095 L144.117917,567.588463 C144.117917,567.588463 143.883455,566.578516 144.417507,566.278789 C146.026173,565.360063 152.135199,564.877895 152.135199,564.877895 C152.135199,564.877895 151.321096,566.011642 151.965866,566.513358 C152.604122,567.015074 160.458583,566.734895 162.399404,566.415621 C165.753507,565.855263 166.821609,564.858347 166.925814,565.132011 C167.186327,565.855263 165.258532,569.393337 165.258532,569.393337" id="Fill-987" fill="#2AB1FD"></path>
                <path d="M161.901744,379.200657 L159.973949,464.943885 L154.138462,549.095306 L166.988256,550.098738 C166.988256,550.098738 178.991385,465.321801 180.417692,457.985022 C181.837487,450.654759 197.051436,391.82565 189.965487,376.811968 C182.873026,361.799589 161.901744,379.200657 161.901744,379.200657" id="Fill-988" fill="#35353B"></path>
                <path d="M212.203054,331.893194 C219.380182,340.556587 223.001311,376.196653 223.001311,376.196653 C223.001311,376.196653 220.64367,389.836806 207.442182,344.074462 C203.482388,330.334617 210.431567,329.757318 212.203054,331.893194" id="Fill-989" fill="#E9D6B8"></path>
                <path d="M220.15241,407.085673 L223.148308,403.789335 L224.776513,400.536653 L225.225897,394.656153 C225.225897,394.656153 224.932821,388.367113 223.975436,386.038369 C223.005026,383.70702 223.219949,374.387486 222.874769,373.241359 C222.523077,372.099141 216.661538,370.707368 216.661538,370.707368 C216.661538,370.707368 219.234103,380.355298 219.930974,384.271287 C220.627846,388.182716 219.69,394.110129 219.911436,395.655023 C220.282667,398.295221 221.285641,400.363984 221.285641,400.363984 C221.285641,400.363984 221.448462,396.18606 221.363795,395.083588 C221.279128,393.985678 222.549128,394.469149 222.549128,394.469149 C222.549128,394.469149 222.933385,400.236926 222.399333,401.772698 C221.871795,403.303257 220.862308,404.494343 220.862308,404.494343 L220.15241,407.085673" id="Fill-990" fill="#E9D6B8"></path>
                <path d="M173.885333,311.868855 L169.274256,360.190601 L169.274256,363.00477 L155.441026,362.198116 C155.441026,362.198116 159.44641,324.902388 160.052103,323.099469 C160.657795,321.293944 162.058051,305.651488 161.856154,302.848396 C161.654256,300.034878 162.259949,286.001822 171.47559,287.403368 C180.691231,288.810779 173.885333,311.868855 173.885333,311.868855" id="Fill-991" fill="#BFE990"></path>
                <path d="M204.241454,311.647206 L208.846018,359.968952 L208.846018,362.783122 L222.685762,361.976467 C216.44648,333.70576 215.046223,328.088498 214.857351,322.877821 C214.798736,320.975862 214.460069,305.42984 214.661967,302.626747 C214.857351,299.813229 215.046223,292.196923 206.644685,287.18172 C198.633916,282.401737 204.241454,311.647206 204.241454,311.647206" id="Fill-992" fill="#BFE990"></path>
                <path d="M189.307692,540.919337 L189.50959,569.999305 L201.532256,565.783589 C201.532256,565.783589 206.618769,562.102168 202.235641,562.577821 C195.814,563.275011 197.123077,560.570958 196.921179,555.358326 C196.725795,550.145695 197.722256,540.117895 197.722256,540.117895 L189.307692,540.919337" id="Fill-993" fill="#E9D6B8"></path>
                <path d="M204.23815,562.923158 C204.23815,562.923158 202.876971,564.200253 201.431125,565.125495 C200.030868,566.024674 195.99292,568.025021 194.42333,568.337779 C192.410868,568.735242 190.509125,568.539768 190.509125,568.539768 C190.509125,568.539768 189.610355,571.537032 191.609791,571.348074 C193.61574,571.139568 203.638971,566.728379 205.04574,565.731463 C206.439484,564.728032 206.647894,563.125147 204.23815,562.923158" id="Fill-994" fill="#2AB1FD"></path>
                <path d="M191.593692,381.181017 L190.069692,459.82008 L188.65641,543.202638 L198.809897,542.668343 C198.809897,542.668343 209.054564,458.738459 209.914256,451.316974 C210.780462,443.902006 223.063641,394.534475 214.844462,380.109821 C206.631795,365.685166 191.593692,381.181017 191.593692,381.181017" id="Fill-995" fill="#35353B"></path>
                <path d="M189.633333,283.395789 C189.633333,283.395789 173.859282,284.461121 170.120923,286.066612 C166.376051,287.672754 167.183641,306.123515 169.580359,319.757804 C171.990103,333.388836 170.922,348.632525 167.444154,357.190363 C163.972821,365.74364 161.302564,382.053964 161.302564,382.053964 L216.622462,381.252522 C216.622462,381.252522 204.059231,347.300698 204.059231,334.194839 C204.059231,321.096147 207.530564,291.148276 207.263538,288.209003 C207.003026,285.267776 193.104667,283.395789 189.633333,283.395789" id="Fill-996" fill="#98DC4D"></path>
                <path d="M166.037385,278.092588 L165.991795,278.017657 C169.437077,273.874266 171.403949,269.221993 171.403949,262.399961 C171.403949,259.510208 171.162974,258.462469 171.045744,254.161397 L171.065282,254.149668 C171.026205,253.746341 170.974103,253.346923 170.974103,252.933171 L170.974103,247.736177 C170.974103,240.080124 177.174308,233.875789 184.826872,233.875789 L188.291692,233.875789 C195.944256,233.875789 202.144462,240.080124 202.144462,247.736177 L202.144462,257.971831 L202.196564,257.985514 C202.183538,258.309348 202.157487,258.629925 202.144462,258.949851 L202.144462,259.510208 C202.255179,267.684266 206.338718,274.895942 212.571487,279.435493 C216.980667,281.551821 220.022154,286.037942 220.022154,291.246013 C220.022154,297.823702 215.176615,303.253961 208.852667,304.195493 C206.247538,311.580488 199.109487,316.894766 190.681897,316.894766 C183.400564,316.894766 177.070103,312.93056 173.800667,307.081987 C166.844974,304.248271 161.953846,297.527234 161.953846,289.687436 C161.953846,285.312735 163.484359,281.293796 166.037385,278.092588" id="Fill-997" fill="#35353B"></path>
                <path d="M46.8734359,119.874973 C46.8734359,119.9688 46.8017949,120.04308 46.7041026,120.04308 L37.1693333,120.04308 C37.071641,120.04308 37,119.9688 37,119.874973 L37,107.470213 C37,107.377688 37.071641,107.302105 37.1693333,107.302105 L46.7041026,107.302105 C46.8017949,107.302105 46.8734359,107.377688 46.8734359,107.470213 L46.8734359,119.874973" id="Fill-998" fill="#98DC4D"></path>
                <path d="M59.8990769,119.942737 C59.8990769,120.036564 59.8274359,120.110844 59.7362564,120.110844 L50.1949744,120.110844 C50.1037949,120.110844 50.025641,120.036564 50.025641,119.942737 L50.025641,93.7877063 C50.025641,93.6945305 50.1037949,93.6189474 50.1949744,93.6189474 L59.7362564,93.6189474 C59.8274359,93.6189474 59.8990769,93.6945305 59.8990769,93.7877063 L59.8990769,119.942737" id="Fill-999" fill="#98DC4D"></path>
                <path d="M73.576,119.967497 C73.576,120.01832 73.4978462,120.057415 73.4066667,120.057415 L63.8653846,120.057415 C63.7742051,120.057415 63.7025641,120.01832 63.7025641,119.967497 L63.7025641,98.2705695 C63.7025641,98.2203979 63.7742051,98.18 63.8653846,98.18 L73.4066667,98.18 C73.4978462,98.18 73.576,98.2203979 73.576,98.2705695 L73.576,119.967497" id="Fill-1000" fill="#98DC4D"></path>
                <path d="M87.2529231,119.874973 C87.2529231,119.9688 87.1812821,120.04308 87.0835897,120.04308 L77.5488205,120.04308 C77.4511282,120.04308 77.3794872,119.9688 77.3794872,119.874973 L77.3794872,107.470213 C77.3794872,107.377688 77.4511282,107.302105 77.5488205,107.302105 L87.0835897,107.302105 C87.1812821,107.302105 87.2529231,107.377688 87.2529231,107.470213 L87.2529231,119.874973" id="Fill-1001" fill="#98DC4D"></path>
                <path d="M100.278564,119.326995 C100.278564,119.469039 100.206923,119.583065 100.115744,119.583065 L90.5744615,119.583065 C90.4832821,119.583065 90.4051282,119.469039 90.4051282,119.326995 L90.4051282,79.5396295 C90.4051282,79.3982368 90.4832821,79.2842105 90.5744615,79.2842105 L100.115744,79.2842105 C100.206923,79.2842105 100.278564,79.3982368 100.278564,79.5396295 L100.278564,119.326995" id="Fill-1002" fill="#98DC4D"></path>
                <path d="M113.955487,119.967497 C113.955487,120.01832 113.877333,120.057415 113.786154,120.057415 L104.244872,120.057415 C104.153692,120.057415 104.082051,120.01832 104.082051,119.967497 L104.082051,98.2705695 C104.082051,98.2203979 104.153692,98.18 104.244872,98.18 L113.786154,98.18 C113.877333,98.18 113.955487,98.2203979 113.955487,98.2705695 L113.955487,119.967497" id="Fill-1003" fill="#98DC4D"></path>
                <path d="M420.747236,16.0315841 C422.772723,17.9543936 422.863902,21.1614652 420.94262,23.1956947 C419.021338,25.2299241 415.810518,25.3185389 413.778518,23.3950778 L403.585954,13.7510578 C401.553302,11.8269452 401.462123,8.61922202 403.384056,6.5862957 C405.311851,4.55206623 408.516159,4.46214833 410.548159,6.38691255 L420.747236,16.0315841" id="Fill-1004" fill="#67CBFC"></path>
                <path d="M408,18.3641453 L413.151641,23.2399105 C415.183641,25.1633716 418.394462,25.0747568 420.315744,23.0405274 C422.237026,21.0062979 422.145846,17.7992263 420.120359,15.8764168 L414.962205,11 L408,18.3641453" id="Fill-1005" fill="#2AB1FD"></path>
                <path d="M353.652373,27.1246209 C350.871399,30.0671514 346.234271,30.1955125 343.290476,27.4152251 C340.353194,24.6310282 340.222938,19.990483 343.003912,17.0479525 L356.947861,2.29555351 C359.728835,-0.648280177 364.372476,-0.777292808 367.309758,2.00429772 C370.253553,4.7871914 370.383809,9.42838824 367.602835,12.3715703 L353.652373,27.1246209" id="Fill-1006" fill="#BFE990"></path>
                <path d="M350.050784,10 L343.003912,17.4592758 C340.222938,20.4018063 340.353194,25.0423516 343.290476,27.8265484 C346.234271,30.6068358 350.871399,30.4784747 353.652373,27.5359442 L360.705758,20.0779716 L350.050784,10" id="Fill-1007" fill="#98DC4D"></path>
                <path d="M393.04809,44.7819062 C390.403885,47.5830441 385.988193,47.7068441 383.181167,45.056221 C380.380654,42.406901 380.263424,37.987241 382.907629,35.1841483 C385.558347,32.383662 389.974039,32.2592104 392.774552,34.909182 C395.575065,37.5591536 395.698808,41.9801167 393.04809,44.7819062" id="Fill-1011" fill="#67CBFC"></path>
                <path d="M383,45.1470389 C385.807026,47.7976621 390.222718,47.6738621 392.866923,44.8727242 C395.517641,42.0709347 395.393897,37.6499716 392.593385,35 L383,45.1470389" id="Fill-1012" fill="#2AB1FD"></path>
                <path d="M383,45.0062979 C383.110718,45.1516 383.227949,45.2936442 383.351692,45.4291726 L392.899487,35.3244863 C392.762718,35.2085053 392.612923,35.1016463 392.463128,35 L383,45.0062979" id="Fill-1013" fill="#FFFFFF"></path>
                <path d="M265.597851,445.544302 C265.597851,445.544302 263.07739,437.824395 262.895031,436.661978 C262.719185,435.500213 255.053595,432.732957 257.53498,427.743166 C258.883133,425.030642 266.620364,411.854413 272.846621,412.426499 C278.2718,412.924957 287.11621,415.739127 286.432364,422.836776 C285.748518,429.933122 278.831903,433.451649 276.344005,435.620755 C274.572518,437.1663 274.110108,446.827913 277.216723,448.750071 C278.493236,449.538481 265.597851,445.544302 265.597851,445.544302" id="Fill-1014" fill="#E2C59C"></path>
                <path d="M269.219746,421.926595 C269.310925,422.686988 266.373643,431.18488 267.904156,433.742328 C270.528823,438.118984 272.176567,439.487951 274.469079,439.869776 C277.093746,440.306986 281.978361,437.667439 284.179695,436.491339 C286.387541,435.315891 284.883079,435.2579 288.00272,434.285745 C295.069131,432.082105 293.304156,422.232837 292.568208,420.61627 C291.838772,418.999051 289.175028,416.940713 286.680618,417.970208 C284.179695,418.998399 267.031438,403.983414 269.219746,421.926595" id="Fill-1015" fill="#35353B"></path>
                <path d="M282.099857,424.241512 C282.099857,424.241512 281.233652,438.278478 285.278114,434.885054 C289.322575,431.490328 292.42919,432.45662 292.865549,429.025405 C293.308421,425.592887 294.930114,424.485203 293.575447,424.089694 C292.227293,423.692231 295.907037,416.518999 292.559447,411.922761 C289.21837,407.327174 290.729344,409.691754 290.02596,410.729068 C289.231396,411.908426 287.017037,407.641887 285.883806,405.784887 C284.424934,403.394244 275.326524,401.111111 275.96478,404.915681 C276.603037,408.72025 273.060062,403.273702 272.187344,405.27861 C271.321139,407.284822 269.458473,404.761908 269.204473,402.934881 C268.94396,401.108505 263.909549,407.886229 267.367857,415.963202 C270.826165,424.03822 279.722678,424.450018 282.099857,424.241512" id="Fill-1016" fill="#35353B"></path>
                <path d="M271.629744,424.727809 C271.629744,424.727809 268.132359,422.977016 267.259641,425.16567 L266.38041,427.35302 L265.507692,424.727809 C265.507692,424.727809 271.193385,416.850219 271.193385,414.661566 C271.193385,412.473564 272.072615,422.977016 271.629744,424.727809" id="Fill-1017" fill="#35353B"></path>
                <path d="M296.789417,477.026455 C296.789417,477.026455 300.169571,486.135529 301.348391,489.81695 C302.520699,493.485339 303.842802,495.400981 305.164904,496.723687 C306.487007,498.046392 304.871827,498.926023 304.57875,500.248729 C304.285673,501.571434 303.69952,503.18735 303.69952,503.18735 C303.69952,503.18735 303.106853,501.134876 302.377417,500.248729 C301.641468,499.369097 299.583417,499.075887 299.29034,497.310108 C298.997263,495.544329 298.411109,492.312497 296.203263,488.487729 C294.00193,484.669476 289.742545,480.258287 291.20793,477.612876 C292.679827,474.967465 296.789417,477.026455 296.789417,477.026455" id="Fill-1018" fill="#E2C59C"></path>
                <path d="M257.938348,532.615205 C257.938348,532.615205 257.384758,541.105278 257.938348,544.741089 C258.491937,548.383415 259.924758,560.730836 260.361117,563.265478 C260.803989,565.80012 267.746655,565.578583 266.867425,562.379331 C265.981681,559.186594 267.303783,553.785005 267.857373,549.373815 C268.40445,544.962626 269.068758,535.925226 267.746655,531.950594 C266.424553,527.982478 257.938348,532.615205 257.938348,532.615205" id="Fill-1019" fill="#E9D6B8"></path>
                <path d="M275.299718,531.217326 L285.179667,530.995789 C285.179667,530.995789 285.296897,533.530432 284.469769,537.830853 C283.649154,542.131274 280.829103,552.165589 280.711872,555.912168 C280.594641,559.658747 283.649154,563.411842 280.711872,562.304158 C277.768077,561.202989 275.299718,563.737632 275.657923,562.414926 C276.009615,561.092221 275.892385,550.947137 275.182487,546.320926 C274.479103,541.6882 274.361872,533.198126 275.299718,531.217326" id="Fill-1020" fill="#E9D6B8"></path>
                <polyline id="Fill-1021" fill="#35353B" points="253.42641 505.584211 253.869282 529.106211 253.133333 534.247168 269.884308 534.690242 271.499487 518.374705 272.528513 511.904526 279.581897 506.613705 253.42641 505.584211"></polyline>
                <polyline id="Fill-1022" fill="#49494F" points="253.133333 531.647368 270.034103 532.383653 269.884308 534.735853 253.283128 534.885716 253.133333 531.647368"></polyline>
                <path d="M278.311897,506.555063 L253.784615,505.584211 L253.797641,506.001221 C254.540103,508.457674 256.135744,513.012211 258.050513,513.963516 C260.694718,515.286221 262.752769,513.963516 264.511231,518.667916 C266.276205,523.372316 266.569282,528.813 268.334256,524.988232 C269.858256,521.691242 269.415385,517.514621 272.574103,513.878811 L272.886718,511.904526 L277.751795,508.255684 C278.044872,507.669263 278.220718,507.095874 278.311897,506.555063" id="Fill-1023" fill="#49494F"></path>
                <path d="M260.811949,509.754316 C265.169026,510.412411 268.562205,509.754316 271.473436,512.086968 C272.046564,512.556105 272.528513,513.038274 272.958359,513.494379 L273.114667,512.412758 L278.044872,508.470705 C278.331436,507.838674 278.513795,507.219674 278.604974,506.626737 L253.784615,505.584211 L253.797641,505.792716 C255.022051,507.017684 257.659744,509.278663 260.811949,509.754316" id="Fill-1024" fill="#0253A2"></path>
                <path d="M286.941385,506.235789 L288.413282,530.930632 L272.691333,530.930632 L271.369231,515.9378 C271.369231,515.9378 275.192256,506.385653 275.77841,506.385653 C276.364564,506.385653 286.941385,506.235789 286.941385,506.235789" id="Fill-1025" fill="#35353B"></path>
                <polyline id="Fill-1026" fill="#49494F" points="272.020513 529.692632 288.328615 529.985842 288.185333 531.901484 272.170308 532.044832 272.020513 529.692632"></polyline>
                <path d="M279.301846,512.119547 C281.314308,511.376747 285.137333,510.034495 287.130256,509.330789 L286.941385,506.235789 C286.941385,506.235789 276.364564,506.385653 275.77841,506.385653 C275.192256,506.385653 271.369231,515.9378 271.369231,515.9378 L271.46041,516.999874 C272.274513,521.502284 273.720359,526.278358 273.720359,525.789674 C273.720359,525.203253 275.042462,520.792063 275.77841,519.176147 C276.514359,517.553716 276.950718,516.530737 274.892667,516.823947 C272.841128,517.117158 276.514359,513.149042 279.301846,512.119547" id="Fill-1027" fill="#49494F"></path>
                <path d="M222.269077,395.467368 C222.269077,395.467368 226.235385,399.436787 226.678256,401.052703 C227.121128,402.669922 233.138974,416.193443 233.288769,417.075681 C233.438564,417.957267 236.668923,422.073292 237.841231,424.278235 C239.020051,426.482526 243.429231,430.599202 247.545333,433.392521 C251.654923,436.184537 248.274769,440.74168 248.274769,440.74168 C248.274769,440.74168 234.024718,431.334183 231.087436,427.218159 C228.150154,423.102786 224.77,408.697027 224.476923,407.227065 C224.177333,405.756452 221.976,407.227065 221.389846,405.315333 C220.797179,403.404252 219.917949,399.730649 219.917949,399.730649 C219.917949,399.730649 221.389846,395.908487 222.269077,395.467368" id="Fill-1028" fill="#E2C59C"></path>
                <path d="M261.657505,442.095953 C261.657505,442.095953 247.114377,431.952824 246.52171,430.776724 C245.935556,429.600624 241.676172,437.097691 240.940223,440.037616 C240.204274,442.979495 239.325043,446.94761 241.383095,447.977105 C243.441146,449.0066 255.489864,455.470263 257.541402,459.295031 C259.599454,463.113284 261.657505,442.095953 261.657505,442.095953" id="Fill-1029" fill="#E5E9F2"></path>
                <path d="M281.801296,446.511038 C282.016219,445.644438 287.239501,447.247322 290.912732,452.831354 C294.585962,458.421901 297.959603,478.119133 297.959603,478.119133 C297.959603,478.119133 296.201142,480.471333 294.436167,480.764543 C292.671193,481.057754 286.796629,479.585185 284.888373,480.32147 C282.973603,481.057754 281.651501,447.097459 281.801296,446.511038" id="Fill-1030" fill="#E5E9F2"></path>
                <path d="M274.278642,443.816764 C274.278642,443.816764 261.643771,440.878143 260.028591,440.437676 C258.413412,439.996557 254.297309,452.48928 254.440591,462.777711 C254.590386,473.072659 256.055771,478.506827 253.411565,487.329206 C250.76736,496.151585 252.239258,506.583364 252.239258,506.583364 C252.239258,506.583364 267.075463,510.258269 278.24495,508.792217 C289.414437,507.319648 289.264642,508.055932 290.143873,508.055932 C291.029617,508.055932 284.119514,486.149848 285.441617,469.690964 C286.770232,453.225564 284.269309,446.612038 281.475309,445.582543 C278.687822,444.553048 274.278642,443.816764 274.278642,443.816764" id="Fill-1031" fill="#2AB1FD"></path>
                <path d="M260.523311,558.433196 C260.523311,558.433196 265.368849,555.233944 266.912388,557.442796 C268.455926,559.645133 268.898798,562.512081 268.898798,562.512081 C268.898798,562.512081 266.469516,568.245975 265.590285,568.90407 C264.711054,569.568681 257.768388,570.559081 257.768388,570.559081 C257.768388,570.559081 253.906285,565.711333 254.902747,564.499396 C255.892695,563.280944 256.993362,563.176691 257.546952,563.176691 C258.094029,563.176691 259.859003,558.987039 260.523311,558.433196" id="Fill-1032" fill="#D4D9DF"></path>
                <path d="M262.835362,563.013488 C262.171054,564.336193 258.426182,569.737782 257.768388,569.627014 C257.260388,569.542309 255.124182,566.206224 255.137208,564.525151 C255.059054,564.60334 254.9809,564.68153 254.902747,564.779267 C253.906285,565.991203 257.768388,570.838951 257.768388,570.838951 C257.768388,570.838951 264.711054,569.848551 265.590285,569.18394 C266.469516,568.525845 268.898798,562.791951 268.898798,562.791951 C267.465977,558.380761 263.49967,561.690782 262.835362,563.013488" id="Fill-1033" fill="#A0A1B9"></path>
                <path d="M274.703954,560.612821 C274.703954,560.612821 276.573134,557.856642 278.116672,558.071663 C279.84257,558.319263 280.871595,558.625505 281.314467,560.391284 C281.750826,562.150548 281.314467,564.027095 281.314467,564.027095 L274.261083,564.137863 C274.261083,564.137863 272.606826,560.827842 273.049698,559.505137 C273.486057,558.182432 274.593236,557.745874 274.703954,558.071663 C274.80816,558.403969 274.703954,560.612821 274.703954,560.612821" id="Fill-1034" fill="#A0A1B9"></path>
                <path d="M277.81038,557.97564 C276.781354,557.832293 274.723303,559.852187 274.944739,561.507198 C275.074995,562.471535 275.73279,563.272977 276.709713,563.272977 L281.118893,563.272977 C281.210072,562.569272 281.288226,561.409461 281.008175,560.295261 C280.565303,558.529482 279.536277,558.22324 277.81038,557.97564" id="Fill-1035" fill="#D4D9DF"></path>
                <path d="M142.018659,315.030642 C142.018659,315.030642 152.347992,342.620449 154.295325,348.646251 C154.881479,350.460898 146.629736,356.615062 144.408864,354.934639 C142.187992,353.253566 121.698659,326.337491 121.574915,316.815316 C121.451172,307.293142 142.018659,315.030642 142.018659,315.030642" id="Fill-1036" fill="#E2C59C"></path>
                <path d="M123.640494,280.789474 C123.640494,280.789474 139.134494,286.739693 141.492135,303.144496 L143.849776,319.549299 C143.849776,319.549299 125.451058,325.407645 122.865469,324.643343 C120.279879,323.880996 107.710135,283.775008 123.640494,280.789474" id="Fill-1037" fill="#67CBFC"></path>
                <path d="M144.908478,355.147187 L194.659913,352.714843 C194.659913,352.714843 196.744016,352.748725 199.323093,350.878694 C201.895657,349.005404 205.855452,344.268425 205.855452,344.268425 L206.461144,337.419679 C206.461144,337.419679 204.787349,338.334496 204.565913,339.560116 C204.344478,340.785736 201.133657,341.618454 199.863657,342.16969 C198.60017,342.718971 196.600734,342.456384 198.274529,341.542219 C199.948324,340.627402 203.152631,338.479146 203.146119,337.165563 C203.139606,335.849374 198.580631,338.775615 198.580631,338.775615 C198.580631,338.775615 192.92099,340.4821 191.566324,341.259434 C190.211657,342.036767 184.623657,348.23198 184.356631,348.914183 C184.089606,349.596386 150.84817,338.068 148.992016,338.122081 C147.135862,338.178768 142.869965,354.341836 144.908478,355.147187" id="Fill-1038" fill="#E2C59C"></path>
                <polyline id="Fill-1075" fill="#FFFFFF" points="286.544103 164.616205 257.653231 164.616205 257.653231 135.487368 230.572923 135.487368 230.572923 164.616205 201.682051 164.616205 201.682051 191.941472 230.572923 191.941472 230.572923 221.072263 257.653231 221.072263 257.653231 191.941472 286.544103 191.941472 286.544103 164.616205"></polyline>
                <polyline id="Fill-1077" fill="#E9F7FF" points="257.496923 135.487368 243.364103 135.487368 243.364103 221.072263 257.496923 221.072263 257.496923 191.941472 286.387795 191.941472 286.387795 164.616205 257.496923 164.616205 257.496923 135.487368"></polyline>
            </g>
        </g>
    </g>
</svg>