<?xml version="1.0" encoding="UTF-8"?>
<svg width="400px" height="400px" viewBox="0 0 400 400" version="1.1" xmlns="http://www.w3.org/2000/svg" xmlns:xlink="http://www.w3.org/1999/xlink">
    <!-- Generator: Sketch 43.1 (39012) - http://www.bohemiancoding.com/sketch -->
    <title>img_hiw_2</title>
    <desc>Created with Sketch.</desc>
    <defs></defs>
    <g id="Page-7" stroke="none" stroke-width="1" fill="none" fill-rule="evenodd">
        <g id="img_hiw_2">
            <rect id="Rectangle-5" fill="#FFFFFF" x="0" y="0" width="400" height="400"></rect>
            <g id="Group-6" transform="translate(83.000000, 61.000000)">
                <g id="Group-4" transform="translate(0.000000, 90.000000)" fill-rule="nonzero">
                    <g id="Group" transform="translate(44.356020, 103.345649) scale(-1, 1) translate(-44.356020, -103.345649) translate(0.856020, 20.345649)">
                        <path d="M19.5170586,58.7461545 C19.5170586,58.8483403 18.9039573,59.972384 19.7214257,60.1767556 C19.7214257,60.1767556 19.7214257,60.2789414 20.334527,60.1767556 C20.334527,60.1767556 20.7432612,61.0964277 21.7650967,60.8920561 L25.4437046,60.8920561 C26.4655402,60.6876845 28.9179454,60.4833129 30.3485152,58.2352255 C30.3485152,58.2352255 47.9240863,55.1696517 49.9677573,53.4324933 C52.0114284,51.6953348 55.5878527,41.5789414 55.5878527,41.5789414 L49.6612067,37.798067 C49.6612067,37.798067 47.2088014,47.0969741 44.8585797,48.4253894 C42.508358,49.7538047 29.8375974,54.8630944 29.8375974,54.8630944 C29.8375974,54.8630944 27.4873757,53.0237501 26.5677237,53.0237501 C26.1589895,53.0237501 22.4803816,53.3303075 22.4803816,54.045608 C22.4803816,54.556537 23.29785,54.7609086 23.8087678,54.8630944 C24.4218691,54.8630944 26.1589895,54.7609086 26.2611731,54.7609086 C26.3633566,54.8630944 26.2611731,54.8630944 26.056806,54.9652802 C25.4437046,55.2718375 23.4000336,55.8849523 22.0716474,56.3958812 C20.5388941,57.008996 19.3126915,57.7242966 19.1083244,57.9286681 C18.9039573,58.6439687 19.414875,58.8483403 19.5170586,58.7461545 Z" id="Shape" fill="#E2C59C"></path>
                        <path d="M63.8647205,162.362548 C63.8647205,162.362548 63.762537,163.28222 64.0690876,163.997521 C64.2734547,164.50845 71.1197528,165.836865 77.5573166,164.610635 C78.0682343,164.50845 78.4769686,163.997521 78.4769686,163.384406 L78.374785,162.669105 L63.8647205,162.362548 Z" id="Shape" fill="#98DC4D"></path>
                        <path d="M63.8647205,162.158176 C64.2734547,160.931947 70.8132021,160.012275 73.0612403,159.910089 C75.6158291,159.807903 73.2656074,158.17293 75.3092784,158.377302 L77.3529495,158.581674 C77.3529495,158.581674 78.1704179,160.012275 78.2726015,162.158176 L78.2726015,162.56692 C78.2726015,164.099706 73.8787087,163.895335 69.8935501,163.895335 C67.2367777,163.895335 65.0909231,163.793149 63.8647205,162.56692 C63.8647205,162.464734 63.762537,162.362548 63.8647205,162.158176 Z" id="Shape" fill="#98DC4D"></path>
                        <path d="M77.9660508,153.063641 L77.9660508,159.910089 C77.9660508,159.910089 71.4263034,161.238504 72.8568732,159.910089 L72.3459554,153.57457 L77.9660508,153.063641 Z" id="Shape" fill="#E9D6B8"></path>
                        <path d="M41.7930731,162.362548 C41.7930731,162.362548 41.588706,163.28222 41.7930731,163.997521 C41.9974402,164.50845 48.6393711,166.44998 55.1791185,165.836865 C55.7922198,165.836865 56.200954,165.325936 56.200954,164.712821 L56.200954,163.997521 L41.7930731,162.362548 Z" id="Shape" fill="#98DC4D"></path>
                        <path d="M41.8952567,162.260362 C42.4061744,161.034133 48.9459218,160.727575 51.2961435,160.829761 C53.8507323,160.931947 51.6026942,159.092603 53.7485488,159.603532 L55.7922198,160.012275 C55.7922198,160.012275 56.5075047,161.442876 56.4053212,163.690963 L56.4053212,164.099706 C56.3031376,165.530307 51.9092448,165.019379 47.9240863,164.610635 C45.2673139,164.304078 43.1214593,163.997521 42.0996238,162.771291 C41.7930731,162.56692 41.7930731,162.362548 41.8952567,162.260362 Z" id="Shape" fill="#98DC4D"></path>
                        <path d="M56.7118718,154.392056 L56.0987705,161.238504 C56.0987705,161.238504 49.4568396,161.953805 50.9895929,160.829761 L51.0917764,154.494242 L56.7118718,154.392056 Z" id="Shape" fill="#E9D6B8"></path>
                        <path d="M52.6245297,77.1395971 C52.6245297,77.1395971 71.9372212,59.8701982 82.0533929,69.3734769 C90.4324442,85.2122747 79.9075383,116.685499 79.7031712,127.721564 C79.6009876,136.611728 79.4988041,145.093149 78.9878863,156.946701 L71.8350376,156.742329 C71.8350376,156.742329 69.4848159,144.990963 68.2586133,128.436865 C67.7476955,121.079488 66.9302271,110.554351 67.9520626,98.7007993 L66.0105751,98.8029851 C66.0105751,98.8029851 61.923233,116.992056 60.5948468,126.597521 C59.3686442,135.794242 58.3468087,146.52375 57.7337073,156.844515 L49.6612067,156.537958 C49.6612067,156.537958 48.2306369,136.407357 48.3328205,126.086592 C48.5371876,112.29151 48.3328205,88.0734769 52.6245297,77.1395971 Z" id="Shape" fill="#35353B"></path>
                        <path d="M37.3991803,12.1494332 C37.3991803,12.1494332 37.8079145,15.3171927 38.2166488,16.645608 C38.625383,17.9740233 37.3991803,18.8936955 37.5013639,19.3024386 C37.5013639,19.7111818 38.7275665,20.2221108 38.7275665,20.2221108 C38.7275665,20.2221108 38.8297501,24.6160998 40.3625034,25.3314004 C41.8952567,26.0467009 45.471681,24.3095425 45.471681,24.3095425 L47.5153521,28.7035315 C47.5153521,28.7035315 53.1354475,29.0100889 56.3031376,23.9007993 L54.3616501,19.8133676 C54.3616501,19.8133676 54.157283,11.1275752 49.2524725,8.16418726 C44.2454784,5.20079928 37.3991803,12.1494332 37.3991803,12.1494332 Z" id="Shape" fill="#E9D6B8"></path>
                        <path d="M1.02183553,60.8920561 C0.919651975,60.9942419 0.102183553,61.913914 0.817468422,62.3226572 C0.817468422,62.3226572 0.817468422,62.424843 1.43056974,62.5270288 C1.43056974,62.5270288 1.53275329,63.5488867 2.55458882,63.6510725 L6.13101317,64.5707446 C7.1528487,64.6729304 9.60525396,65.0816736 11.648925,63.4467009 C11.648925,63.4467009 29.4288632,65.388231 31.7790849,64.1620015 C34.2314902,63.0379578 40.4646869,54.2499796 40.4646869,54.2499796 L35.7642435,49.0385042 C35.7642435,49.0385042 30.8594329,57.3155534 28.2026606,58.0308539 C25.5458882,58.6439687 11.9554757,60.1767556 11.9554757,60.1767556 C11.9554757,60.1767556 10.2183553,57.8264823 9.29870331,57.519925 C8.88996909,57.4177392 5.31354475,56.498067 5.00699409,57.3155534 C4.80262698,57.8264823 5.31354475,58.0308539 5.82446251,58.3374113 C6.64193093,58.7461545 8.48123488,59.1548976 8.58341844,59.1548976 C8.68560199,59.2570834 8.58341844,59.2570834 8.37905133,59.3592692 C7.66376646,59.5636408 5.51791185,59.5636408 4.18952567,59.6658266 C2.55458882,59.7680124 1.12401908,60.1767556 0.919651975,60.3811272 C0.510917764,60.4833129 0.817468422,60.8920561 1.02183553,60.8920561 Z" id="Shape" fill="#E9D6B8"></path>
                        <path d="M39.4428514,59.0527119 C38.0122816,54.556537 32.0856356,49.7538047 32.0856356,49.7538047 C36.1729777,46.177302 38.0122816,30.5428758 50.4786751,25.6379578 C52.2157955,24.9226572 57.8358909,22.572384 61.8210494,25.4335862 C83.177412,41.0680124 86.0385515,80.1029851 86.0385515,80.1029851 C71.2219363,84.088231 49.1502889,81.2270288 49.1502889,81.2270288 C49.354656,78.7745698 53.1354475,68.2494332 52.317979,62.8335862 C51.6026942,58.3374113 44.8585797,54.556537 44.9607632,48.5275752 C43.3258264,53.4324933 39.4428514,59.0527119 39.4428514,59.0527119 Z" id="Shape" fill="#98DC4D"></path>
                        <path d="M61.7188659,5.71172824 C56.9162389,4.89424191 53.8507323,4.58768453 51.9092448,2.3395971 C48.8437382,-1.33909143 43.8367442,0.0915096648 40.4646869,1.62429655 C37.8079145,2.85052606 36.0707941,5.20079928 33.7205724,6.324843 C31.3703507,7.44888671 30.1441481,4.58768453 29.7354139,5.50735666 C29.2244961,6.42702879 29.7354139,8.9816736 33.1074711,10.9232037 C35.0489586,12.0472474 36.5817119,11.9450616 37.5013639,11.5363184 C38.4210159,12.4559905 39.6472185,13.2734769 41.0777882,13.68222 C44.6542126,14.6018922 45.8804152,17.0543512 44.9607632,19.2002528 C44.0411113,21.3461545 45.5738646,22.6745698 47.2088014,23.7986135 C48.9459218,24.9226572 46.4935165,32.7909632 50.1721244,34.7324933 C53.8507323,36.6740233 58.2446251,36.4696517 59.7773784,40.1483403 C61.3101317,43.8270288 70.608835,48.0166463 75.411462,43.4182856 C80.214089,38.819925 85.5276337,27.7838594 78.8857028,23.5942419 C72.2437718,19.4046244 69.5869995,16.5434222 68.9738981,13.68222 C68.2586133,11.0253894 66.6236764,6.52921458 61.7188659,5.71172824 Z" id="Shape" fill="#35353B"></path>
                    </g>
                    <g id="Group" transform="translate(160.406342, 12.262295)">
                        <path d="M21.0498119,42.4071038 C21.0498119,42.4071038 13.3860454,39.9546448 12.9773112,39.5459016 C12.4663934,39.2393443 10.3205388,36.3781421 8.68560199,35.8672131 C7.45939936,35.5606557 5.4157283,34.8453552 4.90481053,34.947541 C4.39389277,35.0497268 5.82446251,36.0715847 6.23319672,36.1737705 C6.64193093,36.2759563 7.25503225,37.2978142 7.25503225,37.4 C7.25503225,37.5021858 4.80262698,36.2759563 3.6786079,35.8672131 C2.55458882,35.4584699 1.83930395,35.4584699 1.7371204,35.5606557 C1.63493684,35.7650273 3.37205724,36.889071 3.98515856,37.1956284 C4.59825988,37.5021858 1.63493684,36.2759563 0.817468422,36.3781421 C1.88127292e-13,36.4803279 2.86113948,38.2174863 3.6786079,38.5240437 C4.49607632,38.8306011 0.817468422,37.2978142 0.306550658,37.5021858 C-0.102183553,37.7065574 2.86113948,39.6480874 3.78079145,39.9546448 C4.59825988,40.363388 1.32838619,38.7284153 1.02183553,38.8306011 C0.71528487,38.9327869 4.08734211,41.4874317 5.4157283,42.2027322 C6.64193093,42.9180328 7.97031712,43.7355191 11.5467415,43.5311475 C12.1598428,43.5311475 18.3930395,47.3120219 18.3930395,47.3120219 L21.0498119,42.4071038 Z" id="Shape" fill="#E9D6B8"></path>
                        <path d="M57.9380744,168.095628 C57.9380744,168.095628 59.7773784,168.810929 62.842885,168.708743 L62.7407014,172.796175 C62.7407014,172.796175 60.5948468,173.102732 59.1642771,172.796175 L58.6533593,171.774317 L57.5293402,172.898361 C57.5293402,172.898361 50.7852257,173.613661 47.310985,173.40929 C47.310985,173.40929 46.9022507,172.18306 48.5371876,171.672131 C50.1721244,171.161202 53.9529159,170.343716 55.076935,169.832787 C56.0987705,169.117486 57.9380744,168.095628 57.9380744,168.095628 Z" id="Shape" fill="#2AB1FD"></path>
                        <path d="M63.0472521,162.066667 L62.842885,167.175956 L62.7407014,168.708743 C59.9817455,169.52623 57.8358909,168.095628 57.8358909,168.095628 L57.8358909,166.460656 L57.7337073,162.168852 L63.0472521,162.066667 Z" id="Shape" fill="#E9D6B8"></path>
                        <path d="M40.5668705,168.402186 C40.5668705,168.402186 42.4061744,169.117486 45.471681,169.015301 L45.3694974,173.102732 C45.3694974,173.102732 43.2236428,173.40929 41.7930731,173.102732 L41.2821553,172.080874 L40.1581363,173.204918 C40.1581363,173.204918 33.4140218,173.920219 29.939781,173.715847 C29.939781,173.715847 29.5310468,172.489617 31.1659836,171.978689 C32.8009205,171.46776 36.5817119,170.650273 37.705731,170.139344 C38.8297501,169.628415 40.5668705,168.402186 40.5668705,168.402186 Z" id="Shape" fill="#2AB1FD"></path>
                        <path d="M45.6760481,162.373224 L45.471681,167.482514 L45.3694974,169.015301 C42.508358,169.832787 40.4646869,168.402186 40.4646869,168.402186 L40.4646869,166.562842 L40.3625034,162.47541 L45.6760481,162.373224 Z" id="Shape" fill="#E9D6B8"></path>
                        <path d="M64.6821889,85.3251366 C63.762537,81.1355191 45.6760481,82.5661202 45.6760481,82.5661202 C45.6760481,82.5661202 45.6760481,83.4857923 45.7782317,84.9163934 C43.2236428,83.8945355 39.749402,83.6901639 35.1511422,84.7120219 C35.1511422,84.7120219 34.0271231,99.2224044 34.0271231,116.696175 C34.0271231,122.214208 34.2314902,130.797814 34.9467751,138.257377 C36.1729777,151.848087 39.4428514,164.314754 39.4428514,164.314754 L47.310985,164.212568 C47.310985,164.212568 45.8804152,151.848087 46.4935165,138.053005 C46.8000672,130.797814 48.2306369,119.25082 48.8437382,113.528415 C49.7633902,119.761749 49.8655738,131.002186 51.2961435,138.461749 C53.7485488,151.848087 57.3249731,164.212568 57.3249731,164.212568 L64.886556,164.212568 C64.0690876,155.220219 63.4559863,146.023497 63.762537,138.359563 C64.3756383,115.163388 68.0542462,100.244262 64.6821889,85.3251366 Z" id="Shape" fill="#35353B"></path>
                        <path d="M57.3249731,41.7939891 C57.3249731,41.7939891 54.9747514,33.9256831 52.2157955,33.5169399 C50.0699409,33.2103825 34.742408,45.3704918 30.2463316,46.0857923 C28.9179454,46.2901639 22.7869323,42.815847 22.7869323,42.815847 C22.7869323,42.815847 19.8236092,45.1661202 19.1083244,48.742623 C18.8017737,49.9688525 28.100477,54.1584699 29.1223126,54.3628415 C34.6402244,54.9759563 45.2673139,47.720765 45.2673139,47.720765 L57.3249731,41.7939891 Z" id="Shape" fill="#E5E9F2"></path>
                        <path d="M36.6838955,53.9540984 C37.1948132,47.8229508 41.588706,33.3125683 49.2524725,32.1885246 C49.2524725,32.1885246 58.2446251,32.3928962 61.1057646,40.363388 C63.9669041,48.3338798 67.3389613,80.3180328 66.5214929,87.6754098 C66.5214929,87.6754098 44.1432948,91.9672131 32.903104,86.5513661 C32.8009205,86.5513661 36.1729777,60.0852459 36.6838955,53.9540984 Z" id="Shape" fill="#2AB1FD"></path>
                        <path d="M46.6978836,26.568306 C46.6978836,26.568306 47.6175356,30.6557377 46.6978836,34.2322404 C46.4935165,34.947541 47.5153521,35.5606557 48.1284534,35.7650273 C50.7852257,36.6846995 53.7485488,35.4584699 55.4856692,34.3344262 C55.8944034,32.3928962 54.8725679,24.626776 54.8725679,24.626776 L46.6978836,26.568306 Z" id="Shape" fill="#E9D6B8"></path>
                        <path d="M25.4437046,41.3852459 C25.4437046,41.3852459 19.6192421,38.9327869 19.2105079,39.1371585 C18.8017737,39.2393443 14.4078809,48.231694 14.8166152,48.5382514 C15.2253494,48.9469945 19.5170586,50.7863388 19.5170586,50.7863388 C19.5170586,50.7863388 25.4437046,43.326776 25.4437046,41.3852459 Z" id="Shape" fill="#A0A1B9"></path>
                        <path d="M48.7415547,113.528415 C48.7415547,113.528415 47.4131685,106.784153 46.9022507,101.777049 C46.9022507,101.777049 46.0847823,113.528415 48.1284534,119.25082 L48.7415547,113.528415 Z" id="Shape" fill="#4A4A4A"></path>
                        <path d="M37.3991803,59.6765027 C34.6402244,59.3699454 29.939781,58.3480874 29.939781,58.3480874 C29.939781,58.3480874 29.1223126,55.3846995 28.3048441,54.7715847 C27.4873757,54.1584699 24.6262362,53.8519126 23.9109514,53.8519126 C23.1956665,53.8519126 24.1153185,54.9759563 24.9327869,55.0781421 C25.2393375,55.0781421 26.8742744,55.6912568 26.9764579,56.1 C27.0786415,56.5087432 24.217502,55.3846995 22.5825652,54.9759563 C20.9476283,54.5672131 18.0864888,54.2606557 17.9843053,54.5672131 C17.7799382,55.1803279 20.6410777,55.6912568 21.0498119,55.7934426 C21.5607296,55.8956284 22.7869323,56.5087432 22.7869323,56.5087432 C22.7869323,56.5087432 21.5607296,57.1218579 22.0716474,57.7349727 C22.0716474,57.7349727 21.3563625,58.7568306 21.9694639,59.1655738 C21.9694639,59.1655738 21.7650967,60.1874317 22.6847487,60.6983607 C23.7065843,61.2092896 25.8524389,62.9464481 28.4070277,62.026776 C28.4070277,62.026776 35.0489586,64.9901639 37.8079145,64.7857923 C40.5668705,64.5814208 40.1581363,59.9830601 37.3991803,59.6765027 Z" id="Shape" fill="#E9D6B8"></path>
                        <path d="M39.8515856,10.1163934 C39.8515856,10.1163934 40.7712376,15.8387978 38.8297501,19.1087432 C37.9100981,20.6415301 40.5668705,20.6415301 40.5668705,20.6415301 C40.5668705,20.6415301 42.8149086,28.9185792 45.9825988,28.3054645 C49.1502889,27.6923497 54.6682008,27.9989071 55.5878527,26.1595628 C56.6096883,24.3202186 58.2446251,11.7513661 52.8288968,9.60546448 C47.310985,7.56174863 39.8515856,10.1163934 39.8515856,10.1163934 Z" id="Shape" fill="#E9D6B8"></path>
                        <path d="M45.5738646,13.5907104 C44.0411113,13.8972678 42.508358,14.1016393 41.0777882,13.8972678 C38.7275665,13.5907104 37.0926297,12.6710383 36.1729777,10.0142077 C34.4358573,5.21147541 36.8882626,1.22622951 37.705731,0.817486339 L37.705731,0.817486339 C39.9537691,2.35027322 42.508358,3.16775956 45.2673139,3.16775956 C48.5371876,3.16775956 57.6315238,4.59836066 60.6970304,9.2989071 C65.6018409,16.8606557 58.3468087,26.8748634 55.4856692,28.9185792 L54.157283,22.5830601 C54.157283,22.5830601 56.0987705,21.7655738 56.200954,20.6415301 C56.3031376,19.8240437 54.8725679,16.9628415 53.4419981,18.9043716 C51.9092448,20.7437158 52.8288968,25.6486339 50.5808586,27.5901639 C48.3328205,29.531694 41.1799718,29.2251366 40.4646869,26.3639344 C39.749402,23.5027322 41.0777882,21.8677596 41.0777882,21.8677596 C41.0777882,21.8677596 44.4498455,21.9699454 46.6978836,23.1961749 C48.9459218,24.5245902 51.3983271,20.5393443 50.8874093,18.0868852 C50.1721244,16.0431694 48.1284534,13.1819672 45.5738646,13.5907104 Z" id="Shape" fill="#35353B"></path>
                        <g transform="translate(31.676901, 37.808743)" id="Shape">
                            <path d="M17.1668369,6.43770492 C16.2471849,10.9338798 14.5100645,18.7 13.6925961,20.6415301 C12.568577,23.1961749 7.05066514,20.3349727 7.05066514,20.3349727 L2.35022171,26.8748634 C2.35022171,26.8748634 12.6707605,32.495082 16.3493684,30.4513661 C21.4585461,27.4879781 27.5895593,17.2693989 29.2244961,9.60546448 C30.3485152,4.29180328 25.8524389,-0.715300546 21.9694639,0.613114754 C19.1083244,1.43060109 17.4733875,5.21147541 17.1668369,6.43770492 Z" fill="#E5E9F2"></path>
                            <path d="M0.817468422,29.2251366 C0.817468422,29.2251366 5.4157283,30.9622951 5.82446251,30.7579235 C6.23319672,30.5535519 9.91180462,19.7218579 9.40088686,19.5174863 C8.99215265,19.3131148 6.02882962,19.0065574 4.70044343,18.9043716 C4.39389277,18.9043716 3.98515856,19.1087432 3.88297501,19.4153005 C3.06550658,21.3568306 0.510917764,27.6923497 0.817468422,29.2251366 Z" fill="#A0A1B9"></path>
                        </g>
                        <path d="M60.7992139,89.9234973 C60.7992139,89.9234973 61.4123152,94.1131148 65.3974738,94.3174863 C65.3974738,94.3174863 65.6018409,97.1786885 65.3974738,99.6311475 C65.1931067,102.083607 59.4708277,101.572678 59.1642771,100.653005 C58.040258,97.0765027 58.3468087,89.9234973 58.3468087,89.9234973 L60.7992139,89.9234973 Z" id="Shape" fill="#4A4A4A"></path>
                    </g>
                    <g id="Group-3" transform="translate(77.637665, 0.000000)">
                        <g id="Group" transform="translate(0.059619, 5.332740)">
                            <g id="Shape">
                                <path d="M15.1248176,112.495134 L80.1794785,112.495134 C83.86717,112.495134 86.8929682,109.370599 86.8929682,105.562572 L86.8929682,5.96802862 C86.8929682,3.23406075 84.7181758,0.988301433 82.0706024,0.988301433 L5.95286682,0.988301433 C3.30529341,0.988301433 1.13050097,3.23406075 1.13050097,5.96802862 L1.13050097,98.1418025 C1.31961335,106.050781 7.46576591,112.495134 15.1248176,112.495134 Z" fill="#FFFFFF"></path>
                                <path d="M82.8270519,0.109526046 L5.48008586,0.109526046 C2.64340006,0.109526046 0.374051423,2.45292708 0.374051423,5.38217836 L0.374051423,99.996995 C0.374051423,107.417765 6.2365354,113.471551 13.4228061,113.471551 L81.1250404,113.471551 C84.9072882,113.471551 87.9330863,110.347016 87.9330863,106.441348 L87.9330863,5.38217836 C87.9330863,2.45292708 85.6637377,0.109526046 82.8270519,0.109526046 Z M81.1250404,110.835225 L13.4228061,110.835225 C7.6548783,110.835225 2.92706864,105.953139 2.92706864,99.996995 L2.92706864,5.38217836 C2.92706864,3.91755272 4.06174296,2.74585221 5.48008586,2.74585221 L82.8270519,2.74585221 C84.2453948,2.74585221 85.3800691,3.91755272 85.3800691,5.38217836 L85.3800691,106.441348 C85.3800691,108.882391 83.4889453,110.835225 81.1250404,110.835225 Z" fill="#E5E9F2"></path>
                            </g>
                            <g transform="translate(17.020115, 87.401214)" id="Shape">
                                <path d="M9.92422694,13.0839891 L9.92422694,13.0839891 C9.92422694,7.51841164 6.2365354,2.83160958 1.22505716,1.46462564 L1.22505716,1.07405881 L66.7524991,1.07405881 C73.1823202,1.07405881 78.3829108,6.44435283 78.3829108,13.0839891 L78.3829108,13.0839891 C78.3829108,19.7236253 73.1823202,25.0939194 66.7524991,25.0939194 L1.22505716,25.0939194 L1.22505716,25.0939194 C6.2365354,23.7269354 9.92422694,18.6495665 9.92422694,13.0839891 Z" fill="#FFFFFF"></path>
                                <path d="M66.7524991,0.195283419 L1.22505716,0.195283419 C0.657720002,0.195283419 0.279495229,0.585850258 0.279495229,1.17170052 L0.279495229,1.56226735 C0.279495229,2.0504759 0.563163809,2.44104274 1.03594478,2.53868445 C5.76375444,3.80802667 9.0732212,8.20190361 9.0732212,13.1816308 C9.0732212,18.3566414 5.66919824,22.9458018 1.03594478,24.215144 C0.563163809,24.3127857 0.279495229,24.8009942 0.374051423,25.2892028 C0.468607616,25.7774113 0.846832389,26.1679782 1.31961335,26.1679782 L66.8470552,26.1679782 C73.7496574,26.1679782 79.4230289,20.4071173 79.4230289,13.1816308 C79.3284728,5.95614429 73.6551012,0.195283419 66.7524991,0.195283419 Z M66.7524991,23.4340103 L7.18209733,23.4340103 C9.92422694,20.7976841 11.437126,17.0872992 11.437126,13.0839891 C11.437126,8.98303728 9.73511455,5.27265232 6.80387256,2.73396787 L66.6579429,2.73396787 C72.1422021,2.73396787 76.6808993,7.32312822 76.6808993,13.0839891 C76.6808993,18.84485 72.3313145,23.4340103 66.7524991,23.4340103 Z" fill="#E5E9F2"></path>
                            </g>
                            <g transform="translate(11.815351, 8.311430)" id="Shape" fill="#E4EBEF">
                                <g transform="translate(35.931353, 31.721671)">
                                    <path d="M12.1977489,2.25764366 L27.5158522,2.25764366 C28.0831894,2.25764366 28.6505265,1.76943511 28.6505265,1.28122656 L28.6505265,1.28122656 C28.6505265,0.695376304 28.1777456,0.304809465 27.5158522,0.304809465 L12.1977489,0.304809465 C11.6304118,0.304809465 11.0630746,0.793018013 11.0630746,1.28122656 L11.0630746,1.28122656 C11.1576308,1.76943511 11.6304118,2.25764366 12.1977489,2.25764366 Z"></path>
                                    <path d="M1.3237867,2.25764366 L7.84816404,2.25764366 C8.4155012,2.25764366 8.98283835,1.76943511 8.98283835,1.28122656 L8.98283835,1.28122656 C8.98283835,0.695376304 8.51005739,0.304809465 7.84816404,0.304809465 L1.3237867,0.304809465 C0.756449546,0.304809465 0.189112386,0.793018013 0.189112386,1.28122656 L0.189112386,1.28122656 C0.189112386,1.76943511 0.661893352,2.25764366 1.3237867,2.25764366 Z"></path>
                                    <path d="M1.3237867,6.35859546 L27.5158522,6.35859546 C28.0831894,6.35859546 28.6505265,5.87038691 28.6505265,5.38217836 L28.6505265,5.38217836 C28.6505265,4.79632811 28.1777456,4.40576127 27.5158522,4.40576127 L1.3237867,4.40576127 C0.756449546,4.40576127 0.189112386,4.89396982 0.189112386,5.38217836 L0.189112386,5.38217836 C0.189112386,5.87038691 0.661893352,6.35859546 1.3237867,6.35859546 Z"></path>
                                    <path d="M1.3237867,10.4595473 L16.4527776,10.4595473 C17.0201148,10.4595473 17.5874519,9.97133872 17.5874519,9.48313017 L17.5874519,9.48313017 C17.5874519,8.89727991 17.114671,8.50671307 16.4527776,8.50671307 L1.3237867,8.50671307 C0.756449546,8.50671307 0.189112386,8.99492162 0.189112386,9.48313017 L0.189112386,9.48313017 C0.189112386,9.97133872 0.661893352,10.4595473 1.3237867,10.4595473 Z"></path>
                                    <path d="M20.9914749,10.4595473 L27.5158522,10.4595473 C28.0831894,10.4595473 28.6505265,9.97133872 28.6505265,9.48313017 L28.6505265,9.48313017 C28.6505265,8.89727991 28.1777456,8.50671307 27.5158522,8.50671307 L20.9914749,8.50671307 C20.4241377,8.50671307 19.8568006,8.99492162 19.8568006,9.48313017 L19.8568006,9.48313017 C19.8568006,9.97133872 20.3295815,10.4595473 20.9914749,10.4595473 Z"></path>
                                    <path d="M1.3237867,14.5604991 L27.5158522,14.5604991 C28.0831894,14.5604991 28.6505265,14.0722905 28.6505265,13.584082 L28.6505265,13.584082 C28.6505265,12.9982317 28.1777456,12.6076649 27.5158522,12.6076649 L1.3237867,12.6076649 C0.756449546,12.6076649 0.189112386,13.0958734 0.189112386,13.584082 L0.189112386,13.584082 C0.189112386,14.0722905 0.661893352,14.5604991 1.3237867,14.5604991 Z"></path>
                                    <path d="M1.3237867,18.6614509 L6.61893352,18.6614509 C7.18627068,18.6614509 7.75360784,18.1732423 7.75360784,17.6850338 L7.75360784,17.6850338 C7.75360784,17.0991835 7.28082688,16.7086167 6.61893352,16.7086167 L1.3237867,16.7086167 C0.756449546,16.7086167 0.189112386,17.1968252 0.189112386,17.6850338 L0.189112386,17.6850338 C0.189112386,18.270884 0.661893352,18.6614509 1.3237867,18.6614509 Z"></path>
                                    <path d="M10.0229565,18.6614509 L15.3181033,18.6614509 C15.8854405,18.6614509 16.4527776,18.1732423 16.4527776,17.6850338 L16.4527776,17.6850338 C16.4527776,17.0991835 15.9799967,16.7086167 15.3181033,16.7086167 L10.0229565,16.7086167 C9.45561932,16.7086167 8.88828216,17.1968252 8.88828216,17.6850338 L8.88828216,17.6850338 C8.98283835,18.270884 9.45561932,18.6614509 10.0229565,18.6614509 Z"></path>
                                    <path d="M22.1261492,31.061948 L27.421296,31.061948 C27.9886332,31.061948 28.5559703,30.5737394 28.5559703,30.0855309 L28.5559703,30.0855309 C28.5559703,29.4996806 28.0831894,29.1091138 27.421296,29.1091138 L22.1261492,29.1091138 C21.5588121,29.1091138 20.9914749,29.5973223 20.9914749,30.0855309 L20.9914749,30.0855309 C20.9914749,30.5737394 21.4642559,31.061948 22.1261492,31.061948 Z"></path>
                                    <path d="M19.2894634,18.6614509 L27.421296,18.6614509 C27.9886332,18.6614509 28.5559703,18.1732423 28.5559703,17.6850338 L28.5559703,17.6850338 C28.5559703,17.0991835 28.0831894,16.7086167 27.421296,16.7086167 L19.2894634,16.7086167 C18.7221263,16.7086167 18.1547891,17.1968252 18.1547891,17.6850338 L18.1547891,17.6850338 C18.1547891,18.270884 18.7221263,18.6614509 19.2894634,18.6614509 Z"></path>
                                    <path d="M1.3237867,22.7624027 L27.5158522,22.7624027 C28.0831894,22.7624027 28.6505265,22.2741941 28.6505265,21.7859856 L28.6505265,21.7859856 C28.6505265,21.2001353 28.1777456,20.8095685 27.5158522,20.8095685 L1.3237867,20.8095685 C0.756449546,20.8095685 0.189112386,21.297777 0.189112386,21.7859856 L0.189112386,21.7859856 C0.189112386,22.3718358 0.661893352,22.7624027 1.3237867,22.7624027 Z"></path>
                                    <path d="M1.3237867,26.8633545 L27.5158522,26.8633545 C28.0831894,26.8633545 28.6505265,26.3751459 28.6505265,25.8869374 L28.6505265,25.8869374 C28.6505265,25.3010871 28.1777456,24.9105203 27.5158522,24.9105203 L1.3237867,24.9105203 C0.756449546,24.9105203 0.189112386,25.3987288 0.189112386,25.8869374 L0.189112386,25.8869374 C0.189112386,26.4727876 0.661893352,26.8633545 1.3237867,26.8633545 Z"></path>
                                    <path d="M1.3237867,31.061948 L18.5330139,31.061948 C19.100351,31.061948 19.6676882,30.5737394 19.6676882,30.0855309 L19.6676882,30.0855309 C19.6676882,29.4996806 19.1949072,29.1091138 18.5330139,29.1091138 L1.3237867,29.1091138 C0.756449546,29.1091138 0.189112386,29.5973223 0.189112386,30.0855309 L0.189112386,30.0855309 C0.189112386,30.5737394 0.661893352,31.061948 1.3237867,31.061948 Z"></path>
                                    <path d="M8.60461358,35.1628998 L27.5158522,35.1628998 C28.0831894,35.1628998 28.6505265,34.6746912 28.6505265,34.1864827 L28.6505265,34.1864827 C28.6505265,33.6006324 28.1777456,33.2100656 27.5158522,33.2100656 L8.60461358,33.2100656 C8.03727642,33.2100656 7.46993926,33.6982741 7.46993926,34.1864827 L7.46993926,34.1864827 C7.56449546,34.6746912 8.03727642,35.1628998 8.60461358,35.1628998 Z"></path>
                                    <path d="M1.3237867,35.1628998 L5.20059063,35.1628998 C5.76792779,35.1628998 6.33526495,34.6746912 6.33526495,34.1864827 L6.33526495,34.1864827 C6.33526495,33.6006324 5.86248398,33.2100656 5.20059063,33.2100656 L1.3237867,33.2100656 C0.756449546,33.2100656 0.189112386,33.6982741 0.189112386,34.1864827 L0.189112386,34.1864827 C0.189112386,34.6746912 0.661893352,35.1628998 1.3237867,35.1628998 Z"></path>
                                    <path d="M23.6390483,43.3648034 L27.5158522,43.3648034 C28.0831894,43.3648034 28.6505265,42.8765948 28.6505265,42.3883863 L28.6505265,42.3883863 C28.6505265,41.802536 28.1777456,41.4119692 27.5158522,41.4119692 L23.6390483,41.4119692 C23.0717111,41.4119692 22.504374,41.9001778 22.504374,42.3883863 L22.504374,42.3883863 C22.504374,42.8765948 22.9771549,43.3648034 23.6390483,43.3648034 Z"></path>
                                    <path d="M1.3237867,39.2638516 L27.5158522,39.2638516 C28.0831894,39.2638516 28.6505265,38.775643 28.6505265,38.2874345 L28.6505265,38.2874345 C28.6505265,37.7015842 28.1777456,37.3110174 27.5158522,37.3110174 L1.3237867,37.3110174 C0.756449546,37.3110174 0.189112386,37.7992259 0.189112386,38.2874345 L0.189112386,38.2874345 C0.189112386,38.775643 0.661893352,39.2638516 1.3237867,39.2638516 Z"></path>
                                    <path d="M1.3237867,43.3648034 L19.573132,43.3648034 C20.1404692,43.3648034 20.7078063,42.8765948 20.7078063,42.3883863 L20.7078063,42.3883863 C20.7078063,41.802536 20.2350253,41.4119692 19.573132,41.4119692 L1.3237867,41.4119692 C0.756449546,41.4119692 0.189112386,41.9001778 0.189112386,42.3883863 L0.189112386,42.3883863 C0.189112386,42.8765948 0.661893352,43.3648034 1.3237867,43.3648034 Z"></path>
                                </g>
                                <g transform="translate(0.000000, 52.726523)">
                                    <path d="M1.51289909,2.14811761 L27.0430713,2.14811761 C27.6104084,2.14811761 28.0831894,1.65990906 28.0831894,1.17170052 L28.0831894,1.17170052 C28.0831894,0.585850258 27.6104084,0.195283419 27.0430713,0.195283419 L1.51289909,0.195283419 C0.945561932,0.195283419 0.472780966,0.683491967 0.472780966,1.17170052 L0.472780966,1.17170052 C0.472780966,1.75755077 0.945561932,2.14811761 1.51289909,2.14811761 Z"></path>
                                    <path d="M12.1031927,6.34671112 L26.9485151,6.34671112 C27.5158522,6.34671112 27.9886332,5.85850258 27.9886332,5.37029403 L27.9886332,5.37029403 C27.9886332,4.78444377 27.5158522,4.39387693 26.9485151,4.39387693 L12.1031927,4.39387693 C11.5358556,4.39387693 11.0630746,4.88208548 11.0630746,5.37029403 L11.0630746,5.37029403 C11.0630746,5.85850258 11.5358556,6.34671112 12.1031927,6.34671112 Z"></path>
                                    <path d="M1.51289909,6.34671112 L7.84816404,6.34671112 C8.4155012,6.34671112 8.88828216,5.85850258 8.88828216,5.37029403 L8.88828216,5.37029403 C8.88828216,4.78444377 8.4155012,4.39387693 7.84816404,4.39387693 L1.51289909,4.39387693 C0.945561932,4.39387693 0.472780966,4.88208548 0.472780966,5.37029403 L0.472780966,5.37029403 C0.472780966,5.85850258 0.945561932,6.34671112 1.51289909,6.34671112 Z"></path>
                                    <path d="M1.51289909,10.4476629 L27.0430713,10.4476629 C27.6104084,10.4476629 28.0831894,9.95945438 28.0831894,9.47124583 L28.0831894,9.47124583 C28.0831894,8.88539557 27.6104084,8.49482873 27.0430713,8.49482873 L1.51289909,8.49482873 C0.945561932,8.49482873 0.472780966,8.98303728 0.472780966,9.47124583 L0.472780966,9.47124583 C0.472780966,9.95945438 0.945561932,10.4476629 1.51289909,10.4476629 Z"></path>
                                    <path d="M1.51289909,14.5486147 L16.2636652,14.5486147 C16.8310024,14.5486147 17.3037834,14.0604062 17.3037834,13.5721976 L17.3037834,13.5721976 C17.3037834,12.9863474 16.8310024,12.5957805 16.2636652,12.5957805 L1.51289909,12.5957805 C0.945561932,12.5957805 0.472780966,13.0839891 0.472780966,13.5721976 L0.472780966,13.5721976 C0.472780966,14.0604062 0.945561932,14.5486147 1.51289909,14.5486147 Z"></path>
                                    <path d="M20.6132501,14.5486147 L26.9485151,14.5486147 C27.5158522,14.5486147 27.9886332,14.0604062 27.9886332,13.5721976 L27.9886332,13.5721976 C27.9886332,12.9863474 27.5158522,12.5957805 26.9485151,12.5957805 L20.6132501,12.5957805 C20.045913,12.5957805 19.573132,13.0839891 19.573132,13.5721976 L19.573132,13.5721976 C19.573132,14.0604062 20.045913,14.5486147 20.6132501,14.5486147 Z"></path>
                                    <path d="M1.51289909,18.6495665 L27.0430713,18.6495665 C27.6104084,18.6495665 28.0831894,18.161358 28.0831894,17.6731494 L28.0831894,17.6731494 C28.0831894,17.0872992 27.6104084,16.6967323 27.0430713,16.6967323 L1.51289909,16.6967323 C0.945561932,16.6967323 0.472780966,17.1849409 0.472780966,17.6731494 L0.472780966,17.6731494 C0.472780966,18.161358 0.945561932,18.6495665 1.51289909,18.6495665 Z"></path>
                                    <path d="M1.51289909,22.6528766 L6.71348972,22.6528766 C7.28082688,22.6528766 7.75360784,22.1646681 7.75360784,21.6764595 L7.75360784,21.6764595 C7.75360784,21.0906093 7.28082688,20.7000424 6.71348972,20.7000424 L1.51289909,20.7000424 C0.945561932,20.7000424 0.472780966,21.188251 0.472780966,21.6764595 L0.472780966,21.6764595 C0.472780966,22.2623098 0.945561932,22.6528766 1.51289909,22.6528766 Z"></path>
                                    <path d="M10.0229565,22.6528766 L15.2235471,22.6528766 C15.7908843,22.6528766 16.2636652,22.1646681 16.2636652,21.6764595 L16.2636652,21.6764595 C16.2636652,21.0906093 15.7908843,20.7000424 15.2235471,20.7000424 L10.0229565,20.7000424 C9.45561932,20.7000424 8.98283835,21.188251 8.98283835,21.6764595 L8.98283835,21.6764595 C8.98283835,22.2623098 9.45561932,22.6528766 10.0229565,22.6528766 Z"></path>
                                    <path d="M19.0057948,22.6528766 L26.9485151,22.6528766 C27.5158522,22.6528766 27.9886332,22.1646681 27.9886332,21.6764595 L27.9886332,21.6764595 C27.9886332,21.0906093 27.5158522,20.7000424 26.9485151,20.7000424 L19.0057948,20.7000424 C18.4384577,20.7000424 17.9656767,21.188251 17.9656767,21.6764595 L17.9656767,21.6764595 C17.9656767,22.2623098 18.4384577,22.6528766 19.0057948,22.6528766 Z"></path>
                                </g>
                                <g transform="translate(0.476954, 0.000000)">
                                    <path d="M1.41416955,2.24575932 L26.9443417,2.24575932 C27.5116789,2.24575932 27.9844598,1.75755077 27.9844598,1.26934222 L27.9844598,1.26934222 C27.9844598,0.683491967 27.5116789,0.292925129 26.9443417,0.292925129 L1.41416955,0.292925129 C0.846832389,0.292925129 0.374051423,0.781133677 0.374051423,1.26934222 L0.374051423,1.26934222 C0.279495229,1.75755077 0.752276195,2.24575932 1.41416955,2.24575932 Z"></path>
                                    <path d="M12.0044632,6.34671112 L26.8497855,6.34671112 C27.4171227,6.34671112 27.8899036,5.85850258 27.8899036,5.37029403 L27.8899036,5.37029403 C27.8899036,4.78444377 27.4171227,4.39387693 26.8497855,4.39387693 L12.0044632,4.39387693 C11.437126,4.39387693 10.9643451,4.88208548 10.9643451,5.37029403 L10.9643451,5.37029403 C10.9643451,5.85850258 11.437126,6.34671112 12.0044632,6.34671112 Z"></path>
                                    <path d="M1.41416955,6.34671112 L7.74943449,6.34671112 C8.31677165,6.34671112 8.78955262,5.85850258 8.78955262,5.37029403 L8.78955262,5.37029403 C8.78955262,4.78444377 8.31677165,4.39387693 7.74943449,4.39387693 L1.41416955,4.39387693 C0.846832389,4.39387693 0.374051423,4.88208548 0.374051423,5.37029403 L0.374051423,5.37029403 C0.279495229,5.85850258 0.752276195,6.34671112 1.41416955,6.34671112 Z"></path>
                                    <path d="M1.41416955,10.4476629 L26.9443417,10.4476629 C27.5116789,10.4476629 27.9844598,9.95945438 27.9844598,9.47124583 L27.9844598,9.47124583 C27.9844598,8.88539557 27.5116789,8.49482873 26.9443417,8.49482873 L1.41416955,8.49482873 C0.846832389,8.49482873 0.374051423,8.98303728 0.374051423,9.47124583 L0.374051423,9.47124583 C0.279495229,9.95945438 0.752276195,10.4476629 1.41416955,10.4476629 Z"></path>
                                    <path d="M1.41416955,14.5486147 L16.1649357,14.5486147 C16.7322728,14.5486147 17.2050538,14.0604062 17.2050538,13.5721976 L17.2050538,13.5721976 C17.2050538,12.9863474 16.7322728,12.5957805 16.1649357,12.5957805 L1.41416955,12.5957805 C0.846832389,12.5957805 0.374051423,13.0839891 0.374051423,13.5721976 L0.374051423,13.5721976 C0.279495229,14.1580479 0.752276195,14.5486147 1.41416955,14.5486147 Z"></path>
                                    <path d="M20.5145206,14.5486147 L26.8497855,14.5486147 C27.4171227,14.5486147 27.8899036,14.0604062 27.8899036,13.5721976 L27.8899036,13.5721976 C27.8899036,12.9863474 27.4171227,12.5957805 26.8497855,12.5957805 L20.5145206,12.5957805 C19.9471834,12.5957805 19.4744025,13.0839891 19.4744025,13.5721976 L19.4744025,13.5721976 C19.4744025,14.1580479 19.9471834,14.5486147 20.5145206,14.5486147 Z"></path>
                                    <path d="M1.41416955,18.6495665 L26.9443417,18.6495665 C27.5116789,18.6495665 27.9844598,18.161358 27.9844598,17.6731494 L27.9844598,17.6731494 C27.9844598,17.0872992 27.5116789,16.6967323 26.9443417,16.6967323 L1.41416955,16.6967323 C0.846832389,16.6967323 0.374051423,17.1849409 0.374051423,17.6731494 L0.374051423,17.6731494 C0.279495229,18.2589997 0.752276195,18.6495665 1.41416955,18.6495665 Z"></path>
                                    <path d="M1.41416955,22.7505183 L6.61476017,22.7505183 C7.18209733,22.7505183 7.6548783,22.2623098 7.6548783,21.7741012 L7.6548783,21.7741012 C7.6548783,21.188251 7.18209733,20.7976841 6.61476017,20.7976841 L1.41416955,20.7976841 C0.846832389,20.7976841 0.374051423,21.2858927 0.374051423,21.7741012 L0.374051423,21.7741012 C0.279495229,22.3599515 0.752276195,22.7505183 1.41416955,22.7505183 Z"></path>
                                    <path d="M9.92422694,22.7505183 L15.1248176,22.7505183 C15.6921547,22.7505183 16.1649357,22.2623098 16.1649357,21.7741012 L16.1649357,21.7741012 C16.1649357,21.188251 15.6921547,20.7976841 15.1248176,20.7976841 L9.92422694,20.7976841 C9.35688978,20.7976841 8.88410881,21.2858927 8.88410881,21.7741012 L8.88410881,21.7741012 C8.78955262,22.3599515 9.26233358,22.7505183 9.92422694,22.7505183 Z"></path>
                                    <path d="M21.6491949,35.1510155 L26.8497855,35.1510155 C27.4171227,35.1510155 27.8899036,34.6628069 27.8899036,34.1745984 L27.8899036,34.1745984 C27.8899036,33.5887481 27.4171227,33.1981813 26.8497855,33.1981813 L21.6491949,33.1981813 C21.0818577,33.1981813 20.6090768,33.6863898 20.6090768,34.1745984 L20.6090768,34.1745984 C20.5145206,34.6628069 20.9873015,35.1510155 21.6491949,35.1510155 Z"></path>
                                    <path d="M18.9070653,22.7505183 L26.8497855,22.7505183 C27.4171227,22.7505183 27.8899036,22.2623098 27.8899036,21.7741012 L27.8899036,21.7741012 C27.8899036,21.188251 27.4171227,20.7976841 26.8497855,20.7976841 L18.9070653,20.7976841 C18.3397281,20.7976841 17.8669472,21.2858927 17.8669472,21.7741012 L17.8669472,21.7741012 C17.772391,22.3599515 18.2451719,22.7505183 18.9070653,22.7505183 Z"></path>
                                    <path d="M1.41416955,26.9491118 L26.9443417,26.9491118 C27.5116789,26.9491118 27.9844598,26.4609033 27.9844598,25.9726948 L27.9844598,25.9726948 C27.9844598,25.3868445 27.5116789,24.9962777 26.9443417,24.9962777 L1.41416955,24.9962777 C0.846832389,24.9962777 0.374051423,25.4844862 0.374051423,25.9726948 L0.374051423,25.9726948 C0.279495229,26.4609033 0.752276195,26.9491118 1.41416955,26.9491118 Z"></path>
                                    <path d="M1.41416955,31.0500637 L26.9443417,31.0500637 C27.5116789,31.0500637 27.9844598,30.5618551 27.9844598,30.0736466 L27.9844598,30.0736466 C27.9844598,29.4877963 27.5116789,29.0972295 26.9443417,29.0972295 L1.41416955,29.0972295 C0.846832389,29.0972295 0.374051423,29.585438 0.374051423,30.0736466 L0.374051423,30.0736466 C0.279495229,30.5618551 0.752276195,31.0500637 1.41416955,31.0500637 Z"></path>
                                    <path d="M1.41416955,35.1510155 L18.1506157,35.1510155 C18.7179529,35.1510155 19.1907339,34.6628069 19.1907339,34.1745984 L19.1907339,34.1745984 C19.1907339,33.5887481 18.7179529,33.1981813 18.1506157,33.1981813 L1.41416955,33.1981813 C0.846832389,33.1981813 0.374051423,33.6863898 0.374051423,34.1745984 L0.374051423,34.1745984 C0.279495229,34.6628069 0.752276195,35.1510155 1.41416955,35.1510155 Z"></path>
                                    <path d="M8.50588404,39.2519673 L26.8497855,39.2519673 C27.4171227,39.2519673 27.8899036,38.7637587 27.8899036,38.2755502 L27.8899036,38.2755502 C27.8899036,37.6896999 27.4171227,37.2991331 26.8497855,37.2991331 L8.50588404,37.2991331 C7.93854688,37.2991331 7.46576591,37.7873416 7.46576591,38.2755502 L7.46576591,38.2755502 C7.46576591,38.8614004 7.93854688,39.2519673 8.50588404,39.2519673 Z"></path>
                                    <path d="M1.41416955,39.2519673 L5.19641728,39.2519673 C5.76375444,39.2519673 6.2365354,38.7637587 6.2365354,38.2755502 L6.2365354,38.2755502 C6.2365354,37.6896999 5.76375444,37.2991331 5.19641728,37.2991331 L1.41416955,37.2991331 C0.846832389,37.2991331 0.374051423,37.7873416 0.374051423,38.2755502 L0.374051423,38.2755502 C0.279495229,38.8614004 0.752276195,39.2519673 1.41416955,39.2519673 Z"></path>
                                    <path d="M23.0675378,47.4538709 L26.8497855,47.4538709 C27.4171227,47.4538709 27.8899036,46.9656623 27.8899036,46.4774538 L27.8899036,46.4774538 C27.8899036,45.8916035 27.4171227,45.5010367 26.8497855,45.5010367 L23.0675378,45.5010367 C22.5002006,45.5010367 22.0274197,45.9892452 22.0274197,46.4774538 L22.0274197,46.4774538 C22.0274197,47.063304 22.5002006,47.4538709 23.0675378,47.4538709 Z"></path>
                                    <path d="M1.41416955,43.3529191 L26.9443417,43.3529191 C27.5116789,43.3529191 27.9844598,42.8647105 27.9844598,42.376502 L27.9844598,42.376502 C27.9844598,41.7906517 27.5116789,41.4000849 26.9443417,41.4000849 L1.41416955,41.4000849 C0.846832389,41.4000849 0.374051423,41.8882934 0.374051423,42.376502 L0.374051423,42.376502 C0.279495229,42.9623522 0.752276195,43.3529191 1.41416955,43.3529191 Z"></path>
                                    <path d="M1.41416955,47.4538709 L19.1907339,47.4538709 C19.758071,47.4538709 20.230852,46.9656623 20.230852,46.4774538 L20.230852,46.4774538 C20.230852,45.8916035 19.758071,45.5010367 19.1907339,45.5010367 L1.41416955,45.5010367 C0.846832389,45.5010367 0.374051423,45.9892452 0.374051423,46.4774538 L0.374051423,46.4774538 C0.279495229,47.063304 0.752276195,47.4538709 1.41416955,47.4538709 Z"></path>
                                </g>
                            </g>
                        </g>
                        <g id="Group" transform="translate(12.820532, 0.450654)">
                            <polygon id="Shape" fill="#2AB1FD" points="0.189112386 9.28784675 6.14615256 40.9237607 30.4470942 36.5298837 35.6476848 30.378456 30.825319 2.94113562"></polygon>
                            <polygon id="Shape" fill="#67CBFC" points="30.4470942 36.5298837 30.6362066 28.6209052 35.5531286 30.378456"></polygon>
                            <g transform="translate(4.259202, 10.264264)" id="Shape" fill="#FFFFFF">
                                <path d="M0.846832389,5.56557745 C0.563163809,5.56557745 0.374051423,5.37029403 0.374051423,5.17501061 C0.279495229,4.88208548 0.468607616,4.58916035 0.752276195,4.58916035 L22.3110882,0.0976417096 C22.5947568,-5.38458167e-15 22.8784254,0.195283419 22.8784254,0.488208548 C22.9729816,0.781133677 22.7838692,1.07405881 22.5002006,1.07405881 L0.941388582,5.56557745 C0.941388582,5.56557745 0.941388582,5.56557745 0.846832389,5.56557745 Z"></path>
                                <path d="M12.1935756,7.1278448 C11.909907,7.1278448 11.7207946,6.93256138 11.7207946,6.73727796 C11.6262384,6.44435283 11.8153508,6.1514277 12.0990194,6.1514277 L23.162094,3.90566838 C23.4457626,3.80802667 23.7294311,4.00331009 23.7294311,4.29623522 C23.8239873,4.58916035 23.634875,4.88208548 23.3512064,4.88208548 L12.2881318,7.1278448 C12.2881318,7.1278448 12.2881318,7.1278448 12.1935756,7.1278448 Z"></path>
                                <path d="M1.69783813,9.37360412 C1.41416955,9.37360412 1.22505716,9.1783207 1.22505716,8.98303728 C1.13050097,8.69011215 1.31961335,8.39718702 1.60328193,8.39718702 L7.93854688,7.1278448 C8.22221546,7.03020309 8.50588404,7.22548651 8.50588404,7.51841164 C8.60044023,7.81133677 8.41132785,8.1042619 8.12765927,8.1042619 L1.79239432,9.37360412 C1.79239432,9.37360412 1.79239432,9.37360412 1.69783813,9.37360412 Z"></path>
                                <path d="M20.1362958,16.6967323 C19.8526272,16.6967323 19.6635148,16.5014489 19.6635148,16.3061655 C19.5689586,16.0132404 19.758071,15.7203152 20.0417396,15.7203152 L25.620555,14.5486147 C25.9042236,14.450973 26.1878922,14.6462564 26.1878922,14.9391816 C26.2824484,15.2321067 26.093336,15.5250318 25.8096674,15.5250318 L20.230852,16.6967323 C20.230852,16.6967323 20.230852,16.6967323 20.1362958,16.6967323 Z"></path>
                                <path d="M10.7752327,18.6495665 C10.4915641,18.6495665 10.3024517,18.4542831 10.3024517,18.2589997 C10.2078955,17.9660746 10.3970079,17.6731494 10.6806765,17.6731494 L17.0159414,16.4038072 C17.29961,16.3061655 17.5832786,16.5014489 17.5832786,16.794374 C17.6778348,17.0872992 17.4887224,17.3802243 17.2050538,17.3802243 L10.8697889,18.6495665 L10.7752327,18.6495665 Z"></path>
                                <path d="M4.25085534,20.0165505 C3.96718676,20.0165505 3.77807438,19.821267 3.77807438,19.6259836 C3.68351818,19.3330585 3.87263057,19.0401334 4.15629915,19.0401334 L8.03310307,18.2589997 C8.31677165,18.161358 8.60044023,18.3566414 8.60044023,18.6495665 C8.69499642,18.9424917 8.50588404,19.2354168 8.22221546,19.2354168 L4.34541154,20.0165505 L4.25085534,20.0165505 Z"></path>
                                <path d="M21.7437511,8.59247044 C21.4600825,8.59247044 21.2709701,8.39718702 21.2709701,8.20190361 C21.1764139,7.90897848 21.3655263,7.61605335 21.6491949,7.61605335 L24.1076559,7.1278448 C24.3913245,7.03020309 24.6749931,7.22548651 24.6749931,7.51841164 C24.7695493,7.81133677 24.5804369,8.1042619 24.2967683,8.1042619 L21.8383073,8.59247044 C21.8383073,8.59247044 21.8383073,8.59247044 21.7437511,8.59247044 Z"></path>
                                <path d="M9.45144597,11.1311549 C9.16777739,11.1311549 8.978665,10.9358715 8.978665,10.7405881 C8.88410881,10.4476629 9.0732212,10.1547378 9.35688978,10.1547378 L17.4887224,8.49482873 C17.772391,8.39718702 18.0560596,8.59247044 18.0560596,8.88539557 C18.1506157,9.1783207 17.9615034,9.47124583 17.6778348,9.47124583 L9.54600216,11.1311549 L9.45144597,11.1311549 Z"></path>
                                <path d="M2.64340006,12.4981388 C2.35973148,12.4981388 2.17061909,12.3028554 2.17061909,12.107572 C2.0760629,11.8146469 2.26517529,11.5217217 2.54884387,11.5217217 L4.34541154,11.1311549 C4.62908012,11.0335132 4.9127487,11.2287966 4.9127487,11.5217217 C5.00730489,11.8146469 4.8181925,12.107572 4.53452392,12.107572 L2.73795625,12.4981388 C2.73795625,12.4981388 2.73795625,12.4981388 2.64340006,12.4981388 Z"></path>
                                <path d="M13.9901432,14.1580479 C13.7064747,14.1580479 13.5173623,13.9627645 13.5173623,13.7674811 C13.4228061,13.4745559 13.6119185,13.1816308 13.8955871,13.1816308 L24.9586617,10.9358715 C25.2423302,10.8382298 25.5259988,11.0335132 25.5259988,11.3264383 C25.620555,11.6193634 25.4314426,11.9122886 25.147774,11.9122886 L14.0846994,14.1580479 C14.0846994,14.1580479 14.0846994,14.1580479 13.9901432,14.1580479 Z"></path>
                                <path d="M3.4944058,16.3061655 C3.21073722,16.3061655 3.02162483,16.1108821 3.02162483,15.9155987 C2.92706864,15.6226735 3.11618103,15.3297484 3.39984961,15.3297484 L9.73511455,14.0604062 C10.0187831,13.9627645 10.3024517,14.1580479 10.3024517,14.450973 C10.3970079,14.7438981 10.2078955,15.0368233 9.92422694,15.0368233 L3.58896199,16.3061655 L3.4944058,16.3061655 Z"></path>
                            </g>
                            <path d="M10.0229565,22.1765524 C8.320945,22.1765524 6.9026021,21.0048519 6.42982114,19.3449428 L3.02579818,6.26095375 C2.93124199,5.96802862 3.12035438,5.67510349 3.40402296,5.57746178 C3.68769154,5.47982007 3.97136011,5.67510349 4.06591631,5.96802862 L7.46993926,19.0520177 C7.84816404,20.5166434 9.26650693,21.3954187 10.6848498,21.1024936 C11.4412994,20.9072102 12.0086365,20.5166434 12.3868613,19.8331514 C12.7650861,19.1496594 12.8596423,18.3685257 12.6705299,17.6850338 L8.69916978,2.45292708 C8.51005739,1.76943511 7.84816404,1.37886827 7.18627068,1.47650998 L6.52437733,1.6717934 C5.86248398,1.86707682 5.38970301,2.55056879 5.5788154,3.23406075 L6.71348972,8.11614623 C6.80804591,8.40907136 6.61893352,8.70199649 6.33526495,8.7996382 C6.05159637,8.89727991 5.76792779,8.70199649 5.67337159,8.40907136 L4.53869727,3.52698588 C4.25502869,2.25764366 5.01147824,0.988301433 6.24070875,0.695376304 L6.9026021,0.500092885 C8.13183262,0.207167756 9.36106313,0.988301433 9.64473171,2.16000195 L13.6160918,17.3921086 C13.8997604,18.4661674 13.710648,19.4425845 13.237867,20.4190016 C12.7650861,21.3954187 11.8195242,21.981269 10.8739622,22.1765524 C10.5902936,22.1765524 10.3066251,22.1765524 10.0229565,22.1765524 Z" id="Shape" fill="#35353B"></path>
                        </g>
                        <g id="Group" transform="translate(51.119964, 11.691335)">
                            <path d="M4.43996773,14.450973 C4.43996773,14.450973 10.7752327,18.2589997 19.6635148,14.7438981 L18.1506157,6.93256138 L11.5316822,5.76086087 L5.76375444,9.1783207 L4.43996773,14.450973 Z" id="Shape" fill="#35353B"></path>
                            <g transform="translate(0.000000, 1.452741)" id="Shape">
                                <path d="M4.53452392,16.7086167 C5.00730489,16.4156915 5.57464205,16.2204081 6.14197921,16.0251247 L8.88410881,15.243991 L9.0732212,15.1463493 L9.16777739,15.1463493 L9.26233358,15.1463493 L11.8153508,14.3652156 L14.368368,14.9510659 L14.368368,15.1463493 L14.368368,15.1463493 L14.4629242,15.1463493 L14.4629242,15.1463493 L14.841149,15.243991 L17.3941662,16.1227664 C17.9615034,16.3180498 18.5288405,16.610975 19.0016215,16.9039001 C21.3655263,18.3685257 22.8784254,21.1024936 22.8784254,24.0317449 L22.7838692,27.351563 C22.7838692,27.7421299 22.5002006,28.035055 22.1219759,28.035055 L0.846832389,27.6444882 C0.468607616,27.6444882 0.184939036,27.351563 0.184939036,26.9609962 L0.279495229,23.6411781 C0.468607616,20.8095685 2.0760629,18.0756006 4.53452392,16.7086167 Z" fill="#E5E9F2"></path>
                                <path d="M5.66919824,7.8232211 C5.76375444,7.13972914 6.42564779,7.23737085 6.52020398,7.33501256 L6.52020398,6.7491623 C6.61476017,3.23406075 9.0732212,0.402451175 12.0044632,0.402451175 C15.0302614,0.500092885 17.3941662,3.33170246 17.29961,6.94444572 L17.29961,7.53029598 C17.3941662,7.53029598 18.1506157,7.33501256 18.1506157,8.01850452 C18.2451719,8.7996382 17.0159414,10.3619056 16.5431605,10.0689804 L16.5431605,10.0689804 C16.0703795,11.0453975 15.3139299,11.9241729 14.368368,12.5100232 L14.2738118,15.3416327 L14.2738118,15.3416327 C13.8955871,16.4156915 12.5718003,18.7590926 11.6262384,18.7590926 C10.6806765,18.7590926 9.45144597,16.3180498 9.16777739,15.243991 L9.16777739,15.243991 L9.26233358,12.4123815 C8.41132785,11.8265312 7.6548783,10.9477558 7.18209733,9.97133872 C6.70931637,10.1666221 5.57464205,8.60435478 5.66919824,7.8232211 Z" fill="#E9D6B8"></path>
                            </g>
                            <path d="M13.0445813,0.0976417096 L12.8554689,0.0976417096 L12.5718003,0.0976417096 L12.5718003,0.0976417096 L12.1935756,0.0976417096 C9.73511455,0.0976417096 7.56032211,1.65990906 6.89842875,2.83160958 C3.77807438,6.63963625 3.4944058,12.9863474 3.4944058,12.9863474 C4.25085534,15.6226735 8.31677165,17.5755077 8.31677165,17.5755077 C6.70931637,12.107572 7.37120972,6.54199454 7.37120972,6.54199454 L7.74943449,6.05378599 C8.60044023,5.17501061 10.5861203,3.90566838 10.5861203,3.90566838 C10.5861203,3.90566838 14.1792556,9.08067899 17.29961,9.86181267 C17.2050538,12.0099303 16.9213852,14.9391816 15.9758233,17.7707911 C15.9758233,17.7707911 20.1362958,16.0132404 20.9873015,13.3769142 C20.8927453,13.1816308 20.7981892,1.07405881 13.0445813,0.0976417096 Z" id="Shape" fill="#35353B"></path>
                        </g>
                    </g>
                </g>
                <g id="Group-7" transform="translate(179.000000, 0.000000)">
                    <ellipse id="Oval-2" stroke="#2AB1FD" stroke-width="3" stroke-dasharray="5" cx="27.5" cy="27.5" rx="27.5" ry="27.5"></ellipse>
                    <text id="2" font-family="Rubik-Medium, Rubik" font-size="40" font-weight="400" fill="#2AB1FD">
                        <tspan x="16.26" y="41">2</tspan>
                    </text>
                </g>
            </g>
        </g>
    </g>
</svg>