<?xml version="1.0" encoding="UTF-8"?>
<svg width="120px" height="120px" viewBox="0 0 120 120" version="1.1" xmlns="http://www.w3.org/2000/svg" xmlns:xlink="http://www.w3.org/1999/xlink">
    <!-- Generator: Sketch 43.1 (39012) - http://www.bohemiancoding.com/sketch -->
    <title>img_prov_5</title>
    <desc>Created with Sketch.</desc>
    <defs></defs>
    <g id="Page-7" stroke="none" stroke-width="1" fill="none" fill-rule="evenodd">
        <g id="img_prov_5">
            <rect id="Rectangle" fill-opacity="0.01" fill="#D8D8D8" x="-7.20296754e-15" y="0" width="120" height="120"></rect>
            <g id="speed-meter" transform="translate(20.000000, 32.000000)" fill-rule="nonzero" fill="#FFFFFF">
                <path d="M22.8652529,19.3957586 C22.8818271,19.1393148 22.7956933,18.8865253 22.6260359,18.6935073 L14.9470799,9.95732463 C14.7774225,9.76430669 14.5379445,9.64659054 14.2812398,9.63001631 C14.023491,9.61357259 13.7720065,9.69957586 13.5789886,9.86923328 C10.0505057,12.970832 7.12169657,16.628646 4.87347471,20.7410114 C4.75027732,20.9666558 4.72143556,21.2319739 4.79373573,21.4784992 C4.86603589,21.725155 5.03334421,21.9330506 5.25898858,22.056248 L15.4651876,27.635106 C15.6127896,27.7158891 15.772137,27.7541272 15.9293964,27.7541272 C16.2722349,27.7541272 16.604633,27.5716803 16.7806852,27.2495922 C18.2666232,24.5314192 20.2037194,22.1130179 22.537814,20.0613377 C22.7312235,19.8919413 22.8489396,19.6524633 22.8652529,19.3957586 Z" id="Shape"></path>
                <path d="M26.2919413,16.1603915 C26.4660359,16.4886134 26.8018271,16.6756281 27.1491028,16.6756281 C27.3023165,16.6756281 27.4577488,16.639217 27.6023491,16.5624796 C30.3380098,15.1116476 33.2809135,14.1649592 36.3494943,13.748646 C36.8798695,13.6767374 37.2516803,13.188385 37.1797716,12.6578793 L35.6164437,1.13213703 C35.5445351,0.601761827 35.0547471,0.230473083 34.525677,0.301859706 C29.8655791,0.933898858 25.3969331,2.37128874 21.2438499,4.57409462 C20.7710277,4.82492659 20.5910604,5.41141925 20.8416313,5.88450245 L26.2919413,16.1603915 Z" id="Shape"></path>
                <path d="M13.8055465,31.7579119 L2.57983687,28.7121697 C2.33174551,28.6450897 2.06707993,28.6788907 1.84404568,28.8067863 C1.62101142,28.9346819 1.45800979,29.1458401 1.39053834,29.3939315 C0.467993475,32.7954323 0,36.3209135 0,39.8724959 C0,40.480261 0.0144861338,41.0899837 0.0446329527,41.7366395 C0.068776509,42.2561827 0.497226754,42.6610114 1.01220228,42.6610114 C1.02734095,42.6610114 1.04274062,42.6607504 1.05787928,42.6599674 L12.6769331,42.1231974 C12.9336378,42.1114519 13.1754649,41.9979119 13.348385,41.8080261 C13.5215661,41.6181403 13.6122675,41.3669168 13.600261,41.1102121 C13.5800326,40.6741925 13.5702447,40.2692333 13.5702447,39.8724959 C13.5702447,37.520783 13.8788907,35.1908646 14.4875693,32.9470799 C14.6273409,32.4305383 14.3220881,31.8982055 13.8055465,31.7579119 Z" id="Shape"></path>
                <path d="M57.2569005,3.88189233 C53.0270799,1.84274062 48.5077977,0.579053834 43.8246003,0.125154976 C43.5672431,0.099314845 43.313279,0.178401305 43.1147798,0.341663948 C42.9162806,0.505057096 42.7909951,0.740489396 42.766199,0.996541599 L41.6447635,12.5739641 C41.5930832,13.1066884 41.9832953,13.5805546 42.5161501,13.6321044 C45.6028711,13.931093 48.5798369,14.7634584 51.3644372,16.1057096 C51.4969005,16.1696574 51.6408483,16.2020228 51.7853181,16.2020228 C51.8931158,16.2020228 52.0011746,16.1838825 52.1050571,16.1477325 C52.3476672,16.0630343 52.5468189,15.885155 52.6584013,15.6536378 L57.7089723,5.17572594 C57.9416639,4.69363785 57.7392496,4.1141925 57.2569005,3.88189233 Z" id="Shape"></path>
                <path d="M74.3415334,20.1418597 C74.4041762,19.8924633 74.3655465,19.6287113 74.2334747,19.4078956 C71.8279935,15.383752 68.7609788,11.840783 65.1179119,8.87791191 C64.9183687,8.71582382 64.663752,8.63986949 64.4070473,8.66557912 C64.1513866,8.69207178 63.9166069,8.81879282 63.7545188,9.01820555 L56.4152692,18.0418923 C56.2531811,18.2414356 56.1767047,18.4970962 56.2031974,18.7527569 C56.229429,19.0084176 56.3562806,19.2431974 56.5558238,19.4055465 C58.9662643,21.3656117 60.9949755,23.7089723 62.5858401,26.3705057 C62.7675041,26.674062 63.0889396,26.8426754 63.4188581,26.8426754 C63.588124,26.8426754 63.759478,26.7983034 63.9151713,26.7051223 L73.8989886,20.7373573 C74.1194127,20.605416 74.2786297,20.3912561 74.3415334,20.1418597 Z" id="Shape"></path>
                <path d="M78.0481566,27.920261 C77.8878956,27.4093312 77.3438173,27.1246982 76.8334095,27.2850897 L65.7341599,30.7628059 C65.22323,30.9228059 64.9389886,31.4666232 65.0989886,31.977292 C65.8955954,34.5203263 66.2995106,37.176509 66.2995106,39.8721044 C66.2995106,40.2689723 66.2895922,40.6739315 66.2694943,41.1098206 C66.2574878,41.3665253 66.3480587,41.6177488 66.5213703,41.8076346 C66.6945514,41.9976509 66.9361175,42.1110604 67.1928222,42.1228059 L78.811876,42.6595759 C78.8272757,42.6602284 78.8424144,42.6606199 78.857553,42.6606199 C79.3722675,42.6606199 79.8008483,42.2556607 79.8251223,41.736248 C79.8550082,41.0895922 79.8697553,40.4798695 79.8697553,39.8721044 C79.8694943,35.7984992 79.2569005,31.7773573 78.0481566,27.920261 Z" id="Shape"></path>
                <path d="M39.9004241,37.8146819 C39.7332463,37.8146819 39.5669821,37.8201631 39.4013703,37.8290375 L23.6558564,28.5389886 C23.2704731,28.3112561 22.7812072,28.3682871 22.4583361,28.6779772 C22.1352039,28.9874062 22.0576835,29.4739315 22.2683197,29.8683197 L30.857553,45.9668515 C30.8259706,46.2769331 30.8091354,46.5900163 30.8091354,46.9058401 C30.8091354,49.3342904 31.7547798,51.6172268 33.4718434,53.3342904 C35.1890375,55.0514845 37.4721044,55.9971289 39.9005546,55.9971289 C42.3290049,55.9971289 44.6119413,55.0512235 46.3290049,53.3342904 C48.046199,51.6172268 48.9917129,49.3342904 48.9917129,46.9058401 C48.9917129,44.4773899 48.0460685,42.1944535 46.3290049,40.4773899 C44.6119413,38.7603263 42.3287439,37.8146819 39.9004241,37.8146819 Z" id="Shape"></path>
            </g>
        </g>
    </g>
</svg>